<svg width="43" height="42" viewBox="0 0 43 42" fill="none" xmlns="http://www.w3.org/2000/svg">
<path d="M39.5195 24.2061V20.2539C39.5195 18.5666 39.5176 17.0982 39.4922 15.8086H18.7725C17.954 15.8086 17.29 15.1446 17.29 14.3262C17.2901 13.5077 17.954 12.8447 18.7725 12.8447H39.3545C39.3228 12.4709 39.2884 12.1166 39.2432 11.7803C38.9756 9.79261 38.4739 8.64652 37.6377 7.80957C36.8021 6.97327 35.6569 6.47245 33.6689 6.20508C31.6384 5.93198 28.9618 5.92871 25.1943 5.92871H17.29C13.5229 5.92871 10.8466 5.93179 8.81641 6.20508C6.82874 6.47267 5.68265 6.97431 4.8457 7.81055C4.0094 8.64614 3.50761 9.79133 3.24023 11.7793C3.19497 12.1159 3.16056 12.4706 3.12891 12.8447H9.13965C9.95795 12.8449 10.6211 13.5078 10.6211 14.3262C10.6211 15.1445 9.95797 15.8084 9.13965 15.8086H2.99121C2.96598 17.0982 2.96484 18.5667 2.96484 20.2539V24.2061C2.96484 27.9731 2.96794 30.6495 3.24121 32.6797C3.5088 34.6673 4.01047 35.8134 4.84668 36.6504C5.68228 37.4867 6.82746 37.9885 8.81543 38.2559C10.846 38.5289 13.5227 38.5322 17.29 38.5322H25.1943C26.0126 38.5324 26.6757 39.1954 26.6758 40.0137C26.6758 40.8321 26.0127 41.4959 25.1943 41.4961H17.29C13.6063 41.4961 10.694 41.4992 8.41992 41.1934C6.10331 40.8818 4.22823 40.2246 2.75 38.7451C1.27247 37.2663 0.615563 35.3916 0.303711 33.0752C-0.00235471 30.8014 5.41094e-07 27.8898 5.41094e-07 24.2061V20.2539C4.66212e-07 18.172 0.00230459 16.3367 0.0566412 14.7236C0.0214161 14.597 5.41094e-07 14.464 5.41094e-07 14.3262C7.302e-06 14.1441 0.0356562 13.9707 0.0957037 13.8096C0.140545 12.9306 0.203283 12.1232 0.302735 11.3838C0.614331 9.06721 1.27149 7.19209 2.75098 5.71387C4.22985 4.2363 6.10445 3.57943 8.4209 3.26758C8.8807 3.20568 9.36682 3.15934 9.87988 3.12012V1.48242C9.87988 0.663948 10.5438 0 11.3623 0C12.1808 1.80336e-05 12.8447 0.663959 12.8447 1.48242V2.99023C14.1833 2.96435 15.6611 2.96484 17.29 2.96484H25.1943C26.8231 2.96484 28.301 2.96448 29.6396 2.99023V1.48242C29.6396 0.663948 30.3036 0 31.1221 0C31.9405 5.35837e-05 32.6035 0.663981 32.6035 1.48242V3.11914C33.1172 3.15832 33.6042 3.20567 34.0645 3.26758C36.381 3.57918 38.2562 4.2354 39.7344 5.71484C41.212 7.19372 41.8688 9.06831 42.1807 11.3848C42.4868 13.6586 42.4834 16.5701 42.4834 20.2539V24.2061C42.4834 27.8898 42.4865 30.8021 42.1807 33.0762C41.8692 35.3923 41.2121 37.2661 39.7334 38.7441L39.7344 38.7451C38.0847 40.3972 35.9414 41.0234 33.2422 41.2871C32.4276 41.3667 31.7026 40.7707 31.623 39.9561C31.5437 39.1416 32.1396 38.4165 32.9541 38.3369C35.3921 38.0987 36.7069 37.5836 37.6377 36.6514L37.6387 36.6494C38.4749 35.8138 38.9758 34.6685 39.2432 32.6807C39.5162 30.6501 39.5195 27.9734 39.5195 24.2061Z" fill="#31151F"/>
<path d="M11.3623 32.1096C10.9038 32.1095 10.4619 31.9504 10.1104 31.6624L9.96582 31.5315C9.64159 31.2073 9.44141 30.7817 9.39648 30.3293L9.38672 30.134C9.38672 29.6756 9.54606 29.2336 9.83398 28.8821L9.96582 28.7366C10.3363 28.3663 10.8385 28.1585 11.3623 28.1584L11.5576 28.1672C12.01 28.2121 12.4354 28.4123 12.7598 28.7366C13.1303 29.1071 13.3389 29.61 13.3389 30.134L13.3291 30.3293C13.2842 30.7817 13.084 31.2073 12.7598 31.5315L12.6152 31.6624C12.2636 31.9506 11.821 32.1096 11.3623 32.1096ZM21.2422 32.1096C20.7837 32.1095 20.3418 31.9504 19.9902 31.6624L19.8457 31.5315C19.5215 31.2073 19.3213 30.7817 19.2764 30.3293L19.2666 30.134C19.2666 29.6756 19.4259 29.2336 19.7139 28.8821L19.8457 28.7366C20.2162 28.3663 20.7184 28.1585 21.2422 28.1584L21.4375 28.1672C21.8899 28.2121 22.3153 28.4123 22.6396 28.7366C23.0102 29.1071 23.2188 29.61 23.2188 30.134L23.209 30.3293C23.1641 30.7817 22.9639 31.2073 22.6396 31.5315L22.4951 31.6624C22.1435 31.9506 21.7008 32.1096 21.2422 32.1096ZM31.1221 32.1096C30.6636 32.1095 30.2217 31.9504 29.8701 31.6624L29.7256 31.5315C29.4014 31.2073 29.2012 30.7817 29.1562 30.3293L29.1465 30.134C29.1465 29.6756 29.3058 29.2336 29.5938 28.8821L29.7256 28.7366C30.096 28.3663 30.5983 28.1585 31.1221 28.1584L31.3174 28.1672C31.7698 28.2121 32.1952 28.4123 32.5195 28.7366C32.8901 29.1071 33.0986 29.61 33.0986 30.134L33.0889 30.3293C33.0439 30.7817 32.8438 31.2073 32.5195 31.5315L32.375 31.6624C32.0233 31.9506 31.5807 32.1096 31.1221 32.1096ZM11.167 24.1965C10.7795 24.158 10.4116 24.0058 10.1104 23.759L9.96582 23.6272C9.59525 23.2566 9.38672 22.7538 9.38672 22.2297C9.38681 21.7714 9.54601 21.3293 9.83398 20.9778L9.96582 20.8333C10.3363 20.4628 10.8384 20.2543 11.3623 20.2542C11.8864 20.2542 12.3892 20.4627 12.7598 20.8333C13.1302 21.2037 13.3388 21.7059 13.3389 22.2297L13.3291 22.425C13.2843 22.8775 13.0841 23.3029 12.7598 23.6272C12.3892 23.9978 11.8864 24.2063 11.3623 24.2063L11.167 24.1965ZM21.0469 24.1965C20.6594 24.158 20.2915 24.0058 19.9902 23.759L19.8457 23.6272C19.5214 23.3029 19.3212 22.8775 19.2764 22.425L19.2666 22.2297C19.2667 21.7713 19.4259 21.3293 19.7139 20.9778L19.8457 20.8333C20.2162 20.4628 20.7183 20.2542 21.2422 20.2542C21.7662 20.2542 22.2691 20.4627 22.6396 20.8333C23.01 21.2037 23.2186 21.7059 23.2188 22.2297L23.209 22.425C23.1641 22.8775 22.964 23.3029 22.6396 23.6272C22.2691 23.9978 21.7662 24.2063 21.2422 24.2063L21.0469 24.1965ZM30.9268 24.1965C30.5392 24.158 30.1714 24.0058 29.8701 23.759L29.7256 23.6272C29.4013 23.3029 29.2011 22.8775 29.1562 22.425L29.1465 22.2297C29.1466 21.7713 29.3058 21.3293 29.5938 20.9778L29.7256 20.8333C30.0961 20.4628 30.5981 20.2542 31.1221 20.2542C31.6461 20.2542 32.149 20.4627 32.5195 20.8333C32.8899 21.2037 33.0985 21.7059 33.0986 22.2297L33.0889 22.425C33.044 22.8775 32.8438 23.3029 32.5195 23.6272C32.149 23.9978 31.6461 24.2063 31.1221 24.2063L30.9268 24.1965Z" fill="#31151F"/>
</svg>
