<svg width="149" height="151" viewBox="0 0 149 151" fill="none" xmlns="http://www.w3.org/2000/svg">
<path d="M22.5391 17.0237C22.5391 8.83474 29.1775 2.19629 37.3665 2.19629H131.822C140.011 2.19629 146.65 8.83474 146.65 17.0237V17.0237C146.65 25.2126 140.011 31.8511 131.822 31.8511H37.3664C29.1775 31.8511 22.5391 25.2126 22.5391 17.0237V17.0237Z" fill="#FDD000"/>
<path d="M20.3398 17.0234C20.34 7.62151 27.9614 0.000131428 37.3633 0V2.19629C29.1745 2.19642 22.5363 8.83469 22.5361 17.0234C22.5361 25.2123 29.1744 31.8505 37.3633 31.8506H131.819C140.008 31.8506 146.646 25.2124 146.646 17.0234C146.646 8.83461 140.008 2.19629 131.819 2.19629V0C141.221 0 148.844 7.62143 148.844 17.0234C148.844 26.4256 141.221 34.0479 131.819 34.0479H37.3633C27.9613 34.0477 20.3398 26.4255 20.3398 17.0234ZM131.819 0V2.19629H37.3633V0H131.819Z" fill="white"/>
<path d="M84.606 40.3738L86.8184 22.7184L99.8876 31.2588L84.606 40.3738Z" fill="#FDD000"/>
<path d="M85.0776 18.9557L104.035 31.3441L81.8688 44.5653L85.0776 18.9557ZM99.8891 31.2584L86.8199 22.718L84.6077 40.3741L99.8891 31.2584Z" fill="white"/>
<path d="M22.5391 17.0237C22.5391 8.83474 29.1775 2.19629 37.3665 2.19629H131.822C140.011 2.19629 146.65 8.83474 146.65 17.0237V17.0237C146.65 25.2126 140.011 31.8511 131.822 31.8511H37.3664C29.1775 31.8511 22.5391 25.2126 22.5391 17.0237V17.0237Z" fill="#E5005A"/>
<path d="M84.606 40.3738L86.8184 22.7184L99.8876 31.2588L84.606 40.3738Z" fill="#E5005A"/>
<path d="M133.8 19.1948L133.433 14.5464L133.365 12.5212L135.621 12.5212L135.553 14.5464L135.186 19.1948L133.8 19.1948ZM134.493 22.8102C134.149 22.8102 133.863 22.6969 133.637 22.4704C133.41 22.2439 133.297 21.9585 133.297 21.6141C133.297 21.2608 133.41 20.9708 133.637 20.7443C133.863 20.5177 134.149 20.4045 134.493 20.4045C134.837 20.4045 135.123 20.5177 135.349 20.7443C135.576 20.9708 135.689 21.2608 135.689 21.6141C135.689 21.9585 135.576 22.2439 135.349 22.4704C135.123 22.6969 134.837 22.8102 134.493 22.8102Z" fill="white"/>
<path d="M118.646 11.7466C118.972 11.8463 119.38 11.9505 119.869 12.0592C120.358 12.1679 120.87 12.2767 121.405 12.3854C121.94 12.4851 122.443 12.5711 122.914 12.6436C123.394 12.7161 123.784 12.7705 124.083 12.8067L123.675 14.4649C123.403 14.4287 123.072 14.3789 122.683 14.3154C122.302 14.2429 121.894 14.1659 121.459 14.0844C121.034 14.0028 120.612 13.9213 120.195 13.8397C119.779 13.7491 119.398 13.663 119.054 13.5815C118.709 13.4999 118.428 13.432 118.211 13.3776L118.646 11.7466ZM118.727 14.4785C118.682 14.6598 118.632 14.8953 118.578 15.1853C118.533 15.4662 118.487 15.7607 118.442 16.0688C118.397 16.3768 118.351 16.6713 118.306 16.9522C118.27 17.2331 118.238 17.4687 118.211 17.659C118.827 17.215 119.47 16.8888 120.141 16.6804C120.821 16.472 121.514 16.3678 122.221 16.3678C123.018 16.3678 123.698 16.5128 124.259 16.8027C124.821 17.0927 125.247 17.4733 125.537 17.9444C125.836 18.4156 125.985 18.9276 125.985 19.4803C125.985 20.0965 125.854 20.6673 125.591 21.1929C125.329 21.7184 124.898 22.1669 124.3 22.5385C123.702 22.91 122.918 23.1727 121.949 23.3268C120.979 23.4808 119.788 23.4989 118.374 23.3811L117.858 21.6006C119.217 21.7818 120.358 21.809 121.283 21.6822C122.207 21.5463 122.905 21.2835 123.376 20.8938C123.856 20.4952 124.096 20.0104 124.096 19.4395C124.096 19.1405 124.01 18.8777 123.838 18.6512C123.666 18.4156 123.426 18.2344 123.118 18.1075C122.81 17.9716 122.461 17.9037 122.071 17.9037C121.31 17.9037 120.594 18.0441 119.924 18.325C119.262 18.5968 118.718 18.991 118.293 19.5075C118.175 19.6525 118.075 19.7884 117.993 19.9152C117.921 20.033 117.853 20.1599 117.79 20.2958L116.227 19.9016C116.281 19.6389 116.335 19.3308 116.39 18.9774C116.444 18.615 116.498 18.2299 116.553 17.8221C116.607 17.4053 116.657 16.9885 116.702 16.5717C116.748 16.1548 116.788 15.7426 116.825 15.3348C116.861 14.9271 116.888 14.5555 116.906 14.2203L118.727 14.4785Z" fill="white"/>
<path d="M106.673 11.8552C106.601 12.0908 106.537 12.3264 106.483 12.562C106.438 12.7885 106.392 13.0151 106.347 13.2416C106.302 13.4591 106.247 13.7082 106.184 13.9891C106.13 14.27 106.066 14.5691 105.994 14.8862C105.93 15.1943 105.858 15.5069 105.776 15.824C105.704 16.1412 105.627 16.4538 105.545 16.7619C105.464 17.0609 105.387 17.3372 105.314 17.591C105.867 17.2829 106.415 17.0654 106.959 16.9386C107.502 16.8026 108.078 16.7347 108.685 16.7347C109.419 16.7347 110.058 16.857 110.601 17.1017C111.154 17.3463 111.58 17.6861 111.879 18.121C112.187 18.556 112.341 19.0634 112.341 19.6433C112.341 20.4045 112.164 21.0478 111.811 21.5734C111.467 22.0989 110.968 22.5112 110.316 22.8102C109.672 23.1092 108.898 23.2995 107.992 23.3811C107.095 23.4626 106.098 23.4445 105.001 23.3267L104.526 21.5734C105.269 21.7002 105.994 21.7636 106.7 21.7636C107.416 21.7636 108.06 21.6957 108.63 21.5598C109.201 21.4238 109.654 21.2064 109.99 20.9074C110.334 20.5993 110.506 20.1961 110.506 19.6977C110.506 19.2899 110.334 18.9411 109.99 18.6511C109.645 18.3521 109.142 18.2026 108.481 18.2026C107.693 18.2026 106.968 18.3385 106.306 18.6103C105.654 18.8822 105.124 19.2763 104.716 19.7928C104.653 19.8925 104.589 19.9876 104.526 20.0783C104.471 20.1689 104.408 20.2731 104.335 20.3909L102.732 19.82C102.985 19.3307 103.221 18.7734 103.438 18.1482C103.656 17.523 103.851 16.8932 104.023 16.259C104.195 15.6247 104.335 15.0357 104.444 14.492C104.553 13.9393 104.63 13.4908 104.675 13.1465C104.721 12.8565 104.748 12.6118 104.757 12.4125C104.766 12.2041 104.761 11.9911 104.743 11.7737L106.673 11.8552ZM101.93 13.4455C102.365 13.518 102.836 13.5814 103.343 13.6358C103.851 13.6811 104.317 13.7037 104.743 13.7037C105.178 13.7037 105.654 13.6901 106.17 13.6629C106.696 13.6358 107.249 13.595 107.829 13.5406C108.408 13.4862 108.988 13.4183 109.568 13.3367C110.157 13.2461 110.733 13.1419 111.294 13.0241L111.322 14.6415C110.887 14.714 110.393 14.7865 109.84 14.859C109.296 14.9315 108.726 14.9995 108.128 15.0629C107.53 15.1173 106.941 15.1626 106.361 15.1988C105.781 15.2351 105.246 15.2532 104.757 15.2532C104.231 15.2532 103.728 15.2441 103.248 15.226C102.777 15.1988 102.337 15.1671 101.93 15.1308L101.93 13.4455Z" fill="white"/>
<path d="M89.8872 12.8067C90.3856 12.8611 90.9474 12.9019 91.5726 12.9291C92.1978 12.9562 92.8683 12.9698 93.5842 12.9698C94.0282 12.9698 94.4858 12.9608 94.9569 12.9426C95.4372 12.9245 95.8993 12.9019 96.3433 12.8747C96.7873 12.8475 97.1815 12.8158 97.5258 12.7795L97.5258 14.5872C97.2087 14.6144 96.8236 14.6416 96.3705 14.6688C95.9265 14.696 95.4598 14.7186 94.9705 14.7368C94.4903 14.7458 94.0327 14.7503 93.5978 14.7503C92.891 14.7503 92.2341 14.7368 91.627 14.7096C91.0199 14.6824 90.4399 14.6461 89.8872 14.6008L89.8872 12.8067ZM91.0289 18.5696C90.9655 18.8052 90.9111 19.0363 90.8658 19.2628C90.8205 19.4893 90.7979 19.7159 90.7979 19.9424C90.7979 20.3773 91.0153 20.7353 91.4503 21.0162C91.8943 21.2971 92.6056 21.4375 93.5842 21.4375C94.2003 21.4375 94.7938 21.4148 95.3647 21.3695C95.9356 21.3242 96.4747 21.2608 96.9821 21.1793C97.4986 21.0977 97.9562 21.0026 98.3549 20.8938L98.3685 22.8103C97.9698 22.9009 97.5258 22.9779 97.0365 23.0413C96.5472 23.1138 96.0171 23.1682 95.4463 23.2044C94.8845 23.2497 94.2864 23.2724 93.6521 23.2724C92.6192 23.2724 91.7538 23.1591 91.0561 22.9326C90.3584 22.7061 89.8374 22.3799 89.493 21.954C89.1487 21.5191 88.9766 20.989 88.9766 20.3638C88.9766 19.9651 89.0083 19.6026 89.0717 19.2764C89.1351 18.9502 89.194 18.6602 89.2484 18.4065L91.0289 18.5696Z" fill="white"/>
<path d="M78.6461 14.3426C79.0358 14.3788 79.4254 14.4105 79.815 14.4377C80.2137 14.4558 80.6169 14.4649 81.0247 14.4649C81.8583 14.4649 82.6874 14.4287 83.512 14.3562C84.3366 14.2837 85.0977 14.1704 85.7954 14.0164L85.7954 15.7154C85.0886 15.815 84.323 15.8966 83.4984 15.96C82.6738 16.0144 81.8493 16.0416 81.0247 16.0416C80.626 16.0416 80.2273 16.037 79.8286 16.028C79.439 16.0098 79.0448 15.9872 78.6461 15.96L78.6461 14.3426ZM83.811 12.0456C83.7929 12.1724 83.7748 12.3129 83.7566 12.4669C83.7476 12.621 83.7385 12.775 83.7295 12.929C83.7204 13.074 83.7113 13.2688 83.7023 13.5135C83.6932 13.7581 83.6887 14.0345 83.6887 14.3426C83.6887 14.6416 83.6887 14.9587 83.6887 15.294C83.6887 15.9102 83.6977 16.4901 83.7159 17.0338C83.734 17.5684 83.7566 18.0667 83.7838 18.5289C83.811 18.9819 83.8337 19.3987 83.8518 19.7793C83.879 20.1599 83.8926 20.5133 83.8926 20.8395C83.8926 21.1928 83.8427 21.519 83.743 21.8181C83.6524 22.1171 83.5029 22.3799 83.2945 22.6064C83.0861 22.8329 82.8097 23.0051 82.4654 23.1229C82.1302 23.2497 81.7179 23.3132 81.2286 23.3132C80.2862 23.3132 79.5432 23.1229 78.9995 22.7423C78.4558 22.3617 78.184 21.8135 78.184 21.0977C78.184 20.6356 78.3063 20.2324 78.551 19.888C78.7956 19.5346 79.1445 19.2628 79.5976 19.0725C80.0506 18.8732 80.5852 18.7735 81.2014 18.7735C81.8447 18.7735 82.4292 18.8415 82.9547 18.9774C83.4803 19.1133 83.9605 19.2945 84.3955 19.5211C84.8304 19.7476 85.2155 19.9968 85.5508 20.2686C85.8951 20.5314 86.2032 20.7851 86.475 21.0297L85.5372 22.4569C85.0207 21.9676 84.5178 21.5462 84.0285 21.1928C83.5392 20.8395 83.0499 20.5676 82.5606 20.3773C82.0803 20.187 81.582 20.0919 81.0655 20.0919C80.6849 20.0919 80.3723 20.1644 80.1276 20.3094C79.892 20.4544 79.7743 20.6582 79.7743 20.921C79.7743 21.1928 79.8966 21.3922 80.1412 21.519C80.3859 21.6459 80.6849 21.7093 81.0383 21.7093C81.3192 21.7093 81.5412 21.664 81.7043 21.5734C81.8674 21.4737 81.9807 21.3333 82.0441 21.1521C82.1166 20.9618 82.1528 20.7352 82.1528 20.4725C82.1528 20.2369 82.1438 19.9288 82.1256 19.5482C82.1075 19.1677 82.0849 18.7418 82.0577 18.2706C82.0395 17.7994 82.0214 17.3101 82.0033 16.8027C81.9852 16.2862 81.9761 15.7833 81.9761 15.294C81.9761 14.7775 81.9716 14.3109 81.9625 13.8941C81.9625 13.4682 81.9625 13.151 81.9625 12.9426C81.9625 12.843 81.9535 12.7025 81.9353 12.5213C81.9172 12.3401 81.8946 12.1815 81.8674 12.0456L83.811 12.0456ZM77.1782 12.1951C77.151 12.2857 77.1103 12.4126 77.0559 12.5757C77.0106 12.7388 76.9698 12.8973 76.9336 13.0514C76.9064 13.2054 76.8837 13.3232 76.8656 13.4048C76.8203 13.595 76.7705 13.8533 76.7161 14.1795C76.6617 14.4966 76.6028 14.8591 76.5394 15.2668C76.485 15.6655 76.4307 16.0778 76.3763 16.5037C76.3219 16.9205 76.2812 17.3192 76.254 17.6998C76.2268 18.0713 76.2132 18.3929 76.2132 18.6648C76.2132 18.8007 76.2132 18.9502 76.2132 19.1133C76.2223 19.2673 76.2404 19.4123 76.2676 19.5482C76.331 19.3851 76.3944 19.2266 76.4579 19.0725C76.5303 18.9185 76.6028 18.7644 76.6753 18.6104C76.7478 18.4564 76.8158 18.3023 76.8792 18.1483L77.7083 18.8279C77.5814 19.1994 77.4501 19.589 77.3141 19.9968C77.1873 20.4045 77.0695 20.7896 76.9608 21.1521C76.8611 21.5145 76.7841 21.8181 76.7297 22.0627C76.7116 22.1533 76.6934 22.2621 76.6753 22.3889C76.6663 22.5158 76.6617 22.62 76.6617 22.7015C76.6617 22.774 76.6617 22.8601 76.6617 22.9598C76.6708 23.0685 76.6799 23.1682 76.6889 23.2588L75.153 23.3811C75.0081 22.9009 74.8812 22.2892 74.7725 21.5462C74.6637 20.7941 74.6094 19.956 74.6094 19.0317C74.6094 18.5243 74.632 17.9942 74.6773 17.4415C74.7226 16.8797 74.7725 16.3406 74.8268 15.8241C74.8903 15.3076 74.9537 14.8364 75.0171 14.4105C75.0806 13.9756 75.1304 13.6268 75.1666 13.364C75.1938 13.1737 75.221 12.9608 75.2482 12.7252C75.2754 12.4805 75.2935 12.2495 75.3026 12.032L77.1782 12.1951Z" fill="white"/>
<path d="M69.715 12.8882C69.4975 13.0423 69.2846 13.2054 69.0762 13.3775C68.8678 13.5406 68.6865 13.6901 68.5325 13.8261C68.306 13.9982 68.0341 14.2112 67.717 14.4649C67.4089 14.7095 67.0827 14.9678 66.7384 15.2396C66.4031 15.5024 66.0769 15.7606 65.7598 16.0143C65.4426 16.2681 65.1708 16.4946 64.9443 16.6939C64.7087 16.9023 64.5501 17.0745 64.4685 17.2104C64.387 17.3373 64.387 17.4641 64.4685 17.591C64.5592 17.7178 64.7268 17.89 64.9714 18.1075C65.1708 18.2796 65.4245 18.4926 65.7326 18.7463C66.0497 19 66.3895 19.2809 66.752 19.589C67.1235 19.888 67.4995 20.2006 67.8801 20.5268C68.2697 20.844 68.6412 21.1611 68.9946 21.4782C69.3571 21.7863 69.6787 22.0763 69.9596 22.3481L68.3694 23.8024C67.9888 23.3766 67.5947 22.9552 67.1869 22.5384C66.9785 22.33 66.7067 22.0763 66.3714 21.7773C66.0452 21.4692 65.6873 21.1475 65.2976 20.8122C64.9171 20.477 64.5365 20.1462 64.1559 19.82C63.7754 19.4848 63.431 19.1858 63.123 18.923C62.6699 18.5424 62.3754 18.1936 62.2395 17.8764C62.1126 17.5593 62.1308 17.2467 62.2939 16.9386C62.466 16.6214 62.7786 16.2771 63.2317 15.9056C63.5035 15.6972 63.8116 15.4525 64.1559 15.1717C64.5003 14.8817 64.8537 14.5872 65.2161 14.2882C65.5785 13.9801 65.9229 13.6856 66.2491 13.4047C66.5753 13.1148 66.8516 12.8611 67.0782 12.6436C67.2775 12.4442 67.4769 12.2404 67.6762 12.032C67.8756 11.8235 68.0251 11.6423 68.1247 11.4883L69.715 12.8882Z" fill="white"/>
<path d="M51.1883 11.9098C51.152 12.1906 51.1158 12.4942 51.0795 12.8204C51.0524 13.1466 51.0297 13.4456 51.0116 13.7175C51.0025 14.089 50.9844 14.542 50.9572 15.0766C50.9391 15.6022 50.921 16.1549 50.9028 16.7348C50.8938 17.3147 50.8802 17.8856 50.8621 18.4474C50.853 19.0092 50.8485 19.4985 50.8485 19.9153C50.8485 20.3684 50.93 20.7308 51.0931 21.0026C51.2653 21.2654 51.4918 21.4557 51.7727 21.5735C52.0536 21.6822 52.3708 21.7366 52.7241 21.7366C53.2859 21.7366 53.7979 21.6641 54.26 21.5191C54.7221 21.3651 55.1435 21.1612 55.5241 20.9075C55.9046 20.6538 56.2444 20.3593 56.5434 20.024C56.8515 19.6888 57.1279 19.3354 57.3725 18.9639L58.6094 20.459C58.3919 20.7852 58.1065 21.1295 57.7531 21.492C57.3997 21.8544 56.9784 22.1942 56.4891 22.5113C56.0088 22.8285 55.4516 23.0867 54.8173 23.2861C54.183 23.4854 53.4808 23.5851 52.7106 23.5851C51.9675 23.5851 51.3197 23.4673 50.7669 23.2317C50.2233 23.0052 49.7974 22.6518 49.4893 22.1715C49.1903 21.6822 49.0408 21.0525 49.0408 20.2823C49.0408 19.9108 49.0453 19.4894 49.0544 19.0182C49.0634 18.538 49.077 18.0396 49.0951 17.5232C49.1133 17.0067 49.1269 16.5038 49.1359 16.0145C49.145 15.5161 49.154 15.0676 49.1631 14.6689C49.1722 14.2702 49.1767 13.953 49.1767 13.7175C49.1767 13.3913 49.1631 13.0741 49.1359 12.766C49.1087 12.4489 49.0634 12.1544 49 11.8826L51.1883 11.9098Z" fill="white"/>
<path d="M38.5782 13.7037L45.5508 13.7037L45.5508 15.1852L38.5782 15.1852L38.5782 13.7037ZM38.8501 16.4764L45.2518 16.4764L45.2518 17.9307L38.8501 17.9307L38.8501 16.4764ZM38.1297 19.3035L45.7819 19.3035L45.7819 20.7986L38.1297 20.7986L38.1297 19.3035ZM41.1743 14.2338L42.7917 14.2338L42.7917 23.9111L41.1743 23.9111L41.1743 14.2338ZM43.6072 11.1077L45.1974 11.5698C44.98 12.0047 44.7625 12.4351 44.545 12.861C44.3276 13.2778 44.1237 13.6357 43.9334 13.9348L42.6694 13.4998C42.7872 13.2824 42.9004 13.0377 43.0092 12.7659C43.127 12.485 43.2402 12.1995 43.349 11.9096C43.4577 11.6196 43.5438 11.3523 43.6072 11.1077ZM38.986 11.6785L40.3044 11.2028C40.5219 11.5562 40.7212 11.9413 40.9024 12.3581C41.0837 12.7749 41.2105 13.1419 41.283 13.459L39.8831 14.0027C39.8196 13.6856 39.7018 13.3095 39.5297 12.8746C39.3666 12.4397 39.1853 12.041 38.986 11.6785ZM33.6172 15.3075L37.8307 15.3075L37.8307 16.5444L33.6172 16.5444L33.6172 15.3075ZM33.6716 11.5698L37.8035 11.5698L37.8035 12.793L33.6716 12.793L33.6716 11.5698ZM33.6172 17.1696L37.8307 17.1696L37.8307 18.3929L33.6172 18.3929L33.6172 17.1696ZM32.9648 13.3911L38.3064 13.3911L38.3064 14.6823L32.9648 14.6823L32.9648 13.3911ZM34.3648 19.0453L37.8035 19.0453L37.8035 23.1908L34.3648 23.1908L34.3648 21.8995L36.4036 21.8995L36.4036 20.3365L34.3648 20.3365L34.3648 19.0453ZM33.5765 19.0453L34.9628 19.0453L34.9628 23.7208L33.5765 23.7208L33.5765 19.0453Z" fill="white"/>
<path d="M87.0177 52.0381C82.5087 53.8677 81.6224 57.5261 82.6476 59.4091L79.9343 54.4255C78.9091 52.5425 77.2448 51.1056 75.3068 50.435C73.3687 49.7643 71.3187 49.9111 69.6041 50.8445C66.0339 52.7884 64.8703 57.5425 67.0056 61.4645L64.5297 56.9169C62.3944 52.9949 57.7697 51.3921 54.1995 53.3359C52.4849 54.2694 51.247 55.9128 50.7606 57.9034C50.2721 59.8952 50.5757 62.0728 51.6009 63.9559L38.5092 39.9099C37.484 38.0268 35.8197 36.59 33.8817 35.9194C31.9437 35.2487 29.8936 35.3954 28.179 36.3289C24.6088 38.2727 23.4463 43.029 25.5805 46.9489L50.5357 92.785L50.3841 92.8976C50.3841 92.8976 43.8404 89.9066 37.329 87.6872C31.9678 85.8601 28.5071 87.8043 27.5249 91.7634C27.5249 91.7634 27.524 91.7666 27.523 91.7699C26.6125 95.4441 29.5736 100.361 32.9932 102.093C39.6989 105.236 49.737 109.981 50.7933 110.818C58.5859 116.995 73.9428 125.641 74.2548 126.184C76.3849 129.896 78.9314 134.774 78.9314 134.774L117.724 113.653L113.047 105.064C113.047 105.064 114.54 88.9016 101.986 65.8435L98.4999 59.4402C95.9437 54.7452 91.4923 50.1453 87.0229 52.0326L87.0177 52.0381Z" fill="white"/>
<path d="M49.8063 64.9317L36.7146 40.8857C35.9197 39.4256 34.6449 38.3427 33.2121 37.8468C31.7848 37.3529 30.3335 37.477 29.1514 38.1206C26.7255 39.4415 25.6855 42.881 27.3693 45.9737L52.3242 91.8091C52.8102 92.7018 52.5651 93.8169 51.7491 94.4228L51.597 94.5356C51.0002 94.9786 50.2096 95.0616 49.5336 94.7528C49.5331 94.7525 49.531 94.7522 49.5297 94.7516C49.527 94.7504 49.523 94.7477 49.5172 94.7451C49.5056 94.7398 49.4877 94.7315 49.4639 94.7207C49.4164 94.6992 49.3445 94.6675 49.2508 94.6255C49.0635 94.5413 48.7873 94.4177 48.4349 94.2624C47.7294 93.9516 46.7195 93.5129 45.5082 93.006C43.0807 91.9902 39.8635 90.7066 36.6682 89.6174C34.2991 88.81 32.6621 88.9426 31.6255 89.413C30.6367 89.8617 29.8722 90.7633 29.5022 92.2546C29.5007 92.2607 29.4978 92.2663 29.4963 92.2723C29.2136 93.4325 29.5103 95.0346 30.4165 96.6727C31.3125 98.2922 32.6298 99.6184 33.8981 100.266C37.245 101.834 41.4202 103.802 44.8975 105.484C46.6419 106.328 48.2211 107.106 49.4359 107.728C50.0421 108.038 50.5703 108.316 50.9879 108.548C51.3563 108.753 51.7738 108.994 52.0566 109.218L52.0579 109.219C55.8495 112.225 61.5417 115.874 66.3995 118.879C68.8225 120.378 70.9946 121.69 72.6158 122.683C73.4182 123.175 74.0927 123.593 74.5806 123.908C74.8215 124.064 75.0403 124.209 75.2138 124.334C75.2982 124.395 75.3991 124.47 75.4954 124.551C75.5088 124.562 75.7378 124.743 75.937 125.036L76.0203 125.168L76.0208 125.169C77.1002 127.05 78.2806 129.217 79.1867 130.906C79.3962 131.297 79.5898 131.664 79.7662 131.995L114.954 112.837L111.253 106.039C111.06 105.684 110.977 105.28 111.013 104.878L111.013 104.879C111.013 104.876 111.014 104.869 111.015 104.858C111.017 104.836 111.019 104.799 111.022 104.747C111.029 104.643 111.038 104.478 111.045 104.256C111.06 103.81 111.069 103.132 111.042 102.239C110.989 100.453 110.792 97.808 110.212 94.4474C109.051 87.7291 106.355 78.1383 100.192 66.8186L96.7054 60.4152C95.5104 58.2203 93.9279 56.1633 92.2475 54.8965C90.5905 53.6475 89.1406 53.3583 87.8285 53.9055C87.8127 53.9124 87.7976 53.9212 87.7816 53.9277C84.2376 55.3657 84.1748 57.6566 84.3902 58.3226L84.4361 58.4333L84.5265 58.622C84.9266 59.5753 84.5474 60.6955 83.6198 61.2005C82.6305 61.7391 81.3913 61.3736 80.8526 60.3843L78.1396 55.4012C77.3447 53.9411 76.0699 52.8582 74.6371 52.3623C73.2098 51.8684 71.7585 51.9925 70.5765 52.6361C68.1502 53.9572 67.1095 57.3947 68.7943 60.4892L68.8843 60.677C69.2846 61.6303 68.9057 62.7513 67.9781 63.2563C67.0504 63.7613 65.9032 63.4713 65.3198 62.6177L65.2109 62.4401L62.7351 57.8927C61.0503 54.7982 57.5983 53.8066 55.1719 55.1276C53.989 55.7717 53.0969 56.9246 52.7394 58.3878L52.739 58.3892C52.3778 59.8618 52.5947 61.5205 53.3897 62.9807L53.4798 63.1685C53.88 64.1219 53.5007 65.242 52.573 65.747C51.6455 66.2519 50.4987 65.9627 49.9152 65.1092L49.8063 64.9317ZM49.3977 55.6484C50.2064 53.9121 51.5243 52.468 53.2209 51.5442C57.0729 49.4471 61.6471 50.543 64.6024 53.6047C65.3553 51.7238 66.7063 50.0977 68.6255 49.0527C70.8725 47.8293 73.522 47.6599 75.9707 48.5072C78.4138 49.3527 80.4675 51.1442 81.723 53.4502L81.7417 53.4845C82.7414 52.1614 84.2197 50.9914 86.153 50.1888C86.1776 50.1772 86.2018 50.1636 86.2269 50.153C89.38 48.8218 92.3853 49.8913 94.7037 51.639C97.0052 53.3739 98.9268 55.9647 100.288 58.4647L103.774 64.8681C110.165 76.6066 113 86.6262 114.231 93.7533C114.847 97.3153 115.061 100.152 115.12 102.117C115.149 103.099 115.14 103.864 115.122 104.392C115.12 104.465 115.115 104.533 115.112 104.596L119.512 112.678C120.051 113.668 119.686 114.905 118.697 115.444L79.9035 136.565C79.4231 136.826 78.8576 136.885 78.3342 136.725C77.8108 136.566 77.3736 136.202 77.1204 135.717L77.1134 135.704C77.1087 135.695 77.1017 135.682 77.0923 135.664C77.0735 135.628 77.0455 135.574 77.009 135.504C76.9359 135.365 76.8282 135.162 76.6931 134.906C76.4227 134.394 76.0401 133.672 75.5912 132.835C74.747 131.261 73.673 129.291 72.6759 127.542C72.5941 127.486 72.4932 127.415 72.3671 127.334C71.9249 127.048 71.2875 126.654 70.4846 126.162C68.8952 125.188 66.6822 123.851 64.2531 122.348C59.4066 119.35 53.5246 115.588 49.5236 112.417L49.4254 112.357C49.3449 112.308 49.2111 112.228 49.0066 112.114C48.6468 111.914 48.1647 111.66 47.5765 111.359C46.4026 110.757 44.8555 109.995 43.1204 109.156C39.6528 107.478 35.4765 105.511 32.1247 103.94C32.1059 103.931 32.0871 103.922 32.0687 103.912C29.9219 102.825 28.0554 100.831 26.847 98.6472C25.6487 96.4811 24.9174 93.7926 25.54 91.2796L25.5636 91.1922C26.1872 88.7604 27.6366 86.7429 29.9387 85.698C32.2183 84.6633 34.9923 84.7368 37.9841 85.7564L39.2254 86.1881C41.6743 87.0564 44.0616 88.0003 46.0501 88.8181L23.7859 47.9246C21.2014 43.1776 22.4862 37.104 27.2005 34.5372C29.4475 33.3138 32.097 33.1444 34.5457 33.9917C36.9888 34.8372 39.0425 36.6287 40.298 38.9347L49.3977 55.6484Z" fill="#1B1C1B"/>
<path d="M86.4711 66.4255L79.9367 54.4236C78.9115 52.5405 77.2472 51.1037 75.3092 50.433C73.3712 49.7623 71.3211 49.9091 69.6065 50.8426C66.0363 52.7864 64.8727 57.5405 67.008 61.4625L70.938 68.681M70.9359 68.6821C70.9359 68.6821 67.4428 62.2662 64.53 56.9161C62.3947 52.9941 57.77 51.3913 54.1998 53.3351C52.4852 54.2686 51.2473 55.912 50.7609 57.9026C50.2724 59.8944 50.576 62.072 51.6013 63.9551L58.0072 75.7211M50.379 92.897C50.379 92.897 43.8353 89.906 37.3239 87.6865C31.9628 85.8594 28.502 87.8037 27.5199 91.7627C27.5199 91.7627 27.5189 91.766 27.518 91.7692C26.6075 95.4435 29.5685 100.36 32.9881 102.092C39.6938 105.235 49.732 109.98 50.7883 110.817C58.5809 116.995 73.9378 125.64 74.2498 126.183C76.3799 129.895 78.9263 134.773 78.9263 134.773L117.719 113.653L113.042 105.063C113.042 105.063 114.535 88.901 101.981 65.8429L98.4948 59.4396C95.9386 54.7446 91.4873 50.1447 87.0179 52.0319C82.5089 53.8615 81.6225 57.5199 82.6477 59.403L86.4688 66.4213M58.0051 75.7222L38.5074 39.9102C37.4822 38.0272 35.8179 36.5903 33.8799 35.9197C31.9419 35.249 29.8918 35.3958 28.1772 36.3292C24.607 38.2731 23.4445 43.0293 25.5787 46.9492L52.5959 96.5725" fill="white"/>
<path d="M50.8015 97.5479L49.1985 94.6035C49.0131 94.5203 48.7536 94.4043 48.4296 94.2615C47.7241 93.9507 46.7145 93.5129 45.5033 93.006C43.076 91.9903 39.8586 90.7065 36.6633 89.6174C34.2942 88.81 32.6568 88.9418 31.6202 89.4121C30.6314 89.8608 29.8669 90.7625 29.4969 92.2538C29.4963 92.2559 29.4955 92.2582 29.4949 92.2604L29.4481 92.4827C29.2466 93.622 29.5586 95.1307 30.4112 96.6718C31.3071 98.2914 32.6245 99.6174 33.8928 100.265C37.2397 101.833 41.4148 103.801 44.8922 105.483C46.6368 106.327 48.2162 107.106 49.431 107.728C50.0373 108.038 50.5655 108.316 50.9831 108.548C51.3515 108.753 51.769 108.994 52.0518 109.218L52.0531 109.219C55.8446 112.225 61.537 115.874 66.3946 118.879C68.8176 120.378 70.9898 121.69 72.611 122.683C73.4131 123.174 74.0875 123.592 74.5752 123.907C74.8163 124.063 75.0354 124.209 75.2089 124.334C75.2934 124.395 75.3942 124.47 75.4905 124.551C75.5084 124.566 75.8039 124.8 76.015 125.167L76.0155 125.168C77.095 127.049 78.2757 129.217 79.1819 130.906C79.3912 131.297 79.5846 131.663 79.7609 131.994L114.949 112.836L111.248 106.038C111.055 105.683 110.971 105.279 111.008 104.877L111.008 104.878C111.008 104.875 111.009 104.868 111.01 104.857C111.011 104.836 111.014 104.799 111.018 104.747C111.024 104.643 111.033 104.478 111.04 104.256C111.055 103.81 111.064 103.132 111.037 102.239C110.984 100.453 110.787 97.8079 110.207 94.4474C109.046 87.7291 106.35 78.1382 100.187 66.8186L96.7006 60.4152C95.5055 58.2202 93.9232 56.1633 92.2427 54.8965C90.5794 53.6427 89.125 53.3558 87.809 53.9112C87.8002 53.915 87.7907 53.9191 87.7819 53.9227C84.0022 55.4564 84.1816 57.9594 84.4358 58.4275L88.2593 65.4502C88.7979 66.4395 88.433 67.6781 87.4439 68.2169C86.5165 68.7219 85.3697 68.4323 84.7861 67.5791L84.6768 67.4007L78.1426 55.3991C77.3476 53.939 76.0721 52.8566 74.6392 52.3607C73.2121 51.8669 71.7614 51.9907 70.5794 52.6341C68.153 53.9551 67.1116 57.3931 68.7964 60.4876L72.7263 67.7059C73.2649 68.6951 72.9001 69.9338 71.911 70.4726L71.9088 70.4727L71.9084 70.474C70.981 70.9789 69.8342 70.6893 69.2506 69.8362L69.1412 69.6578L62.7354 57.8921C61.0507 54.7976 57.5987 53.806 55.1723 55.127C53.9894 55.7711 53.0973 56.9239 52.7398 58.3872L52.7394 58.3885C52.3782 59.8612 52.5951 61.5199 53.3901 62.9801L59.7959 74.7458C60.3346 75.7352 59.9691 76.9743 58.9797 77.513L58.9783 77.5126L58.978 77.5139C57.9886 78.0526 56.7494 77.6871 56.2108 76.6977L36.7133 40.886C35.9183 39.4258 34.6428 38.3434 33.2099 37.8475C31.7827 37.3537 30.3321 37.4775 29.1501 38.1209C26.724 39.4418 25.6833 42.8817 27.3671 45.9744L54.3841 95.5974C54.9227 96.5867 54.5579 97.8254 53.5687 98.3642C52.5793 98.9028 51.3402 98.5373 50.8015 97.5479ZM49.3964 55.6509C50.2051 53.9132 51.5236 52.4679 53.2213 51.5436C57.0738 49.4461 61.6485 50.543 64.6038 53.6058C65.3565 51.7236 66.7082 50.0961 68.6284 49.0507C70.8753 47.8275 73.5243 47.6585 75.9728 48.5057C78.4159 49.3511 80.4696 51.1427 81.7251 53.4486L81.7414 53.4786C82.753 52.1399 84.2542 50.9568 86.2212 50.1535L86.2221 50.153C86.2254 50.1516 86.2286 50.1501 86.232 50.1487C86.2373 50.1465 86.2429 50.1442 86.2483 50.142L86.2475 50.1425C89.3913 48.8277 92.3866 49.8959 94.6989 51.6389C97.0004 53.374 98.922 55.9646 100.283 58.4647L103.769 64.8681C110.16 76.6063 112.995 86.6254 114.226 93.7525C114.841 97.3144 115.056 100.151 115.115 102.116C115.144 103.099 115.135 103.864 115.117 104.392C115.115 104.465 115.11 104.533 115.107 104.596L119.507 112.677C120.046 113.667 119.681 114.905 118.692 115.444L79.8987 136.565C79.4182 136.826 78.8523 136.884 78.3289 136.725C77.8057 136.565 77.3687 136.202 77.1156 135.717L77.1081 135.704C77.1034 135.695 77.0963 135.681 77.087 135.663C77.0682 135.627 77.0401 135.573 77.0037 135.504C76.9306 135.364 76.8228 135.161 76.6878 134.905C76.4174 134.393 76.0347 133.671 75.5859 132.834C74.7417 131.26 73.668 129.291 72.671 127.542C72.5892 127.486 72.4884 127.415 72.3622 127.334C71.9201 127.048 71.2827 126.654 70.4798 126.162C68.8903 125.188 66.6775 123.851 64.2482 122.348C59.7042 119.537 54.25 116.055 50.2892 113.017L49.5183 112.416C49.4982 112.404 49.3547 112.31 49.0013 112.114C48.6416 111.914 48.1596 111.66 47.5717 111.358C46.3978 110.757 44.8507 109.995 43.1156 109.156C39.648 107.478 35.4716 105.511 32.1198 103.94C32.1012 103.931 32.0822 103.922 32.0638 103.912C29.917 102.825 28.0501 100.831 26.8417 98.6463C25.6434 96.4802 24.912 93.7917 25.5346 91.2787C25.5418 91.2497 25.5503 91.2209 25.5587 91.1922C25.5591 91.1909 25.5595 91.1896 25.5599 91.1883L25.5594 91.1874L25.5603 91.1869C26.1846 88.7574 27.6333 86.7421 29.9338 85.698C32.2134 84.6633 34.9871 84.7361 37.9788 85.7556L39.2206 86.1881C41.6708 87.0569 44.0597 88.0003 46.0488 88.8184L23.7845 47.9249C21.2 43.1779 22.4847 37.1043 27.1991 34.5375C29.4461 33.3143 32.0957 33.1447 34.5444 33.992C36.9874 34.8375 39.0404 36.6296 40.2958 38.9355L49.3964 55.6509Z" fill="#E5005A"/>
</svg>
