<svg width="51" height="12" viewBox="0 0 51 12" fill="none" xmlns="http://www.w3.org/2000/svg">
<path d="M47.706 10.0386C47.2841 10.4429 46.8973 10.7242 46.4929 10.9352C45.9128 11.2341 45.3678 11.322 44.77 11.322C43.6273 11.322 42.467 10.8121 41.8868 9.73969C41.5 9.01889 41.3594 8.15743 41.3594 7.33114V1.37129C41.3594 0.334033 41.8868 0 42.8537 0C43.8031 0 44.2778 0.404356 44.2778 1.37129V6.71582C44.2778 7.7355 44.5239 8.84308 45.7721 8.84308C47.0204 8.84308 47.706 7.80582 47.706 6.6455V1.37129C47.706 0.334033 48.251 0 49.2179 0C50.1673 0 50.642 0.404356 50.642 1.37129V9.95066C50.642 11.0055 50.1145 11.322 49.13 11.322C48.3916 11.322 47.706 10.9879 47.706 10.1441V10.0386Z" fill="#FF2978"/>
<path d="M31.8989 1.28339C32.3384 0.861454 32.5845 0.632904 33.1295 0.386775C33.6745 0.140646 34.2371 0 34.8348 0C35.9776 0 37.1731 0.527421 37.7356 1.56468C38.14 2.30307 38.2631 3.16452 38.2631 3.99081V9.95066C38.2631 10.9879 37.7356 11.322 36.7511 11.322C35.8018 11.322 35.3271 10.9176 35.3271 9.95066V4.60614C35.3271 3.58646 35.0985 2.47888 33.8327 2.47888C32.6021 2.47888 31.8989 3.51614 31.8989 4.67646V9.95066C31.8989 10.9879 31.3714 11.322 30.4045 11.322C29.4551 11.322 28.9805 10.9176 28.9805 9.95066V1.37129C28.9805 0.316453 29.5079 0 30.4924 0C31.2308 0 31.8989 0.334033 31.8989 1.16032V1.28339Z" fill="#FF2978"/>
<path d="M19.7758 6.50485C19.811 7.15534 20.022 7.75308 20.3912 8.1926C20.7604 8.63211 21.3229 8.89582 22.0262 8.89582C22.7997 8.89582 23.3799 8.70243 23.7491 7.94647C24.0128 7.41905 24.2062 6.99711 25.1555 6.99711C25.8939 6.99711 26.6323 7.33114 26.6323 8.17501C26.6323 8.63211 26.2455 9.2826 25.8939 9.68695C24.8918 10.8649 23.5029 11.322 21.991 11.322C20.2681 11.322 18.932 10.7242 18.0354 9.70453C17.1387 8.70244 16.6641 7.29598 16.6641 5.6434C16.6641 4.11388 17.0684 2.76017 17.9299 1.70533C18.7913 0.650485 20.0747 0 21.7449 0C23.415 0 24.8742 0.668065 25.8412 2.05694C26.3686 2.83049 26.7905 3.95565 26.7905 4.90501C26.7905 6.1884 25.8236 6.50485 24.716 6.50485H19.7758ZM19.8286 4.39517H23.0458C23.3447 4.39517 23.6084 4.32485 23.6084 3.97323C23.6084 3.41065 22.9228 2.40855 21.78 2.40855C21.112 2.40855 20.5846 2.77775 20.2154 3.34033C19.9868 3.67436 19.9165 4.00839 19.8286 4.39517Z" fill="#FF2978"/>
<path d="M2.91839 1.49436C3.51614 0.527421 4.34243 0 5.50275 0C6.69824 0 7.61243 0.615324 8.15743 1.65258C8.89582 0.597744 9.79244 0 11.111 0C12.2362 0 13.3613 0.562582 13.9415 1.5471C14.3458 2.23275 14.4865 3.04146 14.4865 3.81501V9.95066C14.4865 10.9879 13.9591 11.322 12.9921 11.322C12.0428 11.322 11.5681 10.9176 11.5681 9.95066V4.1842C11.5681 3.30517 11.2516 2.53162 10.2495 2.53162C9.05405 2.53162 8.70243 3.65678 8.70243 4.6413V9.95066C8.70243 10.9879 8.17501 11.322 7.20808 11.322C6.25872 11.322 5.78404 10.9176 5.78404 9.95066V4.20178C5.78404 3.32275 5.48517 2.53162 4.48307 2.53162C3.27001 2.53162 2.91839 3.62162 2.91839 4.6413V9.95066C2.91839 10.9879 2.39097 11.322 1.40645 11.322C0.474678 11.322 0 10.9176 0 9.95066V1.37129C0 0.316453 0.52742 0 1.49436 0C2.44371 0 2.91839 0.404356 2.91839 1.37129V1.49436Z" fill="#FF2978"/>
</svg>
