<svg width="181" height="171" viewBox="0 0 181 171" fill="none" xmlns="http://www.w3.org/2000/svg">
<path fill-rule="evenodd" clip-rule="evenodd" d="M103.407 3.6838C56.9679 -6.47665 11.4847 21.1028 1.8181 65.2844C-6.13134 101.618 12.6176 137.863 45.3562 155.244L39.7712 170.263L61.9431 162.018C64.0572 162.644 66.2106 163.201 68.4011 163.68C114.84 173.84 160.323 146.26 169.989 102.078C179.655 57.897 149.846 13.8444 103.407 3.6838Z" fill="white"/>
<path d="M111.083 2.15239C63.6263 -8.23051 17.147 19.9529 7.2685 65.1026C-0.819724 102.07 18.1383 138.949 51.3242 156.801L46.0439 171L66.6767 163.327C69.4856 164.23 72.3651 165.01 75.3105 165.654C122.767 176.038 169.247 147.853 179.125 102.703C189.003 57.5534 158.54 12.5355 111.083 2.15239ZM9.50678 65.5919C19.0923 21.7822 64.2668 -5.74505 110.594 4.39067C156.921 14.5268 186.472 58.4041 176.887 102.214C167.301 146.024 122.127 173.552 75.7998 163.416C72.9269 162.788 70.1181 162.028 67.3779 161.147L66.622 160.903L49.9365 167.108L54.1669 155.729L52.4091 154.783C20.0395 137.37 1.65714 101.469 9.50678 65.5919Z" fill="#E33B60"/>
<path d="M45.42 61.28C45.0067 61.8667 44.5133 62.4733 43.94 63.1C43.3667 63.7133 42.7333 64.3267 42.04 64.94C41.3467 65.54 40.6067 66.1133 39.82 66.66C39.0467 67.2067 38.2467 67.7067 37.42 68.16C37.2733 67.88 37.0467 67.5533 36.74 67.18C36.4467 66.7933 36.1667 66.48 35.9 66.24C37.06 65.64 38.1667 64.9333 39.22 64.12C40.2733 63.2933 41.22 62.4267 42.06 61.52C42.9 60.6133 43.5667 59.7533 44.06 58.94H46.56C47.0933 59.7 47.6933 60.4333 48.36 61.14C49.0267 61.8467 49.7267 62.5067 50.46 63.12C51.2067 63.72 51.9733 64.2667 52.76 64.76C53.56 65.24 54.36 65.6533 55.16 66C54.8533 66.3067 54.5667 66.6467 54.3 67.02C54.0333 67.3933 53.7867 67.7667 53.56 68.14C52.8 67.7133 52.0267 67.2333 51.24 66.7C50.4533 66.1533 49.7 65.58 48.98 64.98C48.26 64.3667 47.5933 63.7467 46.98 63.12C46.3667 62.4933 45.8467 61.88 45.42 61.28ZM38.64 70.68H52.32V72.76H38.64V70.68ZM39.66 66.24H51.4V68.36H39.66V66.24ZM37.02 75.18H54.12V77.32H37.02V75.18ZM44.18 67.18H46.7V76.36H44.18V67.18ZM72.18 62.44C72.1 62.56 71.98 62.7467 71.82 63C71.6733 63.2533 71.56 63.4867 71.48 63.7C71.2 64.3267 70.8533 65.0267 70.44 65.8C70.04 66.5733 69.58 67.3533 69.06 68.14C68.5533 68.9133 68.0133 69.64 67.44 70.32C66.6933 71.16 65.8667 71.9933 64.96 72.82C64.0667 73.6333 63.12 74.3867 62.12 75.08C61.1333 75.76 60.12 76.3467 59.08 76.84L57.02 74.68C58.1 74.2667 59.1467 73.7467 60.16 73.12C61.1733 72.4933 62.1133 71.8133 62.98 71.08C63.8467 70.3467 64.5933 69.6333 65.22 68.94C65.66 68.4333 66.0733 67.8933 66.46 67.32C66.86 66.7467 67.2133 66.18 67.52 65.62C67.8267 65.0467 68.0533 64.52 68.2 64.04C68.0667 64.04 67.8267 64.04 67.48 64.04C67.1333 64.04 66.7267 64.04 66.26 64.04C65.8067 64.04 65.3267 64.04 64.82 64.04C64.3133 64.04 63.8267 64.04 63.36 64.04C62.9067 64.04 62.5067 64.04 62.16 64.04C61.8133 64.04 61.5667 64.04 61.42 64.04C61.14 64.04 60.8467 64.0533 60.54 64.08C60.2333 64.0933 59.94 64.1133 59.66 64.14C59.3933 64.1533 59.1867 64.1667 59.04 64.18V61.34C59.24 61.3533 59.4867 61.3733 59.78 61.4C60.0733 61.4267 60.3667 61.4467 60.66 61.46C60.9667 61.4733 61.22 61.48 61.42 61.48C61.5933 61.48 61.8667 61.48 62.24 61.48C62.6133 61.48 63.04 61.48 63.52 61.48C64 61.48 64.4933 61.48 65 61.48C65.52 61.48 66.0133 61.48 66.48 61.48C66.96 61.48 67.3733 61.48 67.72 61.48C68.0667 61.48 68.32 61.48 68.48 61.48C68.92 61.48 69.32 61.4533 69.68 61.4C70.0533 61.3467 70.34 61.2867 70.54 61.22L72.18 62.44ZM67.7 68.66C68.22 69.0733 68.7733 69.5533 69.36 70.1C69.9467 70.6467 70.5267 71.2133 71.1 71.8C71.6733 72.3867 72.2 72.9533 72.68 73.5C73.1733 74.0333 73.5867 74.5 73.92 74.9L71.64 76.88C71.1467 76.2 70.58 75.4933 69.94 74.76C69.3133 74.0267 68.6467 73.3 67.94 72.58C67.2467 71.8467 66.54 71.1533 65.82 70.5L67.7 68.66ZM84.08 66.64C84.6933 66.9867 85.36 67.4 86.08 67.88C86.8133 68.3467 87.5533 68.8333 88.3 69.34C89.0467 69.8467 89.7467 70.34 90.4 70.82C91.0667 71.3 91.6267 71.7267 92.08 72.1L90.18 74.36C89.74 73.96 89.1933 73.5 88.54 72.98C87.9 72.4467 87.2067 71.9067 86.46 71.36C85.7133 70.8 84.9733 70.2667 84.24 69.76C83.52 69.2533 82.8733 68.82 82.3 68.46L84.08 66.64ZM93.48 63.24C93.36 63.4267 93.24 63.6467 93.12 63.9C93 64.1533 92.9 64.4067 92.82 64.66C92.62 65.2733 92.3467 65.96 92 66.72C91.6667 67.4667 91.2667 68.2333 90.8 69.02C90.3333 69.7933 89.8 70.5533 89.2 71.3C88.2533 72.4733 87.1133 73.5867 85.78 74.64C84.46 75.6933 82.84 76.5867 80.92 77.32L78.6 75.3C80 74.8733 81.2133 74.3667 82.24 73.78C83.2667 73.1933 84.1533 72.5667 84.9 71.9C85.66 71.2333 86.32 70.5667 86.88 69.9C87.3333 69.38 87.76 68.8 88.16 68.16C88.5733 67.5067 88.9267 66.86 89.22 66.22C89.5267 65.5667 89.74 64.9867 89.86 64.48H83.1L84.02 62.2H89.7C90.02 62.2 90.3333 62.18 90.64 62.14C90.96 62.1 91.2267 62.0467 91.44 61.98L93.48 63.24ZM86.88 60.16C86.64 60.5067 86.4 60.88 86.16 61.28C85.9333 61.68 85.76 61.9867 85.64 62.2C85.1867 63 84.6133 63.8533 83.92 64.76C83.2267 65.6533 82.4467 66.5267 81.58 67.38C80.7267 68.2333 79.82 68.9933 78.86 69.66L76.7 68C77.8733 67.2667 78.8667 66.5 79.68 65.7C80.5067 64.8867 81.1933 64.1067 81.74 63.36C82.2867 62.6 82.7267 61.9267 83.06 61.34C83.22 61.1 83.3867 60.78 83.56 60.38C83.7467 59.9667 83.8867 59.5933 83.98 59.26L86.88 60.16ZM105.6 64.12C105.693 64.3333 105.813 64.64 105.96 65.04C106.12 65.4267 106.287 65.8467 106.46 66.3C106.633 66.74 106.787 67.16 106.92 67.56C107.053 67.96 107.16 68.2733 107.24 68.5L104.84 69.34C104.787 69.0867 104.693 68.7667 104.56 68.38C104.427 67.9933 104.28 67.5867 104.12 67.16C103.96 66.72 103.8 66.3 103.64 65.9C103.48 65.5 103.34 65.1667 103.22 64.9L105.6 64.12ZM112.98 65.58C112.873 65.9 112.78 66.1733 112.7 66.4C112.633 66.6267 112.567 66.84 112.5 67.04C112.247 68.0533 111.9 69.0667 111.46 70.08C111.02 71.08 110.46 72.02 109.78 72.9C108.847 74.1 107.787 75.12 106.6 75.96C105.427 76.7867 104.253 77.42 103.08 77.86L100.98 75.72C101.713 75.52 102.487 75.2267 103.3 74.84C104.113 74.44 104.9 73.96 105.66 73.4C106.42 72.84 107.073 72.22 107.62 71.54C108.073 70.9667 108.473 70.3133 108.82 69.58C109.18 68.8333 109.473 68.04 109.7 67.2C109.94 66.3467 110.1 65.5067 110.18 64.68L112.98 65.58ZM100.96 65.18C101.093 65.4333 101.24 65.76 101.4 66.16C101.573 66.56 101.747 66.98 101.92 67.42C102.093 67.86 102.26 68.2867 102.42 68.7C102.593 69.1133 102.727 69.46 102.82 69.74L100.38 70.66C100.3 70.3933 100.18 70.0467 100.02 69.62C99.8733 69.1933 99.7067 68.7467 99.52 68.28C99.3333 67.8 99.1533 67.36 98.98 66.96C98.82 66.56 98.68 66.2533 98.56 66.04L100.96 65.18ZM133.28 62.68C133.187 62.8667 133.1 63.0933 133.02 63.36C132.953 63.6133 132.893 63.8533 132.84 64.08C132.733 64.56 132.593 65.1067 132.42 65.72C132.247 66.3333 132.04 66.9667 131.8 67.62C131.56 68.2733 131.273 68.92 130.94 69.56C130.62 70.2 130.253 70.8 129.84 71.36C129.24 72.1467 128.54 72.8933 127.74 73.6C126.94 74.2933 126.047 74.92 125.06 75.48C124.073 76.0267 122.987 76.4933 121.8 76.88L119.62 74.5C120.94 74.18 122.08 73.7867 123.04 73.32C124.013 72.84 124.86 72.3067 125.58 71.72C126.3 71.12 126.927 70.48 127.46 69.8C127.9 69.24 128.273 68.6333 128.58 67.98C128.9 67.3267 129.16 66.6667 129.36 66C129.573 65.3333 129.72 64.72 129.8 64.16C129.6 64.16 129.267 64.16 128.8 64.16C128.347 64.16 127.807 64.16 127.18 64.16C126.567 64.16 125.92 64.16 125.24 64.16C124.573 64.16 123.927 64.16 123.3 64.16C122.673 64.16 122.107 64.16 121.6 64.16C121.107 64.16 120.733 64.16 120.48 64.16C120.027 64.16 119.58 64.1667 119.14 64.18C118.713 64.1933 118.367 64.2133 118.1 64.24V61.42C118.313 61.4333 118.56 61.4533 118.84 61.48C119.12 61.5067 119.413 61.5333 119.72 61.56C120.027 61.5733 120.287 61.58 120.5 61.58C120.7 61.58 121 61.58 121.4 61.58C121.8 61.58 122.26 61.58 122.78 61.58C123.3 61.58 123.84 61.58 124.4 61.58C124.973 61.58 125.54 61.58 126.1 61.58C126.66 61.58 127.187 61.58 127.68 61.58C128.173 61.58 128.6 61.58 128.96 61.58C129.333 61.58 129.593 61.58 129.74 61.58C129.94 61.58 130.187 61.5733 130.48 61.56C130.773 61.5333 131.047 61.4867 131.3 61.42L133.28 62.68ZM142.78 63.472C142.737 63.6747 142.689 63.8987 142.636 64.144C142.583 64.3787 142.535 64.5973 142.492 64.8C142.449 65.0347 142.396 65.3013 142.332 65.6C142.268 65.888 142.204 66.1813 142.14 66.48C142.087 66.768 142.028 67.0507 141.964 67.328C141.857 67.7867 141.724 68.32 141.564 68.928C141.404 69.536 141.217 70.192 141.004 70.896C140.791 71.5893 140.551 72.288 140.284 72.992C140.017 73.696 139.735 74.384 139.436 75.056C139.137 75.7173 138.817 76.3147 138.476 76.848L136.396 76.016C136.769 75.5147 137.116 74.9547 137.436 74.336C137.767 73.7067 138.065 73.0667 138.332 72.416C138.599 71.7547 138.833 71.104 139.036 70.464C139.249 69.8133 139.431 69.2107 139.58 68.656C139.74 68.1013 139.863 67.6267 139.948 67.232C140.097 66.5067 140.215 65.808 140.3 65.136C140.385 64.464 140.417 63.8293 140.396 63.232L142.78 63.472ZM148.284 65.088C148.54 65.44 148.801 65.872 149.068 66.384C149.345 66.8853 149.617 67.4187 149.884 67.984C150.151 68.5493 150.391 69.0933 150.604 69.616C150.817 70.1387 150.983 70.592 151.1 70.976L149.068 71.904C148.972 71.456 148.828 70.96 148.636 70.416C148.455 69.872 148.241 69.3227 147.996 68.768C147.751 68.2027 147.489 67.6693 147.212 67.168C146.945 66.6667 146.668 66.2453 146.38 65.904L148.284 65.088ZM136.284 66.752C136.572 66.7733 136.855 66.784 137.132 66.784C137.42 66.7733 137.708 66.7627 137.996 66.752C138.263 66.7413 138.583 66.7253 138.956 66.704C139.329 66.672 139.724 66.64 140.14 66.608C140.567 66.576 140.993 66.544 141.42 66.512C141.847 66.4693 142.241 66.4373 142.604 66.416C142.967 66.3947 143.265 66.384 143.5 66.384C144.076 66.384 144.577 66.48 145.004 66.672C145.431 66.8533 145.767 67.168 146.012 67.616C146.268 68.064 146.396 68.672 146.396 69.44C146.396 70.0693 146.369 70.752 146.316 71.488C146.263 72.224 146.167 72.928 146.028 73.6C145.9 74.272 145.719 74.8427 145.484 75.312C145.228 75.8667 144.876 76.2507 144.428 76.464C143.991 76.6773 143.468 76.784 142.86 76.784C142.561 76.784 142.236 76.7573 141.884 76.704C141.532 76.6613 141.217 76.6133 140.94 76.56L140.604 74.448C140.807 74.5013 141.031 74.5547 141.276 74.608C141.532 74.6613 141.772 74.704 141.996 74.736C142.231 74.768 142.417 74.784 142.556 74.784C142.823 74.784 143.057 74.736 143.26 74.64C143.463 74.5333 143.628 74.352 143.756 74.096C143.905 73.7867 144.028 73.3867 144.124 72.896C144.22 72.4053 144.289 71.8773 144.332 71.312C144.385 70.736 144.412 70.1867 144.412 69.664C144.412 69.2373 144.348 68.9227 144.22 68.72C144.103 68.5173 143.927 68.384 143.692 68.32C143.468 68.2453 143.191 68.208 142.86 68.208C142.615 68.208 142.284 68.2293 141.868 68.272C141.452 68.304 141.004 68.3467 140.524 68.4C140.055 68.4427 139.617 68.4907 139.212 68.544C138.807 68.5973 138.492 68.6347 138.268 68.656C138.033 68.6987 137.735 68.7467 137.372 68.8C137.02 68.8427 136.721 68.8853 136.476 68.928L136.284 66.752ZM147.996 62.864C148.135 63.056 148.279 63.2853 148.428 63.552C148.588 63.8187 148.743 64.0853 148.892 64.352C149.041 64.6187 149.169 64.8533 149.276 65.056L147.98 65.616C147.873 65.392 147.751 65.1467 147.612 64.88C147.473 64.6133 147.329 64.3467 147.18 64.08C147.031 63.8133 146.881 63.584 146.732 63.392L147.996 62.864ZM149.9 62.144C150.039 62.3467 150.188 62.5813 150.348 62.848C150.508 63.1147 150.663 63.3813 150.812 63.648C150.972 63.9147 151.095 64.1387 151.18 64.32L149.916 64.864C149.745 64.5333 149.543 64.16 149.308 63.744C149.073 63.3173 148.844 62.9547 148.62 62.656L149.9 62.144ZM32.4161 107H28.5421V88.436H39.1761V91.66H32.4161V96.444H38.7081V99.668H32.4161V107ZM48.7397 88.436C51.1317 88.436 52.8737 88.956 53.9657 89.996C55.075 91.0187 55.6297 92.4313 55.6297 94.234C55.6297 95.0487 55.5083 95.8287 55.2657 96.574C55.023 97.302 54.6157 97.9607 54.0437 98.55C53.489 99.122 52.7523 99.5727 51.8337 99.902C50.915 100.231 49.7797 100.396 48.4277 100.396H46.7377V107H42.8117V88.436H48.7397ZM48.5317 91.66H46.7377V97.172H48.0377C48.783 97.172 49.4243 97.0767 49.9617 96.886C50.499 96.6953 50.915 96.392 51.2097 95.976C51.5043 95.56 51.6517 95.0227 51.6517 94.364C51.6517 93.4453 51.4003 92.7693 50.8977 92.336C50.395 91.8853 49.6063 91.66 48.5317 91.66ZM58.8519 87.422L60.2299 85.29C60.8192 85.4287 61.4519 85.6107 62.1279 85.836C62.8039 86.044 63.4625 86.2693 64.1039 86.512C64.7625 86.7373 65.3085 86.954 65.7419 87.162L64.3379 89.528C63.9219 89.32 63.4019 89.086 62.7779 88.826C62.1539 88.5487 61.4952 88.2887 60.8019 88.046C60.1085 87.8033 59.4585 87.5953 58.8519 87.422ZM57.7079 91.816C58.6612 91.6427 59.8052 91.4 61.1399 91.088C62.4919 90.776 63.8525 90.464 65.2219 90.152L65.5079 92.596C64.3812 92.96 63.2372 93.3067 62.0759 93.636C60.9319 93.948 59.8659 94.2427 58.8779 94.52L57.7079 91.816ZM69.2259 86.642H79.2099V88.852H67.4839L69.2259 86.642ZM78.4819 86.642H78.9239L79.3919 86.538L81.4459 87.084C81.1165 87.7773 80.7265 88.488 80.2759 89.216C79.8425 89.944 79.4179 90.5507 79.0019 91.036L76.5579 90.282C76.9045 89.866 77.2599 89.3547 77.6239 88.748C77.9879 88.124 78.2739 87.5433 78.4819 87.006V86.642ZM71.9039 87.578H74.6859C74.5645 88.4967 74.3565 89.3373 74.0619 90.1C73.7672 90.8453 73.3339 91.5127 72.7619 92.102C72.2072 92.674 71.4532 93.1767 70.4999 93.61C69.5639 94.0433 68.3592 94.4073 66.8859 94.702C66.7645 94.3727 66.5652 93.9913 66.2879 93.558C66.0105 93.1073 65.7419 92.752 65.4819 92.492C66.7299 92.284 67.7525 92.0327 68.5499 91.738C69.3472 91.4433 69.9625 91.1053 70.3959 90.724C70.8465 90.3253 71.1845 89.866 71.4099 89.346C71.6352 88.826 71.7999 88.2367 71.9039 87.578ZM74.5299 88.228C74.6339 88.7133 74.8072 89.1813 75.0499 89.632C75.3099 90.0827 75.6999 90.4987 76.2199 90.88C76.7399 91.244 77.4679 91.5733 78.4039 91.868C79.3399 92.1453 80.5445 92.3707 82.0179 92.544C81.7232 92.856 81.4285 93.2633 81.1339 93.766C80.8392 94.2687 80.6139 94.7193 80.4579 95.118C78.8459 94.858 77.5199 94.494 76.4799 94.026C75.4572 93.558 74.6512 93.0293 74.0619 92.44C73.4899 91.8507 73.0479 91.218 72.7359 90.542C72.4412 89.8487 72.2072 89.164 72.0339 88.488L74.5299 88.228ZM69.1479 84.9L71.9039 85.368C71.4012 86.3907 70.8119 87.3787 70.1359 88.332C69.4599 89.268 68.6279 90.1347 67.6399 90.932C67.3625 90.6547 66.9899 90.3773 66.5219 90.1C66.0712 89.8227 65.6552 89.606 65.2739 89.45C66.2272 88.7913 67.0245 88.0633 67.6659 87.266C68.3072 86.4513 68.8012 85.6627 69.1479 84.9ZM64.2599 99.07V100.162H75.5699V99.07H64.2599ZM64.2599 101.93V103.074H75.5699V101.93H64.2599ZM64.2599 96.184V97.302H75.5699V96.184H64.2599ZM61.2439 94.338H78.7159V104.92H61.2439V94.338ZM71.2539 106.298L73.8539 104.816C74.7899 105.145 75.7345 105.501 76.6879 105.882C77.6585 106.246 78.5772 106.619 79.4439 107C80.3279 107.364 81.0732 107.693 81.6799 107.988L78.0399 109.392C77.5545 109.115 76.9479 108.794 76.2199 108.43C75.4919 108.066 74.7032 107.693 73.8539 107.312C73.0219 106.948 72.1552 106.61 71.2539 106.298ZM65.5079 104.712L68.3419 106.012C67.6485 106.463 66.8339 106.905 65.8979 107.338C64.9619 107.771 63.9999 108.161 63.0119 108.508C62.0239 108.872 61.0879 109.175 60.2039 109.418C60.0132 109.21 59.7792 108.959 59.5019 108.664C59.2419 108.387 58.9645 108.101 58.6699 107.806C58.3752 107.529 58.1152 107.303 57.8899 107.13C58.8085 106.957 59.7359 106.749 60.6719 106.506C61.6252 106.263 62.5179 105.986 63.3499 105.674C64.1992 105.362 64.9185 105.041 65.5079 104.712ZM97.3839 87.656H104.248V90.334H97.3839V87.656ZM94.7059 99.564H106.042V109.262H103.026V102.19H97.5919V109.34H94.7059V99.564ZM95.8499 105.752H104.69V108.43H95.8499V105.752ZM97.6699 84.874L100.66 85.706C100.175 86.8847 99.6025 88.0373 98.9439 89.164C98.2852 90.2907 97.5659 91.3393 96.7859 92.31C96.0232 93.2807 95.2345 94.13 94.4199 94.858C94.2639 94.6673 94.0385 94.442 93.7439 94.182C93.4492 93.9047 93.1459 93.636 92.8339 93.376C92.5392 93.116 92.2705 92.908 92.0279 92.752C93.2239 91.8333 94.3159 90.6807 95.3039 89.294C96.3092 87.89 97.0979 86.4167 97.6699 84.874ZM103.442 87.656H103.988L104.508 87.552L106.484 88.462C105.929 90.1087 105.21 91.6167 104.326 92.986C103.459 94.3553 102.454 95.5773 101.31 96.652C100.166 97.7267 98.9179 98.6713 97.5659 99.486C96.2312 100.301 94.8272 100.977 93.3539 101.514C93.1632 101.15 92.8945 100.717 92.5479 100.214C92.2185 99.7113 91.8979 99.304 91.5859 98.992C92.9379 98.5933 94.2292 98.0473 95.4599 97.354C96.7079 96.6433 97.8519 95.8287 98.8919 94.91C99.9492 93.974 100.868 92.9427 101.648 91.816C102.428 90.672 103.026 89.4587 103.442 88.176V87.656ZM97.5139 89.476C98.0512 90.62 98.8225 91.7813 99.8279 92.96C100.833 94.1213 102.055 95.1787 103.494 96.132C104.95 97.0853 106.588 97.822 108.408 98.342C108.217 98.5327 107.992 98.784 107.732 99.096C107.489 99.408 107.255 99.7287 107.03 100.058C106.822 100.387 106.649 100.673 106.51 100.916C104.638 100.257 102.957 99.382 101.466 98.29C99.9925 97.1807 98.7272 95.9587 97.6699 94.624C96.6299 93.2893 95.7979 91.972 95.1739 90.672L97.5139 89.476ZM83.9679 90.282H93.2499V93.168H83.9679V90.282ZM87.3999 84.9H90.3379V109.314H87.3999V84.9ZM87.3479 92.284L89.1419 92.882C88.9339 93.922 88.6825 95.0053 88.3879 96.132C88.1105 97.2413 87.7812 98.3333 87.3999 99.408C87.0185 100.465 86.6112 101.453 86.1779 102.372C85.7445 103.291 85.2852 104.079 84.7999 104.738C84.6612 104.322 84.4445 103.845 84.1499 103.308C83.8552 102.771 83.5865 102.311 83.3439 101.93C83.7945 101.358 84.2192 100.691 84.6179 99.928C85.0165 99.1653 85.3892 98.3593 85.7359 97.51C86.0999 96.6433 86.4119 95.768 86.6719 94.884C86.9492 93.9827 87.1745 93.116 87.3479 92.284ZM90.2339 93.688C90.3899 93.8267 90.6152 94.0693 90.9099 94.416C91.2219 94.7627 91.5512 95.144 91.8979 95.56C92.2445 95.976 92.5565 96.3573 92.8339 96.704C93.1285 97.0507 93.3365 97.2933 93.4579 97.432L91.7679 99.798C91.6119 99.4687 91.4039 99.0873 91.1439 98.654C90.9012 98.2207 90.6325 97.77 90.3379 97.302C90.0605 96.834 89.7832 96.392 89.5059 95.976C89.2459 95.56 89.0205 95.222 88.8299 94.962L90.2339 93.688ZM123.956 94.104H127.076V109.34H123.956V94.104ZM117.092 97.38H133.81V100.188H117.092V97.38ZM127.674 98.628C128.159 99.564 128.766 100.491 129.494 101.41C130.239 102.329 131.045 103.178 131.912 103.958C132.796 104.738 133.689 105.388 134.59 105.908C134.365 106.081 134.105 106.315 133.81 106.61C133.533 106.905 133.264 107.208 133.004 107.52C132.761 107.832 132.553 108.118 132.38 108.378C131.479 107.737 130.586 106.939 129.702 105.986C128.835 105.033 128.021 104.001 127.258 102.892C126.513 101.765 125.871 100.621 125.334 99.46L127.674 98.628ZM123.514 98.368L125.958 99.226C125.403 100.439 124.727 101.627 123.93 102.788C123.133 103.932 122.257 104.981 121.304 105.934C120.351 106.87 119.354 107.667 118.314 108.326C118.158 108.066 117.95 107.78 117.69 107.468C117.447 107.156 117.187 106.861 116.91 106.584C116.65 106.289 116.399 106.038 116.156 105.83C117.161 105.31 118.132 104.66 119.068 103.88C120.004 103.083 120.853 102.216 121.616 101.28C122.396 100.327 123.029 99.356 123.514 98.368ZM121.772 88.8V92.284H129.416V88.8H121.772ZM118.834 86.044H132.562V95.014H118.834V86.044ZM115.428 84.978L118.314 85.914C117.742 87.3873 117.057 88.8607 116.26 90.334C115.48 91.79 114.631 93.1767 113.712 94.494C112.811 95.794 111.883 96.938 110.93 97.926C110.843 97.666 110.705 97.3367 110.514 96.938C110.323 96.5393 110.115 96.132 109.89 95.716C109.665 95.3 109.457 94.9707 109.266 94.728C110.081 93.9307 110.869 93.012 111.632 91.972C112.395 90.932 113.097 89.814 113.738 88.618C114.397 87.422 114.96 86.2087 115.428 84.978ZM112.906 92.154L115.87 89.19V89.216V109.262H112.906V92.154ZM136.228 88.046H159.42V90.984H136.228V88.046ZM143.248 97.432H154.532V100.032H143.248V97.432ZM140.934 93.038H154.064V95.768H144.002V109.314H140.934V93.038ZM153.44 93.038H156.508V105.96C156.508 106.723 156.413 107.329 156.222 107.78C156.049 108.231 155.693 108.577 155.156 108.82C154.636 109.063 153.995 109.21 153.232 109.262C152.469 109.314 151.559 109.34 150.502 109.34C150.45 108.907 150.329 108.395 150.138 107.806C149.965 107.234 149.774 106.74 149.566 106.324C150.017 106.341 150.467 106.359 150.918 106.376C151.369 106.393 151.767 106.402 152.114 106.402C152.478 106.402 152.729 106.402 152.868 106.402C153.093 106.385 153.241 106.341 153.31 106.272C153.397 106.203 153.44 106.081 153.44 105.908V93.038ZM144.288 84.9L147.512 85.628C146.905 87.5693 146.143 89.502 145.224 91.426C144.323 93.3327 143.231 95.1093 141.948 96.756C140.683 98.4027 139.201 99.8153 137.502 100.994C137.346 100.769 137.138 100.509 136.878 100.214C136.635 99.902 136.384 99.6073 136.124 99.33C135.881 99.0353 135.656 98.7927 135.448 98.602C136.592 97.8393 137.632 96.938 138.568 95.898C139.521 94.858 140.362 93.7313 141.09 92.518C141.835 91.2873 142.468 90.0307 142.988 88.748C143.525 87.448 143.959 86.1653 144.288 84.9ZM143.248 101.722H154.532V104.322H143.248V101.722Z" fill="#E33B60"/>
</svg>
