<svg width="70" height="67" viewBox="0 0 70 67" fill="none" xmlns="http://www.w3.org/2000/svg">
<path d="M45.4547 10.8722C45.6931 4.69346 40.7775 0 35.0129 0C29.2482 0 24.4221 4.61919 24.5412 10.8722C24.5412 16.7984 29.2185 28.1905 35.0129 28.1905C40.8073 28.1905 45.2164 16.7242 45.4547 10.8722Z" fill="#FDD23E"/>
<path d="M27.3926 32.8665C29.18 27.3859 19.617 19.6179 14.1205 17.5979C8.29633 15.474 2.30827 18.6673 0.520789 24.1628C-1.26669 29.6435 1.65287 35.5994 7.65582 37.4263C13.3013 39.2532 25.6051 38.3472 27.3926 32.8517" fill="#FDD23E"/>
<path d="M29.5372 41.5064C24.8599 38.1348 14.4777 44.7888 10.8729 49.3932C7.04472 54.25 8.23637 60.9189 12.9136 64.3053C17.561 67.6917 24.1747 66.756 27.7646 61.6467C31.2501 56.8492 34.1697 44.8928 29.5222 41.5064" fill="#FDD23E"/>
<path d="M38.4185 42.1946C33.7711 45.581 36.8992 57.4632 40.1763 62.3349C43.6321 67.4591 50.3798 68.38 55.057 65.0084C59.7044 61.622 60.8812 55.0719 57.0977 50.0814C53.5972 45.284 43.0958 38.8082 38.4185 42.1946Z" fill="#FDD23E"/>
<path d="M68.719 25.241C66.9315 19.7603 61.0626 16.6412 55.1192 18.6761C49.4738 20.5029 40.0597 28.464 41.8472 33.9298C43.6347 39.4105 55.9385 40.0937 61.584 38.5044C67.5273 36.8112 70.5065 30.7068 68.719 25.241Z" fill="#FDD23E"/>
</svg>
