<svg width="355" height="181" viewBox="0 0 355 181" fill="none" xmlns="http://www.w3.org/2000/svg">
<path d="M337.66 11.6037C337.833 7.09765 334.249 3.6748 330.045 3.6748C325.841 3.6748 322.321 7.04349 322.408 11.6037C322.408 15.9256 325.819 24.2335 330.045 24.2335C334.27 24.2335 337.486 15.8714 337.66 11.6037Z" fill="#FDD000"/>
<path d="M324.485 27.6437C325.788 23.6468 318.814 17.9817 314.806 16.5086C310.558 14.9597 306.191 17.2885 304.888 21.2963C303.584 25.2932 305.713 29.6367 310.091 30.9691C314.208 32.3014 323.181 31.6406 324.485 27.6329" fill="#FDD000"/>
<path d="M326.05 33.9445C322.639 31.4857 315.067 36.3383 312.438 39.6962C309.647 43.2382 310.516 48.1017 313.927 50.5713C317.316 53.041 322.139 52.3585 324.757 48.6324C327.299 45.1337 329.428 36.4142 326.039 33.9445" fill="#FDD000"/>
<path d="M332.528 34.4465C329.139 36.9161 331.42 45.5816 333.81 49.1344C336.33 52.8714 341.251 53.5429 344.662 51.0841C348.051 48.6145 348.909 43.8376 346.15 40.1982C343.597 36.6995 335.939 31.9768 332.528 34.4465Z" fill="#FDD000"/>
<path d="M354.622 22.0825C353.319 18.0856 349.039 15.8109 344.704 17.2949C340.587 18.6272 333.722 24.433 335.025 28.4191C336.329 32.416 345.302 32.9143 349.419 31.7553C353.753 30.5205 355.926 26.0686 354.622 22.0825Z" fill="#FDD000"/>
<path d="M127.127 55.0856C127.496 55.313 128.061 55.5947 128.539 55.7788C129.984 56.3637 131.385 55.833 132.004 54.6523C133.058 52.6376 137.208 44.4813 141.748 35.4584C142.139 34.9168 142.737 34.4077 143.791 34.3427C144.953 34.321 146.202 34.3427 147.093 34.4077C149.222 34.5702 149.896 35.87 150.232 37.2673C150.526 38.5021 150.341 42.5207 150.363 44.2321C150.439 51.7169 155.284 55.2914 160.705 55.573C161.421 55.6055 163.312 55.6055 163.898 55.573C169.884 55.2914 173.74 52.1393 174.305 46.0627C174.435 44.5463 174.414 37.8305 174.392 36.9532C174.349 35.6533 173.458 34.6135 171.839 34.4077C171.372 34.3644 170.785 34.3644 170.307 34.4077C168.819 34.5593 167.885 35.5884 167.863 36.9532C167.842 38.3938 167.82 42.6399 167.766 43.8422C167.711 45.0553 167.646 46.301 167.016 47.3084C166.495 48.1424 165.148 48.9115 164.159 48.9656C163.16 49.0198 162.247 49.0414 161.085 48.9656C159.912 48.8898 158.934 48.554 158.043 47.525C157.467 46.8751 157.055 45.012 157.098 43.3873C157.141 41.7516 157.163 38.5563 157.163 37.0398C157.163 35.0251 156.837 32.8912 154.893 30.5949C153.046 28.4177 150.124 27.8003 148.777 27.7461C148.505 27.7461 147.995 27.692 147.495 27.6595C147.006 27.627 145.92 26.9121 146.528 25.9047C147.082 24.9732 155.403 8.21643 155.968 6.97077C156.501 5.79011 156.142 4.44697 154.741 3.5371C154.328 3.27713 153.796 3.01717 153.328 2.85469C151.895 2.3131 150.482 2.76804 149.863 3.9812C147.365 8.84467 128.202 46.7668 125.899 51.6627C125.313 52.8976 125.769 54.3057 127.127 55.0964" fill="#E5005A"/>
<path d="M8.70859 41.9704C10.501 45.924 13.7165 49.8018 17.0189 53.0513C18.4854 54.492 19.7346 55.2393 20.897 54.8927C22.1137 54.5461 23.1131 53.5496 23.7323 52.3798C24.3515 51.1991 23.7323 50.2459 22.3309 48.7403C20.582 46.8555 16.9428 43.3677 15.5415 40.5081C14.7702 38.9375 14.0098 36.3054 14.0098 34.074C14.0098 26.2968 14.0532 10.4716 13.9663 5.90057C13.9446 4.53576 12.9452 3.47424 11.4244 3.35509C11.0116 3.33343 10.1425 3.31177 9.63196 3.35509C8.11113 3.47424 7.12258 4.56826 7.08999 5.90057C6.98136 10.3741 6.98136 26.3401 7.03568 33.2833C7.0574 34.9081 7.42675 39.1108 8.70859 41.9596" fill="#E5005A"/>
<path d="M41.8905 47.5064C41.4994 48.0913 40.5978 48.9687 39.0227 48.9687C37.4475 48.9687 36.6219 48.6437 35.8832 47.7338C35.1228 46.8131 34.9816 43.5961 35.4813 41.9063C35.9919 40.2274 37.4692 39.7725 38.6316 39.5883C39.1639 39.5125 40.2502 39.48 41.1844 39.675C41.9666 39.8375 42.3685 40.1733 42.5097 41.3539C42.727 43.152 42.7922 46.1632 41.8905 47.5064ZM55.9148 32.9268C55.0783 32.9268 53.3185 32.916 51.2219 32.9051C49.9727 32.8835 49.3426 32.3744 49.3209 30.4571C49.3209 29.3415 49.3426 28.0958 49.3426 26.7852C49.3861 24.9654 49.9727 24.4563 51.135 24.4238C51.6673 24.4238 52.1453 24.4022 52.5472 24.3805C53.8508 24.3372 54.8937 23.449 55.0892 21.8459C55.1435 21.3801 55.1435 20.7952 55.0892 20.3186C54.948 18.8346 53.9051 17.8056 52.5472 17.7839C52.091 17.7731 51.6564 17.7731 51.2002 17.7623C50.0487 17.7406 49.4404 17.2857 49.3426 15.6717C49.3426 14.4478 49.3209 13.3321 49.3209 12.3897C49.3535 10.6025 49.9401 10.0609 51.0698 10.0067C51.6782 9.98506 52.1996 9.98506 52.5581 9.97423C53.8617 9.92007 54.9045 9.0427 55.1 7.42876C55.1544 6.96299 55.1544 6.37808 55.1 5.90148C54.9588 4.40669 53.916 3.37767 52.5581 3.35601C47.0722 3.26935 35.6768 3.26935 30.2453 3.35601C28.8874 3.37767 27.8119 4.38503 27.6924 5.90148C27.6707 6.32392 27.6599 6.9305 27.6924 7.42876C27.8119 8.95604 28.9091 9.94173 30.2453 9.97423C32.6569 10.0284 36.698 10.0501 40.7173 10.0501C41.8253 10.115 42.5532 10.7108 42.6183 12.4439C42.6183 13.2563 42.6075 14.1336 42.5966 15.0435H42.5858C42.5858 17.0799 41.8145 17.6973 40.5326 17.7081C39.2508 17.7298 37.9581 17.7515 36.6328 17.7731C35.264 17.7948 34.1994 18.7913 34.0799 20.3078C34.0474 20.7194 34.0474 21.3368 34.0799 21.835C34.1886 23.3515 35.2966 24.3372 36.6328 24.3697C37.3606 24.3913 39.3377 24.4238 40.7933 24.5105C42.2164 24.5755 42.5097 25.6587 42.5858 26.8935C42.6509 28.1283 42.6075 29.2981 42.6075 30.3597C42.5858 32.331 41.7276 32.8726 40.5326 32.9485C40.1633 32.9809 39.2508 32.981 38.838 32.9918C33.0697 33.2084 28.4963 37.0212 28.4963 44.2135C28.4963 51.4058 33.124 55.5544 38.838 55.5544C44.552 55.5544 48.4192 52.0341 49.234 46.0441C49.3535 45.2317 49.3752 43.6178 49.3752 41.863C49.4078 39.935 49.9618 39.6208 51.1459 39.5883C53.2968 39.5883 55.0349 39.5558 55.9039 39.5234C57.2075 39.48 58.2503 38.581 58.4459 36.9887C58.5002 36.5229 58.4893 35.938 58.4459 35.4614C58.3047 33.9666 57.2618 32.9484 55.9039 32.916L55.9148 32.9268Z" fill="#E5005A"/>
<path d="M74.0609 41.9704C75.8533 45.924 79.0688 49.8018 82.3712 53.0513C83.8485 54.492 85.0869 55.2393 86.2384 54.8927C87.4551 54.5461 88.4654 53.5496 89.0846 52.3798C89.7038 51.1991 89.0846 50.2459 87.6724 48.7403C85.9234 46.8555 82.2843 43.3677 80.8829 40.5081C80.1008 38.9375 79.3404 36.3054 79.3404 34.074C79.3404 26.2968 79.3838 10.4716 79.3078 5.90057C79.286 4.53576 78.2758 3.47424 76.7658 3.35509C76.353 3.33343 75.484 3.31177 74.9843 3.35509C73.4526 3.47424 72.464 4.56826 72.4423 5.90057C72.3337 10.3741 72.3228 26.3401 72.388 33.2833C72.4097 34.9081 72.7791 39.1108 74.0609 41.9596" fill="#E5005A"/>
<path d="M120.759 7.71222C119.846 7.69056 117.913 7.67972 116.566 7.66889C115.653 7.58224 115.132 7.09481 115.034 5.73001C115.023 4.98261 115.012 4.35437 115.001 3.8886C114.969 2.55629 113.98 1.46228 112.448 1.35396C111.96 1.32147 111.08 1.32147 110.667 1.35396C109.146 1.47311 108.147 2.52379 108.114 3.8886C108.114 4.31104 108.114 4.83097 108.103 5.43755C107.995 7.00816 107.321 7.58224 106.246 7.6364C101.401 7.6364 96.6644 7.65806 94.1007 7.71222C92.732 7.73388 91.6565 8.74124 91.5479 10.2469C91.5153 10.6693 91.5153 11.2759 91.5479 11.7741C91.6565 13.3014 92.7537 14.2763 94.1007 14.3088C96.5232 14.3738 101.336 14.4063 106.191 14.4063C107.343 14.4713 108.092 15.5328 108.082 17.0601C108.06 18.5657 108.082 30.5673 108.082 34.6725C108.082 36.9039 107.321 39.5252 106.55 41.0958C105.138 43.9446 101.509 47.4324 99.7495 49.3279C98.3482 50.8336 97.729 51.7868 98.3482 52.9674C98.9674 54.1373 99.9776 55.1338 101.183 55.4804C102.346 55.8162 103.584 55.0796 105.051 53.6282C108.375 50.3895 111.579 46.5009 113.361 42.5473C114.654 39.6877 115.023 35.4958 115.045 33.871C115.077 30.1882 115.088 18.3165 115.088 16.8867C115.088 15.457 115.61 14.4496 116.674 14.3521C118.206 14.3413 120.15 14.3304 120.759 14.2979C122.062 14.2546 123.105 13.3664 123.301 11.7633C123.366 11.2975 123.355 10.7126 123.301 10.236C123.159 8.75207 122.127 7.72305 120.759 7.70139" fill="#E5005A"/>
<path d="M230.67 3.31188C225.184 3.2144 192.182 3.2144 186.761 3.31188C185.403 3.33355 184.328 4.3409 184.219 5.84652C184.198 6.12815 184.198 6.43144 184.219 6.75639C184.328 8.28367 185.436 9.26937 186.761 9.30186C188.13 9.33436 194.04 9.36685 195.267 9.37769C196.484 9.37769 196.223 10.905 195.68 11.5657C195.137 12.2156 191.748 16.2559 190.531 18.9097C189.238 21.7693 188.901 25.9611 188.858 27.5859C188.782 30.0231 188.652 37.1287 188.804 44.6026C188.956 52.0766 193.736 55.6511 199.145 55.9435C203.338 56.1602 218.699 55.9544 219.492 55.9435C225.477 55.7811 229.204 52.4882 229.899 46.4224C230.236 43.4003 230.127 31.3662 229.964 27.7051C229.714 21.7476 226.52 17.8915 220.426 17.3282C218.905 17.1874 208.835 17.2199 207.955 17.2524C206.663 17.2849 205.609 18.1839 205.413 19.787C205.348 20.2636 205.37 20.8377 205.413 21.3143C205.555 22.7983 206.597 23.8273 207.955 23.8598C209.4 23.8814 217.189 23.7948 218.395 23.8598C219.611 23.9139 220.839 23.9898 221.882 24.6072C222.479 24.9646 223.348 25.8962 223.348 27.4668C223.348 27.4668 223.348 28.29 223.348 29.5465C223.348 31.5828 222.577 32.2003 221.295 32.2111C215.418 32.1786 205.946 32.2111 202.002 32.2652C200.634 32.2869 199.569 33.2943 199.449 34.8107C199.417 35.2332 199.417 35.8397 199.449 36.338C199.558 37.8653 200.655 38.8401 202.002 38.8835C205.717 38.9701 215.657 38.9918 221.263 38.9593C222.544 38.9701 223.327 39.5875 223.327 41.6131H223.359C223.359 43.1512 223.359 44.2452 223.348 44.4293C223.294 45.6317 223.218 46.8665 222.599 47.8955C222.24 48.4913 221.317 49.3036 219.742 49.347C215.244 49.4553 204.11 49.412 199.526 49.347C198.385 49.3361 197.114 49.022 196.375 48.1122C195.81 47.4406 195.463 46.3791 195.376 44.5268C195.3 42.6746 195.376 34.7349 195.376 34.7349C195.376 31.7453 195.376 28.9724 195.376 26.8169C195.376 24.6613 196.191 21.9642 196.962 20.3828C198.07 18.1298 202.306 13.5588 205.174 10.6233C205.815 10.0817 207.021 9.49684 208.618 9.39935C218.33 9.39935 229.106 9.36685 230.659 9.31269C231.952 9.26937 233.006 8.38116 233.201 6.76723C233.255 6.31229 233.255 6.33395 233.201 5.85736C233.06 4.36257 232.028 3.33355 230.659 3.32272" fill="#E5005A"/>
<path d="M292.559 48.4585C291.408 48.4044 280.773 48.4044 278.035 48.3719C276.894 48.361 275.841 47.8953 275.091 46.9854C274.537 46.3138 273.972 45.4148 273.896 43.5517C273.809 41.7103 273.929 29.3837 273.842 25.1485C273.82 23.7837 272.821 22.7222 271.3 22.603C270.876 22.5814 270.322 22.5705 269.812 22.603C268.291 22.7222 267.313 23.8054 267.27 25.1485C267.161 28.2139 267.107 37.9733 267.215 43.6384C267.368 51.1123 272.136 54.6976 277.557 54.9792C279.904 55.0984 291.147 55.1309 292.559 55.0659C293.863 55.0117 294.906 54.1344 295.101 52.5313C295.166 52.0655 295.144 51.4806 295.101 51.004C294.949 49.52 293.928 48.5235 292.559 48.4693" fill="#E5005A"/>
<path d="M284.846 5.06812C284.846 4.22324 284.846 3.3567 284.825 2.49016C284.803 1.16868 283.814 0.128827 282.337 0.0205088C281.924 -0.00115477 281.327 -0.0119866 280.838 0.0205088C279.35 0.139658 278.383 1.19034 278.361 2.49016C278.339 3.36753 278.318 4.3099 278.307 5.27392C278.242 6.16213 277.84 7.01784 275.884 7.05034C275.526 7.05034 274.483 7.05034 273.766 7.072C272.441 7.09366 271.398 8.06853 271.278 9.55248C271.246 9.96409 271.246 10.1916 271.278 10.679C271.398 12.1629 272.462 13.127 273.766 13.1595C274.581 13.1811 275.45 13.192 276.33 13.2028C277.937 13.3111 278.22 14.0693 278.296 14.8492C278.318 16.0082 278.328 17.3622 278.361 18.0879C278.394 19.3552 279.274 20.3734 280.838 20.5576C281.294 20.6226 281.87 20.6117 282.337 20.5576C283.782 20.4276 284.803 19.4202 284.825 18.0879C284.846 17.2106 284.846 16.0082 284.846 15.1417C284.901 14.2751 285.042 13.3653 286.758 13.2136C287.812 13.192 288.724 13.192 289.398 13.1595C290.68 13.1161 291.701 12.2388 291.896 10.679C291.94 10.2241 291.94 10.0182 291.896 9.55248C291.744 8.10102 290.745 7.09366 289.398 7.072C288.681 7.072 287.834 7.05034 287.28 7.02867C285.085 6.98535 284.89 6.02132 284.835 5.06812" fill="#E5005A"/>
<path d="M258.203 5.06812C258.192 4.22324 258.181 3.3567 258.17 2.49016C258.148 1.16868 257.171 0.128827 255.693 0.0205088C255.28 -0.00115477 254.683 -0.0119866 254.194 0.0205088C252.706 0.139658 251.75 1.19034 251.717 2.49016C251.696 3.36753 251.685 4.3099 251.663 5.27392C251.598 6.16213 251.196 7.01784 249.241 7.05034C248.882 7.05034 247.839 7.05034 247.133 7.072C245.797 7.09366 244.765 8.06853 244.646 9.55248C244.613 9.96409 244.613 10.1916 244.646 10.679C244.754 12.1629 245.819 13.127 247.133 13.1595C247.948 13.1811 248.817 13.192 249.697 13.2028C251.305 13.3111 251.598 14.0693 251.663 14.8492C251.685 16.0082 251.707 17.3622 251.728 18.0879C251.772 19.3552 252.641 20.3734 254.205 20.5576C254.661 20.6226 255.237 20.6117 255.704 20.5576C257.149 20.4276 258.159 19.4202 258.181 18.0879C258.203 17.2106 258.203 16.0082 258.214 15.1417C258.246 14.2751 258.387 13.3653 260.125 13.2136C261.179 13.192 262.092 13.192 262.765 13.1595C264.036 13.1161 265.057 12.2388 265.253 10.679C265.296 10.2241 265.285 10.0182 265.253 9.55248C265.112 8.10102 264.101 7.09366 262.765 7.072C262.048 7.072 261.19 7.05034 260.647 7.02867C258.453 6.98535 258.257 6.02132 258.214 5.06812" fill="#E5005A"/>
<path d="M261.044 23.5351C259.969 22.4411 258.502 22.387 257.449 23.221C253.19 26.6114 245.945 32.7963 243.674 34.8435C242.707 35.7101 242.468 37.0749 243.359 38.4288C243.609 38.808 244 39.2521 244.337 39.5987C245.412 40.6385 246.857 40.7685 247.932 39.9128C248.704 39.2954 249.899 38.2555 250.344 37.9306C250.779 37.6165 251.528 37.9631 251.55 38.8946C251.572 39.8261 251.561 50.5388 251.637 52.5535C251.669 53.8533 252.56 54.8932 254.179 55.099C254.646 55.164 255.232 55.1423 255.71 55.099C257.199 54.9582 258.242 53.9183 258.263 52.5535C258.35 47.5059 258.296 33.5329 258.285 32.8071C258.263 32.0922 258.709 30.8899 259.111 30.5433C259.513 30.1967 260.903 28.9944 261.739 28.2795C262.771 27.3804 262.934 25.9398 262.044 24.705C261.805 24.3584 261.414 23.8817 261.066 23.5243" fill="#E5005A"/>
<path d="M293.897 23.6455C292.832 22.5515 291.355 22.4973 290.312 23.3314C286.053 26.7217 279.557 32.1701 277.265 34.2173C276.298 35.0839 276.07 36.4378 276.961 37.8026C277.222 38.1817 277.602 38.6367 277.95 38.9616C279.014 40.0123 280.47 40.1315 281.524 39.2758C285.793 35.8312 290.464 31.9426 294.581 28.4006C295.602 27.5016 295.776 26.0501 294.874 24.8153C294.646 24.4687 294.233 24.0029 293.897 23.6455Z" fill="#E5005A"/>
<path d="M0 81.9804C0 78.7838 2.59139 76.1924 5.78804 76.1924H349.212C352.409 76.1924 355 78.7838 355 81.9804V111.885C355 115.082 352.409 117.673 349.212 117.673H5.78805C2.59141 117.673 0 115.082 0 111.885V81.9804Z" fill="#FF2978"/>
<path d="M322.424 87.3739H331.766C332.144 87.3739 333.17 87.3739 333.17 88.6429C333.17 89.6419 332.792 90.0739 331.766 90.0739H314.189C313.271 90.0739 312.812 90.5329 312.812 91.4509V97.4179C312.812 100.064 312.596 104.519 311.219 107.975C310.625 109.487 310.22 109.865 309.518 109.865C308.708 109.865 307.898 109.325 307.898 108.434C307.898 108.056 307.979 107.813 308.87 105.734C309.572 104.06 310.004 101.198 310.004 97.3909V90.9379C310.004 88.2649 311.03 87.3739 313.541 87.3739H319.454V86.0779C319.454 85.0249 320.102 84.7549 320.858 84.7549C321.533 84.7549 322.424 84.8359 322.424 86.0779V87.3739ZM320.858 99.3349V91.5319C320.858 91.1539 320.858 90.2629 322.154 90.2629C323.288 90.2629 323.639 90.6409 323.639 91.5319V93.4219H331.766C332.198 93.4219 333.143 93.4759 333.143 94.7179C333.143 95.7169 332.576 96.0139 331.766 96.0139H323.639V99.3349H328.445C330.524 99.3349 331.442 100.064 331.442 102.332V106.679C331.442 109.028 330.443 109.676 328.445 109.676H316.997C314.999 109.676 314 109.028 314 106.679V102.332C314 100.091 314.891 99.3349 316.997 99.3349H320.858ZM328.634 106.004V102.953C328.634 102.224 328.256 101.873 327.554 101.873H317.834C317.132 101.873 316.781 102.197 316.781 102.953V106.004C316.781 106.706 317.105 107.084 317.834 107.084H327.554C328.283 107.084 328.634 106.706 328.634 106.004Z" fill="white"/>
<path d="M290.619 92.7737C290.241 93.9887 289.728 95.6627 288.783 98.1467C289.836 97.5797 292.698 96.0137 296.559 96.0137C302.337 96.0137 304.227 99.3887 304.227 102.116C304.227 103.655 303.633 106.382 300.393 107.867C298.314 108.812 295.074 109.136 292.536 109.136C290.484 109.136 288.135 108.947 287.19 108.677C286.731 108.542 286.299 108.137 286.299 107.354C286.299 106.571 286.839 106.004 287.568 106.004C287.838 106.004 288.054 106.004 288.621 106.085C289.89 106.247 290.943 106.355 292.428 106.355C293.778 106.355 301.203 106.355 301.203 102.008C301.203 100.766 300.447 98.6057 296.397 98.6057C292.941 98.6057 289.755 100.253 288.27 101.198C287.055 101.981 286.893 102.062 286.542 102.062C285.732 102.062 284.976 101.441 284.976 100.685C284.976 100.334 285.408 99.3887 285.732 98.6327C286.029 97.8767 286.866 95.7707 287.73 92.8277C282.924 92.8547 282.168 92.8547 282.168 91.2887C282.168 90.8027 282.357 89.9117 283.491 89.9117C284.139 89.9117 286.974 90.0467 287.541 90.0467H288.486C288.621 89.4797 289.161 87.0227 289.296 86.5367C289.458 85.9157 289.674 85.4297 290.673 85.4297C291.429 85.4297 292.239 85.7807 292.239 86.5637C292.239 87.0497 291.645 89.2097 291.429 89.9657C295.398 89.8037 298.53 89.2907 299.799 89.0747C301.689 88.7507 301.905 88.7237 302.202 88.7237C303.498 88.7237 303.498 90.0737 303.498 90.2087C303.498 91.2887 302.715 91.4777 301.338 91.7207C296.775 92.5037 291.321 92.7467 290.619 92.7737Z" fill="white"/>
<path d="M268.533 92.0447V94.7177C269.532 94.6907 273.906 94.5017 274.797 94.5017C275.229 94.5017 276.417 94.5017 276.417 95.9327C276.417 97.2017 275.445 97.2557 275.04 97.2827C273.528 97.3907 270.207 97.4447 268.56 97.4717L268.587 101.117C270.585 101.576 273.609 102.845 275.283 103.844C276.39 104.492 276.579 104.978 276.579 105.464C276.579 106.382 275.904 107.111 275.148 107.111C274.797 107.111 274.365 106.868 273.015 106.058C271.233 104.978 269.316 104.276 268.587 104.033C268.533 106.004 268.506 109.217 262.944 109.217C259.218 109.217 256.896 107.489 256.896 104.924C256.896 104.465 256.896 100.523 263.511 100.523C264.159 100.523 265.077 100.577 265.617 100.631V97.5257C260.46 97.5797 258.867 97.5527 258.624 97.5527C257.949 97.5257 257.004 97.4717 257.004 96.1217C257.004 94.7447 258.084 94.7447 258.705 94.7447C259.785 94.7447 264.618 94.7717 265.59 94.7447L265.563 92.0717C263.619 92.0987 259.542 92.1257 257.733 92.0717C257.004 92.0447 256.059 92.0177 256.059 90.6677C256.059 89.2637 257.139 89.2637 257.814 89.2637C259.029 89.2637 264.456 89.3177 265.563 89.3177L265.536 86.8607C265.536 86.1857 265.833 85.5107 266.967 85.5107C267.399 85.5107 268.506 85.5107 268.506 86.8607V89.2907C269.694 89.2907 274.932 89.1017 276.012 89.1017C276.363 89.1017 277.524 89.1017 277.524 90.4787C277.524 91.8287 276.444 91.8557 276.093 91.8827C272.934 91.9907 271.989 91.9907 268.533 92.0447ZM265.644 103.25C265.239 103.196 264.564 103.088 263.511 103.088C260.298 103.088 259.704 104.222 259.704 104.951C259.704 106.193 261.189 106.679 262.647 106.679C265.644 106.679 265.644 105.383 265.644 103.25Z" fill="white"/>
<path d="M242.854 100.415C242.827 99.7129 242.638 96.3109 242.638 95.5549C242.638 94.9609 242.854 94.1239 243.988 94.1239C244.204 94.1239 245.365 94.1509 245.5 95.3659C245.554 96.0139 245.716 100.091 245.743 101.252C247.606 101.954 249.118 102.737 250.09 103.385C250.846 103.871 251.116 104.195 251.116 104.789C251.116 105.572 250.576 106.49 249.685 106.49C249.442 106.49 249.118 106.301 248.092 105.653C247.363 105.194 246.391 104.681 245.824 104.411C245.824 106.139 245.635 109.217 240.451 109.217C236.941 109.217 234.403 107.516 234.403 104.654C234.403 102.386 236.158 100.118 240.127 100.118C241.207 100.118 241.99 100.253 242.854 100.415ZM242.935 103.223C242.503 103.088 241.342 102.737 239.992 102.737C237.886 102.737 237.076 103.628 237.076 104.627C237.076 106.112 238.777 106.625 240.154 106.625C240.937 106.625 242.746 106.463 242.908 105.032C242.962 104.6 242.935 104.276 242.935 103.223ZM236.185 92.5579C235.213 95.3929 233.62 99.3079 232.324 101.954C231.244 104.168 230.893 104.681 230.002 104.681C229.246 104.681 228.328 104.168 228.328 103.25C228.328 102.791 228.463 102.602 229.354 100.982C229.867 100.064 231.622 96.4459 232.945 92.7739C231.703 92.8279 230.812 92.8279 230.758 92.8279C229.705 92.8279 228.463 92.8279 228.463 91.2889C228.463 89.8579 229.516 89.8579 230.11 89.8579C230.92 89.8579 233.242 89.8579 233.917 89.8309C234.079 89.3179 234.7 86.9689 234.862 86.5099C235.159 85.5379 235.915 85.4839 236.239 85.4839C236.914 85.4839 237.913 85.8079 237.913 86.6989C237.913 87.2119 237.373 88.9129 237.157 89.5609C237.616 89.5069 239.641 89.1829 240.073 89.1829C240.937 89.1829 241.261 89.8579 241.261 90.5869C241.261 91.9639 240.775 92.0719 236.185 92.5579ZM244.42 89.4259C245.176 89.4259 247.174 90.3979 248.956 91.2889C250.522 92.0719 251.143 92.4229 251.143 93.2599C251.143 94.0699 250.63 94.8799 249.901 94.8799C249.442 94.8799 249.226 94.7989 247.606 93.8539C246.58 93.2599 244.366 92.2879 243.853 92.0719C243.232 91.8019 242.962 91.4509 242.962 90.9109C242.962 89.9929 243.691 89.4259 244.42 89.4259Z" fill="white"/>
<path d="M202.924 92.4227L207.919 91.8287C208.081 91.0457 208.702 87.5627 208.837 86.8607C208.945 86.3477 209.107 85.6997 210.241 85.6997C211.24 85.6997 211.78 86.2127 211.78 86.8337C211.78 87.4277 211.294 89.6687 210.889 91.5047C217.261 91.0997 218.341 94.3397 218.341 98.9027C218.341 107.921 215.533 108.812 212.401 108.812C209.809 108.812 208.945 108.353 208.945 107.165C208.945 106.274 209.431 105.734 210.106 105.734C210.511 105.734 211.672 105.95 212.158 105.95C213.643 105.95 215.398 105.707 215.398 98.8217C215.398 96.1217 215.236 94.1777 211.969 94.1777C211.456 94.1777 210.97 94.2047 210.214 94.2587C208.513 100.55 207.028 104.033 205.705 106.544C204.895 108.056 204.517 108.731 203.734 108.731C203.059 108.731 202.087 108.272 202.087 107.327C202.087 107.003 202.33 106.571 203.005 105.356C204.652 102.413 206.137 98.6597 207.217 94.5827C206.461 94.6907 202.789 95.2847 202.465 95.2847C201.682 95.2847 201.223 94.6637 201.223 93.8537C201.223 92.7197 201.952 92.5307 202.924 92.4227ZM219.178 88.9127C220.204 88.9127 221.284 90.4787 222.229 92.0447C224.011 95.0147 224.767 98.3627 224.767 99.6587C224.767 100.631 224.119 101.117 223.12 101.117C222.013 101.117 221.905 100.739 221.635 99.0377C221.365 97.3907 220.447 94.3397 218.503 91.7207C217.801 90.7757 217.666 90.5597 217.666 90.1817C217.666 89.5607 218.314 88.9127 219.178 88.9127Z" fill="white"/>
<path d="M174.734 106.922V95.2039C174.734 93.1519 175.166 92.4229 177.434 92.4229H178.433V91.1809C178.433 90.9109 178.433 89.8039 179.621 89.8039C180.62 89.8039 180.836 90.5329 180.836 91.1809V92.4229H181.754C183.887 92.4229 183.968 93.7999 183.968 95.2039V99.4429C183.968 101.684 183.374 102.224 181.484 102.224H177.191V106.328C177.65 106.22 178.109 106.112 178.757 105.95C179.081 105.869 180.458 105.491 180.728 105.41C180.161 104.303 180.053 104.06 180.053 103.763C180.053 103.115 180.728 102.656 181.43 102.656C182.132 102.656 182.348 103.034 182.996 104.195C183.023 104.276 184.643 107.246 184.643 108.056C184.643 108.785 183.941 109.271 183.212 109.271C182.483 109.271 182.267 108.866 182.159 108.623C182.078 108.434 181.781 107.651 181.7 107.489C180.944 107.759 175.112 109.622 174.194 109.622C173.6 109.622 173.06 109.001 173.06 108.245C173.06 107.327 173.519 107.192 174.734 106.922ZM177.191 95.3389V96.3379H181.673V95.3389C181.673 94.8259 181.43 94.5559 180.89 94.5559H177.947C177.38 94.5559 177.191 94.8529 177.191 95.3389ZM181.673 99.2809V98.2819H177.191V100.037H180.89C181.403 100.037 181.673 99.7939 181.673 99.2809ZM188.963 87.6979H196.955C197.36 87.6979 198.359 87.7249 198.359 89.0209C198.359 90.2629 197.495 90.3709 196.955 90.3709H192.554V93.6649H194.606C196.847 93.6649 197.414 94.2049 197.414 96.4729V105.383C197.414 107.678 195.983 107.678 194.525 107.678C194.039 107.678 192.986 107.678 192.986 106.193C192.986 105.167 193.472 105.059 194.282 105.005C194.876 104.951 195.038 104.951 195.038 104.303V96.9319C195.038 96.4459 194.822 96.1759 194.282 96.1759H192.554V109.109C192.554 109.46 192.554 110.378 191.312 110.378C190.097 110.378 190.043 109.541 190.043 109.109V96.1759H188.369C187.856 96.1759 187.613 96.4189 187.613 96.9319V106.598C187.613 106.922 187.613 107.84 186.533 107.84C185.669 107.84 185.318 107.489 185.318 106.598V96.4729C185.318 94.2589 185.831 93.6649 188.099 93.6649H190.043V90.3709H187.667C186.236 92.9359 185.804 93.0439 185.318 93.0439C184.589 93.0439 183.941 92.4499 183.941 91.8019C183.941 91.4239 184.022 91.2889 184.886 90.0469C185.642 88.9939 186.56 86.6989 186.83 85.9429C187.073 85.3219 187.289 84.7549 188.126 84.7549C188.504 84.7549 189.584 84.9439 189.584 85.8349C189.584 86.2399 189.368 86.7259 188.963 87.6979ZM179.837 87.5089C179.648 87.5089 179.621 87.5629 179.432 87.8599C178.325 89.5069 177.11 90.9109 175.868 91.9639C174.842 92.8549 174.545 92.9629 174.194 92.9629C173.411 92.9629 172.844 92.1259 172.844 91.4779C172.844 90.9649 173.168 90.6949 173.6 90.3709C175.679 88.8589 176.543 87.7519 177.812 86.0239C178.271 85.4029 178.622 84.8899 179.81 84.8899C180.809 84.8899 181.052 85.1599 182.078 86.2669C182.996 87.2659 183.239 87.4549 184.481 88.3999C184.886 88.7239 185.021 88.9939 185.021 89.3449C185.021 90.1819 184.346 90.8839 183.59 90.8839C183.239 90.8839 183.131 90.8839 181.673 89.4799C181.052 88.8859 180.377 88.0219 180.269 87.8599C180.08 87.6169 179.999 87.5089 179.837 87.5089Z" fill="white"/>
<path d="M154.834 99.4967H168.037C168.658 99.4967 169.198 99.6587 169.63 99.9287C170.251 100.334 170.494 100.928 170.494 102.143C170.494 102.845 170.305 107.354 169.63 108.758C169.009 110.081 167.821 110.081 165.553 110.081C164.122 110.081 163.15 110.081 163.15 108.461C163.15 107.327 163.96 107.327 164.419 107.327C164.662 107.327 165.688 107.381 165.904 107.381C166.957 107.381 167.254 107.111 167.416 105.761C167.551 104.789 167.659 102.629 167.659 102.494C167.659 102.197 167.659 101.576 166.822 101.576H153.16C152.863 101.9 152.512 102.224 152.053 102.629V103.79C153.025 103.709 155.941 103.358 158.128 102.953C158.641 102.845 161.044 102.251 161.395 102.251C162.34 102.251 162.34 103.277 162.34 103.493C162.34 104.222 162.205 104.249 160.18 104.708C158.533 105.086 155.374 105.491 152.053 105.761C152.053 107.084 152.134 107.084 154.618 107.084C155.455 107.084 159.694 107.084 160.099 107.003C160.612 106.922 160.666 106.814 161.098 105.68C161.206 105.41 161.395 104.951 162.151 104.951C162.286 104.951 163.582 104.951 163.582 106.058C163.582 106.49 163.258 108.299 162.259 108.893C161.773 109.19 161.665 109.217 156.157 109.217C155.212 109.217 151.297 109.217 150.838 109.109C149.353 108.812 149.299 107.516 149.299 106.409V104.627C148.111 105.329 147.76 105.437 147.409 105.437C146.41 105.437 146.059 104.492 146.059 103.952C146.059 103.169 146.626 102.872 148.138 102.089C148.894 101.711 150.784 100.496 152.08 98.5247H151.594C149.461 98.5247 148.786 98.0657 148.786 95.7977V93.0437C148.786 90.8027 149.407 90.2897 151.594 90.2897H153.106C152.755 90.0737 152.674 89.8847 152.674 89.4257V88.8857H147.436C146.896 88.8857 146.059 88.8047 146.059 87.6977C146.059 86.7797 146.626 86.5097 147.436 86.5097H152.674V85.9427C152.674 85.6457 152.674 84.7817 153.97 84.7817C154.996 84.7817 155.401 85.1057 155.401 85.9427V86.5097H161.935V85.9427C161.935 85.6187 161.935 84.7817 163.231 84.7817C164.284 84.7817 164.689 85.1057 164.689 85.9427V86.5097H169.981C170.413 86.5097 171.358 86.5637 171.358 87.6977C171.358 88.6157 170.764 88.8857 169.981 88.8857H164.689V89.4257C164.689 89.9927 164.473 90.1277 164.23 90.2897H165.823C167.983 90.2897 168.604 90.8027 168.604 93.0437V95.7977C168.604 98.0657 167.956 98.5247 165.823 98.5247H155.428C155.104 99.0647 154.996 99.2267 154.834 99.4967ZM151.594 93.5297H165.796V92.9357C165.796 92.5037 165.634 92.1797 165.067 92.1797H152.323C151.702 92.1797 151.594 92.5577 151.594 92.9357V93.5297ZM161.935 89.4257V88.8857H155.401V89.4257C155.401 89.8847 155.239 90.1007 154.969 90.2897H162.34C162.097 90.1007 161.935 89.9927 161.935 89.4257ZM165.796 95.2307H151.594V95.9597C151.594 96.4187 151.783 96.7157 152.323 96.7157H165.067C165.58 96.7157 165.796 96.4187 165.796 95.9597V95.2307Z" fill="white"/>
<path d="M122.599 104.141C122.761 104.141 123.814 104.573 124.03 104.654C124.651 104.897 125.785 105.302 127.216 105.302C129.538 105.302 131.644 104.249 131.644 101.981C131.644 99.6321 129.565 98.9031 127.594 98.2011C125.11 97.3371 121.897 96.1491 121.897 92.2071C121.897 88.8321 124.462 85.9971 128.647 85.9971C130.78 85.9971 132.589 86.7531 132.94 86.9691C133.48 87.2931 133.669 87.6981 133.669 88.2381C133.669 89.0751 133.048 89.7771 132.346 89.7771C132.103 89.7771 131.806 89.6691 131.212 89.4531C130.375 89.1291 129.592 88.9671 128.728 88.9671C126.136 88.9671 125.137 90.6951 125.137 92.0721C125.137 94.1241 126.838 94.7181 128.782 95.3661C131.59 96.3381 134.911 97.4991 134.911 101.765C134.911 105.815 131.617 108.272 127.351 108.272C126.325 108.272 124.273 108.137 122.167 107.111C121.681 106.868 121.168 106.517 121.168 105.707C121.168 104.951 121.681 104.141 122.599 104.141Z" fill="white"/>
<path d="M114.41 106.706V87.5361C114.41 86.2401 115.274 85.9971 116.03 85.9971C117.083 85.9971 117.704 86.4291 117.704 87.5361V106.706C117.704 107.651 117.245 108.272 116.084 108.272C115.301 108.272 114.41 108.056 114.41 106.706Z" fill="white"/>
<path d="M90.06 95.7171L97.917 87.0771C97.998 86.9961 98.349 86.5371 98.43 86.4561C98.808 86.0781 99.186 85.9971 99.483 85.9971C100.347 85.9971 101.211 86.6451 101.211 87.4281C101.211 87.8061 100.914 88.2651 100.671 88.5081L93.354 96.2301L101.373 105.491C101.751 105.923 102.048 106.301 102.048 106.787C102.048 107.732 100.968 108.272 100.266 108.272C99.564 108.272 99.213 107.813 98.673 107.165L90.06 96.7701V106.733C90.06 107.678 89.574 108.272 88.44 108.272C87.441 108.272 86.793 107.867 86.793 106.733V87.5091C86.793 86.5911 87.252 85.9971 88.413 85.9971C89.439 85.9971 90.06 86.4021 90.06 87.5091V95.7171Z" fill="white"/>
<path d="M78.1497 98.4977L83.1448 105.41C83.5768 106.004 83.7928 106.409 83.7928 106.841C83.7928 107.732 82.7937 108.272 82.0107 108.272C81.2817 108.272 81.0387 107.867 80.5798 107.192L74.6938 98.6327H73.1818V106.76C73.1818 107.111 73.1817 108.272 71.5887 108.272C70.4817 108.272 69.9688 107.786 69.9688 106.76V89.6687C69.9688 88.5347 69.9687 86.4287 73.0737 86.4287H76.0978C77.3668 86.4287 78.8787 86.4557 80.2827 87.1847C82.3887 88.2647 83.3608 90.3977 83.3608 92.5847C83.3608 94.7717 82.4158 96.3647 81.1468 97.3367C80.0668 98.1737 79.1218 98.3357 78.1497 98.4977ZM73.1818 95.8247H75.8008C76.6918 95.8247 80.0938 95.8247 80.0938 92.6387C80.0938 89.3987 77.3938 89.3987 75.8278 89.3987H74.1268C73.4788 89.3987 73.1818 89.5607 73.1818 90.3437V95.8247Z" fill="white"/>
<path d="M52.7323 102.278L51.1123 106.706C50.7343 107.732 50.5453 108.272 49.5463 108.272C48.7903 108.272 47.6562 107.921 47.6562 106.922C47.6562 106.679 47.7102 106.409 48.0072 105.626L54.6763 88.2111C55.0543 87.2121 55.5403 85.9971 57.3493 85.9971C59.2123 85.9971 59.6713 87.1581 60.0763 88.2111L66.7453 105.626C66.9613 106.22 67.0963 106.571 67.0963 106.922C67.0963 107.894 65.9892 108.272 65.2332 108.272C64.1802 108.272 63.9643 107.678 63.6133 106.706L62.0203 102.278H52.7323ZM53.7583 99.4971H60.9943L57.3763 89.5881L53.7583 99.4971Z" fill="white"/>
<path d="M33.6087 103.844L38.6037 88.5081C39.0897 87.0231 39.4137 85.9971 41.1417 85.9971C43.3287 85.9971 43.5717 87.6711 43.6797 88.5081L46.1367 105.95C46.1907 106.409 46.2447 106.652 46.2447 106.895C46.2447 108.218 44.7867 108.272 44.4897 108.272C43.1667 108.272 43.0587 107.516 42.9237 106.463L40.8717 90.9111L35.8227 106.463C35.5797 107.246 35.2557 108.272 33.6357 108.272C31.9617 108.272 31.6647 107.3 31.3947 106.463L26.3457 90.9111L24.2937 106.463C24.1587 107.489 24.0507 108.272 22.7277 108.272C22.1877 108.272 20.9727 108.11 20.9727 106.922C20.9727 106.652 21.0267 106.355 21.0807 105.977L23.5377 88.5081C23.6727 87.5901 23.8887 85.9971 26.0487 85.9971C27.8037 85.9971 28.1277 86.9961 28.6137 88.5081L33.6087 103.844Z" fill="white"/>
<path d="M299.908 156.301H317.484V172.733H299.908V167.637H311.608V161.449H299.908V156.301ZM297.204 156.301H302.976V175.697H297.204V156.301ZM288.728 140.805H301.728V145.017H288.728V140.805ZM312.856 140.805H325.96V145.017H312.856V140.805ZM323.36 133.265H329.704V172.629C329.704 174.362 329.496 175.714 329.08 176.685C328.664 177.655 327.919 178.401 326.844 178.921C325.735 179.441 324.348 179.77 322.684 179.909C321.02 180.047 318.975 180.117 316.548 180.117C316.513 179.493 316.375 178.799 316.132 178.037C315.889 177.274 315.629 176.494 315.352 175.697C315.075 174.934 314.763 174.275 314.416 173.721C315.456 173.79 316.496 173.842 317.536 173.877C318.576 173.877 319.495 173.877 320.292 173.877C321.124 173.842 321.713 173.825 322.06 173.825C322.545 173.825 322.875 173.738 323.048 173.565C323.256 173.357 323.36 173.01 323.36 172.525V133.265ZM289.196 133.265H305.68V152.713H289.196V147.981H299.804V137.997H289.196V133.265ZM326.74 133.265V137.997H315.092V148.085H326.74V152.765H309.164V133.265H326.74ZM285.66 133.265H291.848V180.117H285.66V133.265Z" fill="#DD1760"/>
<path d="M250.508 131.289L254.304 134.981C252.848 135.397 251.219 135.778 249.416 136.125C247.648 136.471 245.845 136.749 244.008 136.957C242.171 137.165 240.403 137.321 238.704 137.425C238.6 136.905 238.409 136.281 238.132 135.553C237.889 134.79 237.612 134.166 237.3 133.681C238.895 133.507 240.489 133.317 242.084 133.109C243.713 132.866 245.256 132.589 246.712 132.277C248.203 131.965 249.468 131.635 250.508 131.289ZM273.024 131.341L276.82 134.981C275.26 135.466 273.527 135.882 271.62 136.229C269.713 136.541 267.755 136.801 265.744 137.009C263.768 137.217 261.861 137.39 260.024 137.529C259.92 136.974 259.729 136.333 259.452 135.605C259.175 134.842 258.915 134.201 258.672 133.681C260.371 133.542 262.104 133.351 263.872 133.109C265.64 132.866 267.321 132.589 268.916 132.277C270.545 131.965 271.915 131.653 273.024 131.341ZM235.584 132.433L242.292 134.097C242.257 134.513 241.841 134.79 241.044 134.929V137.477C241.044 138.829 240.888 140.389 240.576 142.157C240.264 143.89 239.692 145.641 238.86 147.409C238.063 149.142 236.867 150.754 235.272 152.245C234.995 151.829 234.613 151.378 234.128 150.893C233.643 150.373 233.14 149.887 232.62 149.437C232.1 148.951 231.615 148.587 231.164 148.345C232.481 147.201 233.435 145.987 234.024 144.705C234.648 143.422 235.064 142.139 235.272 140.857C235.48 139.539 235.584 138.309 235.584 137.165V132.433ZM257.164 132.485L263.82 133.993C263.785 134.478 263.369 134.773 262.572 134.877V137.529C262.572 138.742 262.399 140.129 262.052 141.689C261.705 143.214 261.047 144.739 260.076 146.265C259.105 147.755 257.701 149.09 255.864 150.269C255.656 149.853 255.327 149.385 254.876 148.865C254.425 148.31 253.957 147.79 253.472 147.305C252.987 146.785 252.519 146.403 252.068 146.161C253.524 145.259 254.599 144.306 255.292 143.301C256.02 142.295 256.505 141.273 256.748 140.233C257.025 139.193 257.164 138.187 257.164 137.217V132.485ZM238.028 139.037H255.344V143.561H238.028V139.037ZM259.452 139.037H278.9V143.561H259.452V139.037ZM244.892 140.545H250.404V148.969H244.892V140.545ZM266.732 140.545H272.296V149.021H266.732V140.545ZM244.372 159.473V161.761H267.044V159.473H244.372ZM244.372 165.297V167.585H267.044V165.297H244.372ZM244.372 153.701V155.937H267.044V153.701H244.372ZM238.34 149.957H273.336V171.277H238.34V149.957ZM258.412 174.033L263.612 171.069C265.484 171.727 267.373 172.438 269.28 173.201C271.221 173.929 273.059 174.674 274.792 175.437C276.56 176.165 278.051 176.823 279.264 177.413L271.984 180.221C271.013 179.666 269.8 179.025 268.344 178.297C266.888 177.569 265.311 176.823 263.612 176.061C261.948 175.333 260.215 174.657 258.412 174.033ZM246.92 170.861L252.588 173.461C251.201 174.362 249.572 175.246 247.7 176.113C245.828 176.979 243.904 177.759 241.928 178.453C239.952 179.181 238.08 179.787 236.312 180.273C235.931 179.857 235.463 179.354 234.908 178.765C234.388 178.21 233.833 177.638 233.244 177.049C232.655 176.494 232.135 176.043 231.684 175.697C233.521 175.35 235.376 174.934 237.248 174.449C239.155 173.963 240.94 173.409 242.604 172.785C244.303 172.161 245.741 171.519 246.92 170.861Z" fill="#DD1760"/>
<path d="M188.942 135.813C189.67 135.917 190.45 135.986 191.282 136.021C192.114 136.055 192.911 136.073 193.674 136.073C194.229 136.073 195.061 136.073 196.17 136.073C197.279 136.038 198.527 136.003 199.914 135.969C201.335 135.934 202.739 135.899 204.126 135.865C205.513 135.83 206.761 135.795 207.87 135.761C209.014 135.691 209.898 135.639 210.522 135.605C211.597 135.501 212.446 135.414 213.07 135.345C213.694 135.241 214.162 135.137 214.474 135.033L217.854 139.661C217.265 140.042 216.658 140.423 216.034 140.805C215.41 141.186 214.803 141.602 214.214 142.053C213.521 142.538 212.689 143.179 211.718 143.977C210.747 144.739 209.707 145.554 208.598 146.421C207.523 147.287 206.466 148.137 205.426 148.969C204.421 149.801 203.502 150.546 202.67 151.205C203.537 150.997 204.369 150.858 205.166 150.789C205.963 150.685 206.778 150.633 207.61 150.633C210.557 150.633 213.191 151.205 215.514 152.349C217.871 153.493 219.726 155.053 221.078 157.029C222.465 158.97 223.158 161.206 223.158 163.737C223.158 166.475 222.465 168.954 221.078 171.173C219.691 173.391 217.594 175.159 214.786 176.477C212.013 177.794 208.529 178.453 204.334 178.453C201.942 178.453 199.775 178.106 197.834 177.413C195.927 176.719 194.419 175.731 193.31 174.449C192.201 173.166 191.646 171.658 191.646 169.925C191.646 168.503 192.027 167.186 192.79 165.973C193.587 164.725 194.679 163.719 196.066 162.957C197.487 162.194 199.117 161.813 200.954 161.813C203.346 161.813 205.357 162.298 206.986 163.269C208.65 164.205 209.915 165.47 210.782 167.065C211.683 168.659 212.151 170.41 212.186 172.317L206.102 173.149C206.067 171.242 205.582 169.717 204.646 168.573C203.745 167.394 202.531 166.805 201.006 166.805C200.035 166.805 199.255 167.065 198.666 167.585C198.077 168.07 197.782 168.642 197.782 169.301C197.782 170.271 198.267 171.051 199.238 171.641C200.209 172.23 201.474 172.525 203.034 172.525C205.981 172.525 208.442 172.178 210.418 171.485C212.394 170.757 213.867 169.734 214.838 168.417C215.843 167.065 216.346 165.47 216.346 163.633C216.346 162.073 215.861 160.703 214.89 159.525C213.954 158.346 212.671 157.427 211.042 156.769C209.413 156.11 207.575 155.781 205.53 155.781C203.519 155.781 201.682 156.041 200.018 156.561C198.354 157.046 196.777 157.757 195.286 158.693C193.83 159.594 192.391 160.703 190.97 162.021C189.583 163.303 188.197 164.742 186.81 166.337L182.078 161.449C183.014 160.686 184.071 159.837 185.25 158.901C186.429 157.93 187.625 156.925 188.838 155.885C190.086 154.845 191.247 153.874 192.322 152.973C193.431 152.037 194.367 151.257 195.13 150.633C195.858 150.043 196.707 149.35 197.678 148.553C198.649 147.755 199.654 146.941 200.694 146.109C201.734 145.242 202.722 144.427 203.658 143.665C204.594 142.867 205.374 142.191 205.998 141.637C205.478 141.637 204.802 141.654 203.97 141.689C203.138 141.723 202.219 141.758 201.214 141.793C200.243 141.827 199.255 141.862 198.25 141.897C197.279 141.931 196.361 141.983 195.494 142.053C194.662 142.087 193.969 142.122 193.414 142.157C192.721 142.191 191.993 142.243 191.23 142.313C190.467 142.382 189.774 142.469 189.15 142.573L188.942 135.813Z" fill="#DD1760"/>
<path d="M151.294 133.576C151.156 134.062 151.017 134.547 150.878 135.032C150.774 135.483 150.67 135.916 150.566 136.332C150.254 137.962 149.96 139.834 149.682 141.948C149.405 144.028 149.18 146.212 149.006 148.5C148.833 150.754 148.746 152.972 148.746 155.156C148.746 157.86 148.885 160.356 149.162 162.644C149.44 164.898 149.821 166.995 150.306 168.936C150.826 170.843 151.381 172.663 151.97 174.396L145.99 176.216C145.47 174.656 144.968 172.802 144.482 170.652C144.032 168.503 143.65 166.198 143.338 163.736C143.026 161.24 142.87 158.727 142.87 156.196C142.87 154.463 142.922 152.73 143.026 150.996C143.165 149.228 143.304 147.495 143.442 145.796C143.581 144.063 143.737 142.416 143.91 140.856C144.118 139.262 144.292 137.823 144.43 136.54C144.465 136.055 144.5 135.535 144.534 134.98C144.569 134.391 144.569 133.871 144.534 133.42L151.294 133.576ZM142.038 139.348C145.332 139.348 148.417 139.279 151.294 139.14C154.206 139.002 156.997 138.759 159.666 138.412C162.37 138.066 165.057 137.563 167.726 136.904L167.778 142.936C165.976 143.248 163.982 143.543 161.798 143.82C159.649 144.063 157.396 144.271 155.038 144.444C152.716 144.618 150.428 144.756 148.174 144.86C145.921 144.93 143.806 144.964 141.83 144.964C140.929 144.964 139.906 144.947 138.762 144.912C137.653 144.878 136.544 144.843 135.434 144.808C134.36 144.739 133.424 144.687 132.626 144.652L132.47 138.62C133.06 138.69 133.909 138.794 135.018 138.932C136.128 139.036 137.306 139.14 138.554 139.244C139.837 139.314 140.998 139.348 142.038 139.348ZM164.45 146.94C164.346 147.252 164.19 147.686 163.982 148.24C163.774 148.795 163.566 149.367 163.358 149.956C163.185 150.546 163.046 151.014 162.942 151.36C161.937 154.48 160.706 157.34 159.25 159.94C157.829 162.506 156.286 164.759 154.622 166.7C152.958 168.607 151.312 170.167 149.682 171.38C147.984 172.663 146.042 173.79 143.858 174.76C141.674 175.696 139.473 176.164 137.254 176.164C136.006 176.164 134.845 175.904 133.77 175.384C132.696 174.864 131.829 174.05 131.17 172.94C130.546 171.796 130.234 170.358 130.234 168.624C130.234 166.752 130.616 164.915 131.378 163.112C132.141 161.31 133.198 159.594 134.55 157.964C135.902 156.335 137.48 154.896 139.282 153.648C141.085 152.366 143.026 151.36 145.106 150.632C146.805 150.008 148.66 149.506 150.67 149.124C152.716 148.743 154.726 148.552 156.702 148.552C159.926 148.552 162.804 149.142 165.334 150.32C167.9 151.499 169.91 153.111 171.366 155.156C172.822 157.202 173.55 159.594 173.55 162.332C173.55 164.17 173.256 165.972 172.666 167.74C172.077 169.474 171.106 171.086 169.754 172.576C168.437 174.067 166.686 175.35 164.502 176.424C162.318 177.499 159.632 178.279 156.442 178.764L153.01 173.304C156.338 172.923 159.042 172.178 161.122 171.068C163.202 169.924 164.71 168.555 165.646 166.96C166.617 165.366 167.102 163.719 167.102 162.02C167.102 160.495 166.686 159.126 165.854 157.912C165.057 156.699 163.844 155.728 162.214 155C160.62 154.238 158.644 153.856 156.286 153.856C153.929 153.856 151.814 154.116 149.942 154.636C148.105 155.156 146.562 155.711 145.314 156.3C143.581 157.132 142.038 158.19 140.686 159.472C139.334 160.72 138.277 162.038 137.514 163.424C136.752 164.811 136.37 166.094 136.37 167.272C136.37 168.104 136.561 168.746 136.942 169.196C137.324 169.612 137.93 169.82 138.762 169.82C140.01 169.82 141.449 169.422 143.078 168.624C144.708 167.792 146.32 166.631 147.914 165.14C149.786 163.407 151.554 161.327 153.218 158.9C154.882 156.474 156.252 153.458 157.326 149.852C157.43 149.506 157.534 149.055 157.638 148.5C157.742 147.946 157.829 147.391 157.898 146.836C158.002 146.247 158.072 145.779 158.106 145.432L164.45 146.94Z" fill="#DD1760"/>
<path d="M111.668 137.944C110.836 138.534 110.022 139.158 109.224 139.816C108.427 140.44 107.734 141.012 107.144 141.532C106.278 142.191 105.238 143.006 104.025 143.976C102.846 144.912 101.598 145.9 100.28 146.94C98.9978 147.946 97.7498 148.934 96.5365 149.904C95.3232 150.875 94.2832 151.742 93.4165 152.504C92.5152 153.302 91.9085 153.96 91.5965 154.48C91.2845 154.966 91.2845 155.451 91.5965 155.936C91.9432 156.422 92.5845 157.08 93.5205 157.912C94.2832 158.571 95.2538 159.386 96.4325 160.356C97.6458 161.327 98.9458 162.402 100.333 163.58C101.754 164.724 103.193 165.92 104.649 167.168C106.139 168.382 107.561 169.595 108.913 170.808C110.299 171.987 111.53 173.096 112.605 174.136L106.521 179.7C105.065 178.071 103.557 176.459 101.997 174.864C101.199 174.067 100.159 173.096 98.8765 171.952C97.6285 170.774 96.2592 169.543 94.7685 168.26C93.3125 166.978 91.8565 165.712 90.4005 164.464C88.9445 163.182 87.6272 162.038 86.4485 161.032C84.7152 159.576 83.5885 158.242 83.0685 157.028C82.5832 155.815 82.6525 154.619 83.2765 153.44C83.9352 152.227 85.1312 150.91 86.8645 149.488C87.9045 148.691 89.0832 147.755 90.4005 146.68C91.7178 145.571 93.0698 144.444 94.4565 143.3C95.8432 142.122 97.1605 140.995 98.4085 139.92C99.6565 138.811 100.714 137.84 101.581 137.008C102.343 136.246 103.106 135.466 103.869 134.668C104.631 133.871 105.203 133.178 105.584 132.588L111.668 137.944Z" fill="#DD1760"/>
<path d="M51.1397 133.732C51.0704 134.218 51.0011 134.824 50.9317 135.552C50.8624 136.246 50.8104 136.974 50.7757 137.736C50.7411 138.464 50.7064 139.158 50.6717 139.816C50.6371 141.064 50.6197 142.416 50.6197 143.872C50.6544 145.328 50.6717 146.802 50.6717 148.292C50.6717 149.748 50.7064 151.464 50.7757 153.44C50.8797 155.382 51.0011 157.392 51.1397 159.472C51.2784 161.552 51.3824 163.494 51.4517 165.296C51.5557 167.064 51.6077 168.503 51.6077 169.612C51.6077 170.756 51.4344 171.866 51.0877 172.94C50.7411 174.015 50.1517 174.968 49.3197 175.8C48.4877 176.667 47.3611 177.343 45.9397 177.828C44.5184 178.348 42.7157 178.608 40.5317 178.608C38.0704 178.608 35.7997 178.296 33.7197 177.672C31.6744 177.083 30.0451 176.095 28.8317 174.708C27.6184 173.322 27.0117 171.45 27.0117 169.092C27.0117 167.29 27.5317 165.66 28.5717 164.204C29.6117 162.714 31.1717 161.535 33.2517 160.668C35.3664 159.802 38.0184 159.368 41.2077 159.368C43.9117 159.368 46.5291 159.68 49.0597 160.304C51.6251 160.928 54.0171 161.743 56.2357 162.748C58.4891 163.719 60.5171 164.828 62.3197 166.076C64.1571 167.29 65.7344 168.52 67.0517 169.768L63.0477 175.956C61.7651 174.674 60.2917 173.391 58.6277 172.108C56.9984 170.826 55.2131 169.664 53.2717 168.624C51.3304 167.584 49.2504 166.752 47.0317 166.128C44.8477 165.47 42.5771 165.14 40.2197 165.14C38.2091 165.14 36.6144 165.47 35.4357 166.128C34.2917 166.752 33.7197 167.636 33.7197 168.78C33.7197 170.063 34.3091 170.964 35.4877 171.484C36.6664 172.004 38.1744 172.264 40.0117 172.264C41.6411 172.264 42.8024 171.883 43.4957 171.12C44.1891 170.323 44.5357 169.058 44.5357 167.324C44.5357 166.423 44.5011 165.175 44.4317 163.58C44.3624 161.951 44.2931 160.2 44.2237 158.328C44.1544 156.422 44.0851 154.584 44.0157 152.816C43.9464 151.048 43.9117 149.54 43.9117 148.292C43.9117 147.252 43.9117 146.23 43.9117 145.224C43.9117 144.219 43.9117 143.248 43.9117 142.312C43.9117 141.376 43.8944 140.544 43.8597 139.816C43.8251 138.95 43.7731 138.135 43.7037 137.372C43.6691 136.61 43.6171 135.916 43.5477 135.292C43.5131 134.668 43.4264 134.148 43.2877 133.732H51.1397ZM47.1357 143.664C47.8984 143.664 48.9904 143.664 50.4117 143.664C51.8331 143.63 53.3931 143.578 55.0917 143.508C56.8251 143.439 58.5584 143.352 60.2917 143.248C62.0597 143.11 63.6891 142.971 65.1797 142.832L65.3877 149.02C63.9317 149.159 62.3197 149.28 60.5517 149.384C58.7837 149.488 57.0331 149.575 55.2997 149.644C53.5664 149.679 51.9717 149.714 50.5157 149.748C49.0944 149.783 47.9851 149.8 47.1877 149.8L47.1357 143.664Z" fill="#DD1760"/>
</svg>
