<svg width="44" height="42" viewBox="0 0 44 42" fill="none" xmlns="http://www.w3.org/2000/svg">
<path d="M0 19.9C0 17.1 0.516667 14.5 1.55 12.1C2.58333 9.66667 4.01667 7.55 5.85 5.75C7.68333 3.95 9.86667 2.55 12.4 1.55C14.9667 0.516667 17.7833 0 20.85 0C23.8833 0 26.6833 0.516667 29.25 1.55C31.8167 2.55 34.0167 3.95 35.85 5.75C37.7167 7.55 39.1667 9.66667 40.2 12.1C41.2333 14.5 41.75 17.1 41.75 19.9C41.75 22.5 41.3167 24.9167 40.45 27.15C39.6167 29.3833 38.4 31.3667 36.8 33.1L43.2 39.8L34.2 41.2L30.75 37.65C29.2833 38.3167 27.7167 38.8333 26.05 39.2C24.4167 39.6 22.6833 39.8 20.85 39.8C17.7833 39.8 14.9667 39.3 12.4 38.3C9.86667 37.2667 7.68333 35.85 5.85 34.05C4.01667 32.25 2.58333 30.15 1.55 27.75C0.516667 25.3167 0 22.7 0 19.9ZM10.25 19.9C10.25 21.4 10.5333 22.7833 11.1 24.05C11.6667 25.3167 12.4333 26.4167 13.4 27.35C14.3667 28.2833 15.4833 29.0167 16.75 29.55C18.05 30.05 19.4167 30.3 20.85 30.3C21.7167 30.3 22.5833 30.2 23.45 30L17.85 24.1L27.1 22.95L29.7 25.7C30.9 24.0333 31.5 22.1 31.5 19.9C31.5 18.4 31.2167 17.0167 30.65 15.75C30.0833 14.4833 29.3 13.3833 28.3 12.45C27.3333 11.5167 26.2 10.8 24.9 10.3C23.6333 9.76667 22.2833 9.5 20.85 9.5C19.4167 9.5 18.05 9.76667 16.75 10.3C15.4833 10.8 14.3667 11.5167 13.4 12.45C12.4333 13.3833 11.6667 14.4833 11.1 15.75C10.5333 17.0167 10.25 18.4 10.25 19.9Z" fill="#DD1760"/>
</svg>
