<svg width="187" height="78" viewBox="0 0 187 78" fill="none" xmlns="http://www.w3.org/2000/svg">
<path d="M12.7297 1.75879H173.788C179.819 1.75879 184.759 8.18334 184.759 16.0264V38.3011C184.759 46.1441 179.819 52.5686 173.788 52.5686H151.622C151.009 57.9966 151.361 65.5466 153.975 75.8867C153.975 75.8867 144.681 72.3228 137.821 52.5686H12.7297C6.69916 52.5686 1.75928 46.1441 1.75928 38.3011V16.0264C1.75928 8.18334 6.69916 1.75879 12.7297 1.75879Z" fill="white"/>
<path d="M3.5166 16.0264C3.5166 12.4628 4.64114 9.27973 6.37598 7.02344C8.11089 4.7671 10.3772 3.51766 12.7285 3.51758H173.787C176.138 3.51758 178.405 4.7671 180.14 7.02344C181.875 9.27974 182.999 12.4627 182.999 16.0264V38.3008C182.999 41.8644 181.874 45.0474 180.14 47.3037C178.405 49.5601 176.139 50.8105 173.787 50.8105H151.621L151.455 50.8174C150.635 50.8945 149.968 51.5376 149.874 52.3711C149.326 57.2235 149.527 63.5955 151.249 71.8896C150.782 71.472 150.278 70.9881 149.747 70.4268C146.759 67.2697 142.84 61.6641 139.481 51.9922L139.431 51.8623C139.152 51.2271 138.522 50.8106 137.82 50.8105H12.7285C10.3772 50.8105 8.11089 49.56 6.37598 47.3037C4.64123 45.0474 3.5166 41.8643 3.5166 38.3008V16.0264ZM0 38.3008C0 42.5802 1.3452 46.5315 3.58789 49.4482C5.83045 52.3647 9.04951 54.3271 12.7285 54.3271H136.58C139.99 63.7039 143.953 69.4227 147.192 72.8447C148.877 74.6247 150.359 75.7747 151.449 76.4912C151.994 76.8491 152.441 77.098 152.765 77.2627C152.926 77.3449 153.058 77.4059 153.155 77.4492C153.204 77.4709 153.245 77.4879 153.276 77.501C153.292 77.5075 153.306 77.5131 153.317 77.5176C153.323 77.5198 153.328 77.5227 153.332 77.5244C153.334 77.5253 153.337 77.5256 153.339 77.5264C153.34 77.5268 153.341 77.5272 153.342 77.5273C153.345 77.5232 153.379 77.4386 153.974 75.8867L153.345 77.5283C153.958 77.7633 154.651 77.638 155.142 77.2021C155.633 76.7662 155.84 76.0926 155.679 75.4561C153.353 66.257 152.87 59.3835 153.229 54.3271H173.787C177.466 54.3271 180.685 52.3646 182.928 49.4482C185.17 46.5315 186.517 42.5802 186.517 38.3008V16.0264C186.517 11.747 185.17 7.79661 182.928 4.87988C180.685 1.96326 177.466 0 173.787 0H12.7285C9.04945 8.68214e-05 5.83046 1.96332 3.58789 4.87988C1.34533 7.79658 3.19841e-06 11.7471 0 16.0264V38.3008Z" fill="#FDD23E"/>
<path d="M144.687 16.0166V40.0239H139.948V21.4795L134.255 23.2895V19.5543L144.177 16.0166H144.687Z" fill="#DD1760"/>
<path d="M112.846 31.4839H106.742V27.6335H112.846C113.79 27.6335 114.558 27.4799 115.15 27.1728C115.742 26.8547 116.176 26.4159 116.45 25.8564C116.724 25.297 116.861 24.6662 116.861 23.9641C116.861 23.2511 116.724 22.5874 116.45 21.9731C116.176 21.3588 115.742 20.8652 115.15 20.4922C114.558 20.1192 113.79 19.9328 112.846 19.9328H108.453V40.0238H103.517V16.0659H112.846C114.722 16.0659 116.329 16.406 117.668 17.0861C119.017 17.7553 120.048 18.6822 120.761 19.8669C121.474 21.0517 121.831 22.4064 121.831 23.9312C121.831 25.478 121.474 26.8163 120.761 27.9462C120.048 29.076 119.017 29.9481 117.668 30.5624C116.329 31.1767 114.722 31.4839 112.846 31.4839Z" fill="#DD1760"/>
<path d="M100.64 36.1735V40.0238H87.8873V36.1735H100.64ZM89.4999 16.0659V40.0238H84.5635V16.0659H89.4999ZM98.9777 25.8235V29.5752H87.8873V25.8235H98.9777ZM100.623 16.0659V19.9328H87.8873V16.0659H100.623Z" fill="#DD1760"/>
<path d="M74.3766 16.0659V40.0238H69.4567V16.0659H74.3766ZM81.7483 16.0659V19.9328H62.2002V16.0659H81.7483Z" fill="#DD1760"/>
<path d="M55.3718 33.7546C55.3718 33.3268 55.306 32.9429 55.1744 32.6028C55.0537 32.2518 54.8234 31.9336 54.4833 31.6484C54.1432 31.3522 53.666 31.0616 53.0517 30.7763C52.4374 30.4911 51.6421 30.1949 50.6658 29.8878C49.5798 29.5368 48.5487 29.1418 47.5724 28.7031C46.607 28.2643 45.7514 27.7542 45.0054 27.1728C44.2705 26.5804 43.6891 25.8948 43.2612 25.1159C42.8444 24.3371 42.636 23.4321 42.636 22.4009C42.636 21.4027 42.8554 20.4977 43.2942 19.6859C43.7329 18.8632 44.3472 18.1611 45.1371 17.5797C45.9269 16.9874 46.8593 16.5321 47.9344 16.214C49.0204 15.8959 50.2106 15.7368 51.505 15.7368C53.2711 15.7368 54.8124 16.0549 56.1288 16.6912C57.4451 17.3274 58.4653 18.1995 59.1893 19.3075C59.9243 20.4154 60.2918 21.6824 60.2918 23.1085H55.3883C55.3883 22.4064 55.2402 21.7921 54.944 21.2656C54.6588 20.7281 54.22 20.3057 53.6277 19.9986C53.0463 19.6914 52.3113 19.5378 51.4227 19.5378C50.5671 19.5378 49.8541 19.6695 49.2836 19.9327C48.7132 20.185 48.2854 20.5306 48.0002 20.9694C47.715 21.3972 47.5724 21.8799 47.5724 22.4174C47.5724 22.8233 47.6711 23.1908 47.8685 23.5199C48.077 23.8489 48.3841 24.1561 48.79 24.4413C49.1959 24.7265 49.695 24.9953 50.2874 25.2476C50.8797 25.4999 51.5653 25.7467 52.3442 25.988C53.6496 26.383 54.7959 26.8272 55.7832 27.3209C56.7815 27.8145 57.6152 28.3685 58.2843 28.9828C58.9535 29.5971 59.4581 30.2937 59.7981 31.0725C60.1382 31.8514 60.3082 32.7344 60.3082 33.7217C60.3082 34.7638 60.1053 35.6963 59.6994 36.519C59.2935 37.3417 58.7066 38.0383 57.9388 38.6087C57.1709 39.1792 56.2549 39.6125 55.1908 39.9086C54.1268 40.2048 52.9366 40.3529 51.6202 40.3529C50.4355 40.3529 49.2672 40.1993 48.1154 39.8922C46.9635 39.5741 45.9159 39.0969 44.9725 38.4606C44.0401 37.8244 43.2942 37.0126 42.7347 36.0254C42.1752 35.0381 41.8955 33.8698 41.8955 32.5205H46.8483C46.8483 33.2665 46.9635 33.8972 47.1939 34.4128C47.4243 34.9284 47.7479 35.3452 48.1647 35.6634C48.5925 35.9815 49.0971 36.2118 49.6785 36.3545C50.2709 36.4971 50.9181 36.5684 51.6202 36.5684C52.4758 36.5684 53.1779 36.4477 53.7264 36.2064C54.2858 35.965 54.6972 35.6304 54.9605 35.2026C55.2347 34.7748 55.3718 34.2921 55.3718 33.7546Z" fill="#DD1760"/>
</svg>
