<svg width="355" height="181" viewBox="0 0 355 181" fill="none" xmlns="http://www.w3.org/2000/svg">
<path d="M337.66 11.6037C337.833 7.09765 334.249 3.6748 330.045 3.6748C325.841 3.6748 322.321 7.04349 322.408 11.6037C322.408 15.9256 325.819 24.2335 330.045 24.2335C334.27 24.2335 337.486 15.8714 337.66 11.6037Z" fill="#FDD000"/>
<path d="M324.485 27.6437C325.788 23.6468 318.814 17.9817 314.806 16.5086C310.558 14.9597 306.191 17.2885 304.888 21.2963C303.584 25.2932 305.713 29.6367 310.091 30.9691C314.208 32.3014 323.181 31.6406 324.485 27.6329" fill="#FDD000"/>
<path d="M326.05 33.9445C322.639 31.4857 315.067 36.3383 312.438 39.6962C309.647 43.2382 310.516 48.1017 313.927 50.5713C317.316 53.041 322.139 52.3585 324.757 48.6324C327.299 45.1337 329.428 36.4142 326.039 33.9445" fill="#FDD000"/>
<path d="M332.528 34.4465C329.139 36.9161 331.42 45.5816 333.81 49.1344C336.33 52.8714 341.251 53.5429 344.662 51.0841C348.051 48.6145 348.909 43.8376 346.15 40.1982C343.597 36.6995 335.939 31.9768 332.528 34.4465Z" fill="#FDD000"/>
<path d="M354.622 22.0825C353.319 18.0856 349.039 15.8109 344.704 17.2949C340.587 18.6272 333.722 24.433 335.025 28.4191C336.329 32.416 345.302 32.9143 349.419 31.7553C353.753 30.5205 355.926 26.0686 354.622 22.0825Z" fill="#FDD000"/>
<path d="M127.127 55.0856C127.496 55.313 128.061 55.5947 128.539 55.7788C129.984 56.3637 131.385 55.833 132.004 54.6523C133.058 52.6376 137.208 44.4813 141.748 35.4584C142.139 34.9168 142.737 34.4077 143.791 34.3427C144.953 34.321 146.202 34.3427 147.093 34.4077C149.222 34.5702 149.896 35.87 150.232 37.2673C150.526 38.5021 150.341 42.5207 150.363 44.2321C150.439 51.7169 155.284 55.2914 160.705 55.573C161.421 55.6055 163.312 55.6055 163.898 55.573C169.884 55.2914 173.74 52.1393 174.305 46.0627C174.435 44.5463 174.414 37.8305 174.392 36.9532C174.349 35.6533 173.458 34.6135 171.839 34.4077C171.372 34.3644 170.785 34.3644 170.307 34.4077C168.819 34.5593 167.885 35.5884 167.863 36.9532C167.842 38.3938 167.82 42.6399 167.766 43.8422C167.711 45.0553 167.646 46.301 167.016 47.3084C166.495 48.1424 165.148 48.9115 164.159 48.9656C163.16 49.0198 162.247 49.0414 161.085 48.9656C159.912 48.8898 158.934 48.554 158.043 47.525C157.467 46.8751 157.055 45.012 157.098 43.3873C157.141 41.7516 157.163 38.5563 157.163 37.0398C157.163 35.0251 156.837 32.8912 154.893 30.5949C153.046 28.4177 150.124 27.8003 148.777 27.7461C148.505 27.7461 147.995 27.692 147.495 27.6595C147.006 27.627 145.92 26.9121 146.528 25.9047C147.082 24.9732 155.403 8.21643 155.968 6.97077C156.501 5.79011 156.142 4.44697 154.741 3.5371C154.328 3.27713 153.796 3.01717 153.328 2.85469C151.895 2.3131 150.482 2.76804 149.863 3.9812C147.365 8.84467 128.202 46.7668 125.899 51.6627C125.313 52.8976 125.769 54.3057 127.127 55.0964" fill="#E5005A"/>
<path d="M8.70859 41.9702C10.501 45.9238 13.7165 49.8016 17.0189 53.0511C18.4854 54.4917 19.7346 55.2391 20.897 54.8925C22.1137 54.5459 23.1131 53.5493 23.7323 52.3795C24.3515 51.1988 23.7323 50.2457 22.3309 48.74C20.582 46.8553 16.9428 43.3675 15.5415 40.5079C14.7702 38.9373 14.0098 36.3051 14.0098 34.0738C14.0098 26.2966 14.0532 10.4713 13.9663 5.90032C13.9446 4.53552 12.9452 3.474 11.4244 3.35485C11.0116 3.33319 10.1425 3.31152 9.63196 3.35485C8.11113 3.474 7.12258 4.56801 7.08999 5.90032C6.98136 10.3738 6.98136 26.3399 7.03568 33.2831C7.0574 34.9078 7.42675 39.1106 8.70859 41.9593" fill="#E5005A"/>
<path d="M41.8905 47.5066C41.4994 48.0915 40.5978 48.9689 39.0227 48.9689C37.4475 48.9689 36.6219 48.644 35.8832 47.7341C35.1228 46.8134 34.9816 43.5963 35.4813 41.9066C35.9919 40.2277 37.4692 39.7727 38.6316 39.5886C39.1639 39.5128 40.2502 39.4803 41.1844 39.6752C41.9666 39.8377 42.3685 40.1735 42.5097 41.3542C42.727 43.1522 42.7922 46.1635 41.8905 47.5066ZM55.9148 32.927C55.0783 32.927 53.3185 32.9162 51.2219 32.9054C49.9727 32.8837 49.3426 32.3746 49.3209 30.4574C49.3209 29.3417 49.3426 28.0961 49.3426 26.7854C49.3861 24.9657 49.9727 24.4566 51.135 24.4241C51.6673 24.4241 52.1453 24.4024 52.5472 24.3808C53.8508 24.3374 54.8937 23.4492 55.0892 21.8461C55.1435 21.3803 55.1435 20.7954 55.0892 20.3188C54.948 18.8349 53.9051 17.8059 52.5472 17.7842C52.091 17.7734 51.6564 17.7734 51.2002 17.7625C50.0487 17.7409 49.4404 17.2859 49.3426 15.672C49.3426 14.448 49.3209 13.3323 49.3209 12.39C49.3535 10.6027 49.9401 10.0611 51.0698 10.007C51.6782 9.9853 52.1996 9.98531 52.5581 9.97447C53.8617 9.92031 54.9045 9.04294 55.1 7.429C55.1544 6.96324 55.1544 6.37832 55.1 5.90172C54.9588 4.40694 53.916 3.37791 52.5581 3.35625C47.0722 3.2696 35.6768 3.2696 30.2453 3.35625C28.8874 3.37791 27.8119 4.38527 27.6924 5.90172C27.6707 6.32416 27.6599 6.93074 27.6924 7.429C27.8119 8.95629 28.9091 9.94198 30.2453 9.97447C32.6569 10.0286 36.698 10.0503 40.7173 10.0503C41.8253 10.1153 42.5532 10.711 42.6183 12.4441C42.6183 13.2565 42.6075 14.1339 42.5966 15.0438H42.5858C42.5858 17.0801 41.8145 17.6975 40.5326 17.7084C39.2508 17.73 37.9581 17.7517 36.6328 17.7734C35.264 17.795 34.1994 18.7915 34.0799 20.308C34.0474 20.7196 34.0474 21.337 34.0799 21.8353C34.1886 23.3517 35.2966 24.3374 36.6328 24.3699C37.3606 24.3916 39.3377 24.4241 40.7933 24.5107C42.2164 24.5757 42.5097 25.6589 42.5858 26.8937C42.6509 28.1285 42.6075 29.2984 42.6075 30.3599C42.5858 32.3313 41.7276 32.8729 40.5326 32.9487C40.1633 32.9812 39.2508 32.9812 38.838 32.992C33.0697 33.2087 28.4963 37.0214 28.4963 44.2138C28.4963 51.4061 33.124 55.5546 38.838 55.5546C44.552 55.5546 48.4192 52.0343 49.234 46.0443C49.3535 45.2319 49.3752 43.618 49.3752 41.8633C49.4078 39.9352 49.9618 39.6211 51.1459 39.5886C53.2968 39.5886 55.0349 39.5561 55.9039 39.5236C57.2075 39.4803 58.2503 38.5812 58.4459 36.989C58.5002 36.5232 58.4893 35.9383 58.4459 35.4617C58.3047 33.9669 57.2618 32.9487 55.9039 32.9162L55.9148 32.927Z" fill="#E5005A"/>
<path d="M74.0609 41.9702C75.8533 45.9238 79.0688 49.8016 82.3712 53.0511C83.8485 54.4917 85.0869 55.2391 86.2384 54.8925C87.4551 54.5459 88.4654 53.5493 89.0846 52.3795C89.7038 51.1988 89.0846 50.2457 87.6724 48.74C85.9234 46.8553 82.2843 43.3675 80.8829 40.5079C80.1008 38.9373 79.3404 36.3051 79.3404 34.0738C79.3404 26.2966 79.3838 10.4713 79.3078 5.90032C79.286 4.53552 78.2758 3.474 76.7658 3.35485C76.353 3.33319 75.484 3.31152 74.9843 3.35485C73.4526 3.474 72.464 4.56801 72.4423 5.90032C72.3337 10.3738 72.3228 26.3399 72.388 33.2831C72.4097 34.9078 72.7791 39.1106 74.0609 41.9593" fill="#E5005A"/>
<path d="M120.759 7.71222C119.846 7.69056 117.913 7.67972 116.566 7.66889C115.653 7.58224 115.132 7.09481 115.034 5.73001C115.023 4.98261 115.012 4.35437 115.001 3.8886C114.969 2.55629 113.98 1.46228 112.448 1.35396C111.96 1.32147 111.08 1.32147 110.667 1.35396C109.146 1.47311 108.147 2.52379 108.114 3.8886C108.114 4.31104 108.114 4.83097 108.103 5.43755C107.995 7.00816 107.321 7.58224 106.246 7.6364C101.401 7.6364 96.6644 7.65806 94.1007 7.71222C92.732 7.73388 91.6565 8.74124 91.5479 10.2469C91.5153 10.6693 91.5153 11.2759 91.5479 11.7741C91.6565 13.3014 92.7537 14.2763 94.1007 14.3088C96.5232 14.3738 101.336 14.4063 106.191 14.4063C107.343 14.4713 108.092 15.5328 108.082 17.0601C108.06 18.5657 108.082 30.5673 108.082 34.6725C108.082 36.9039 107.321 39.5252 106.55 41.0958C105.138 43.9446 101.509 47.4324 99.7495 49.3279C98.3482 50.8336 97.729 51.7868 98.3482 52.9674C98.9674 54.1373 99.9776 55.1338 101.183 55.4804C102.346 55.8162 103.584 55.0796 105.051 53.6282C108.375 50.3895 111.579 46.5009 113.361 42.5473C114.654 39.6877 115.023 35.4958 115.045 33.871C115.077 30.1882 115.088 18.3165 115.088 16.8867C115.088 15.457 115.61 14.4496 116.674 14.3521C118.206 14.3413 120.15 14.3304 120.759 14.2979C122.062 14.2546 123.105 13.3664 123.301 11.7633C123.366 11.2975 123.355 10.7126 123.301 10.236C123.159 8.75207 122.127 7.72305 120.759 7.70139" fill="#E5005A"/>
<path d="M230.67 3.31188C225.184 3.2144 192.182 3.2144 186.761 3.31188C185.403 3.33355 184.328 4.3409 184.219 5.84652C184.198 6.12815 184.198 6.43144 184.219 6.75639C184.328 8.28367 185.436 9.26937 186.761 9.30186C188.13 9.33436 194.04 9.36685 195.267 9.37769C196.484 9.37769 196.223 10.905 195.68 11.5657C195.137 12.2156 191.748 16.2559 190.531 18.9097C189.238 21.7693 188.901 25.9611 188.858 27.5859C188.782 30.0231 188.652 37.1287 188.804 44.6026C188.956 52.0766 193.736 55.6511 199.145 55.9435C203.338 56.1602 218.699 55.9544 219.492 55.9435C225.477 55.7811 229.204 52.4882 229.899 46.4224C230.236 43.4003 230.127 31.3662 229.964 27.7051C229.714 21.7476 226.52 17.8915 220.426 17.3282C218.905 17.1874 208.835 17.2199 207.955 17.2524C206.663 17.2849 205.609 18.1839 205.413 19.787C205.348 20.2636 205.37 20.8377 205.413 21.3143C205.555 22.7983 206.597 23.8273 207.955 23.8598C209.4 23.8814 217.189 23.7948 218.395 23.8598C219.611 23.9139 220.839 23.9898 221.882 24.6072C222.479 24.9646 223.348 25.8962 223.348 27.4668C223.348 27.4668 223.348 28.29 223.348 29.5465C223.348 31.5828 222.577 32.2003 221.295 32.2111C215.418 32.1786 205.946 32.2111 202.002 32.2652C200.634 32.2869 199.569 33.2943 199.449 34.8107C199.417 35.2332 199.417 35.8397 199.449 36.338C199.558 37.8653 200.655 38.8401 202.002 38.8835C205.717 38.9701 215.657 38.9918 221.263 38.9593C222.544 38.9701 223.327 39.5875 223.327 41.6131H223.359C223.359 43.1512 223.359 44.2452 223.348 44.4293C223.294 45.6317 223.218 46.8665 222.599 47.8955C222.24 48.4913 221.317 49.3036 219.742 49.347C215.244 49.4553 204.11 49.412 199.526 49.347C198.385 49.3361 197.114 49.022 196.375 48.1122C195.81 47.4406 195.463 46.3791 195.376 44.5268C195.3 42.6746 195.376 34.7349 195.376 34.7349C195.376 31.7453 195.376 28.9724 195.376 26.8169C195.376 24.6613 196.191 21.9642 196.962 20.3828C198.07 18.1298 202.306 13.5588 205.174 10.6233C205.815 10.0817 207.021 9.49684 208.618 9.39935C218.33 9.39935 229.106 9.36685 230.659 9.31269C231.952 9.26937 233.006 8.38116 233.201 6.76723C233.255 6.31229 233.255 6.33395 233.201 5.85736C233.06 4.36257 232.028 3.33355 230.659 3.32272" fill="#E5005A"/>
<path d="M292.559 48.4585C291.408 48.4044 280.773 48.4044 278.035 48.3719C276.894 48.361 275.841 47.8953 275.091 46.9854C274.537 46.3138 273.972 45.4148 273.896 43.5517C273.809 41.7103 273.929 29.3837 273.842 25.1485C273.82 23.7837 272.821 22.7222 271.3 22.603C270.876 22.5814 270.322 22.5705 269.812 22.603C268.291 22.7222 267.313 23.8054 267.27 25.1485C267.161 28.2139 267.107 37.9733 267.215 43.6384C267.368 51.1123 272.136 54.6976 277.557 54.9792C279.904 55.0984 291.147 55.1309 292.559 55.0659C293.863 55.0117 294.906 54.1344 295.101 52.5313C295.166 52.0655 295.144 51.4806 295.101 51.004C294.949 49.52 293.928 48.5235 292.559 48.4693" fill="#E5005A"/>
<path d="M284.846 5.06812C284.846 4.22324 284.846 3.3567 284.825 2.49016C284.803 1.16868 283.814 0.128827 282.337 0.0205088C281.924 -0.00115477 281.327 -0.0119866 280.838 0.0205088C279.35 0.139658 278.383 1.19034 278.361 2.49016C278.339 3.36753 278.318 4.3099 278.307 5.27392C278.242 6.16213 277.84 7.01784 275.884 7.05034C275.526 7.05034 274.483 7.05034 273.766 7.072C272.441 7.09366 271.398 8.06853 271.278 9.55248C271.246 9.96409 271.246 10.1916 271.278 10.679C271.398 12.1629 272.462 13.127 273.766 13.1595C274.581 13.1811 275.45 13.192 276.33 13.2028C277.937 13.3111 278.22 14.0693 278.296 14.8492C278.318 16.0082 278.328 17.3622 278.361 18.0879C278.394 19.3552 279.274 20.3734 280.838 20.5576C281.294 20.6226 281.87 20.6117 282.337 20.5576C283.782 20.4276 284.803 19.4202 284.825 18.0879C284.846 17.2106 284.846 16.0082 284.846 15.1417C284.901 14.2751 285.042 13.3653 286.758 13.2136C287.812 13.192 288.724 13.192 289.398 13.1595C290.68 13.1161 291.701 12.2388 291.896 10.679C291.94 10.2241 291.94 10.0182 291.896 9.55248C291.744 8.10102 290.745 7.09366 289.398 7.072C288.681 7.072 287.834 7.05034 287.28 7.02867C285.085 6.98535 284.89 6.02132 284.835 5.06812" fill="#E5005A"/>
<path d="M258.203 5.06812C258.192 4.22324 258.181 3.3567 258.17 2.49016C258.148 1.16868 257.171 0.128827 255.693 0.0205088C255.28 -0.00115477 254.683 -0.0119866 254.194 0.0205088C252.706 0.139658 251.75 1.19034 251.717 2.49016C251.696 3.36753 251.685 4.3099 251.663 5.27392C251.598 6.16213 251.196 7.01784 249.241 7.05034C248.882 7.05034 247.839 7.05034 247.133 7.072C245.797 7.09366 244.765 8.06853 244.646 9.55248C244.613 9.96409 244.613 10.1916 244.646 10.679C244.754 12.1629 245.819 13.127 247.133 13.1595C247.948 13.1811 248.817 13.192 249.697 13.2028C251.305 13.3111 251.598 14.0693 251.663 14.8492C251.685 16.0082 251.707 17.3622 251.728 18.0879C251.772 19.3552 252.641 20.3734 254.205 20.5576C254.661 20.6226 255.237 20.6117 255.704 20.5576C257.149 20.4276 258.159 19.4202 258.181 18.0879C258.203 17.2106 258.203 16.0082 258.214 15.1417C258.246 14.2751 258.387 13.3653 260.125 13.2136C261.179 13.192 262.092 13.192 262.765 13.1595C264.036 13.1161 265.057 12.2388 265.253 10.679C265.296 10.2241 265.285 10.0182 265.253 9.55248C265.112 8.10102 264.101 7.09366 262.765 7.072C262.048 7.072 261.19 7.05034 260.647 7.02867C258.453 6.98535 258.257 6.02132 258.214 5.06812" fill="#E5005A"/>
<path d="M261.044 23.5351C259.969 22.4411 258.502 22.387 257.449 23.221C253.19 26.6114 245.945 32.7963 243.674 34.8435C242.707 35.7101 242.468 37.0749 243.359 38.4288C243.609 38.808 244 39.2521 244.337 39.5987C245.412 40.6385 246.857 40.7685 247.932 39.9128C248.704 39.2954 249.899 38.2555 250.344 37.9306C250.779 37.6165 251.528 37.9631 251.55 38.8946C251.572 39.8261 251.561 50.5388 251.637 52.5535C251.669 53.8533 252.56 54.8932 254.179 55.099C254.646 55.164 255.232 55.1423 255.71 55.099C257.199 54.9582 258.242 53.9183 258.263 52.5535C258.35 47.5059 258.296 33.5329 258.285 32.8071C258.263 32.0922 258.709 30.8899 259.111 30.5433C259.513 30.1967 260.903 28.9944 261.739 28.2795C262.771 27.3804 262.934 25.9398 262.044 24.705C261.805 24.3584 261.414 23.8817 261.066 23.5243" fill="#E5005A"/>
<path d="M293.897 23.6457C292.832 22.5517 291.355 22.4976 290.312 23.3316C286.053 26.722 279.557 32.1703 277.265 34.2176C276.298 35.0841 276.07 36.4381 276.961 37.8029C277.222 38.182 277.602 38.6369 277.95 38.9619C279.014 40.0126 280.47 40.1317 281.524 39.276C285.793 35.8315 290.464 31.9429 294.581 28.4009C295.602 27.5018 295.776 26.0504 294.874 24.8156C294.646 24.4689 294.233 24.0032 293.897 23.6457Z" fill="#E5005A"/>
<path d="M0 81.9804C0 78.7838 2.59139 76.1924 5.78804 76.1924H349.212C352.409 76.1924 355 78.7838 355 81.9804V111.885C355 115.082 352.409 117.673 349.212 117.673H5.78805C2.59141 117.673 0 115.082 0 111.885V81.9804Z" fill="#FF2978"/>
<path d="M322.424 87.3736H331.766C332.144 87.3736 333.17 87.3736 333.17 88.6426C333.17 89.6416 332.792 90.0736 331.766 90.0736H314.189C313.271 90.0736 312.812 90.5326 312.812 91.4506V97.4176C312.812 100.064 312.596 104.519 311.219 107.975C310.625 109.487 310.22 109.865 309.518 109.865C308.708 109.865 307.898 109.325 307.898 108.434C307.898 108.056 307.979 107.813 308.87 105.734C309.572 104.06 310.004 101.198 310.004 97.3906V90.9376C310.004 88.2646 311.03 87.3736 313.541 87.3736H319.454V86.0776C319.454 85.0246 320.102 84.7546 320.858 84.7546C321.533 84.7546 322.424 84.8356 322.424 86.0776V87.3736ZM320.858 99.3346V91.5316C320.858 91.1536 320.858 90.2626 322.154 90.2626C323.288 90.2626 323.639 90.6406 323.639 91.5316V93.4216H331.766C332.198 93.4216 333.143 93.4756 333.143 94.7176C333.143 95.7166 332.576 96.0136 331.766 96.0136H323.639V99.3346H328.445C330.524 99.3346 331.442 100.064 331.442 102.332V106.679C331.442 109.028 330.443 109.676 328.445 109.676H316.997C314.999 109.676 314 109.028 314 106.679V102.332C314 100.091 314.891 99.3346 316.997 99.3346H320.858ZM328.634 106.004V102.953C328.634 102.224 328.256 101.873 327.554 101.873H317.834C317.132 101.873 316.781 102.197 316.781 102.953V106.004C316.781 106.706 317.105 107.084 317.834 107.084H327.554C328.283 107.084 328.634 106.706 328.634 106.004Z" fill="white"/>
<path d="M290.619 92.7737C290.241 93.9887 289.728 95.6627 288.783 98.1467C289.836 97.5797 292.698 96.0137 296.559 96.0137C302.337 96.0137 304.227 99.3887 304.227 102.116C304.227 103.655 303.633 106.382 300.393 107.867C298.314 108.812 295.074 109.136 292.536 109.136C290.484 109.136 288.135 108.947 287.19 108.677C286.731 108.542 286.299 108.137 286.299 107.354C286.299 106.571 286.839 106.004 287.568 106.004C287.838 106.004 288.054 106.004 288.621 106.085C289.89 106.247 290.943 106.355 292.428 106.355C293.778 106.355 301.203 106.355 301.203 102.008C301.203 100.766 300.447 98.6057 296.397 98.6057C292.941 98.6057 289.755 100.253 288.27 101.198C287.055 101.981 286.893 102.062 286.542 102.062C285.732 102.062 284.976 101.441 284.976 100.685C284.976 100.334 285.408 99.3887 285.732 98.6327C286.029 97.8767 286.866 95.7707 287.73 92.8277C282.924 92.8547 282.168 92.8547 282.168 91.2887C282.168 90.8027 282.357 89.9117 283.491 89.9117C284.139 89.9117 286.974 90.0467 287.541 90.0467H288.486C288.621 89.4797 289.161 87.0227 289.296 86.5367C289.458 85.9157 289.674 85.4297 290.673 85.4297C291.429 85.4297 292.239 85.7807 292.239 86.5637C292.239 87.0497 291.645 89.2097 291.429 89.9657C295.398 89.8037 298.53 89.2907 299.799 89.0747C301.689 88.7507 301.905 88.7237 302.202 88.7237C303.498 88.7237 303.498 90.0737 303.498 90.2087C303.498 91.2887 302.715 91.4777 301.338 91.7207C296.775 92.5037 291.321 92.7467 290.619 92.7737Z" fill="white"/>
<path d="M268.533 92.0447V94.7177C269.532 94.6907 273.906 94.5017 274.797 94.5017C275.229 94.5017 276.417 94.5017 276.417 95.9327C276.417 97.2017 275.445 97.2557 275.04 97.2827C273.528 97.3907 270.207 97.4447 268.56 97.4717L268.587 101.117C270.585 101.576 273.609 102.845 275.283 103.844C276.39 104.492 276.579 104.978 276.579 105.464C276.579 106.382 275.904 107.111 275.148 107.111C274.797 107.111 274.365 106.868 273.015 106.058C271.233 104.978 269.316 104.276 268.587 104.033C268.533 106.004 268.506 109.217 262.944 109.217C259.218 109.217 256.896 107.489 256.896 104.924C256.896 104.465 256.896 100.523 263.511 100.523C264.159 100.523 265.077 100.577 265.617 100.631V97.5257C260.46 97.5797 258.867 97.5527 258.624 97.5527C257.949 97.5257 257.004 97.4717 257.004 96.1217C257.004 94.7447 258.084 94.7447 258.705 94.7447C259.785 94.7447 264.618 94.7717 265.59 94.7447L265.563 92.0717C263.619 92.0987 259.542 92.1257 257.733 92.0717C257.004 92.0447 256.059 92.0177 256.059 90.6677C256.059 89.2637 257.139 89.2637 257.814 89.2637C259.029 89.2637 264.456 89.3177 265.563 89.3177L265.536 86.8607C265.536 86.1857 265.833 85.5107 266.967 85.5107C267.399 85.5107 268.506 85.5107 268.506 86.8607V89.2907C269.694 89.2907 274.932 89.1017 276.012 89.1017C276.363 89.1017 277.524 89.1017 277.524 90.4787C277.524 91.8287 276.444 91.8557 276.093 91.8827C272.934 91.9907 271.989 91.9907 268.533 92.0447ZM265.644 103.25C265.239 103.196 264.564 103.088 263.511 103.088C260.298 103.088 259.704 104.222 259.704 104.951C259.704 106.193 261.189 106.679 262.647 106.679C265.644 106.679 265.644 105.383 265.644 103.25Z" fill="white"/>
<path d="M242.854 100.415C242.827 99.7126 242.638 96.3106 242.638 95.5546C242.638 94.9606 242.854 94.1236 243.988 94.1236C244.204 94.1236 245.365 94.1506 245.5 95.3656C245.554 96.0136 245.716 100.091 245.743 101.252C247.606 101.954 249.118 102.737 250.09 103.385C250.846 103.871 251.116 104.195 251.116 104.789C251.116 105.572 250.576 106.49 249.685 106.49C249.442 106.49 249.118 106.301 248.092 105.653C247.363 105.194 246.391 104.681 245.824 104.411C245.824 106.139 245.635 109.217 240.451 109.217C236.941 109.217 234.403 107.516 234.403 104.654C234.403 102.386 236.158 100.118 240.127 100.118C241.207 100.118 241.99 100.253 242.854 100.415ZM242.935 103.223C242.503 103.088 241.342 102.737 239.992 102.737C237.886 102.737 237.076 103.628 237.076 104.627C237.076 106.112 238.777 106.625 240.154 106.625C240.937 106.625 242.746 106.463 242.908 105.032C242.962 104.6 242.935 104.276 242.935 103.223ZM236.185 92.5576C235.213 95.3926 233.62 99.3076 232.324 101.954C231.244 104.168 230.893 104.681 230.002 104.681C229.246 104.681 228.328 104.168 228.328 103.25C228.328 102.791 228.463 102.602 229.354 100.982C229.867 100.064 231.622 96.4456 232.945 92.7736C231.703 92.8276 230.812 92.8276 230.758 92.8276C229.705 92.8276 228.463 92.8276 228.463 91.2886C228.463 89.8576 229.516 89.8576 230.11 89.8576C230.92 89.8576 233.242 89.8576 233.917 89.8306C234.079 89.3176 234.7 86.9686 234.862 86.5096C235.159 85.5376 235.915 85.4836 236.239 85.4836C236.914 85.4836 237.913 85.8076 237.913 86.6986C237.913 87.2116 237.373 88.9126 237.157 89.5606C237.616 89.5066 239.641 89.1826 240.073 89.1826C240.937 89.1826 241.261 89.8576 241.261 90.5866C241.261 91.9636 240.775 92.0716 236.185 92.5576ZM244.42 89.4256C245.176 89.4256 247.174 90.3976 248.956 91.2886C250.522 92.0716 251.143 92.4226 251.143 93.2596C251.143 94.0696 250.63 94.8796 249.901 94.8796C249.442 94.8796 249.226 94.7986 247.606 93.8536C246.58 93.2596 244.366 92.2876 243.853 92.0716C243.232 91.8016 242.962 91.4506 242.962 90.9106C242.962 89.9926 243.691 89.4256 244.42 89.4256Z" fill="white"/>
<path d="M202.924 92.4227L207.919 91.8287C208.081 91.0457 208.702 87.5627 208.837 86.8607C208.945 86.3477 209.107 85.6997 210.241 85.6997C211.24 85.6997 211.78 86.2127 211.78 86.8337C211.78 87.4277 211.294 89.6687 210.889 91.5047C217.261 91.0997 218.341 94.3397 218.341 98.9027C218.341 107.921 215.533 108.812 212.401 108.812C209.809 108.812 208.945 108.353 208.945 107.165C208.945 106.274 209.431 105.734 210.106 105.734C210.511 105.734 211.672 105.95 212.158 105.95C213.643 105.95 215.398 105.707 215.398 98.8217C215.398 96.1217 215.236 94.1777 211.969 94.1777C211.456 94.1777 210.97 94.2047 210.214 94.2587C208.513 100.55 207.028 104.033 205.705 106.544C204.895 108.056 204.517 108.731 203.734 108.731C203.059 108.731 202.087 108.272 202.087 107.327C202.087 107.003 202.33 106.571 203.005 105.356C204.652 102.413 206.137 98.6597 207.217 94.5827C206.461 94.6907 202.789 95.2847 202.465 95.2847C201.682 95.2847 201.223 94.6637 201.223 93.8537C201.223 92.7197 201.952 92.5307 202.924 92.4227ZM219.178 88.9127C220.204 88.9127 221.284 90.4787 222.229 92.0447C224.011 95.0147 224.767 98.3627 224.767 99.6587C224.767 100.631 224.119 101.117 223.12 101.117C222.013 101.117 221.905 100.739 221.635 99.0377C221.365 97.3907 220.447 94.3397 218.503 91.7207C217.801 90.7757 217.666 90.5597 217.666 90.1817C217.666 89.5607 218.314 88.9127 219.178 88.9127Z" fill="white"/>
<path d="M174.734 106.922V95.2036C174.734 93.1516 175.166 92.4226 177.434 92.4226H178.433V91.1806C178.433 90.9106 178.433 89.8036 179.621 89.8036C180.62 89.8036 180.836 90.5326 180.836 91.1806V92.4226H181.754C183.887 92.4226 183.968 93.7996 183.968 95.2036V99.4426C183.968 101.684 183.374 102.224 181.484 102.224H177.191V106.328C177.65 106.22 178.109 106.112 178.757 105.95C179.081 105.869 180.458 105.491 180.728 105.41C180.161 104.303 180.053 104.06 180.053 103.763C180.053 103.115 180.728 102.656 181.43 102.656C182.132 102.656 182.348 103.034 182.996 104.195C183.023 104.276 184.643 107.246 184.643 108.056C184.643 108.785 183.941 109.271 183.212 109.271C182.483 109.271 182.267 108.866 182.159 108.623C182.078 108.434 181.781 107.651 181.7 107.489C180.944 107.759 175.112 109.622 174.194 109.622C173.6 109.622 173.06 109.001 173.06 108.245C173.06 107.327 173.519 107.192 174.734 106.922ZM177.191 95.3386V96.3376H181.673V95.3386C181.673 94.8256 181.43 94.5556 180.89 94.5556H177.947C177.38 94.5556 177.191 94.8526 177.191 95.3386ZM181.673 99.2806V98.2816H177.191V100.037H180.89C181.403 100.037 181.673 99.7936 181.673 99.2806ZM188.963 87.6976H196.955C197.36 87.6976 198.359 87.7246 198.359 89.0206C198.359 90.2626 197.495 90.3706 196.955 90.3706H192.554V93.6646H194.606C196.847 93.6646 197.414 94.2046 197.414 96.4726V105.383C197.414 107.678 195.983 107.678 194.525 107.678C194.039 107.678 192.986 107.678 192.986 106.193C192.986 105.167 193.472 105.059 194.282 105.005C194.876 104.951 195.038 104.951 195.038 104.303V96.9316C195.038 96.4456 194.822 96.1756 194.282 96.1756H192.554V109.109C192.554 109.46 192.554 110.378 191.312 110.378C190.097 110.378 190.043 109.541 190.043 109.109V96.1756H188.369C187.856 96.1756 187.613 96.4186 187.613 96.9316V106.598C187.613 106.922 187.613 107.84 186.533 107.84C185.669 107.84 185.318 107.489 185.318 106.598V96.4726C185.318 94.2586 185.831 93.6646 188.099 93.6646H190.043V90.3706H187.667C186.236 92.9356 185.804 93.0436 185.318 93.0436C184.589 93.0436 183.941 92.4496 183.941 91.8016C183.941 91.4236 184.022 91.2886 184.886 90.0466C185.642 88.9936 186.56 86.6986 186.83 85.9426C187.073 85.3216 187.289 84.7546 188.126 84.7546C188.504 84.7546 189.584 84.9436 189.584 85.8346C189.584 86.2396 189.368 86.7256 188.963 87.6976ZM179.837 87.5086C179.648 87.5086 179.621 87.5626 179.432 87.8596C178.325 89.5066 177.11 90.9106 175.868 91.9636C174.842 92.8546 174.545 92.9626 174.194 92.9626C173.411 92.9626 172.844 92.1256 172.844 91.4776C172.844 90.9646 173.168 90.6946 173.6 90.3706C175.679 88.8586 176.543 87.7516 177.812 86.0236C178.271 85.4026 178.622 84.8896 179.81 84.8896C180.809 84.8896 181.052 85.1596 182.078 86.2666C182.996 87.2656 183.239 87.4546 184.481 88.3996C184.886 88.7236 185.021 88.9936 185.021 89.3446C185.021 90.1816 184.346 90.8836 183.59 90.8836C183.239 90.8836 183.131 90.8836 181.673 89.4796C181.052 88.8856 180.377 88.0216 180.269 87.8596C180.08 87.6166 179.999 87.5086 179.837 87.5086Z" fill="white"/>
<path d="M154.834 99.4967H168.037C168.658 99.4967 169.198 99.6587 169.63 99.9287C170.251 100.334 170.494 100.928 170.494 102.143C170.494 102.845 170.305 107.354 169.63 108.758C169.009 110.081 167.821 110.081 165.553 110.081C164.122 110.081 163.15 110.081 163.15 108.461C163.15 107.327 163.96 107.327 164.419 107.327C164.662 107.327 165.688 107.381 165.904 107.381C166.957 107.381 167.254 107.111 167.416 105.761C167.551 104.789 167.659 102.629 167.659 102.494C167.659 102.197 167.659 101.576 166.822 101.576H153.16C152.863 101.9 152.512 102.224 152.053 102.629V103.79C153.025 103.709 155.941 103.358 158.128 102.953C158.641 102.845 161.044 102.251 161.395 102.251C162.34 102.251 162.34 103.277 162.34 103.493C162.34 104.222 162.205 104.249 160.18 104.708C158.533 105.086 155.374 105.491 152.053 105.761C152.053 107.084 152.134 107.084 154.618 107.084C155.455 107.084 159.694 107.084 160.099 107.003C160.612 106.922 160.666 106.814 161.098 105.68C161.206 105.41 161.395 104.951 162.151 104.951C162.286 104.951 163.582 104.951 163.582 106.058C163.582 106.49 163.258 108.299 162.259 108.893C161.773 109.19 161.665 109.217 156.157 109.217C155.212 109.217 151.297 109.217 150.838 109.109C149.353 108.812 149.299 107.516 149.299 106.409V104.627C148.111 105.329 147.76 105.437 147.409 105.437C146.41 105.437 146.059 104.492 146.059 103.952C146.059 103.169 146.626 102.872 148.138 102.089C148.894 101.711 150.784 100.496 152.08 98.5247H151.594C149.461 98.5247 148.786 98.0657 148.786 95.7977V93.0437C148.786 90.8027 149.407 90.2897 151.594 90.2897H153.106C152.755 90.0737 152.674 89.8847 152.674 89.4257V88.8857H147.436C146.896 88.8857 146.059 88.8047 146.059 87.6977C146.059 86.7797 146.626 86.5097 147.436 86.5097H152.674V85.9427C152.674 85.6457 152.674 84.7817 153.97 84.7817C154.996 84.7817 155.401 85.1057 155.401 85.9427V86.5097H161.935V85.9427C161.935 85.6187 161.935 84.7817 163.231 84.7817C164.284 84.7817 164.689 85.1057 164.689 85.9427V86.5097H169.981C170.413 86.5097 171.358 86.5637 171.358 87.6977C171.358 88.6157 170.764 88.8857 169.981 88.8857H164.689V89.4257C164.689 89.9927 164.473 90.1277 164.23 90.2897H165.823C167.983 90.2897 168.604 90.8027 168.604 93.0437V95.7977C168.604 98.0657 167.956 98.5247 165.823 98.5247H155.428C155.104 99.0647 154.996 99.2267 154.834 99.4967ZM151.594 93.5297H165.796V92.9357C165.796 92.5037 165.634 92.1797 165.067 92.1797H152.323C151.702 92.1797 151.594 92.5577 151.594 92.9357V93.5297ZM161.935 89.4257V88.8857H155.401V89.4257C155.401 89.8847 155.239 90.1007 154.969 90.2897H162.34C162.097 90.1007 161.935 89.9927 161.935 89.4257ZM165.796 95.2307H151.594V95.9597C151.594 96.4187 151.783 96.7157 152.323 96.7157H165.067C165.58 96.7157 165.796 96.4187 165.796 95.9597V95.2307Z" fill="white"/>
<path d="M122.599 104.141C122.761 104.141 123.814 104.573 124.03 104.654C124.651 104.897 125.785 105.302 127.216 105.302C129.538 105.302 131.644 104.249 131.644 101.981C131.644 99.6318 129.565 98.9028 127.594 98.2008C125.11 97.3368 121.897 96.1488 121.897 92.2068C121.897 88.8318 124.462 85.9968 128.647 85.9968C130.78 85.9968 132.589 86.7528 132.94 86.9688C133.48 87.2928 133.669 87.6978 133.669 88.2378C133.669 89.0748 133.048 89.7768 132.346 89.7768C132.103 89.7768 131.806 89.6688 131.212 89.4528C130.375 89.1288 129.592 88.9668 128.728 88.9668C126.136 88.9668 125.137 90.6948 125.137 92.0718C125.137 94.1238 126.838 94.7178 128.782 95.3658C131.59 96.3378 134.911 97.4988 134.911 101.765C134.911 105.815 131.617 108.272 127.351 108.272C126.325 108.272 124.273 108.137 122.167 107.111C121.681 106.868 121.168 106.517 121.168 105.707C121.168 104.951 121.681 104.141 122.599 104.141Z" fill="white"/>
<path d="M114.41 106.706V87.5358C114.41 86.2398 115.274 85.9968 116.03 85.9968C117.083 85.9968 117.704 86.4288 117.704 87.5358V106.706C117.704 107.651 117.245 108.272 116.084 108.272C115.301 108.272 114.41 108.056 114.41 106.706Z" fill="white"/>
<path d="M90.06 95.7168L97.917 87.0768C97.998 86.9958 98.349 86.5368 98.43 86.4558C98.808 86.0778 99.186 85.9968 99.483 85.9968C100.347 85.9968 101.211 86.6448 101.211 87.4278C101.211 87.8058 100.914 88.2648 100.671 88.5078L93.354 96.2298L101.373 105.491C101.751 105.923 102.048 106.301 102.048 106.787C102.048 107.732 100.968 108.272 100.266 108.272C99.564 108.272 99.213 107.813 98.673 107.165L90.06 96.7698V106.733C90.06 107.678 89.574 108.272 88.44 108.272C87.441 108.272 86.793 107.867 86.793 106.733V87.5088C86.793 86.5908 87.252 85.9968 88.413 85.9968C89.439 85.9968 90.06 86.4018 90.06 87.5088V95.7168Z" fill="white"/>
<path d="M78.1497 98.4977L83.1448 105.41C83.5768 106.004 83.7928 106.409 83.7928 106.841C83.7928 107.732 82.7937 108.272 82.0107 108.272C81.2817 108.272 81.0387 107.867 80.5798 107.192L74.6938 98.6327H73.1818V106.76C73.1818 107.111 73.1817 108.272 71.5887 108.272C70.4817 108.272 69.9688 107.786 69.9688 106.76V89.6687C69.9688 88.5347 69.9687 86.4287 73.0737 86.4287H76.0978C77.3668 86.4287 78.8787 86.4557 80.2827 87.1847C82.3887 88.2647 83.3608 90.3977 83.3608 92.5847C83.3608 94.7717 82.4158 96.3647 81.1468 97.3367C80.0668 98.1737 79.1218 98.3357 78.1497 98.4977ZM73.1818 95.8247H75.8008C76.6918 95.8247 80.0938 95.8247 80.0938 92.6387C80.0938 89.3987 77.3938 89.3987 75.8278 89.3987H74.1268C73.4788 89.3987 73.1818 89.5607 73.1818 90.3437V95.8247Z" fill="white"/>
<path d="M52.7323 102.278L51.1123 106.706C50.7343 107.732 50.5453 108.272 49.5463 108.272C48.7903 108.272 47.6562 107.921 47.6562 106.922C47.6562 106.679 47.7102 106.409 48.0072 105.626L54.6763 88.2108C55.0543 87.2118 55.5403 85.9968 57.3493 85.9968C59.2123 85.9968 59.6713 87.1578 60.0763 88.2108L66.7453 105.626C66.9613 106.22 67.0963 106.571 67.0963 106.922C67.0963 107.894 65.9892 108.272 65.2332 108.272C64.1802 108.272 63.9643 107.678 63.6133 106.706L62.0203 102.278H52.7323ZM53.7583 99.4968H60.9943L57.3763 89.5878L53.7583 99.4968Z" fill="white"/>
<path d="M33.6087 103.844L38.6037 88.5078C39.0897 87.0228 39.4137 85.9968 41.1417 85.9968C43.3287 85.9968 43.5717 87.6708 43.6797 88.5078L46.1367 105.95C46.1907 106.409 46.2447 106.652 46.2447 106.895C46.2447 108.218 44.7867 108.272 44.4897 108.272C43.1667 108.272 43.0587 107.516 42.9237 106.463L40.8717 90.9108L35.8227 106.463C35.5797 107.246 35.2557 108.272 33.6357 108.272C31.9617 108.272 31.6647 107.3 31.3947 106.463L26.3457 90.9108L24.2937 106.463C24.1587 107.489 24.0507 108.272 22.7277 108.272C22.1877 108.272 20.9727 108.11 20.9727 106.922C20.9727 106.652 21.0267 106.355 21.0807 105.977L23.5377 88.5078C23.6727 87.5898 23.8887 85.9968 26.0487 85.9968C27.8037 85.9968 28.1277 86.9958 28.6137 88.5078L33.6087 103.844Z" fill="white"/>
<path d="M332.201 172.733C330.988 173.842 329.583 174.761 327.989 175.489C326.394 176.217 324.54 176.581 322.425 176.581C320.484 176.581 318.906 175.905 317.693 174.553C316.514 173.201 315.925 171.259 315.925 168.729C315.925 167.342 316.011 165.851 316.185 164.257C316.393 162.627 316.618 160.998 316.861 159.369C317.103 157.739 317.311 156.197 317.485 154.741C317.693 153.25 317.797 151.915 317.797 150.737C317.797 149.454 317.485 148.501 316.861 147.877C316.237 147.218 315.37 146.889 314.261 146.889C313.047 146.889 311.696 147.322 310.205 148.189C308.714 149.021 307.189 150.095 305.629 151.413C304.069 152.73 302.578 154.134 301.157 155.625C299.77 157.115 298.557 158.537 297.517 159.889L297.465 151.881C298.089 151.187 298.903 150.373 299.909 149.437C300.949 148.501 302.11 147.53 303.393 146.525C304.71 145.519 306.079 144.583 307.501 143.717C308.957 142.815 310.413 142.087 311.869 141.533C313.36 140.978 314.798 140.701 316.185 140.701C318.057 140.701 319.582 141.047 320.761 141.741C321.974 142.399 322.875 143.318 323.465 144.497C324.054 145.641 324.349 146.941 324.349 148.397C324.349 149.749 324.262 151.222 324.089 152.817C323.916 154.377 323.707 155.971 323.465 157.601C323.222 159.23 323.014 160.842 322.841 162.437C322.702 164.031 322.633 165.487 322.633 166.805C322.633 167.498 322.806 168.07 323.153 168.521C323.499 168.937 323.985 169.145 324.609 169.145C325.579 169.145 326.654 168.833 327.833 168.209C329.011 167.55 330.19 166.614 331.369 165.401L332.201 172.733ZM296.269 147.929C295.714 147.998 295.003 148.085 294.137 148.189C293.27 148.293 292.334 148.414 291.329 148.553C290.358 148.691 289.37 148.83 288.365 148.969C287.36 149.107 286.423 149.229 285.557 149.333L284.881 142.677C285.643 142.711 286.354 142.729 287.013 142.729C287.706 142.694 288.503 142.659 289.405 142.625C290.237 142.555 291.225 142.469 292.369 142.365C293.548 142.226 294.726 142.07 295.905 141.897C297.118 141.723 298.245 141.533 299.285 141.325C300.325 141.117 301.139 140.909 301.729 140.701L303.809 143.353C303.497 143.769 303.133 144.289 302.717 144.913C302.335 145.537 301.937 146.178 301.521 146.837C301.105 147.461 300.741 148.015 300.429 148.501L297.361 158.277C296.806 159.074 296.113 160.079 295.281 161.293C294.483 162.506 293.634 163.789 292.733 165.141C291.831 166.493 290.947 167.793 290.081 169.041C289.214 170.289 288.434 171.381 287.741 172.317L283.633 166.649C284.291 165.817 285.037 164.863 285.869 163.789C286.736 162.679 287.637 161.518 288.573 160.305C289.509 159.057 290.427 157.826 291.329 156.613C292.23 155.365 293.062 154.203 293.825 153.129C294.622 152.019 295.281 151.066 295.801 150.269L295.905 148.917L296.269 147.929ZM295.645 137.945C295.645 137.182 295.645 136.419 295.645 135.657C295.645 134.859 295.575 134.062 295.437 133.265L303.029 133.525C302.821 134.322 302.595 135.483 302.353 137.009C302.145 138.499 301.919 140.215 301.677 142.157C301.469 144.098 301.261 146.143 301.053 148.293C300.879 150.407 300.724 152.522 300.585 154.637C300.481 156.751 300.429 158.727 300.429 160.565C300.429 161.986 300.429 163.425 300.429 164.881C300.463 166.337 300.498 167.827 300.533 169.353C300.568 170.878 300.637 172.455 300.741 174.085C300.775 174.535 300.827 175.159 300.897 175.957C300.966 176.789 301.035 177.499 301.105 178.089H293.929C293.998 177.465 294.033 176.771 294.033 176.009C294.068 175.246 294.085 174.657 294.085 174.241C294.12 172.542 294.154 170.965 294.189 169.509C294.223 168.053 294.241 166.51 294.241 164.881C294.275 163.251 294.327 161.362 294.397 159.213C294.431 158.415 294.483 157.41 294.553 156.197C294.622 154.949 294.692 153.597 294.761 152.141C294.865 150.65 294.969 149.142 295.073 147.617C295.177 146.091 295.263 144.67 295.333 143.353C295.437 142.001 295.506 140.857 295.541 139.921C295.61 138.95 295.645 138.291 295.645 137.945Z" fill="#DD1760"/>
<path d="M246.557 137.529H279.473V143.093H246.557V137.529ZM259.245 131.237H265.589V140.181H259.245V131.237ZM259.245 156.925H264.705V177.829H259.245V156.925ZM250.613 156.405H256.177V161.553C256.177 163.009 256.09 164.534 255.917 166.129C255.778 167.723 255.432 169.335 254.877 170.965C254.357 172.594 253.577 174.154 252.537 175.645C251.497 177.17 250.093 178.591 248.325 179.909C248.048 179.493 247.649 179.025 247.129 178.505C246.609 177.985 246.054 177.482 245.465 176.997C244.91 176.511 244.39 176.13 243.905 175.853C245.916 174.397 247.389 172.837 248.325 171.173C249.261 169.509 249.868 167.827 250.145 166.129C250.457 164.43 250.613 162.835 250.613 161.345V156.405ZM256.281 140.597L262.833 142.469C262.174 143.682 261.498 144.913 260.805 146.161C260.112 147.409 259.436 148.605 258.777 149.749C258.118 150.858 257.494 151.846 256.905 152.713L251.861 150.945C252.416 150.009 252.97 148.934 253.525 147.721C254.08 146.507 254.6 145.277 255.085 144.029C255.605 142.781 256.004 141.637 256.281 140.597ZM266.525 145.849L271.309 143.353C272.453 144.393 273.597 145.571 274.741 146.889C275.92 148.171 276.994 149.454 277.965 150.737C278.97 152.019 279.75 153.215 280.305 154.325L275.053 157.133C274.602 156.093 273.909 154.914 272.973 153.597C272.037 152.279 270.997 150.945 269.853 149.593C268.744 148.241 267.634 146.993 266.525 145.849ZM246.869 149.281C249.157 149.246 251.792 149.194 254.773 149.125C257.754 149.021 260.909 148.934 264.237 148.865C267.565 148.761 270.876 148.639 274.169 148.501L274.013 153.753C270.893 153.926 267.738 154.099 264.549 154.273C261.394 154.446 258.361 154.602 255.449 154.741C252.537 154.879 249.885 155.001 247.493 155.105L246.869 149.281ZM233.973 136.073L237.353 131.497C238.428 131.913 239.554 132.415 240.733 133.005C241.946 133.594 243.09 134.201 244.165 134.825C245.274 135.449 246.158 136.073 246.817 136.697L243.229 141.793C242.605 141.169 241.773 140.51 240.733 139.817C239.693 139.123 238.566 138.447 237.353 137.789C236.174 137.13 235.048 136.558 233.973 136.073ZM230.957 150.269L234.285 145.537C235.394 145.918 236.556 146.386 237.769 146.941C238.982 147.495 240.144 148.085 241.253 148.709C242.362 149.333 243.264 149.939 243.957 150.529L240.369 155.729C239.745 155.139 238.896 154.515 237.821 153.857C236.746 153.163 235.602 152.505 234.389 151.881C233.21 151.257 232.066 150.719 230.957 150.269ZM232.465 175.489C233.332 174.137 234.302 172.559 235.377 170.757C236.452 168.919 237.544 166.978 238.653 164.933C239.762 162.887 240.802 160.842 241.773 158.797L246.505 162.697C245.638 164.534 244.72 166.423 243.749 168.365C242.813 170.306 241.842 172.213 240.837 174.085C239.866 175.922 238.896 177.69 237.925 179.389L232.465 175.489ZM267.825 156.405H273.597V172.629C273.597 173.495 273.649 173.998 273.753 174.137C273.822 174.206 273.892 174.275 273.961 174.345C274.065 174.379 274.169 174.397 274.273 174.397C274.412 174.397 274.55 174.397 274.689 174.397C274.862 174.397 275.001 174.397 275.105 174.397C275.244 174.397 275.382 174.379 275.521 174.345C275.66 174.31 275.746 174.258 275.781 174.189C275.954 174.085 276.093 173.634 276.197 172.837C276.232 172.421 276.249 171.779 276.249 170.913C276.284 170.046 276.318 169.023 276.353 167.845C276.838 168.295 277.48 168.746 278.277 169.197C279.109 169.613 279.872 169.942 280.565 170.185C280.53 171.329 280.444 172.49 280.305 173.669C280.201 174.847 280.08 175.714 279.941 176.269C279.594 177.378 279.005 178.175 278.173 178.661C277.826 178.869 277.376 179.025 276.821 179.129C276.301 179.267 275.798 179.337 275.313 179.337C274.932 179.337 274.464 179.337 273.909 179.337C273.389 179.337 272.956 179.337 272.609 179.337C272.02 179.337 271.396 179.233 270.737 179.025C270.078 178.817 269.541 178.487 269.125 178.037C268.674 177.586 268.345 176.979 268.137 176.217C267.929 175.489 267.825 174.241 267.825 172.473V156.405Z" fill="#DD1760"/>
<path d="M208.232 139.817C207.885 142.451 207.435 145.259 206.88 148.241C206.325 151.222 205.58 154.238 204.644 157.289C203.639 160.79 202.46 163.806 201.108 166.337C199.756 168.867 198.265 170.826 196.636 172.213C195.041 173.565 193.291 174.241 191.384 174.241C189.477 174.241 187.709 173.599 186.08 172.317C184.485 170.999 183.203 169.197 182.232 166.909C181.296 164.621 180.828 162.021 180.828 159.109C180.828 156.093 181.435 153.25 182.648 150.581C183.861 147.911 185.543 145.554 187.692 143.509C189.876 141.429 192.407 139.799 195.284 138.621C198.196 137.442 201.333 136.853 204.696 136.853C207.92 136.853 210.815 137.373 213.38 138.413C215.98 139.453 218.199 140.891 220.036 142.729C221.873 144.566 223.277 146.715 224.248 149.177C225.219 151.638 225.704 154.29 225.704 157.133C225.704 160.773 224.959 164.031 223.468 166.909C221.977 169.786 219.759 172.161 216.812 174.033C213.9 175.905 210.26 177.187 205.892 177.881L201.992 171.693C202.997 171.589 203.881 171.467 204.644 171.329C205.407 171.19 206.135 171.034 206.828 170.861C208.492 170.445 210.035 169.855 211.456 169.093C212.912 168.295 214.177 167.325 215.252 166.181C216.327 165.002 217.159 163.633 217.748 162.073C218.372 160.513 218.684 158.797 218.684 156.925C218.684 154.879 218.372 153.007 217.748 151.309C217.124 149.61 216.205 148.137 214.992 146.889C213.779 145.606 212.305 144.635 210.572 143.977C208.839 143.283 206.845 142.937 204.592 142.937C201.819 142.937 199.375 143.439 197.26 144.445C195.145 145.415 193.36 146.681 191.904 148.241C190.448 149.801 189.339 151.482 188.576 153.285C187.848 155.087 187.484 156.803 187.484 158.433C187.484 160.166 187.692 161.622 188.108 162.801C188.524 163.945 189.027 164.811 189.616 165.401C190.24 165.955 190.899 166.233 191.592 166.233C192.32 166.233 193.031 165.869 193.724 165.141C194.452 164.378 195.163 163.234 195.856 161.709C196.549 160.183 197.243 158.259 197.936 155.937C198.733 153.441 199.409 150.771 199.964 147.929C200.519 145.086 200.917 142.313 201.16 139.609L208.232 139.817Z" fill="#DD1760"/>
<path d="M148.225 154.377L152.957 150.997C154.101 152.002 155.314 153.111 156.597 154.325C157.914 155.538 159.214 156.786 160.497 158.069C161.78 159.317 162.976 160.53 164.085 161.709C165.194 162.887 166.13 163.962 166.893 164.933L161.745 168.989C161.052 168.018 160.168 166.926 159.093 165.713C158.053 164.499 156.909 163.234 155.661 161.917C154.448 160.565 153.182 159.265 151.865 158.017C150.582 156.734 149.369 155.521 148.225 154.377ZM148.329 131.237H154.777V143.717C154.777 145.45 154.656 147.253 154.413 149.125C154.205 150.962 153.806 152.834 153.217 154.741C152.662 156.613 151.848 158.467 150.773 160.305C149.733 162.107 148.381 163.841 146.717 165.505C145.088 167.134 143.094 168.659 140.737 170.081C140.425 169.63 140.009 169.11 139.489 168.521C138.969 167.931 138.414 167.359 137.825 166.805C137.27 166.215 136.733 165.73 136.213 165.349C138.466 164.205 140.338 162.939 141.829 161.553C143.32 160.166 144.498 158.727 145.365 157.237C146.232 155.711 146.873 154.169 147.289 152.609C147.705 151.049 147.982 149.523 148.121 148.033C148.26 146.507 148.329 145.069 148.329 143.717V131.237ZM130.129 139.921H169.597V146.005H136.369V180.221H130.129V139.921ZM166.893 139.921H173.081V172.993C173.081 174.657 172.873 175.957 172.457 176.893C172.041 177.863 171.278 178.591 170.169 179.077C169.094 179.562 167.725 179.857 166.061 179.961C164.397 180.099 162.404 180.169 160.081 180.169C160.012 179.579 159.856 178.903 159.613 178.141C159.405 177.378 159.162 176.633 158.885 175.905C158.608 175.177 158.313 174.535 158.001 173.981C159.041 174.015 160.081 174.05 161.121 174.085C162.161 174.085 163.08 174.085 163.877 174.085C164.709 174.085 165.281 174.085 165.593 174.085C166.078 174.05 166.408 173.963 166.581 173.825C166.789 173.651 166.893 173.339 166.893 172.889V139.921Z" fill="#DD1760"/>
<path d="M96.3298 131.289H102.622V138.257H96.3298V131.289ZM96.2257 159.681H102.466V180.065H96.2257V159.681ZM77.1937 134.773H121.914V142.729H115.934V139.869H82.9657V142.729H77.1937V134.773ZM76.8298 143.717H122.278V148.605H76.8298V143.717ZM75.8937 163.217H123.266V168.365H75.8937V163.217ZM93.8337 139.609L99.6577 141.273C98.5484 142.833 97.3524 144.462 96.0697 146.161C94.7871 147.825 93.5391 149.437 92.3257 150.997C91.1124 152.522 89.9857 153.874 88.9457 155.053L83.0697 153.441C84.1444 152.227 85.3057 150.841 86.5537 149.281C87.8364 147.686 89.1191 146.057 90.4017 144.393C91.6844 142.694 92.8284 141.099 93.8337 139.609ZM87.2297 153.753L90.6618 150.009C92.9498 150.425 95.4284 150.945 98.0977 151.569C100.767 152.158 103.436 152.799 106.106 153.493C108.81 154.186 111.358 154.897 113.75 155.625C116.176 156.353 118.291 157.063 120.094 157.757L116.402 162.125C114.772 161.431 112.796 160.703 110.474 159.941C108.151 159.178 105.655 158.415 102.986 157.653C100.316 156.89 97.6298 156.179 94.9258 155.521C92.2218 154.827 89.6564 154.238 87.2297 153.753ZM94.6657 166.181L99.2937 168.261C97.6991 169.994 95.7751 171.606 93.5218 173.097C91.3031 174.553 88.8937 175.835 86.2937 176.945C83.7284 178.054 81.1111 178.938 78.4417 179.597C78.1991 179.077 77.8524 178.505 77.4017 177.881C76.9511 177.257 76.4831 176.633 75.9977 176.009C75.5124 175.419 75.0444 174.934 74.5938 174.553C77.1937 174.102 79.7764 173.461 82.3417 172.629C84.9071 171.797 87.2471 170.843 89.3617 169.769C91.5111 168.659 93.2791 167.463 94.6657 166.181ZM104.026 166.077C105.482 167.325 107.302 168.503 109.486 169.613C111.704 170.687 114.114 171.623 116.714 172.421C119.348 173.218 122 173.825 124.67 174.241C124.219 174.691 123.734 175.229 123.214 175.853C122.694 176.477 122.208 177.101 121.758 177.725C121.342 178.383 120.978 178.99 120.666 179.545C118.031 178.886 115.396 178.002 112.762 176.893C110.162 175.783 107.718 174.483 105.43 172.993C103.142 171.467 101.166 169.821 99.5017 168.053L104.026 166.077ZM107.406 146.629H113.906C113.247 148.535 112.398 150.234 111.358 151.725C110.318 153.215 108.966 154.533 107.302 155.677C105.672 156.821 103.627 157.809 101.166 158.641C98.7391 159.438 95.8097 160.114 92.3777 160.669C88.9457 161.223 84.8897 161.657 80.2097 161.969C80.1057 161.275 79.8284 160.461 79.3777 159.525C78.9617 158.589 78.5631 157.791 78.1817 157.133C82.4804 156.925 86.1724 156.63 89.2577 156.249C92.3431 155.833 94.9257 155.347 97.0057 154.793C99.1204 154.203 100.836 153.527 102.154 152.765C103.506 151.967 104.58 151.066 105.378 150.061C106.21 149.055 106.886 147.911 107.406 146.629Z" fill="#DD1760"/>
<path d="M31.691 138.153C33.5977 138.395 35.747 138.569 38.139 138.673C40.531 138.777 43.0964 138.829 45.835 138.829C47.5684 138.829 49.3364 138.794 51.139 138.725C52.9417 138.655 54.6924 138.569 56.391 138.465C58.0897 138.326 59.5977 138.205 60.915 138.101V145.017C59.7017 145.086 58.2284 145.173 56.495 145.277C54.7964 145.381 53.011 145.467 51.139 145.537C49.3017 145.606 47.551 145.641 45.887 145.641C43.183 145.641 40.6697 145.589 38.347 145.485C36.0244 145.346 33.8057 145.207 31.691 145.069V138.153ZM36.059 160.201C35.8164 161.102 35.6084 161.986 35.435 162.853C35.2617 163.719 35.175 164.586 35.175 165.453C35.175 167.151 36.007 168.538 37.671 169.613C39.3697 170.653 42.091 171.173 45.835 171.173C48.1924 171.173 50.463 171.086 52.647 170.913C54.8657 170.739 56.9457 170.514 58.887 170.237C60.8284 169.925 62.5617 169.561 64.087 169.145L64.139 176.425C62.6484 176.771 60.9497 177.083 59.043 177.361C57.171 177.638 55.143 177.846 52.959 177.985C50.8097 178.158 48.5217 178.245 46.095 178.245C42.1084 178.245 38.7977 177.794 36.163 176.893C33.5284 176.026 31.535 174.778 30.183 173.149C28.8657 171.485 28.207 169.457 28.207 167.065C28.207 165.574 28.3284 164.205 28.571 162.957C28.8137 161.674 29.0217 160.547 29.195 159.577L36.059 160.201ZM62.267 132.797C62.7177 133.421 63.1857 134.166 63.671 135.033C64.191 135.899 64.6937 136.766 65.179 137.633C65.6644 138.499 66.0804 139.262 66.427 139.921L62.215 141.741C61.695 140.666 61.0537 139.435 60.291 138.049C59.563 136.662 58.8524 135.466 58.159 134.461L62.267 132.797ZM68.455 130.457C68.9057 131.115 69.391 131.878 69.911 132.745C70.431 133.611 70.9337 134.478 71.419 135.345C71.939 136.177 72.355 136.905 72.667 137.529L68.507 139.297C67.9524 138.222 67.2937 137.009 66.531 135.657C65.7684 134.27 65.023 133.091 64.295 132.121L68.455 130.457Z" fill="#DD1760"/>
</svg>
