<svg width="187" height="78" viewBox="0 0 187 78" fill="none" xmlns="http://www.w3.org/2000/svg">
<path d="M12.7297 1.75879H173.788C179.819 1.75879 184.759 8.18334 184.759 16.0264V38.3011C184.759 46.1441 179.819 52.5686 173.788 52.5686H151.622C151.009 57.9966 151.361 65.5466 153.975 75.8867C153.975 75.8867 144.681 72.3228 137.821 52.5686H12.7297C6.69916 52.5686 1.75928 46.1441 1.75928 38.3011V16.0264C1.75928 8.18334 6.69916 1.75879 12.7297 1.75879Z" fill="white"/>
<path d="M3.5166 16.0264C3.5166 12.4628 4.64114 9.27973 6.37598 7.02344C8.11089 4.7671 10.3772 3.51766 12.7285 3.51758H173.787C176.138 3.51758 178.405 4.7671 180.14 7.02344C181.875 9.27974 182.999 12.4627 182.999 16.0264V38.3008C182.999 41.8644 181.874 45.0474 180.14 47.3037C178.405 49.5601 176.139 50.8105 173.787 50.8105H151.621L151.455 50.8174C150.635 50.8945 149.968 51.5376 149.874 52.3711C149.326 57.2235 149.527 63.5955 151.249 71.8896C150.782 71.472 150.278 70.9881 149.747 70.4268C146.759 67.2697 142.84 61.6641 139.481 51.9922L139.431 51.8623C139.152 51.2271 138.522 50.8106 137.82 50.8105H12.7285C10.3772 50.8105 8.11089 49.56 6.37598 47.3037C4.64123 45.0474 3.5166 41.8643 3.5166 38.3008V16.0264ZM0 38.3008C0 42.5802 1.3452 46.5315 3.58789 49.4482C5.83045 52.3647 9.04951 54.3271 12.7285 54.3271H136.58C139.99 63.7039 143.953 69.4227 147.192 72.8447C148.877 74.6247 150.359 75.7747 151.449 76.4912C151.994 76.8491 152.441 77.098 152.765 77.2627C152.926 77.3449 153.058 77.4059 153.155 77.4492C153.204 77.4709 153.245 77.4879 153.276 77.501C153.292 77.5075 153.306 77.5131 153.317 77.5176C153.323 77.5198 153.328 77.5227 153.332 77.5244C153.334 77.5253 153.337 77.5256 153.339 77.5264C153.34 77.5268 153.341 77.5272 153.342 77.5273C153.345 77.5232 153.379 77.4386 153.974 75.8867L153.345 77.5283C153.958 77.7633 154.651 77.638 155.142 77.2021C155.633 76.7662 155.84 76.0926 155.679 75.4561C153.353 66.257 152.87 59.3835 153.229 54.3271H173.787C177.466 54.3271 180.685 52.3646 182.928 49.4482C185.17 46.5315 186.517 42.5802 186.517 38.3008V16.0264C186.517 11.747 185.17 7.79661 182.928 4.87988C180.685 1.96326 177.466 0 173.787 0H12.7285C9.04945 8.68214e-05 5.83046 1.96332 3.58789 4.87988C1.34533 7.79658 3.19841e-06 11.7471 0 16.0264V38.3008Z" fill="#FDD23E"/>
<path d="M149.523 35.3214V39.0237H133.134V35.8644L140.885 27.5548C141.663 26.6882 142.278 25.9258 142.727 25.2676C143.177 24.5985 143.501 24.0006 143.698 23.4741C143.907 22.9366 144.011 22.4265 144.011 21.9438C144.011 21.2198 143.89 20.6 143.649 20.0844C143.408 19.5579 143.051 19.152 142.579 18.8668C142.119 18.5816 141.548 18.439 140.868 18.439C140.144 18.439 139.519 18.6145 138.992 18.9655C138.477 19.3165 138.082 19.8047 137.808 20.43C137.544 21.0552 137.413 21.7628 137.413 22.5526H132.657C132.657 21.1265 132.997 19.8211 133.677 18.6364C134.358 17.4407 135.317 16.4918 136.557 15.7898C137.797 15.0767 139.266 14.7202 140.967 14.7202C142.645 14.7202 144.06 14.9945 145.212 15.5429C146.375 16.0805 147.252 16.8593 147.845 17.8795C148.448 18.8887 148.75 20.0954 148.75 21.4995C148.75 22.2893 148.624 23.0627 148.371 23.8196C148.119 24.5656 147.757 25.3115 147.285 26.0574C146.825 26.7924 146.265 27.5384 145.607 28.2953C144.949 29.0522 144.219 29.8365 143.419 30.6483L139.256 35.3214H149.523Z" fill="#DD1760"/>
<path d="M112.846 30.4839H106.742V26.6335H112.846C113.79 26.6335 114.558 26.4799 115.15 26.1728C115.742 25.8547 116.176 25.4159 116.45 24.8564C116.724 24.297 116.861 23.6662 116.861 22.9641C116.861 22.2511 116.724 21.5874 116.45 20.9731C116.176 20.3588 115.742 19.8652 115.15 19.4922C114.558 19.1192 113.79 18.9328 112.846 18.9328H108.453V39.0238H103.517V15.0659H112.846C114.722 15.0659 116.329 15.406 117.668 16.0861C119.017 16.7553 120.048 17.6822 120.761 18.8669C121.474 20.0517 121.831 21.4064 121.831 22.9312C121.831 24.478 121.474 25.8163 120.761 26.9462C120.048 28.076 119.017 28.9481 117.668 29.5624C116.329 30.1767 114.722 30.4839 112.846 30.4839Z" fill="#DD1760"/>
<path d="M100.64 35.1735V39.0238H87.8873V35.1735H100.64ZM89.4999 15.0659V39.0238H84.5635V15.0659H89.4999ZM98.9777 24.8235V28.5752H87.8873V24.8235H98.9777ZM100.623 15.0659V18.9328H87.8873V15.0659H100.623Z" fill="#DD1760"/>
<path d="M74.3766 15.0659V39.0238H69.4567V15.0659H74.3766ZM81.7483 15.0659V18.9328H62.2002V15.0659H81.7483Z" fill="#DD1760"/>
<path d="M55.3718 32.7546C55.3718 32.3268 55.306 31.9429 55.1744 31.6028C55.0537 31.2518 54.8234 30.9336 54.4833 30.6484C54.1432 30.3522 53.666 30.0616 53.0517 29.7763C52.4374 29.4911 51.6421 29.1949 50.6658 28.8878C49.5798 28.5368 48.5487 28.1418 47.5724 27.7031C46.607 27.2643 45.7514 26.7542 45.0054 26.1728C44.2705 25.5804 43.6891 24.8948 43.2612 24.1159C42.8444 23.3371 42.636 22.4321 42.636 21.4009C42.636 20.4027 42.8554 19.4977 43.2942 18.6859C43.7329 17.8632 44.3472 17.1611 45.1371 16.5797C45.9269 15.9874 46.8593 15.5321 47.9344 15.214C49.0204 14.8959 50.2106 14.7368 51.505 14.7368C53.2711 14.7368 54.8124 15.0549 56.1288 15.6912C57.4451 16.3274 58.4653 17.1995 59.1893 18.3075C59.9243 19.4154 60.2918 20.6824 60.2918 22.1085H55.3883C55.3883 21.4064 55.2402 20.7921 54.944 20.2656C54.6588 19.7281 54.22 19.3057 53.6277 18.9986C53.0463 18.6914 52.3113 18.5378 51.4227 18.5378C50.5671 18.5378 49.8541 18.6695 49.2836 18.9327C48.7132 19.185 48.2854 19.5306 48.0002 19.9694C47.715 20.3972 47.5724 20.8799 47.5724 21.4174C47.5724 21.8233 47.6711 22.1908 47.8685 22.5199C48.077 22.8489 48.3841 23.1561 48.79 23.4413C49.1959 23.7265 49.695 23.9953 50.2874 24.2476C50.8797 24.4999 51.5653 24.7467 52.3442 24.988C53.6496 25.383 54.7959 25.8272 55.7832 26.3209C56.7815 26.8145 57.6152 27.3685 58.2843 27.9828C58.9535 28.5971 59.4581 29.2937 59.7981 30.0725C60.1382 30.8514 60.3082 31.7344 60.3082 32.7217C60.3082 33.7638 60.1053 34.6963 59.6994 35.519C59.2935 36.3417 58.7066 37.0383 57.9388 37.6087C57.1709 38.1792 56.2549 38.6125 55.1908 38.9086C54.1268 39.2048 52.9366 39.3529 51.6202 39.3529C50.4355 39.3529 49.2672 39.1993 48.1154 38.8922C46.9635 38.5741 45.9159 38.0969 44.9725 37.4606C44.0401 36.8244 43.2942 36.0126 42.7347 35.0254C42.1752 34.0381 41.8955 32.8698 41.8955 31.5205H46.8483C46.8483 32.2665 46.9635 32.8972 47.1939 33.4128C47.4243 33.9284 47.7479 34.3452 48.1647 34.6634C48.5925 34.9815 49.0971 35.2118 49.6785 35.3545C50.2709 35.4971 50.9181 35.5684 51.6202 35.5684C52.4758 35.5684 53.1779 35.4477 53.7264 35.2064C54.2858 34.965 54.6972 34.6304 54.9605 34.2026C55.2347 33.7748 55.3718 33.2921 55.3718 32.7546Z" fill="#DD1760"/>
</svg>
