<svg width="230" height="74" viewBox="0 0 230 74" fill="none" xmlns="http://www.w3.org/2000/svg">
<path d="M15.2163 1.66992H214.12C221.567 1.66992 227.668 7.77055 227.668 15.2182V36.3698C227.668 43.8174 221.567 49.918 214.12 49.918H186.745C185.988 55.0723 186.422 62.2416 189.651 72.0605C189.651 72.0605 178.173 68.6762 169.701 49.918H15.2163C7.76869 49.918 1.66806 43.8174 1.66806 36.3698V15.2182C1.66806 7.77055 7.76869 1.66992 15.2163 1.66992Z" fill="white"/>
<path d="M3.33984 15.2178C3.34006 8.69275 8.69275 3.34011 15.2178 3.33984H214.122C220.647 3.34002 226 8.69268 226 15.2178V36.3701C226 42.8952 220.647 48.2479 214.122 48.248H186.747C185.919 48.248 185.215 48.8561 185.095 49.6758C184.394 54.4491 184.676 60.7196 186.945 68.8867C186.063 68.3468 185.033 67.642 183.907 66.7275C180.184 63.7032 175.355 58.3769 171.225 49.2305L171.171 49.1211C170.881 48.586 170.318 48.248 169.703 48.248H15.2178C8.69272 48.2478 3.34001 42.8952 3.33984 36.3701V15.2178ZM0 36.3701C0.000162305 44.7397 6.84825 51.5876 15.2178 51.5879H168.635C172.877 60.6108 177.811 66.078 181.802 69.3193C183.865 70.9951 185.666 72.069 186.974 72.7295C187.627 73.0596 188.158 73.2861 188.535 73.4336C188.724 73.5072 188.874 73.5616 188.982 73.5986C189.037 73.6172 189.081 73.6311 189.114 73.6416C189.131 73.6468 189.144 73.6509 189.155 73.6543L189.176 73.6611H189.178C189.179 73.6615 189.18 73.6621 189.652 72.0605L189.181 73.6621C189.776 73.8375 190.42 73.6683 190.852 73.2227C191.284 72.7771 191.433 72.1286 191.239 71.5391C188.37 62.8134 187.786 56.3285 188.229 51.5879H214.122C222.492 51.5877 229.34 44.7397 229.34 36.3701V15.2178C229.34 6.84822 222.492 0.000175822 214.122 0H15.2178C6.84827 0.000266346 0.000213272 6.84826 0 15.2178V36.3701Z" fill="#FDD000"/>
<path d="M171.132 30.51C170.684 30.51 170.302 30.3606 169.984 30.062C169.667 29.7446 169.499 29.362 169.48 28.914L169.06 17.826C169.042 17.3966 169.182 17.0233 169.48 16.706C169.779 16.3886 170.143 16.23 170.572 16.23H172.084C172.514 16.23 172.878 16.3886 173.176 16.706C173.475 17.0233 173.615 17.3966 173.596 17.826L173.176 28.914C173.158 29.362 172.99 29.7446 172.672 30.062C172.355 30.3606 171.972 30.51 171.524 30.51H171.132ZM171.804 32.75C172.234 32.75 172.598 32.9086 172.896 33.226C173.214 33.5433 173.372 33.9166 173.372 34.346V35.074C173.372 35.5033 173.214 35.8766 172.896 36.194C172.598 36.5113 172.234 36.67 171.804 36.67H170.852C170.423 36.67 170.05 36.5113 169.732 36.194C169.434 35.8766 169.284 35.5033 169.284 35.074V34.346C169.284 33.9166 169.434 33.5433 169.732 33.226C170.05 32.9086 170.423 32.75 170.852 32.75H171.804Z" fill="#DD1760"/>
<path d="M145.205 27.2619C143.581 27.5046 142.349 27.9339 141.509 28.5499C140.669 29.1473 140.249 29.8473 140.249 30.6499C140.249 31.4153 140.539 32.1806 141.117 32.9459C141.696 33.6926 142.247 34.0659 142.769 34.0659C143.815 34.0659 144.701 31.8633 145.429 27.4579C145.448 27.4019 145.429 27.3553 145.373 27.3179C145.317 27.2619 145.261 27.2433 145.205 27.2619ZM142.965 37.7059C141.416 37.7059 139.969 36.9873 138.625 35.5499C137.281 34.0939 136.609 32.4606 136.609 30.6499C136.609 28.9513 137.412 27.4766 139.017 26.2259C140.641 24.9566 142.881 24.1819 145.737 23.9019C145.849 23.9019 145.924 23.8179 145.961 23.6499C146.129 22.3433 146.297 20.8126 146.465 19.0579C146.465 18.9086 146.391 18.8339 146.241 18.8339H140.249C139.82 18.8339 139.447 18.6846 139.129 18.3859C138.812 18.0686 138.653 17.6953 138.653 17.2659C138.653 16.8366 138.812 16.4633 139.129 16.1459C139.447 15.8286 139.82 15.6699 140.249 15.6699H148.649C149.079 15.6699 149.452 15.8286 149.769 16.1459C150.087 16.4633 150.245 16.8366 150.245 17.2659V18.8339C150.059 20.4393 149.863 22.0353 149.657 23.6219C149.639 23.6966 149.657 23.7619 149.713 23.8179C149.769 23.8553 149.835 23.8739 149.909 23.8739C151.309 23.9673 152.588 24.1539 153.745 24.4339C153.913 24.4713 153.997 24.4153 153.997 24.2659C154.035 22.4366 154.053 20.8499 154.053 19.5059C154.053 19.0766 154.212 18.7033 154.529 18.3859C154.847 18.0686 155.22 17.9099 155.649 17.9099H156.013C156.461 17.9099 156.835 18.0686 157.133 18.3859C157.451 18.6846 157.609 19.0579 157.609 19.5059C157.609 21.9139 157.572 23.8646 157.497 25.3579C157.497 25.5446 157.572 25.6659 157.721 25.7219C158.767 26.1513 159.7 26.5899 160.521 27.0379C160.913 27.2433 161.165 27.5606 161.277 27.9899C161.389 28.4193 161.343 28.8299 161.137 29.2219L161.025 29.4179C160.839 29.7913 160.54 30.0339 160.129 30.1459C159.719 30.2579 159.327 30.2113 158.953 30.0059L157.441 29.2499C157.311 29.1939 157.227 29.2406 157.189 29.3899C156.909 31.7233 156.415 33.4779 155.705 34.6539C154.996 35.8113 153.867 36.8659 152.317 37.8179C151.944 38.0606 151.543 38.1166 151.113 37.9859C150.684 37.8739 150.348 37.6313 150.105 37.2579L149.937 37.0059C149.713 36.6326 149.657 36.2406 149.769 35.8299C149.881 35.4006 150.124 35.0739 150.497 34.8499C151.58 34.1779 152.355 33.3939 152.821 32.4979C153.307 31.5833 153.633 30.1366 153.801 28.1579C153.801 27.9713 153.745 27.8686 153.633 27.8499C152.345 27.4953 150.945 27.2526 149.433 27.1219C149.247 27.1219 149.144 27.1873 149.125 27.3179C148.64 30.2299 148.089 32.4606 147.473 34.0099C146.857 35.5406 146.213 36.5393 145.541 37.0059C144.888 37.4726 144.029 37.7059 142.965 37.7059Z" fill="#DD1760"/>
<path d="M115.385 14.9139C115.814 14.7646 116.225 14.7926 116.617 14.9979C117.027 15.2032 117.307 15.5112 117.457 15.9219C117.849 17.0046 118.325 18.4979 118.885 20.4019C119.015 20.8126 118.969 21.2139 118.745 21.6059C118.521 21.9979 118.194 22.2592 117.765 22.3899L117.541 22.4739C117.13 22.6046 116.738 22.5672 116.365 22.3619C115.991 22.1566 115.739 21.8486 115.609 21.4379C115.142 19.7952 114.675 18.3019 114.209 16.9579C114.059 16.5472 114.078 16.1552 114.265 15.7819C114.451 15.3899 114.75 15.1286 115.161 14.9979L115.385 14.9139ZM120.957 14.1019C121.386 13.9899 121.797 14.0459 122.189 14.2699C122.599 14.4752 122.87 14.7832 123.001 15.1939C123.449 16.6126 123.869 18.1339 124.261 19.7579C124.354 20.1872 124.289 20.5885 124.065 20.9619C123.841 21.3352 123.514 21.5872 123.085 21.7179L122.945 21.7739C122.515 21.8859 122.114 21.8392 121.741 21.6339C121.367 21.4099 121.134 21.0926 121.041 20.6819C120.574 18.7592 120.145 17.2192 119.753 16.0619C119.622 15.6512 119.65 15.2592 119.837 14.8859C120.042 14.5126 120.35 14.2699 120.761 14.1579L120.957 14.1019ZM129.609 14.4939C130.038 14.6059 130.355 14.8486 130.561 15.2219C130.766 15.5952 130.803 15.9872 130.673 16.3979C129.926 18.6565 129.189 20.5605 128.461 22.1099C128.274 22.5206 127.966 22.8099 127.537 22.9779C127.107 23.1272 126.687 23.1179 126.277 22.9499L125.997 22.8379C125.605 22.6886 125.334 22.4179 125.185 22.0259C125.035 21.6339 125.054 21.2419 125.241 20.8499C125.931 19.3566 126.622 17.5739 127.313 15.5019C127.462 15.0726 127.723 14.7552 128.097 14.5499C128.47 14.3445 128.871 14.2979 129.301 14.4099L129.609 14.4939ZM106.537 29.1659C106.257 29.3526 105.949 29.4086 105.613 29.3339C105.277 29.2592 105.006 29.0819 104.801 28.8019C104.595 28.5219 104.521 28.2046 104.577 27.8499C104.913 25.9832 105.249 23.5939 105.585 20.6819C105.622 20.2526 105.818 19.9072 106.173 19.6459C106.527 19.3659 106.919 19.2539 107.349 19.3099L107.685 19.3379C107.834 19.3752 107.909 19.3099 107.909 19.1419V15.4739C107.909 15.0446 108.067 14.6805 108.385 14.3819C108.702 14.0646 109.075 13.9059 109.505 13.9059H109.813C110.242 13.9059 110.615 14.0646 110.933 14.3819C111.25 14.6805 111.409 15.0446 111.409 15.4739V18.5539C111.409 18.7219 111.483 18.7872 111.633 18.7499C112.062 18.6379 112.463 18.6939 112.837 18.9179C113.21 19.1419 113.443 19.4592 113.537 19.8699C113.947 21.5499 114.237 22.8006 114.405 23.6219V23.7059C114.442 23.8739 114.526 23.9392 114.657 23.9019C114.843 23.8645 114.974 23.8459 115.049 23.8459H115.329C115.758 23.8459 116.122 24.0046 116.421 24.3219C116.738 24.6206 116.897 24.9846 116.897 25.4139V25.6379C116.897 25.6752 116.915 25.7032 116.953 25.7219C116.99 25.7405 117.027 25.7312 117.065 25.6939L117.653 24.9939C117.951 24.6579 118.315 24.4619 118.745 24.4059C119.193 24.3499 119.594 24.4619 119.949 24.7419C120.733 25.3766 121.321 25.8712 121.713 26.2259C121.862 26.3379 121.974 26.3286 122.049 26.1979C122.329 25.7312 122.646 25.1432 123.001 24.4339C123.206 24.0419 123.505 23.7712 123.897 23.6219C124.307 23.4539 124.709 23.4632 125.101 23.6499C125.511 23.8552 125.791 24.1632 125.941 24.5739C126.09 24.9846 126.071 25.3952 125.885 25.8059C125.418 26.7766 124.923 27.6632 124.401 28.4659C124.307 28.5779 124.317 28.6899 124.429 28.8019C125.493 29.9032 126.295 30.7619 126.837 31.3779C126.855 31.4152 126.883 31.4246 126.921 31.4059C126.977 31.3872 127.005 31.3592 127.005 31.3219V25.4139C127.005 24.9846 127.163 24.6206 127.481 24.3219C127.798 24.0046 128.171 23.8459 128.601 23.8459H128.965C129.394 23.8459 129.758 24.0046 130.057 24.3219C130.374 24.6206 130.533 24.9846 130.533 25.4139V37.5659C130.533 37.9952 130.374 38.3592 130.057 38.6579C129.758 38.9752 129.394 39.1339 128.965 39.1339H128.097C127.779 39.1339 127.509 39.0219 127.285 38.7979C127.061 38.5739 126.949 38.3126 126.949 38.0139C126.949 37.9019 126.893 37.8459 126.781 37.8459H117.121C117.009 37.8459 116.953 37.9019 116.953 38.0139C116.953 38.3126 116.841 38.5739 116.617 38.7979C116.393 39.0219 116.122 39.1339 115.805 39.1339H115.049C114.619 39.1339 114.246 38.9752 113.929 38.6579C113.611 38.3592 113.453 37.9952 113.453 37.5659V25.4139V25.3859C113.453 25.2552 113.378 25.1899 113.229 25.1899C112.93 25.2272 112.659 25.1526 112.417 24.9659C112.174 24.7606 112.025 24.5086 111.969 24.2099C111.857 23.6872 111.689 22.8846 111.465 21.8019C111.446 21.7832 111.427 21.7739 111.409 21.7739V37.7059C111.409 38.1352 111.25 38.4992 110.933 38.7979C110.615 39.1152 110.242 39.2739 109.813 39.2739H109.505C109.075 39.2739 108.702 39.1152 108.385 38.7979C108.067 38.4992 107.909 38.1352 107.909 37.7059V22.8659H107.881C107.675 24.5459 107.405 26.3846 107.069 28.3819C107.013 28.7179 106.835 28.9792 106.537 29.1659ZM116.897 26.5339V31.6859C116.897 31.8352 116.962 31.8632 117.093 31.7699C118.194 30.9486 119.137 30.0712 119.921 29.1379C120.014 29.0072 119.995 28.8952 119.865 28.8019C118.801 27.8499 117.877 27.0659 117.093 26.4499C116.962 26.3566 116.897 26.3846 116.897 26.5339ZM116.897 32.6099V34.7099C116.897 34.8592 116.981 34.9339 117.149 34.9339H126.781C126.93 34.9339 127.005 34.8592 127.005 34.7099V32.3299C127.005 32.2926 126.977 32.2646 126.921 32.2459C126.883 32.2272 126.855 32.2366 126.837 32.2739L126.165 33.0579C125.885 33.3752 125.53 33.5339 125.101 33.5339C124.69 33.5339 124.345 33.3752 124.065 33.0579C123.729 32.6846 123.206 32.1246 122.497 31.3779C122.385 31.2846 122.282 31.2846 122.189 31.3779C121.33 32.3486 120.537 33.1419 119.809 33.7579C119.473 34.0379 119.09 34.1499 118.661 34.0939C118.231 34.0192 117.895 33.8046 117.653 33.4499L117.037 32.5539C117.018 32.5166 116.99 32.5072 116.953 32.5259C116.915 32.5445 116.897 32.5726 116.897 32.6099Z" fill="#DD1760"/>
<path d="M84.5567 19.506C82.3727 19.9726 80.6553 20.9713 79.4047 22.502C78.154 24.014 77.5287 25.8713 77.5287 28.074C77.5287 29.4926 77.818 30.7526 78.3967 31.854C78.9753 32.9553 79.526 33.506 80.0487 33.506C80.31 33.506 80.5807 33.3846 80.8607 33.142C81.1407 32.8806 81.4487 32.4233 81.7847 31.77C82.1393 31.098 82.4753 30.2673 82.7927 29.278C83.1287 28.27 83.4647 26.9446 83.8007 25.302C84.1553 23.6406 84.4727 21.774 84.7527 19.702C84.7713 19.646 84.7527 19.5993 84.6967 19.562C84.6593 19.506 84.6127 19.4873 84.5567 19.506ZM80.0487 37.034C78.5367 37.034 77.146 36.166 75.8767 34.43C74.6073 32.694 73.9727 30.5753 73.9727 28.074C73.9727 24.4526 75.2047 21.5126 77.6687 19.254C80.1327 16.9953 83.3527 15.866 87.3287 15.866C90.5393 15.866 93.19 16.874 95.2807 18.89C97.39 20.906 98.4447 23.4726 98.4447 26.59C98.4447 29.5206 97.7633 31.938 96.4007 33.842C95.0567 35.7273 93.2087 36.9313 90.8567 37.454C90.4087 37.5473 89.998 37.4633 89.6247 37.202C89.27 36.9406 89.046 36.586 88.9527 36.138L88.8967 35.886C88.8033 35.4753 88.878 35.0926 89.1207 34.738C89.3633 34.3833 89.69 34.1406 90.1007 34.01C93.2927 33.0206 94.8887 30.5473 94.8887 26.59C94.8887 24.686 94.3193 23.0806 93.1807 21.774C92.0607 20.4486 90.586 19.6366 88.7567 19.338C88.5887 19.3006 88.486 19.366 88.4487 19.534C88.0753 22.3526 87.6553 24.8073 87.1887 26.898C86.722 28.97 86.2273 30.65 85.7047 31.938C85.2007 33.2073 84.6313 34.234 83.9967 35.018C83.362 35.7833 82.7367 36.3153 82.1207 36.614C81.5047 36.894 80.814 37.034 80.0487 37.034Z" fill="#DD1760"/>
<path d="M45.2443 27.8779C44.8149 27.8966 44.4322 27.7659 44.0962 27.4859C43.7789 27.1872 43.6016 26.8232 43.5643 26.3939C43.5456 25.9646 43.6763 25.5819 43.9563 25.2459C44.2363 24.9099 44.5909 24.7139 45.0202 24.6579C47.1669 24.3592 49.2109 23.7619 51.1523 22.8659C53.0936 21.9512 55.3802 20.5419 58.0122 18.6379C58.0309 18.6379 58.0403 18.6192 58.0403 18.5819C58.0403 18.5632 58.0216 18.5539 57.9843 18.5539H49.4443C49.0149 18.5539 48.6416 18.4046 48.3243 18.1059C48.0069 17.7886 47.8483 17.4152 47.8483 16.9859C47.8483 16.5566 48.0069 16.1832 48.3243 15.8659C48.6416 15.5486 49.0149 15.3899 49.4443 15.3899H62.3803C62.8096 15.3899 63.1736 15.5486 63.4723 15.8659C63.7896 16.1646 63.9482 16.5286 63.9482 16.9579C63.9482 18.0406 63.5189 18.8619 62.6602 19.4219C59.8042 21.2886 57.0976 22.8099 54.5402 23.9859C54.5216 23.9859 54.5123 24.0046 54.5123 24.0419C54.5123 24.0606 54.5216 24.0699 54.5402 24.0699L65.5723 23.2579C66.0016 23.2206 66.3843 23.3512 66.7203 23.6499C67.0563 23.9299 67.2336 24.2846 67.2523 24.7139C67.2896 25.1432 67.1589 25.5352 66.8603 25.8899C66.5616 26.2259 66.1976 26.4032 65.7682 26.4219L59.7483 26.8419C59.6363 26.8419 59.4869 26.8792 59.3002 26.9539C57.7696 27.6072 56.5936 28.3819 55.7723 29.2779C54.9696 30.1739 54.5682 31.0792 54.5682 31.9939C54.5682 33.9352 56.4069 34.9059 60.0842 34.9059C61.0362 34.9059 62.0816 34.8312 63.2203 34.6819C63.6683 34.6259 64.0603 34.7286 64.3963 34.9899C64.7509 35.2326 64.9563 35.5686 65.0123 35.9979L65.0403 36.1099C65.0963 36.5579 64.9936 36.9592 64.7323 37.3139C64.4709 37.6872 64.1163 37.9019 63.6683 37.9579C62.5669 38.0886 61.3722 38.1539 60.0842 38.1539C56.8176 38.1539 54.4283 37.6499 52.9163 36.6419C51.4043 35.6339 50.6483 34.2432 50.6483 32.4699C50.6483 31.5552 50.9376 30.6499 51.5163 29.7539C52.1136 28.8392 52.9722 28.0179 54.0922 27.2899C54.1109 27.2899 54.1203 27.2712 54.1203 27.2339C54.1203 27.2152 54.1109 27.2059 54.0922 27.2059L45.2443 27.8779Z" fill="#DD1760"/>
</svg>
