<svg width="390" height="187" viewBox="0 0 390 187" fill="none" xmlns="http://www.w3.org/2000/svg">
<path d="M389.629 90.5691C389.629 66.7108 364.579 46.8723 331.49 42.6664C327.005 24.8191 305.082 11.2709 278.693 11.2709C265.852 11.2709 254.072 14.4904 244.841 19.8316C232.521 8.70265 213.017 1.50049 191.039 1.50049C167.069 1.50049 146.058 10.0612 134.091 22.9581C125.326 17.7845 114.234 14.6952 102.156 14.6952C78.2791 14.6952 58.1987 26.7732 52.4853 43.1502C24.0117 48.5472 3.09375 66.413 3.09375 87.6287C3.09375 101.977 12.6594 114.8 27.6779 123.267C25.7424 127.157 24.663 131.363 24.663 135.773C24.663 155.128 45.1901 170.816 70.5187 170.816C73.7196 170.816 76.8648 170.556 79.8796 170.091C90.1339 177.851 104.389 182.653 120.152 182.653C135.059 182.653 148.607 178.354 158.694 171.338C170.009 180.066 185.884 185.5 203.47 185.5C214.953 185.5 225.651 185.03 235.582 183.375C248.331 181.25 250.456 179.154 250.456 179.154C250.456 179.154 252.756 174.671 265.275 172.305C274.45 176.195 285.113 178.428 296.521 178.428C330.671 178.428 358.345 158.441 358.345 133.782C358.345 132.852 358.289 131.94 358.214 131.028C377.16 122.262 389.629 107.43 389.629 90.6063V90.5691Z" fill="white"/>
<path d="M179.861 182.53C180.07 181.729 180.89 181.248 181.691 181.457C188.003 183.103 194.796 183.999 201.877 183.999C205.834 183.999 210.972 183.808 216.006 183.557C216.833 183.516 217.537 184.153 217.578 184.98C217.619 185.808 216.982 186.511 216.155 186.553C211.109 186.805 205.911 186.999 201.877 186.999C194.543 186.999 187.496 186.071 180.935 184.36C180.133 184.151 179.652 183.332 179.861 182.53ZM247.317 179.152C248.094 178.863 248.957 179.258 249.246 180.034C249.535 180.81 249.14 181.674 248.364 181.963C244.348 183.458 240.94 184.316 238.525 184.801C237.318 185.043 236.358 185.192 235.693 185.281C235.362 185.326 235.103 185.355 234.925 185.374C234.835 185.383 234.765 185.39 234.717 185.395C234.693 185.397 234.674 185.398 234.66 185.399C234.653 185.4 234.647 185.401 234.643 185.401H234.631L234.63 185.402C234.629 185.402 234.628 185.402 234.627 185.402C234.624 185.403 234.619 185.403 234.612 185.403C234.6 185.404 234.58 185.405 234.556 185.407C234.506 185.411 234.433 185.417 234.337 185.424C234.144 185.438 233.861 185.459 233.497 185.485C232.769 185.538 231.718 185.612 230.426 185.7C227.842 185.877 224.291 186.107 220.425 186.325C219.598 186.372 218.889 185.739 218.843 184.912C218.796 184.085 219.429 183.377 220.256 183.33C224.107 183.113 227.646 182.883 230.222 182.707C231.509 182.619 232.557 182.545 233.281 182.493C233.643 182.467 233.925 182.446 234.116 182.432C234.211 182.425 234.284 182.42 234.333 182.416C234.357 182.414 234.375 182.413 234.388 182.412C234.394 182.412 234.398 182.41 234.401 182.41H234.41C234.417 182.41 234.43 182.408 234.447 182.406C234.482 182.403 234.538 182.398 234.612 182.391C234.763 182.375 234.993 182.348 235.295 182.308C235.899 182.227 236.795 182.088 237.935 181.859C240.215 181.402 243.468 180.585 247.317 179.152ZM98.6377 179.98C98.8443 179.178 99.6618 178.696 100.464 178.902C106.128 180.36 112.216 181.152 118.559 181.152C124.575 181.152 130.36 180.438 135.771 179.121C136.575 178.925 137.387 179.419 137.583 180.224C137.779 181.028 137.285 181.839 136.48 182.035C130.835 183.41 124.812 184.152 118.559 184.152C111.967 184.152 105.628 183.329 99.7168 181.808C98.9145 181.601 98.4313 180.783 98.6377 179.98ZM156.347 170.04C156.87 169.736 157.531 169.775 158.017 170.149C163.09 174.063 169.123 177.309 175.849 179.674C176.63 179.949 177.041 180.805 176.767 181.587C176.492 182.368 175.635 182.78 174.854 182.505C168.226 180.175 162.213 177.009 157.056 173.182C152.514 176.211 147.34 178.707 141.707 180.549C140.92 180.806 140.073 180.376 139.815 179.589C139.558 178.802 139.987 177.955 140.774 177.697C146.524 175.817 151.746 173.234 156.244 170.105L156.347 170.04ZM262.996 170.971C263.389 170.769 263.854 170.749 264.267 170.924C268.321 172.642 272.677 174.033 277.27 175.041C278.079 175.219 278.591 176.019 278.413 176.828C278.235 177.637 277.435 178.149 276.626 177.972C272.141 176.987 267.864 175.648 263.852 174C259.802 176.717 255.869 178.793 252.271 180.377C251.512 180.71 250.628 180.367 250.294 179.608C249.96 178.85 250.304 177.966 251.062 177.632C254.706 176.028 258.712 173.897 262.832 171.068L262.996 170.971ZM40.9297 163.558C41.3277 162.831 42.2393 162.565 42.9658 162.963C50.2503 166.951 59.2119 169.316 68.9248 169.316C70.2632 169.316 71.5923 169.269 72.9062 169.18C73.1188 169.165 73.3241 169.196 73.5127 169.264C73.6885 169.168 73.8864 169.106 74.0986 169.087C75.4383 168.969 76.7597 168.808 78.0566 168.607C78.4578 168.546 78.8677 168.65 79.1914 168.895C83.7727 172.362 89.1934 175.234 95.2227 177.324C96.0054 177.596 96.4198 178.45 96.1484 179.232C95.877 180.015 95.0229 180.43 94.2402 180.158C88.1552 178.048 82.6304 175.163 77.8906 171.663C76.7309 171.83 75.5533 171.97 74.3613 172.075C74.1384 172.095 73.9233 172.063 73.7256 171.992C73.5411 172.093 73.3329 172.158 73.1094 172.173C71.7298 172.267 70.3328 172.316 68.9248 172.316C58.7328 172.316 49.2724 169.836 41.5254 165.594C40.7988 165.196 40.5318 164.284 40.9297 163.558ZM329.628 169.063C330.367 168.69 331.269 168.987 331.643 169.727C332.016 170.466 331.719 171.368 330.979 171.741C320.736 176.911 308.306 179.928 294.928 179.928C290.073 179.928 285.347 179.53 280.808 178.776C279.99 178.641 279.438 177.869 279.573 177.052C279.709 176.235 280.481 175.682 281.298 175.817C285.675 176.544 290.236 176.928 294.928 176.928C307.864 176.928 319.827 174.01 329.628 169.063ZM355.251 133.781C355.251 133.405 355.242 133.029 355.225 132.65C355.222 132.592 355.223 132.535 355.227 132.479C355.217 132.422 355.21 132.365 355.207 132.307C355.186 131.924 355.158 131.539 355.126 131.149C355.075 130.522 355.42 129.93 355.991 129.666C363.454 126.213 369.858 121.817 374.844 116.755C375.425 116.165 376.375 116.158 376.965 116.739C377.555 117.321 377.562 118.27 376.98 118.86C371.922 123.996 365.536 128.43 358.189 131.945C358.193 132.01 358.199 132.075 358.202 132.14C358.206 132.204 358.204 132.267 358.199 132.329C358.21 132.39 358.218 132.452 358.221 132.516C358.239 132.931 358.251 133.353 358.251 133.781C358.251 146.33 351.414 157.602 340.529 165.825C339.868 166.324 338.928 166.193 338.429 165.532C337.929 164.871 338.06 163.93 338.721 163.431C349.056 155.622 355.251 145.163 355.251 133.781ZM21.5693 135.772C21.5694 133.757 21.783 131.783 22.1904 129.859C22.259 129.536 22.4282 129.26 22.6572 129.055C22.5485 128.767 22.5252 128.445 22.6133 128.126C23.0149 126.674 23.5269 125.256 24.1396 123.876C18.4244 120.501 13.5016 116.48 9.61816 111.958C9.07855 111.33 9.15018 110.383 9.77832 109.843C10.4067 109.303 11.3538 109.375 11.8936 110.003C15.7903 114.541 20.8502 118.593 26.8213 121.96C27.5165 122.352 27.7824 123.221 27.4268 123.936C26.6236 125.55 25.9779 127.216 25.5049 128.926C25.4255 129.213 25.2669 129.456 25.0605 129.641C25.1588 129.9 25.1868 130.19 25.125 130.481C24.76 132.204 24.5694 133.97 24.5693 135.772C24.5693 144.456 28.9528 152.447 36.2988 158.48C36.939 159.006 37.0316 159.952 36.5059 160.592C35.9801 161.232 35.0357 161.324 34.3955 160.799C26.5051 154.319 21.5693 145.531 21.5693 135.772ZM371.057 58.9668C371.591 58.3341 372.538 58.2544 373.171 58.7891C383.32 67.3659 389.535 78.4129 389.535 90.5684V90.6055C389.535 98.821 386.689 106.547 381.7 113.34C381.21 114.008 380.271 114.151 379.604 113.661C378.936 113.171 378.792 112.232 379.282 111.564C383.945 105.214 386.535 98.0987 386.535 90.6055V90.5684C386.535 79.5064 380.888 69.2393 371.234 61.0811C370.602 60.5464 370.522 59.5995 371.057 58.9668ZM0 87.6279C8.96814e-05 76.8776 5.12293 67.0394 13.6045 59.168C14.2117 58.6044 15.1611 58.6398 15.7246 59.2471C16.2879 59.8543 16.2525 60.8027 15.6455 61.3662C7.62991 68.805 3.00009 77.8917 3 87.6279C3 93.9312 4.93742 99.9506 8.46973 105.43C8.91818 106.126 8.71759 107.054 8.02148 107.503C7.32525 107.952 6.39715 107.751 5.94824 107.055C2.13866 101.146 0 94.5694 0 87.6279ZM66.9834 22.1895C67.6887 21.7549 68.6123 21.9744 69.0469 22.6797C69.4814 23.385 69.262 24.3086 68.5566 24.7432C60.6467 29.6165 54.901 36.2098 52.3076 43.6436C52.131 44.1498 51.6977 44.5232 51.1709 44.623C40.3225 46.6793 30.6235 50.5693 22.8252 55.7441C22.1349 56.202 21.2041 56.0134 20.7461 55.3232C20.2882 54.633 20.4768 53.7022 21.167 53.2441C29.1295 47.9604 38.9116 44.0016 49.7725 41.8398C52.7617 33.9686 58.896 27.1721 66.9834 22.1895ZM311.285 19.9971C311.725 19.2953 312.652 19.0833 313.354 19.5234C322.152 25.042 328.576 32.6075 331.082 41.3096C343.577 43.0228 354.939 46.9421 364.257 52.4766C364.969 52.8997 365.203 53.82 364.78 54.5322C364.357 55.2444 363.437 55.4787 362.725 55.0557C353.547 49.6043 342.228 45.7458 329.707 44.1543C329.094 44.0764 328.592 43.6302 328.441 43.0312C326.384 34.8456 320.414 27.4926 311.759 22.0645C311.057 21.6242 310.845 20.6987 311.285 19.9971ZM154.369 6.6123C155.136 6.29865 156.011 6.66614 156.325 7.43262C156.639 8.19935 156.272 9.07595 155.505 9.38965C146.595 13.0352 139.092 18.0552 133.597 23.9775C133.117 24.4945 132.343 24.6074 131.735 24.249C127.854 21.958 123.491 20.0815 118.771 18.7178C117.975 18.4877 117.516 17.6561 117.746 16.8604C117.976 16.0647 118.808 15.606 119.604 15.8359C124.142 17.1471 128.382 18.917 132.223 21.0713C137.971 15.1627 145.552 10.2197 154.369 6.6123ZM220.213 6.56348C220.502 5.78718 221.366 5.39242 222.143 5.68164C230.376 8.74916 237.625 12.9489 243.439 17.999C247.538 15.7309 252.089 13.868 256.974 12.4922C257.771 12.2676 258.6 12.732 258.824 13.5293C259.049 14.3266 258.584 15.1552 257.787 15.3799C252.75 16.7984 248.108 18.7518 243.998 21.1299C243.434 21.4558 242.724 21.3808 242.241 20.9443C236.614 15.8608 229.412 11.5916 221.096 8.49316C220.319 8.20396 219.924 7.33973 220.213 6.56348ZM100.562 13.1943C105.67 13.1943 110.61 13.736 115.283 14.7471C116.093 14.9222 116.608 15.7206 116.433 16.5303C116.257 17.3399 115.459 17.8539 114.649 17.6787C110.186 16.713 105.459 16.1943 100.562 16.1943C91.373 16.1943 82.7758 18.0226 75.3994 21.1992C74.6387 21.5266 73.7565 21.1755 73.4287 20.415C73.101 19.6542 73.452 18.771 74.2129 18.4434C81.9776 15.0995 90.98 13.1943 100.562 13.1943ZM277.1 9.77051C287.501 9.77057 297.242 11.8354 305.559 15.4385C306.319 15.7678 306.668 16.651 306.339 17.4111C306.009 18.1712 305.126 18.5207 304.366 18.1914C296.444 14.7589 287.11 12.7706 277.1 12.7705C271.905 12.7705 266.891 13.3075 262.162 14.3047C261.352 14.4756 260.556 13.9571 260.385 13.1465C260.214 12.336 260.733 11.5401 261.543 11.3691C266.477 10.3287 271.699 9.77051 277.1 9.77051ZM189.445 0C198.398 4.01369e-05 206.954 1.17743 214.806 3.32227C215.605 3.54066 216.076 4.36596 215.857 5.16504C215.639 5.96397 214.814 6.4341 214.015 6.21582C206.426 4.14293 198.136 3.00004 189.445 3C180.051 3 171.127 4.3351 163.054 6.73633C162.26 6.9725 161.425 6.51964 161.188 5.72559C160.953 4.93164 161.404 4.09649 162.198 3.86035C170.557 1.37435 179.769 0 189.445 0Z" fill="#231815"/>
<path d="M262.938 130.206C262.703 124.382 261.605 119.028 259.642 114.142C259.471 113.694 259.482 113.257 259.674 112.83C259.866 112.382 260.197 112.084 260.666 111.934L261.114 111.806C261.605 111.657 262.085 111.7 262.554 111.934C263.045 112.148 263.397 112.489 263.61 112.958C265.807 118.1 267.002 123.849 267.194 130.206C267.215 130.697 267.045 131.124 266.682 131.486C266.319 131.849 265.893 132.03 265.402 132.03H264.762C264.271 132.03 263.845 131.849 263.482 131.486C263.141 131.124 262.959 130.697 262.938 130.206ZM248.442 135.454C246.629 135.454 244.943 134.217 243.386 131.742C241.85 129.268 241.082 126.27 241.082 122.75C241.082 119.529 241.455 116.372 242.202 113.278C242.33 112.766 242.607 112.372 243.034 112.094C243.482 111.796 243.973 111.678 244.506 111.742L245.05 111.806C245.519 111.849 245.882 112.073 246.138 112.478C246.415 112.884 246.501 113.321 246.394 113.79C245.711 116.82 245.37 119.806 245.37 122.75C245.37 125.118 245.743 127.113 246.49 128.734C247.258 130.356 248.015 131.166 248.762 131.166C249.231 131.166 249.839 130.718 250.586 129.822C251.333 128.905 252.09 127.582 252.858 125.854C253.071 125.385 253.402 125.054 253.85 124.862C254.319 124.649 254.789 124.628 255.258 124.798L255.61 124.926C256.079 125.097 256.421 125.417 256.634 125.886C256.847 126.334 256.858 126.782 256.666 127.23C255.578 129.812 254.277 131.828 252.762 133.278C251.247 134.729 249.807 135.454 248.442 135.454Z" fill="#583F48"/>
<path d="M225.979 128.51V128.382C225.979 128.19 225.893 128.062 225.723 127.998C224.592 127.444 223.536 127.166 222.555 127.166C221.381 127.166 220.496 127.39 219.899 127.838C219.323 128.286 219.035 128.905 219.035 129.694C219.035 130.526 219.344 131.177 219.963 131.646C220.581 132.116 221.445 132.35 222.555 132.35C223.856 132.35 224.752 132.084 225.243 131.55C225.733 131.017 225.979 130.004 225.979 128.51ZM234.203 112.702C234.715 112.745 235.12 112.969 235.419 113.374C235.739 113.78 235.867 114.238 235.803 114.75C235.739 115.241 235.504 115.636 235.099 115.934C234.693 116.233 234.245 116.35 233.755 116.286C232.56 116.137 231.408 116.052 230.299 116.03C230.128 116.03 230.043 116.126 230.043 116.318V126.014C230.043 126.185 230.107 126.324 230.235 126.43C231.685 127.326 233.221 128.478 234.843 129.886C235.227 130.206 235.429 130.622 235.451 131.134C235.472 131.646 235.312 132.084 234.971 132.446L234.875 132.542C234.533 132.905 234.117 133.108 233.627 133.15C233.136 133.193 232.699 133.054 232.315 132.734C231.995 132.457 231.557 132.105 231.003 131.678C230.448 131.23 230.128 130.974 230.043 130.91C229.915 130.825 229.829 130.846 229.787 130.974C229.445 132.617 228.677 133.822 227.483 134.59C226.309 135.38 224.667 135.774 222.555 135.774C220.187 135.774 218.331 135.23 216.987 134.142C215.664 133.054 215.003 131.572 215.003 129.694C215.003 127.86 215.653 126.409 216.955 125.342C218.277 124.254 220.144 123.71 222.555 123.71C223.493 123.71 224.56 123.892 225.755 124.254C225.904 124.297 225.979 124.233 225.979 124.062V114.11C225.979 113.62 226.149 113.193 226.491 112.83C226.853 112.468 227.28 112.297 227.771 112.318C230.501 112.404 232.645 112.532 234.203 112.702ZM208.891 131.294C208.421 131.145 208.091 130.846 207.899 130.398C207.707 129.95 207.696 129.492 207.867 129.022C209.488 124.905 210.96 120.628 212.283 116.19C212.325 116.02 212.261 115.934 212.091 115.934H209.723C209.232 115.934 208.805 115.753 208.443 115.39C208.101 115.028 207.931 114.601 207.931 114.11C207.931 113.62 208.101 113.193 208.443 112.83C208.805 112.468 209.232 112.286 209.723 112.286H213.115C213.307 112.286 213.424 112.201 213.467 112.03C213.552 111.753 213.659 111.337 213.787 110.782C213.915 110.228 214.021 109.812 214.107 109.534C214.235 109.044 214.512 108.66 214.939 108.382C215.365 108.084 215.835 107.966 216.347 108.03H216.571C217.061 108.094 217.435 108.329 217.691 108.734C217.968 109.14 218.053 109.577 217.947 110.046C217.733 110.942 217.573 111.604 217.467 112.03C217.424 112.201 217.499 112.286 217.691 112.286H220.923C221.413 112.286 221.84 112.468 222.203 112.83C222.565 113.193 222.747 113.62 222.747 114.11C222.747 114.601 222.565 115.028 222.203 115.39C221.84 115.753 221.413 115.934 220.923 115.934H216.699C216.507 115.934 216.389 116.03 216.347 116.222C215.024 120.916 213.435 125.598 211.579 130.27C211.387 130.74 211.056 131.092 210.587 131.326C210.139 131.54 209.669 131.561 209.179 131.39L208.891 131.294Z" fill="#583F48"/>
<path d="M179.928 126.11C179.437 126.004 179.043 125.748 178.744 125.342C178.467 124.916 178.371 124.457 178.456 123.966C178.968 121.022 179.32 118.878 179.512 117.534C179.597 117.022 179.832 116.606 180.216 116.286C180.6 115.945 181.048 115.796 181.56 115.838L182.104 115.902C182.595 115.945 182.989 116.158 183.288 116.542C183.608 116.926 183.736 117.364 183.672 117.854C183.395 119.881 183.192 121.3 183.064 122.11V122.174H183.096L183.128 122.142C184.536 121.182 186.093 120.425 187.8 119.87C189.528 119.294 191.149 119.006 192.664 119.006C195.843 119.006 198.179 119.636 199.672 120.894C201.187 122.132 201.944 124.03 201.944 126.59C201.944 129.428 200.749 131.636 198.36 133.214C195.971 134.772 192.504 135.55 187.96 135.55C186.275 135.55 184.429 135.465 182.424 135.294C181.912 135.252 181.485 135.038 181.144 134.654C180.824 134.27 180.685 133.822 180.728 133.31V133.246C180.749 132.756 180.952 132.35 181.336 132.03C181.741 131.71 182.189 131.572 182.68 131.614C185.133 131.828 186.893 131.934 187.96 131.934C190.904 131.934 193.165 131.465 194.744 130.526C196.344 129.566 197.144 128.254 197.144 126.59C197.144 123.966 195.437 122.654 192.024 122.654C189.656 122.654 186.819 123.636 183.512 125.598C182.403 126.238 181.293 126.43 180.184 126.174L179.928 126.11ZM184.472 109.854C188.419 110.281 192.291 110.526 196.088 110.59C196.579 110.59 196.995 110.772 197.336 111.134C197.699 111.497 197.88 111.924 197.88 112.414C197.88 112.905 197.699 113.332 197.336 113.694C196.995 114.036 196.579 114.206 196.088 114.206C191.971 114.142 187.949 113.897 184.024 113.47C183.512 113.406 183.096 113.172 182.776 112.766C182.477 112.361 182.36 111.913 182.424 111.422C182.488 110.932 182.723 110.537 183.128 110.238C183.533 109.94 183.981 109.812 184.472 109.854Z" fill="#583F48"/>
<path d="M145.945 117.726C145.454 117.726 145.028 117.556 144.665 117.214C144.302 116.852 144.121 116.425 144.121 115.934C144.121 115.444 144.302 115.017 144.665 114.654C145.028 114.292 145.454 114.11 145.945 114.11H149.593C149.764 114.11 149.87 114.014 149.913 113.822C150.233 112.414 150.521 110.953 150.777 109.438C150.884 108.948 151.129 108.553 151.513 108.254C151.918 107.934 152.377 107.796 152.889 107.838L153.113 107.87C153.604 107.913 153.998 108.137 154.297 108.542C154.596 108.926 154.702 109.364 154.617 109.854C154.34 111.476 154.105 112.809 153.913 113.854C153.87 114.025 153.945 114.11 154.137 114.11H155.961C157.049 114.11 157.86 114.11 158.393 114.11C158.948 114.11 159.556 114.174 160.217 114.302C160.878 114.43 161.326 114.537 161.561 114.622C161.817 114.708 162.105 114.953 162.425 115.358C162.766 115.764 162.969 116.126 163.033 116.446C163.097 116.766 163.182 117.342 163.289 118.174C163.396 118.985 163.449 119.732 163.449 120.414C163.449 121.097 163.449 122.121 163.449 123.486C163.449 127.582 162.948 130.601 161.945 132.542C160.942 134.484 159.588 135.454 157.881 135.454C156.601 135.454 154.926 135.145 152.857 134.526C152.366 134.377 152.004 134.078 151.769 133.63C151.534 133.182 151.492 132.702 151.641 132.19L151.705 131.998C151.854 131.529 152.142 131.188 152.569 130.974C153.017 130.74 153.486 130.697 153.977 130.846C155.385 131.273 156.409 131.486 157.049 131.486C157.412 131.486 157.742 131.22 158.041 130.686C158.34 130.153 158.596 129.214 158.809 127.87C159.044 126.505 159.161 124.83 159.161 122.846C159.161 120.286 159.044 118.793 158.809 118.366C158.596 117.94 157.796 117.726 156.409 117.726H153.337C153.166 117.726 153.06 117.812 153.017 117.982C151.694 123.508 150.02 128.852 147.993 134.014C147.801 134.505 147.47 134.846 147.001 135.038C146.553 135.252 146.094 135.273 145.625 135.102L145.401 135.038C144.932 134.889 144.601 134.58 144.409 134.11C144.217 133.662 144.206 133.204 144.377 132.734C146.148 128.062 147.673 123.145 148.953 117.982C148.996 117.812 148.932 117.726 148.761 117.726H145.945ZM168.665 127.038C167.534 122.964 166.169 118.804 164.569 114.558C164.398 114.11 164.42 113.673 164.633 113.246C164.846 112.798 165.188 112.5 165.657 112.35L166.073 112.222C166.564 112.073 167.044 112.116 167.513 112.35C167.982 112.585 168.302 112.948 168.473 113.438C169.945 117.278 171.31 121.502 172.569 126.11C172.697 126.58 172.633 127.038 172.377 127.486C172.121 127.913 171.748 128.18 171.257 128.286L170.873 128.35C170.382 128.457 169.924 128.382 169.497 128.126C169.07 127.87 168.793 127.508 168.665 127.038Z" fill="#583F48"/>
<path d="M112.345 126.206C114.521 123.646 116.441 121.502 118.105 119.774C118.255 119.625 118.329 119.465 118.329 119.294V116.958C118.329 116.766 118.233 116.67 118.041 116.67H113.721C113.252 116.67 112.847 116.51 112.505 116.19C112.185 115.849 112.025 115.444 112.025 114.974C112.025 114.505 112.185 114.1 112.505 113.758C112.847 113.417 113.252 113.246 113.721 113.246H118.041C118.233 113.246 118.329 113.161 118.329 112.99V110.366C118.329 109.876 118.5 109.46 118.841 109.118C119.204 108.756 119.631 108.574 120.121 108.574H120.345C120.836 108.574 121.263 108.756 121.625 109.118C121.988 109.46 122.169 109.876 122.169 110.366V115.678C122.169 115.828 122.233 115.86 122.361 115.774C124.068 114.366 125.583 113.385 126.905 112.83C128.249 112.254 129.583 111.966 130.905 111.966C133.828 111.966 135.961 112.873 137.305 114.686C138.649 116.478 139.321 119.412 139.321 123.486C139.321 127.028 138.5 129.769 136.857 131.71C135.236 133.63 133.039 134.59 130.265 134.59C129.028 134.59 127.823 134.398 126.649 134.014C126.159 133.865 125.817 133.556 125.625 133.086C125.433 132.596 125.423 132.094 125.593 131.582L125.657 131.39C125.807 130.942 126.095 130.622 126.521 130.43C126.969 130.217 127.439 130.174 127.929 130.302C128.804 130.537 129.583 130.654 130.265 130.654C131.801 130.654 132.996 130.057 133.849 128.862C134.724 127.668 135.161 125.876 135.161 123.486C135.161 120.606 134.82 118.633 134.137 117.566C133.476 116.478 132.324 115.934 130.681 115.934C129.636 115.934 128.473 116.308 127.193 117.054C125.935 117.801 124.324 119.124 122.361 121.022C122.233 121.15 122.169 121.31 122.169 121.502V134.174C122.169 134.665 121.988 135.081 121.625 135.422C121.263 135.785 120.836 135.966 120.345 135.966H120.121C119.631 135.966 119.204 135.785 118.841 135.422C118.5 135.081 118.329 134.665 118.329 134.174V125.534C118.329 125.492 118.297 125.46 118.233 125.438C118.191 125.396 118.159 125.396 118.137 125.438C117.753 125.865 116.783 126.974 115.225 128.766C114.905 129.15 114.489 129.364 113.977 129.406C113.487 129.449 113.06 129.3 112.697 128.958L112.537 128.798C112.175 128.457 111.972 128.041 111.929 127.55C111.887 127.038 112.025 126.59 112.345 126.206Z" fill="#583F48"/>
<path d="M306.488 80.3904C305.997 80.3904 305.571 80.2091 305.208 79.8464C304.845 79.4838 304.664 79.0571 304.664 78.5664C304.664 78.0758 304.845 77.6598 305.208 77.3184C305.571 76.9558 305.997 76.7744 306.488 76.7744H311.448C311.64 76.7744 311.736 76.6784 311.736 76.4864C311.8 75.3558 311.864 74.2251 311.928 73.0944C311.928 72.9024 311.843 72.8064 311.672 72.8064H307.32C306.829 72.8064 306.403 72.6358 306.04 72.2944C305.699 71.9318 305.528 71.5051 305.528 71.0144C305.528 70.5238 305.699 70.0971 306.04 69.7344C306.403 69.3718 306.829 69.1904 307.32 69.1904H311.896C312.088 69.1904 312.184 69.1051 312.184 68.9344C312.205 68.7424 312.227 68.4651 312.248 68.1024C312.269 67.7184 312.291 67.4304 312.312 67.2384C312.333 66.7478 312.536 66.3318 312.92 65.9904C313.325 65.6491 313.773 65.4891 314.264 65.5104H314.904C315.395 65.5318 315.8 65.7238 316.12 66.0864C316.461 66.4491 316.611 66.8758 316.568 67.3664L316.472 68.9024C316.472 69.0944 316.557 69.1904 316.728 69.1904H326.008C326.499 69.1904 326.915 69.3718 327.256 69.7344C327.619 70.0971 327.8 70.5238 327.8 71.0144C327.8 71.5051 327.619 71.9318 327.256 72.2944C326.915 72.6358 326.499 72.8064 326.008 72.8064H316.472C316.28 72.8064 316.184 72.8918 316.184 73.0624C316.141 74.0651 316.077 75.2064 315.992 76.4864C315.992 76.6784 316.088 76.7744 316.28 76.7744H323.768C324.259 76.7744 324.675 76.9558 325.016 77.3184C325.379 77.6598 325.56 78.0758 325.56 78.5664C325.56 79.0571 325.379 79.4838 325.016 79.8464C324.675 80.2091 324.259 80.3904 323.768 80.3904H316.12C315.928 80.3904 315.832 80.4864 315.832 80.6784C315.789 82.5131 315.768 83.6971 315.768 84.2304C315.768 86.2571 316.077 87.5691 316.696 88.1664C317.315 88.7424 318.712 89.0304 320.888 89.0304C323.256 89.0304 324.888 88.7318 325.784 88.1344C326.701 87.5371 327.16 86.5238 327.16 85.0944C327.16 84.9451 327.139 84.6571 327.096 84.2304C327.032 83.7184 327.128 83.2598 327.384 82.8544C327.661 82.4278 328.035 82.1611 328.504 82.0544L328.92 81.9584C329.411 81.8518 329.859 81.9371 330.264 82.2144C330.691 82.4918 330.947 82.8758 331.032 83.3664C331.16 84.1558 331.224 84.8384 331.224 85.4144C331.224 87.9531 330.392 89.8304 328.728 91.0464C327.064 92.2624 324.451 92.8704 320.888 92.8704C317.304 92.8704 314.84 92.2518 313.496 91.0144C312.152 89.7984 311.48 87.5371 311.48 84.2304C311.48 83.6971 311.501 82.5131 311.544 80.6784C311.544 80.4864 311.459 80.3904 311.288 80.3904H306.488Z" fill="#583F48"/>
<path d="M273.945 74.7263C273.454 74.7263 273.028 74.5557 272.665 74.2143C272.302 73.8517 272.121 73.425 272.121 72.9343C272.121 72.4437 272.302 72.017 272.665 71.6543C273.028 71.2917 273.454 71.1103 273.945 71.1103H277.593C277.764 71.1103 277.87 71.0143 277.913 70.8223C278.233 69.4143 278.521 67.953 278.777 66.4383C278.884 65.9477 279.129 65.553 279.513 65.2543C279.918 64.9343 280.377 64.7957 280.889 64.8383L281.113 64.8703C281.604 64.913 281.998 65.137 282.297 65.5423C282.596 65.9263 282.702 66.3637 282.617 66.8543C282.34 68.4757 282.105 69.809 281.913 70.8543C281.87 71.025 281.945 71.1103 282.137 71.1103H283.961C285.049 71.1103 285.86 71.1103 286.393 71.1103C286.948 71.1103 287.556 71.1743 288.217 71.3023C288.878 71.4303 289.326 71.537 289.561 71.6223C289.817 71.7077 290.105 71.953 290.425 72.3583C290.766 72.7637 290.969 73.1263 291.033 73.4463C291.097 73.7663 291.182 74.3423 291.289 75.1743C291.396 75.985 291.449 76.7317 291.449 77.4143C291.449 78.097 291.449 79.121 291.449 80.4863C291.449 84.5823 290.948 87.601 289.945 89.5423C288.942 91.4837 287.588 92.4543 285.881 92.4543C284.601 92.4543 282.926 92.145 280.857 91.5263C280.366 91.377 280.004 91.0783 279.769 90.6303C279.534 90.1823 279.492 89.7023 279.641 89.1903L279.705 88.9983C279.854 88.529 280.142 88.1877 280.569 87.9743C281.017 87.7397 281.486 87.697 281.977 87.8463C283.385 88.273 284.409 88.4863 285.049 88.4863C285.412 88.4863 285.742 88.2197 286.041 87.6863C286.34 87.153 286.596 86.2143 286.809 84.8703C287.044 83.505 287.161 81.8303 287.161 79.8463C287.161 77.2863 287.044 75.793 286.809 75.3663C286.596 74.9397 285.796 74.7263 284.409 74.7263H281.337C281.166 74.7263 281.06 74.8117 281.017 74.9823C279.694 80.5077 278.02 85.8517 275.993 91.0143C275.801 91.505 275.47 91.8463 275.001 92.0383C274.553 92.2517 274.094 92.273 273.625 92.1023L273.401 92.0383C272.932 91.889 272.601 91.5797 272.409 91.1103C272.217 90.6623 272.206 90.2037 272.377 89.7343C274.148 85.0623 275.673 80.145 276.953 74.9823C276.996 74.8117 276.932 74.7263 276.761 74.7263H273.945ZM296.665 84.0383C295.534 79.9637 294.169 75.8037 292.569 71.5583C292.398 71.1103 292.42 70.673 292.633 70.2463C292.846 69.7983 293.188 69.4997 293.657 69.3503L294.073 69.2223C294.564 69.073 295.044 69.1157 295.513 69.3503C295.982 69.585 296.302 69.9477 296.473 70.4383C297.945 74.2783 299.31 78.5023 300.569 83.1103C300.697 83.5797 300.633 84.0383 300.377 84.4863C300.121 84.913 299.748 85.1797 299.257 85.2863L298.873 85.3503C298.382 85.457 297.924 85.3823 297.497 85.1263C297.07 84.8703 296.793 84.5077 296.665 84.0383Z" fill="#583F48"/>
<path d="M262.938 87.2064C262.703 81.3824 261.605 76.0277 259.642 71.1424C259.471 70.6943 259.482 70.257 259.674 69.8303C259.866 69.3823 260.197 69.0837 260.666 68.9344L261.114 68.8063C261.605 68.657 262.085 68.6997 262.554 68.9344C263.045 69.1477 263.397 69.489 263.61 69.9584C265.807 75.0997 267.002 80.849 267.194 87.2064C267.215 87.697 267.045 88.1237 266.682 88.4864C266.319 88.849 265.893 89.0304 265.402 89.0304H264.762C264.271 89.0304 263.845 88.849 263.482 88.4864C263.141 88.1237 262.959 87.697 262.938 87.2064ZM248.442 92.4544C246.629 92.4544 244.943 91.217 243.386 88.7424C241.85 86.2677 241.082 83.2704 241.082 79.7503C241.082 76.529 241.455 73.3717 242.202 70.2783C242.33 69.7664 242.607 69.3717 243.034 69.0943C243.482 68.7957 243.973 68.6784 244.506 68.7424L245.05 68.8063C245.519 68.849 245.882 69.073 246.138 69.4784C246.415 69.8837 246.501 70.321 246.394 70.7903C245.711 73.8197 245.37 76.8063 245.37 79.7503C245.37 82.1184 245.743 84.113 246.49 85.7344C247.258 87.3557 248.015 88.1664 248.762 88.1664C249.231 88.1664 249.839 87.7184 250.586 86.8224C251.333 85.905 252.09 84.5824 252.858 82.8544C253.071 82.385 253.402 82.0543 253.85 81.8623C254.319 81.649 254.789 81.6277 255.258 81.7984L255.61 81.9264C256.079 82.097 256.421 82.417 256.634 82.8864C256.847 83.3344 256.858 83.7823 256.666 84.2303C255.578 86.8117 254.277 88.8277 252.762 90.2784C251.247 91.729 249.807 92.4544 248.442 92.4544Z" fill="#583F48"/>
<path d="M225.979 85.5104V85.3824C225.979 85.1904 225.893 85.0624 225.723 84.9984C224.592 84.4437 223.536 84.1664 222.555 84.1664C221.381 84.1664 220.496 84.3904 219.899 84.8384C219.323 85.2864 219.035 85.905 219.035 86.6944C219.035 87.5264 219.344 88.177 219.963 88.6464C220.581 89.1157 221.445 89.3504 222.555 89.3504C223.856 89.3504 224.752 89.0837 225.243 88.5504C225.733 88.017 225.979 87.0037 225.979 85.5104ZM234.203 69.7024C234.715 69.745 235.12 69.969 235.419 70.3744C235.739 70.7797 235.867 71.2384 235.803 71.7504C235.739 72.241 235.504 72.6357 235.099 72.9344C234.693 73.233 234.245 73.3504 233.755 73.2864C232.56 73.137 231.408 73.0517 230.299 73.0304C230.128 73.0304 230.043 73.1264 230.043 73.3184V83.0144C230.043 83.185 230.107 83.3237 230.235 83.4304C231.685 84.3264 233.221 85.4784 234.843 86.8864C235.227 87.2064 235.429 87.6224 235.451 88.1344C235.472 88.6464 235.312 89.0837 234.971 89.4464L234.875 89.5424C234.533 89.905 234.117 90.1077 233.627 90.1504C233.136 90.193 232.699 90.0544 232.315 89.7344C231.995 89.457 231.557 89.105 231.003 88.6784C230.448 88.2304 230.128 87.9744 230.043 87.9104C229.915 87.825 229.829 87.8464 229.787 87.9744C229.445 89.617 228.677 90.8224 227.483 91.5904C226.309 92.3797 224.667 92.7744 222.555 92.7744C220.187 92.7744 218.331 92.2304 216.987 91.1424C215.664 90.0544 215.003 88.5717 215.003 86.6944C215.003 84.8597 215.653 83.409 216.955 82.3424C218.277 81.2544 220.144 80.7104 222.555 80.7104C223.493 80.7104 224.56 80.8917 225.755 81.2544C225.904 81.297 225.979 81.233 225.979 81.0624V71.1104C225.979 70.6197 226.149 70.193 226.491 69.8304C226.853 69.4677 227.28 69.297 227.771 69.3184C230.501 69.4037 232.645 69.5317 234.203 69.7024ZM208.891 88.2944C208.421 88.145 208.091 87.8464 207.899 87.3984C207.707 86.9504 207.696 86.4917 207.867 86.0224C209.488 81.905 210.96 77.6277 212.283 73.1904C212.325 73.0197 212.261 72.9344 212.091 72.9344H209.723C209.232 72.9344 208.805 72.753 208.443 72.3904C208.101 72.0277 207.931 71.601 207.931 71.1104C207.931 70.6197 208.101 70.193 208.443 69.8304C208.805 69.4677 209.232 69.2864 209.723 69.2864H213.115C213.307 69.2864 213.424 69.201 213.467 69.0304C213.552 68.753 213.659 68.337 213.787 67.7824C213.915 67.2277 214.021 66.8117 214.107 66.5344C214.235 66.0437 214.512 65.6597 214.939 65.3824C215.365 65.0837 215.835 64.9664 216.347 65.0304H216.571C217.061 65.0944 217.435 65.329 217.691 65.7344C217.968 66.1397 218.053 66.577 217.947 67.0464C217.733 67.9424 217.573 68.6037 217.467 69.0304C217.424 69.201 217.499 69.2864 217.691 69.2864H220.923C221.413 69.2864 221.84 69.4677 222.203 69.8304C222.565 70.193 222.747 70.6197 222.747 71.1104C222.747 71.601 222.565 72.0277 222.203 72.3904C221.84 72.753 221.413 72.9344 220.923 72.9344H216.699C216.507 72.9344 216.389 73.0304 216.347 73.2224C215.024 77.9157 213.435 82.5984 211.579 87.2704C211.387 87.7397 211.056 88.0917 210.587 88.3264C210.139 88.5397 209.669 88.561 209.179 88.3904L208.891 88.2944Z" fill="#583F48"/>
<path d="M179.928 83.1104C179.437 83.0038 179.043 82.7478 178.744 82.3424C178.467 81.9158 178.371 81.4571 178.456 80.9664C178.968 78.0224 179.32 75.8784 179.512 74.5344C179.597 74.0224 179.832 73.6064 180.216 73.2864C180.6 72.9451 181.048 72.7958 181.56 72.8384L182.104 72.9024C182.595 72.9451 182.989 73.1584 183.288 73.5424C183.608 73.9264 183.736 74.3638 183.672 74.8544C183.395 76.8811 183.192 78.2998 183.064 79.1104V79.1744H183.096L183.128 79.1424C184.536 78.1824 186.093 77.4251 187.8 76.8704C189.528 76.2944 191.149 76.0064 192.664 76.0064C195.843 76.0064 198.179 76.6358 199.672 77.8944C201.187 79.1318 201.944 81.0304 201.944 83.5904C201.944 86.4278 200.749 88.6358 198.36 90.2144C195.971 91.7718 192.504 92.5504 187.96 92.5504C186.275 92.5504 184.429 92.4651 182.424 92.2944C181.912 92.2518 181.485 92.0384 181.144 91.6544C180.824 91.2704 180.685 90.8224 180.728 90.3104V90.2464C180.749 89.7558 180.952 89.3504 181.336 89.0304C181.741 88.7104 182.189 88.5718 182.68 88.6144C185.133 88.8278 186.893 88.9344 187.96 88.9344C190.904 88.9344 193.165 88.4651 194.744 87.5264C196.344 86.5664 197.144 85.2544 197.144 83.5904C197.144 80.9664 195.437 79.6544 192.024 79.6544C189.656 79.6544 186.819 80.6358 183.512 82.5984C182.403 83.2384 181.293 83.4304 180.184 83.1744L179.928 83.1104ZM184.472 66.8544C188.419 67.2811 192.291 67.5264 196.088 67.5904C196.579 67.5904 196.995 67.7718 197.336 68.1344C197.699 68.4971 197.88 68.9238 197.88 69.4144C197.88 69.9051 197.699 70.3318 197.336 70.6944C196.995 71.0358 196.579 71.2064 196.088 71.2064C191.971 71.1424 187.949 70.8971 184.024 70.4704C183.512 70.4064 183.096 70.1718 182.776 69.7664C182.477 69.3611 182.36 68.9131 182.424 68.4224C182.488 67.9318 182.723 67.5371 183.128 67.2384C183.533 66.9398 183.981 66.8118 184.472 66.8544Z" fill="#583F48"/>
<path d="M145.945 74.7263C145.454 74.7263 145.028 74.5557 144.665 74.2143C144.302 73.8517 144.121 73.425 144.121 72.9343C144.121 72.4437 144.302 72.017 144.665 71.6543C145.028 71.2917 145.454 71.1103 145.945 71.1103H149.593C149.764 71.1103 149.87 71.0143 149.913 70.8223C150.233 69.4143 150.521 67.953 150.777 66.4383C150.884 65.9477 151.129 65.553 151.513 65.2543C151.918 64.9343 152.377 64.7957 152.889 64.8383L153.113 64.8703C153.604 64.913 153.998 65.137 154.297 65.5423C154.596 65.9263 154.702 66.3637 154.617 66.8543C154.34 68.4757 154.105 69.809 153.913 70.8543C153.87 71.025 153.945 71.1103 154.137 71.1103H155.961C157.049 71.1103 157.86 71.1103 158.393 71.1103C158.948 71.1103 159.556 71.1743 160.217 71.3023C160.878 71.4303 161.326 71.537 161.561 71.6223C161.817 71.7077 162.105 71.953 162.425 72.3583C162.766 72.7637 162.969 73.1263 163.033 73.4463C163.097 73.7663 163.182 74.3423 163.289 75.1743C163.396 75.985 163.449 76.7317 163.449 77.4143C163.449 78.097 163.449 79.121 163.449 80.4863C163.449 84.5823 162.948 87.601 161.945 89.5423C160.942 91.4837 159.588 92.4543 157.881 92.4543C156.601 92.4543 154.926 92.145 152.857 91.5263C152.366 91.377 152.004 91.0783 151.769 90.6303C151.534 90.1823 151.492 89.7023 151.641 89.1903L151.705 88.9983C151.854 88.529 152.142 88.1877 152.569 87.9743C153.017 87.7397 153.486 87.697 153.977 87.8463C155.385 88.273 156.409 88.4863 157.049 88.4863C157.412 88.4863 157.742 88.2197 158.041 87.6863C158.34 87.153 158.596 86.2143 158.809 84.8703C159.044 83.505 159.161 81.8303 159.161 79.8463C159.161 77.2863 159.044 75.793 158.809 75.3663C158.596 74.9397 157.796 74.7263 156.409 74.7263H153.337C153.166 74.7263 153.06 74.8117 153.017 74.9823C151.694 80.5077 150.02 85.8517 147.993 91.0143C147.801 91.505 147.47 91.8463 147.001 92.0383C146.553 92.2517 146.094 92.273 145.625 92.1023L145.401 92.0383C144.932 91.889 144.601 91.5797 144.409 91.1103C144.217 90.6623 144.206 90.2037 144.377 89.7343C146.148 85.0623 147.673 80.145 148.953 74.9823C148.996 74.8117 148.932 74.7263 148.761 74.7263H145.945ZM168.665 84.0383C167.534 79.9637 166.169 75.8037 164.569 71.5583C164.398 71.1103 164.42 70.673 164.633 70.2463C164.846 69.7983 165.188 69.4997 165.657 69.3503L166.073 69.2223C166.564 69.073 167.044 69.1157 167.513 69.3503C167.982 69.585 168.302 69.9477 168.473 70.4383C169.945 74.2783 171.31 78.5023 172.569 83.1103C172.697 83.5797 172.633 84.0383 172.377 84.4863C172.121 84.913 171.748 85.1797 171.257 85.2863L170.873 85.3503C170.382 85.457 169.924 85.3823 169.497 85.1263C169.07 84.8703 168.793 84.5077 168.665 84.0383Z" fill="#583F48"/>
<path d="M112.345 83.2065C114.521 80.6465 116.441 78.5025 118.105 76.7745C118.255 76.6251 118.329 76.4651 118.329 76.2945V73.9585C118.329 73.7665 118.233 73.6705 118.041 73.6705H113.721C113.252 73.6705 112.847 73.5105 112.505 73.1905C112.185 72.8491 112.025 72.4438 112.025 71.9745C112.025 71.5051 112.185 71.0998 112.505 70.7585C112.847 70.4171 113.252 70.2465 113.721 70.2465H118.041C118.233 70.2465 118.329 70.1611 118.329 69.9905V67.3665C118.329 66.8758 118.5 66.4598 118.841 66.1185C119.204 65.7558 119.631 65.5745 120.121 65.5745H120.345C120.836 65.5745 121.263 65.7558 121.625 66.1185C121.988 66.4598 122.169 66.8758 122.169 67.3665V72.6785C122.169 72.8278 122.233 72.8598 122.361 72.7745C124.068 71.3665 125.583 70.3851 126.905 69.8305C128.249 69.2545 129.583 68.9665 130.905 68.9665C133.828 68.9665 135.961 69.8731 137.305 71.6865C138.649 73.4785 139.321 76.4118 139.321 80.4865C139.321 84.0278 138.5 86.7691 136.857 88.7105C135.236 90.6305 133.039 91.5905 130.265 91.5905C129.028 91.5905 127.823 91.3985 126.649 91.0145C126.159 90.8651 125.817 90.5558 125.625 90.0865C125.433 89.5958 125.423 89.0945 125.593 88.5825L125.657 88.3905C125.807 87.9425 126.095 87.6225 126.521 87.4305C126.969 87.2171 127.439 87.1745 127.929 87.3025C128.804 87.5371 129.583 87.6545 130.265 87.6545C131.801 87.6545 132.996 87.0571 133.849 85.8625C134.724 84.6678 135.161 82.8758 135.161 80.4865C135.161 77.6065 134.82 75.6331 134.137 74.5665C133.476 73.4785 132.324 72.9345 130.681 72.9345C129.636 72.9345 128.473 73.3078 127.193 74.0545C125.935 74.8011 124.324 76.1238 122.361 78.0225C122.233 78.1505 122.169 78.3105 122.169 78.5025V91.1745C122.169 91.6651 121.988 92.0811 121.625 92.4225C121.263 92.7851 120.836 92.9665 120.345 92.9665H120.121C119.631 92.9665 119.204 92.7851 118.841 92.4225C118.5 92.0811 118.329 91.6651 118.329 91.1745V82.5345C118.329 82.4918 118.297 82.4598 118.233 82.4385C118.191 82.3958 118.159 82.3958 118.137 82.4385C117.753 82.8651 116.783 83.9745 115.225 85.7665C114.905 86.1505 114.489 86.3638 113.977 86.4065C113.487 86.4491 113.06 86.2998 112.697 85.9585L112.537 85.7985C112.175 85.4571 111.972 85.0411 111.929 84.5505C111.887 84.0385 112.025 83.5905 112.345 83.2065Z" fill="#583F48"/>
<path d="M98.81 69.7023C98.5753 69.2757 98.5327 68.8277 98.682 68.3583C98.8313 67.889 99.13 67.537 99.578 67.3023H99.61C100.058 67.0677 100.527 67.025 101.018 67.1743C101.509 67.3237 101.871 67.6223 102.106 68.0703C102.341 68.497 102.693 69.1583 103.162 70.0543C103.375 70.5023 103.397 70.961 103.226 71.4303C103.055 71.8997 102.746 72.241 102.298 72.4543C101.829 72.6677 101.359 72.689 100.89 72.5183C100.421 72.3477 100.069 72.0383 99.834 71.5903C99.7273 71.3983 99.386 70.769 98.81 69.7023ZM104.73 66.1823C105.178 65.9477 105.647 65.905 106.138 66.0543C106.629 66.1823 106.991 66.4703 107.226 66.9183C107.93 68.2623 108.293 68.9557 108.314 68.9983C108.549 69.4463 108.581 69.905 108.41 70.3743C108.261 70.8437 107.962 71.185 107.514 71.3983L107.418 71.4623C106.97 71.6757 106.501 71.7077 106.01 71.5583C105.541 71.3877 105.189 71.0783 104.954 70.6303C104.847 70.417 104.677 70.0863 104.442 69.6383C104.207 69.1903 104.026 68.8597 103.898 68.6463C103.663 68.2197 103.61 67.761 103.738 67.2703C103.887 66.7797 104.186 66.4277 104.634 66.2143L104.73 66.1823ZM82.042 74.7263C81.5513 74.7263 81.1247 74.5557 80.762 74.2143C80.4207 73.8517 80.25 73.425 80.25 72.9343C80.25 72.4437 80.4207 72.017 80.762 71.6543C81.1247 71.2917 81.5513 71.1103 82.042 71.1103H85.594C85.7647 71.1103 85.8713 71.0143 85.914 70.8223C86.234 69.4143 86.522 67.953 86.778 66.4383C86.8847 65.9477 87.13 65.553 87.514 65.2543C87.9193 64.9343 88.378 64.7957 88.89 64.8383L89.114 64.8703C89.6047 64.913 89.9993 65.137 90.298 65.5423C90.5967 65.9263 90.7033 66.3637 90.618 66.8543C90.3407 68.4757 90.106 69.809 89.914 70.8543C89.8713 71.025 89.946 71.1103 90.138 71.1103H92.09C93.178 71.1103 93.9887 71.1103 94.522 71.1103C95.0553 71.1103 95.6527 71.1743 96.314 71.3023C96.9753 71.4303 97.434 71.537 97.69 71.6223C97.946 71.7077 98.234 71.953 98.554 72.3583C98.874 72.7637 99.066 73.1263 99.13 73.4463C99.194 73.7663 99.2793 74.3423 99.386 75.1743C99.4927 75.985 99.546 76.7317 99.546 77.4143C99.546 78.097 99.546 79.121 99.546 80.4863C99.546 84.5823 99.0447 87.601 98.042 89.5423C97.0607 91.4837 95.7167 92.4543 94.01 92.4543C92.7087 92.4543 91.0233 92.145 88.954 91.5263C88.4633 91.377 88.1007 91.0783 87.866 90.6303C87.6527 90.1823 87.6207 89.7023 87.77 89.1903L87.834 88.9983C87.9833 88.529 88.2713 88.1877 88.698 87.9743C89.146 87.7397 89.6153 87.697 90.106 87.8463C91.514 88.273 92.5273 88.4863 93.146 88.4863C93.3593 88.4863 93.562 88.3903 93.754 88.1983C93.946 88.0063 94.138 87.697 94.33 87.2703C94.522 86.8223 94.682 86.2783 94.81 85.6383C94.9593 84.977 95.0767 84.1557 95.162 83.1743C95.2473 82.1717 95.29 81.0623 95.29 79.8463C95.29 78.8223 95.29 78.097 95.29 77.6703C95.29 77.2223 95.2473 76.753 95.162 76.2623C95.0767 75.7717 95.002 75.4623 94.938 75.3343C94.874 75.2063 94.7033 75.0783 94.426 74.9503C94.1487 74.801 93.8927 74.7263 93.658 74.7263C93.4447 74.7263 93.0607 74.7263 92.506 74.7263H89.338C89.1673 74.7263 89.0607 74.8117 89.018 74.9823C87.6953 80.5077 86.0207 85.8517 83.994 91.0143C83.802 91.505 83.4713 91.8463 83.002 92.0383C82.554 92.2517 82.0953 92.273 81.626 92.1023L81.402 92.0383C80.9327 91.889 80.602 91.5797 80.41 91.1103C80.218 90.6623 80.2073 90.2037 80.378 89.7343C82.1487 85.0623 83.674 80.145 84.954 74.9823C84.9967 74.8117 84.9327 74.7263 84.762 74.7263H82.042ZM105.434 75.3343C106.671 78.513 107.674 81.3397 108.442 83.8143C108.591 84.2837 108.538 84.7317 108.282 85.1583C108.047 85.585 107.695 85.8623 107.226 85.9903L106.842 86.0863C106.351 86.2143 105.882 86.161 105.434 85.9263C105.007 85.6703 104.709 85.297 104.538 84.8063C103.642 82.0117 102.682 79.313 101.658 76.7103C101.487 76.241 101.498 75.7823 101.69 75.3343C101.882 74.865 102.213 74.5557 102.682 74.4063L103.066 74.2783C103.557 74.1077 104.026 74.129 104.474 74.3423C104.922 74.5343 105.242 74.865 105.434 75.3343Z" fill="#583F48"/>
<path d="M74.9384 66.0864C75.429 66.0864 75.8557 66.2677 76.2184 66.6304C76.581 66.993 76.7624 67.4197 76.7624 67.9104C76.7624 68.401 76.581 68.8277 76.2184 69.1904C75.8557 69.553 75.429 69.7344 74.9384 69.7344H74.7784C74.5864 69.7344 74.4904 69.8197 74.4904 69.9904V88.5504C74.4904 89.8517 74.4477 90.801 74.3624 91.3984C74.2984 92.017 74.0744 92.529 73.6904 92.9344C73.3064 93.3397 72.8264 93.5744 72.2504 93.6384C71.6957 93.7237 70.8104 93.7664 69.5944 93.7664C68.2504 93.7664 67.0344 93.745 65.9464 93.7024C65.4344 93.681 64.997 93.489 64.6344 93.1264C64.293 92.7637 64.101 92.3264 64.0584 91.8144C64.037 91.3237 64.197 90.9077 64.5384 90.5664C64.8797 90.2037 65.2957 90.033 65.7864 90.0544C67.301 90.1184 68.325 90.1504 68.8584 90.1504C69.5624 90.1504 69.989 90.0757 70.1384 89.9264C70.2877 89.777 70.3624 89.3504 70.3624 88.6464V69.9904C70.3624 69.8197 70.2664 69.7344 70.0744 69.7344H58.5224C58.0317 69.7344 57.605 69.553 57.2423 69.1904C56.8797 68.8277 56.6983 68.401 56.6983 67.9104C56.6983 67.4197 56.8797 66.993 57.2423 66.6304C57.605 66.2677 58.0317 66.0864 58.5224 66.0864H74.9384ZM58.1063 88.4864C57.6157 88.4864 57.189 88.3157 56.8264 87.9744C56.4637 87.6117 56.2823 87.185 56.2823 86.6944V74.6304C56.2823 74.1397 56.4637 73.713 56.8264 73.3504C57.189 72.9877 57.6157 72.8064 58.1063 72.8064H66.1704C66.661 72.8064 67.0877 72.9877 67.4504 73.3504C67.813 73.713 67.9944 74.1397 67.9944 74.6304V84.1344C67.9944 84.625 67.813 85.0517 67.4504 85.4144C67.0877 85.7557 66.661 85.9264 66.1704 85.9264H60.4103C60.2183 85.9264 60.1223 86.0224 60.1223 86.2144V86.6944C60.1223 87.185 59.941 87.6117 59.5784 87.9744C59.237 88.3157 58.821 88.4864 58.3303 88.4864H58.1063ZM60.1223 76.2304V82.5024C60.1223 82.6944 60.2183 82.7904 60.4103 82.7904H64.0584C64.229 82.7904 64.3144 82.6944 64.3144 82.5024V76.2304C64.3144 76.0597 64.229 75.9744 64.0584 75.9744H60.4103C60.2183 75.9744 60.1223 76.0597 60.1223 76.2304ZM47.0343 81.2544L46.6823 80.3584C46.2557 79.249 46.405 78.2037 47.1303 77.2224C49.3063 74.2357 50.8957 70.6837 51.8983 66.5664C52.005 66.0757 52.2717 65.6917 52.6983 65.4144C53.125 65.1157 53.5837 65.009 54.0743 65.0944L54.4263 65.1264C54.917 65.2117 55.301 65.457 55.5784 65.8624C55.877 66.2677 55.973 66.7157 55.8664 67.2064C55.3757 69.4464 54.7677 71.4624 54.0423 73.2544C53.9784 73.4037 53.9464 73.585 53.9464 73.7984V92.1344C53.9464 92.625 53.765 93.041 53.4023 93.3824C53.0397 93.745 52.613 93.9264 52.1223 93.9264H51.6423C51.1517 93.9264 50.725 93.745 50.3623 93.3824C50.021 93.041 49.8503 92.625 49.8503 92.1344V80.1344C49.8503 80.0917 49.829 80.0704 49.7863 80.0704C49.765 80.0704 49.7437 80.081 49.7223 80.1024C49.5303 80.4437 49.221 80.913 48.7943 81.5104C48.5597 81.8517 48.2397 81.9904 47.8343 81.9264C47.4503 81.841 47.1837 81.617 47.0343 81.2544Z" fill="#583F48"/>
</svg>
