<svg width="239" height="125" viewBox="0 0 239 125" fill="none" xmlns="http://www.w3.org/2000/svg">
<path d="M237.379 55.6958C234.367 10.4814 172.758 1.56776 130.696 1.50044C80.5238 1.41965 2.26879 8.42125 1.50005 65.1615C1.34316 76.9565 5.83002 88.6843 15.7139 97.0998C48.8013 125.308 105.077 126.143 148.283 121.148C170.169 118.616 194.282 106.337 216.435 108.397C221.047 108.828 225.613 110.416 228.782 113.325C229.472 113.958 230.1 114.927 229.488 115.614C229.237 115.896 228.845 116.031 228.452 116.125C225.032 116.987 221.22 115.223 219.4 112.584C217.58 109.945 217.439 106.673 218.082 103.657C219.918 95.107 227.307 88.3342 231.48 80.592C235.716 72.7287 237.975 64.3671 237.411 55.6824L237.379 55.6958Z" fill="white"/>
<path d="M180.419 113.552C180.197 112.754 179.369 112.288 178.571 112.51C168.082 115.433 157.866 118.53 148.11 119.658H148.111C128.864 121.883 107.048 122.943 85.8869 120.934C85.0623 120.856 84.3304 121.461 84.2521 122.286C84.174 123.11 84.7791 123.842 85.6037 123.921C107.039 125.955 129.075 124.878 148.455 122.637C158.506 121.475 169.011 118.289 179.376 115.4C180.174 115.178 180.641 114.35 180.419 113.552ZM7.05482 83.6218C6.68953 82.8785 5.79042 82.5722 5.04701 82.9372C4.30354 83.3025 3.99631 84.2015 4.36147 84.945C6.77529 89.8582 10.2153 94.3882 14.7413 98.2419L14.7423 98.2409C30.3229 111.524 50.8704 118.787 72.6476 122.28C73.4655 122.411 74.2351 121.855 74.3663 121.037C74.4976 120.219 73.9402 119.449 73.1222 119.318C51.6512 115.874 31.698 108.756 16.6876 95.9587L16.6867 95.9577C12.4779 92.3742 9.2907 88.1728 7.05482 83.6218ZM201.829 11.2858C201.062 10.9746 200.186 11.3444 199.875 12.112C199.564 12.8797 199.935 13.7548 200.702 14.0661C220.194 21.9714 234.493 34.9321 235.883 55.7956C235.889 55.8911 235.907 55.9841 235.931 56.0749C236.144 59.7926 235.823 63.4527 235.032 67.0437C234.928 67.5189 235.063 67.9899 235.355 68.3347C234.935 68.5027 234.595 68.8566 234.465 69.3259C233.47 72.9174 232.012 76.4408 230.159 79.8806H230.16C228.345 83.2479 225.91 86.4121 223.487 89.8103C223.178 90.2442 223.135 90.7861 223.321 91.2458C222.824 91.2291 222.329 91.4596 222.028 91.9021C219.737 95.2803 217.654 98.8983 216.704 102.949L216.615 103.342V103.344C216.372 104.483 216.231 105.674 216.235 106.874C205.957 105.984 195.344 108.073 184.898 110.796C184.096 111.005 183.615 111.824 183.824 112.626C184.033 113.427 184.853 113.908 185.654 113.699C196.152 110.963 206.459 108.975 216.296 109.889C216.397 109.899 216.498 109.912 216.599 109.923C216.901 111.141 217.404 112.331 218.165 113.435C219.174 114.899 220.661 116.097 222.335 116.871C222.513 116.953 222.699 116.996 222.883 117.006C223.023 117.126 223.188 117.224 223.373 117.288C225.067 117.868 226.96 118.043 228.803 117.583V117.584C228.806 117.583 228.808 117.581 228.811 117.581C228.813 117.58 228.816 117.58 228.818 117.58V117.579C229.024 117.529 229.276 117.46 229.533 117.354C229.563 117.342 229.591 117.326 229.619 117.312C229.648 117.3 229.678 117.29 229.707 117.276C229.997 117.138 230.324 116.93 230.608 116.611V116.612C231.394 115.73 231.32 114.682 231.037 113.946C231.011 113.878 230.978 113.813 230.943 113.751C230.92 113.685 230.892 113.619 230.859 113.555C230.574 113.019 230.169 112.561 229.796 112.219L229.488 111.944C227.932 110.588 226.115 109.524 224.172 108.724C223.948 108.632 223.715 108.6 223.489 108.617C223.331 108.454 223.134 108.325 222.905 108.246C221.718 107.836 220.489 107.517 219.243 107.281C219.198 106.197 219.313 105.077 219.549 103.971C220.33 100.335 222.209 96.9796 224.511 93.5866C224.803 93.156 224.841 92.6279 224.659 92.1794C225.144 92.1951 225.628 91.9762 225.931 91.5515C228.115 88.4874 230.544 85.3112 232.431 81.9733L232.801 81.3034C234.748 77.6895 236.295 73.9582 237.357 70.1267C237.494 69.6307 237.365 69.1233 237.057 68.7575C237.501 68.5786 237.851 68.1909 237.962 67.6882C238.831 63.7422 239.175 59.7005 238.907 55.5847C238.9 55.4766 238.88 55.3713 238.851 55.2692C237.225 32.9824 221.767 19.3721 201.829 11.2858ZM219.952 110.502C220.624 110.667 221.283 110.86 221.926 111.082C222.126 111.151 222.33 111.174 222.528 111.159C222.667 111.301 222.835 111.418 223.03 111.499C224.834 112.241 226.448 113.218 227.768 114.429L227.769 114.43C227.863 114.517 227.945 114.604 228.015 114.686C226.835 114.967 225.56 114.866 224.346 114.45C224.212 114.404 224.075 114.379 223.941 114.372C223.838 114.284 223.722 114.207 223.593 114.147C222.354 113.575 221.308 112.708 220.635 111.732C220.365 111.34 220.14 110.929 219.952 110.502ZM45.9406 12.5808C45.6531 11.804 44.7907 11.4068 44.0138 11.694C31.6659 16.26 20.7607 22.5738 12.8849 31.2927C4.98167 40.0421 0.189697 51.15 0.000137329 65.1413L-0.0018158 66.1999C0.0487258 71.4895 1.00835 76.7579 2.9474 81.7282C3.24846 82.4999 4.1181 82.8816 4.88979 82.5808C5.66153 82.2797 6.04336 81.4101 5.74232 80.6384C3.82251 75.7175 2.9299 70.4622 3.00014 65.1814C3.17988 51.9216 7.69467 41.5144 15.1105 33.3044C22.5539 25.064 32.9815 18.973 45.0548 14.5085C45.8316 14.2211 46.2279 13.3577 45.9406 12.5808ZM130.698 0.00068532C109.104 -0.0340699 82.2144 1.23811 58.4796 7.24776C57.6765 7.4511 57.1903 8.26694 57.3937 9.07002C57.5971 9.87298 58.413 10.3593 59.216 10.156C82.584 4.23918 109.175 2.96606 130.693 3.00069C148.72 3.02954 170.279 4.69185 189.2 10.1276C189.997 10.3564 190.828 9.89554 191.057 9.09932C191.285 8.30336 190.825 7.47273 190.029 7.24385C170.732 1.70007 148.863 0.0297595 130.698 0.00068532Z" fill="#583F48"/>
<path d="M177.294 86.6918C177.118 82.3238 176.294 78.3078 174.822 74.6438C174.694 74.3078 174.702 73.9798 174.846 73.6598C174.99 73.3238 175.238 73.0997 175.59 72.9878L175.926 72.8917C176.294 72.7797 176.654 72.8117 177.006 72.9878C177.374 73.1478 177.638 73.4038 177.798 73.7558C179.446 77.6118 180.342 81.9238 180.486 86.6918C180.502 87.0598 180.374 87.3798 180.102 87.6518C179.83 87.9238 179.51 88.0598 179.142 88.0598H178.662C178.294 88.0598 177.974 87.9238 177.702 87.6518C177.446 87.3798 177.31 87.0598 177.294 86.6918ZM166.422 90.6278C165.062 90.6278 163.798 89.6998 162.63 87.8438C161.478 85.9878 160.902 83.7397 160.902 81.0997C160.902 78.6837 161.182 76.3157 161.742 73.9957C161.838 73.6117 162.046 73.3157 162.366 73.1077C162.702 72.8837 163.07 72.7958 163.47 72.8438L163.878 72.8917C164.23 72.9237 164.502 73.0918 164.694 73.3958C164.902 73.6998 164.966 74.0277 164.886 74.3797C164.374 76.6517 164.118 78.8917 164.118 81.0997C164.118 82.8757 164.398 84.3718 164.958 85.5878C165.534 86.8038 166.102 87.4117 166.662 87.4117C167.014 87.4117 167.47 87.0758 168.03 86.4038C168.59 85.7158 169.158 84.7238 169.734 83.4278C169.894 83.0758 170.142 82.8277 170.478 82.6837C170.83 82.5237 171.182 82.5078 171.534 82.6358L171.798 82.7317C172.15 82.8597 172.406 83.0998 172.566 83.4518C172.726 83.7878 172.734 84.1238 172.59 84.4598C171.774 86.3958 170.798 87.9078 169.662 88.9958C168.526 90.0838 167.446 90.6278 166.422 90.6278Z" fill="#583F48"/>
<path d="M149.573 85.4197V85.3237C149.573 85.1797 149.509 85.0837 149.381 85.0357C148.533 84.6197 147.741 84.4117 147.005 84.4117C146.125 84.4117 145.461 84.5797 145.013 84.9157C144.581 85.2517 144.365 85.7157 144.365 86.3077C144.365 86.9317 144.597 87.4197 145.061 87.7717C145.525 88.1237 146.173 88.2997 147.005 88.2997C147.981 88.2997 148.653 88.0997 149.021 87.6997C149.389 87.2997 149.573 86.5397 149.573 85.4197ZM155.741 73.5637C156.125 73.5957 156.429 73.7637 156.653 74.0677C156.893 74.3717 156.989 74.7157 156.941 75.0997C156.893 75.4677 156.717 75.7637 156.413 75.9877C156.109 76.2117 155.773 76.2997 155.405 76.2517C154.509 76.1397 153.645 76.0757 152.813 76.0597C152.685 76.0597 152.621 76.1317 152.621 76.2757V83.5477C152.621 83.6757 152.669 83.7797 152.765 83.8597C153.853 84.5317 155.005 85.3957 156.221 86.4517C156.509 86.6917 156.661 87.0037 156.677 87.3877C156.693 87.7717 156.573 88.0997 156.317 88.3717L156.245 88.4437C155.989 88.7157 155.677 88.8677 155.309 88.8997C154.941 88.9317 154.613 88.8277 154.325 88.5877C154.085 88.3797 153.757 88.1157 153.341 87.7957C152.925 87.4597 152.685 87.2677 152.621 87.2197C152.525 87.1557 152.461 87.1717 152.429 87.2677C152.173 88.4997 151.597 89.4037 150.701 89.9797C149.821 90.5717 148.589 90.8677 147.005 90.8677C145.229 90.8677 143.837 90.4597 142.829 89.6437C141.837 88.8277 141.341 87.7157 141.341 86.3077C141.341 84.9317 141.829 83.8437 142.805 83.0437C143.797 82.2277 145.197 81.8197 147.005 81.8197C147.709 81.8197 148.509 81.9557 149.405 82.2277C149.517 82.2597 149.573 82.2117 149.573 82.0837V74.6197C149.573 74.2517 149.701 73.9317 149.957 73.6597C150.229 73.3877 150.549 73.2597 150.917 73.2757C152.965 73.3397 154.573 73.4357 155.741 73.5637ZM136.757 87.5077C136.405 87.3957 136.157 87.1717 136.013 86.8357C135.869 86.4997 135.861 86.1557 135.989 85.8037C137.205 82.7157 138.309 79.5077 139.301 76.1797C139.333 76.0517 139.285 75.9877 139.157 75.9877H137.381C137.013 75.9877 136.693 75.8517 136.421 75.5797C136.165 75.3077 136.037 74.9877 136.037 74.6197C136.037 74.2517 136.165 73.9317 136.421 73.6597C136.693 73.3877 137.013 73.2517 137.381 73.2517H139.925C140.069 73.2517 140.157 73.1877 140.189 73.0597C140.253 72.8517 140.333 72.5397 140.429 72.1237C140.525 71.7077 140.605 71.3957 140.669 71.1877C140.765 70.8197 140.973 70.5317 141.293 70.3237C141.613 70.0997 141.965 70.0117 142.349 70.0597H142.517C142.885 70.1077 143.165 70.2837 143.357 70.5877C143.565 70.8917 143.629 71.2197 143.549 71.5717C143.389 72.2437 143.269 72.7397 143.189 73.0597C143.157 73.1877 143.213 73.2517 143.357 73.2517H145.781C146.149 73.2517 146.469 73.3877 146.741 73.6597C147.013 73.9317 147.149 74.2517 147.149 74.6197C147.149 74.9877 147.013 75.3077 146.741 75.5797C146.469 75.8517 146.149 75.9877 145.781 75.9877H142.613C142.469 75.9877 142.381 76.0597 142.349 76.2037C141.357 79.7237 140.165 83.2357 138.773 86.7397C138.629 87.0917 138.381 87.3557 138.029 87.5317C137.693 87.6917 137.341 87.7077 136.973 87.5797L136.757 87.5077Z" fill="#583F48"/>
<path d="M126.197 73.5638C126.021 73.2438 125.989 72.9078 126.101 72.5558C126.213 72.2038 126.437 71.9398 126.773 71.7638H126.797C127.133 71.5878 127.485 71.5558 127.853 71.6678C128.221 71.7798 128.493 72.0038 128.669 72.3398C128.845 72.6598 129.109 73.1558 129.461 73.8278C129.621 74.1638 129.637 74.5078 129.509 74.8598C129.381 75.2118 129.149 75.4678 128.813 75.6278C128.461 75.7878 128.109 75.8038 127.757 75.6758C127.405 75.5478 127.141 75.3158 126.965 74.9798C126.885 74.8358 126.629 74.3638 126.197 73.5638ZM130.637 70.9238C130.973 70.7478 131.325 70.7158 131.693 70.8278C132.061 70.9238 132.333 71.1398 132.509 71.4758C133.037 72.4838 133.309 73.0038 133.325 73.0358C133.501 73.3718 133.525 73.7158 133.397 74.0678C133.285 74.4198 133.061 74.6758 132.725 74.8358L132.653 74.8838C132.317 75.0438 131.965 75.0678 131.597 74.9558C131.245 74.8278 130.981 74.5958 130.805 74.2598C130.725 74.0998 130.597 73.8518 130.421 73.5158C130.245 73.1798 130.109 72.9318 130.013 72.7718C129.837 72.4518 129.797 72.1078 129.893 71.7398C130.005 71.3718 130.229 71.1078 130.565 70.9478L130.637 70.9238ZM113.621 77.3318C113.253 77.3318 112.933 77.2038 112.661 76.9478C112.405 76.6758 112.277 76.3558 112.277 75.9878C112.277 75.6198 112.405 75.2998 112.661 75.0278C112.933 74.7558 113.253 74.6198 113.621 74.6198H116.285C116.413 74.6198 116.493 74.5478 116.525 74.4038C116.765 73.3478 116.981 72.2518 117.173 71.1158C117.253 70.7478 117.437 70.4518 117.725 70.2278C118.029 69.9878 118.373 69.8838 118.757 69.9158L118.925 69.9398C119.293 69.9718 119.589 70.1398 119.813 70.4438C120.037 70.7318 120.117 71.0598 120.053 71.4278C119.845 72.6438 119.669 73.6438 119.525 74.4278C119.493 74.5558 119.549 74.6198 119.693 74.6198H121.157C121.973 74.6198 122.581 74.6198 122.981 74.6198C123.381 74.6198 123.829 74.6678 124.325 74.7638C124.821 74.8598 125.165 74.9398 125.357 75.0038C125.549 75.0678 125.765 75.2518 126.005 75.5558C126.245 75.8598 126.389 76.1318 126.437 76.3718C126.485 76.6118 126.549 77.0438 126.629 77.6678C126.709 78.2758 126.749 78.8358 126.749 79.3478C126.749 79.8598 126.749 80.6278 126.749 81.6518C126.749 84.7238 126.373 86.9878 125.621 88.4438C124.885 89.8998 123.877 90.6278 122.597 90.6278C121.621 90.6278 120.357 90.3958 118.805 89.9318C118.437 89.8198 118.165 89.5958 117.989 89.2598C117.829 88.9238 117.805 88.5638 117.917 88.1798L117.965 88.0358C118.077 87.6838 118.293 87.4278 118.613 87.2678C118.949 87.0918 119.301 87.0598 119.669 87.1718C120.725 87.4918 121.485 87.6518 121.949 87.6518C122.109 87.6518 122.261 87.5798 122.405 87.4358C122.549 87.2918 122.693 87.0598 122.837 86.7398C122.981 86.4038 123.101 85.9958 123.197 85.5158C123.309 85.0198 123.397 84.4038 123.461 83.6678C123.525 82.9158 123.557 82.0838 123.557 81.1718C123.557 80.4038 123.557 79.8598 123.557 79.5398C123.557 79.2038 123.525 78.8518 123.461 78.4838C123.397 78.1158 123.341 77.8838 123.293 77.7878C123.245 77.6918 123.117 77.5958 122.909 77.4998C122.701 77.3878 122.509 77.3318 122.333 77.3318C122.173 77.3318 121.885 77.3318 121.469 77.3318H119.093C118.965 77.3318 118.885 77.3958 118.853 77.5238C117.861 81.6678 116.605 85.6758 115.085 89.5478C114.941 89.9158 114.693 90.1718 114.341 90.3158C114.005 90.4758 113.661 90.4918 113.309 90.3638L113.141 90.3158C112.789 90.2038 112.541 89.9718 112.397 89.6198C112.253 89.2838 112.245 88.9398 112.373 88.5878C113.701 85.0838 114.845 81.3958 115.805 77.5238C115.837 77.3958 115.789 77.3318 115.661 77.3318H113.621ZM131.165 77.7878C132.093 80.1718 132.845 82.2918 133.421 84.1478C133.533 84.4998 133.493 84.8358 133.301 85.1558C133.125 85.4758 132.861 85.6838 132.509 85.7798L132.221 85.8518C131.853 85.9478 131.501 85.9078 131.165 85.7318C130.845 85.5398 130.621 85.2598 130.493 84.8918C129.821 82.7958 129.101 80.7718 128.333 78.8198C128.205 78.4678 128.213 78.1238 128.357 77.7878C128.501 77.4358 128.749 77.2038 129.101 77.0918L129.389 76.9958C129.757 76.8678 130.109 76.8838 130.445 77.0438C130.781 77.1878 131.021 77.4358 131.165 77.7878Z" fill="#583F48"/>
<path d="M89.2391 91.6117C88.8711 91.6117 88.5511 91.4757 88.2791 91.2037C88.0071 90.9477 87.8711 90.6357 87.8711 90.2677V71.7397C87.8711 71.3717 88.0071 71.0517 88.2791 70.7797C88.5511 70.5077 88.8711 70.3717 89.2391 70.3717H96.3431C96.7111 70.3717 97.0311 70.5077 97.3031 70.7797C97.5751 71.0517 97.7111 71.3717 97.7111 71.7397V78.4117C97.7111 78.7797 97.5751 79.0997 97.3031 79.3717C97.0311 79.6437 96.7111 79.7797 96.3431 79.7797H91.1591C91.0151 79.7797 90.9431 79.8517 90.9431 79.9957V90.2677C90.9431 90.6357 90.8071 90.9477 90.5351 91.2037C90.2791 91.4757 89.9671 91.6117 89.5991 91.6117H89.2391ZM90.9431 73.0117V73.9957C90.9431 74.1397 91.0151 74.2117 91.1591 74.2117H94.8311C94.9591 74.2117 95.0231 74.1397 95.0231 73.9957V73.0117C95.0231 72.8677 94.9591 72.7957 94.8311 72.7957H91.1591C91.0151 72.7957 90.9431 72.8677 90.9431 73.0117ZM90.9431 76.4437V77.4277C90.9431 77.5717 91.0151 77.6437 91.1591 77.6437H94.8311C94.9591 77.6437 95.0231 77.5717 95.0231 77.4277V76.4437C95.0231 76.3157 94.9591 76.2517 94.8311 76.2517H91.1591C91.0151 76.2517 90.9431 76.3157 90.9431 76.4437ZM107.623 70.3717C107.991 70.3717 108.311 70.5077 108.583 70.7797C108.855 71.0517 108.991 71.3717 108.991 71.7397V87.6277C108.991 88.2837 108.975 88.8037 108.943 89.1877C108.927 89.5557 108.863 89.8997 108.751 90.2197C108.655 90.5557 108.535 90.7957 108.391 90.9397C108.247 91.0837 108.015 91.2037 107.695 91.2997C107.391 91.4117 107.055 91.4757 106.687 91.4917C106.335 91.5237 105.847 91.5397 105.223 91.5397C104.551 91.5397 103.919 91.5237 103.327 91.4917C102.959 91.4757 102.647 91.3317 102.391 91.0597C102.135 90.8037 101.991 90.4837 101.959 90.0997V90.0277C101.959 89.8997 101.895 89.8357 101.767 89.8357H96.0791C95.9991 89.8357 95.9591 89.8837 95.9591 89.9797C95.9591 90.2357 95.8631 90.4517 95.6711 90.6277C95.4951 90.8037 95.2791 90.8917 95.0231 90.8917H94.5431C94.1751 90.8917 93.8551 90.7557 93.5831 90.4837C93.3271 90.2277 93.1991 89.9157 93.1991 89.5477V82.3717C93.1991 82.0037 93.3271 81.6917 93.5831 81.4357C93.8551 81.1637 94.1751 81.0277 94.5431 81.0277H102.319C102.687 81.0277 102.999 81.1637 103.255 81.4357C103.527 81.6917 103.663 82.0037 103.663 82.3717V88.4677V88.6837C103.631 88.8117 103.679 88.8757 103.807 88.8757C104.079 88.8917 104.383 88.8997 104.719 88.8997C105.295 88.8997 105.639 88.8517 105.751 88.7557C105.863 88.6437 105.919 88.3157 105.919 87.7717V79.9957C105.919 79.8517 105.847 79.7797 105.703 79.7797H100.279C99.9111 79.7797 99.5911 79.6437 99.3191 79.3717C99.0471 79.0997 98.9111 78.7797 98.9111 78.4117V71.7397C98.9111 71.3717 99.0471 71.0517 99.3191 70.7797C99.5911 70.5077 99.9111 70.3717 100.279 70.3717H107.623ZM100.903 87.5317V86.6437C100.903 86.4997 100.839 86.4277 100.711 86.4277H96.1511C96.0231 86.4277 95.9591 86.4997 95.9591 86.6437V87.5317C95.9591 87.6757 96.0231 87.7477 96.1511 87.7477H100.711C100.839 87.7477 100.903 87.6757 100.903 87.5317ZM100.903 84.2197V83.4037C100.903 83.2597 100.839 83.1877 100.711 83.1877H96.1511C96.0231 83.1877 95.9591 83.2597 95.9591 83.4037V84.2197C95.9591 84.3477 96.0231 84.4117 96.1511 84.4117H100.711C100.839 84.4117 100.903 84.3477 100.903 84.2197ZM105.919 77.4277V76.4437C105.919 76.3157 105.847 76.2517 105.703 76.2517H101.791C101.663 76.2517 101.599 76.3157 101.599 76.4437V77.4277C101.599 77.5717 101.663 77.6437 101.791 77.6437H105.703C105.847 77.6437 105.919 77.5717 105.919 77.4277ZM105.919 73.9957V73.0117C105.919 72.8677 105.847 72.7957 105.703 72.7957H101.791C101.663 72.7957 101.599 72.8677 101.599 73.0117V73.9957C101.599 74.1397 101.663 74.2117 101.791 74.2117H105.703C105.847 74.2117 105.919 74.1397 105.919 73.9957Z" fill="#583F48"/>
<path d="M76.71 86.0918C76.966 86.3638 77.078 86.6918 77.046 87.0758C77.03 87.4598 76.878 87.7798 76.59 88.0358L76.518 88.0838C76.23 88.3398 75.894 88.4518 75.51 88.4198C75.142 88.3878 74.83 88.2358 74.574 87.9638C74.046 87.3878 73.51 86.8278 72.966 86.2838C72.694 86.0278 72.558 85.7158 72.558 85.3478C72.574 84.9638 72.718 84.6518 72.99 84.4118L73.062 84.3398C73.35 84.0838 73.686 83.9638 74.07 83.9798C74.47 83.9798 74.806 84.1158 75.078 84.3878C75.638 84.9478 76.182 85.5158 76.71 86.0918ZM65.262 91.0118C64.894 91.0118 64.574 90.8758 64.302 90.6038C64.046 90.3478 63.918 90.0358 63.918 89.6678V72.2198C63.918 71.8518 64.046 71.5318 64.302 71.2598C64.574 70.9878 64.894 70.8518 65.262 70.8518H70.158C70.526 70.8518 70.838 70.9878 71.094 71.2598C71.366 71.5318 71.502 71.8518 71.502 72.2198V77.8358C71.502 77.4838 71.63 77.1798 71.886 76.9238C72.142 76.6678 72.446 76.5398 72.798 76.5398H76.878C77.006 76.5398 77.07 76.4678 77.07 76.3238V74.5478C77.07 74.4038 77.006 74.3318 76.878 74.3318H73.686C73.334 74.3318 73.038 74.2118 72.798 73.9718C72.558 73.7318 72.438 73.4358 72.438 73.0838C72.438 72.7318 72.558 72.4358 72.798 72.1958C73.038 71.9398 73.334 71.8118 73.686 71.8118H76.878C77.006 71.8118 77.07 71.7478 77.07 71.6198V70.8518C77.07 70.4838 77.206 70.1718 77.478 69.9158C77.75 69.6438 78.07 69.5078 78.438 69.5078H78.87C79.238 69.5078 79.558 69.6438 79.83 69.9158C80.102 70.1718 80.238 70.4838 80.238 70.8518V71.6198C80.238 71.7478 80.302 71.8118 80.43 71.8118H83.454C83.806 71.8118 84.102 71.9398 84.342 72.1958C84.582 72.4358 84.702 72.7318 84.702 73.0838C84.702 73.4358 84.582 73.7318 84.342 73.9718C84.102 74.2118 83.806 74.3318 83.454 74.3318H80.43C80.302 74.3318 80.238 74.4038 80.238 74.5478V76.3238C80.238 76.4678 80.302 76.5398 80.43 76.5398H84.222C84.574 76.5398 84.878 76.6678 85.134 76.9238C85.39 77.1798 85.518 77.4838 85.518 77.8358C85.518 78.1878 85.39 78.4918 85.134 78.7478C84.878 79.0038 84.574 79.1318 84.222 79.1318H83.55C83.422 79.1318 83.358 79.2038 83.358 79.3478V80.8118C83.358 80.9558 83.422 81.0278 83.55 81.0278H84.222C84.574 81.0278 84.878 81.1558 85.134 81.4118C85.39 81.6518 85.518 81.9558 85.518 82.3238C85.518 82.6918 85.39 83.0038 85.134 83.2598C84.878 83.4998 84.574 83.6198 84.222 83.6198H83.55C83.422 83.6198 83.358 83.6918 83.358 83.8358V87.6278C83.358 88.2998 83.342 88.8278 83.31 89.2118C83.294 89.5958 83.23 89.9558 83.118 90.2918C83.022 90.6278 82.902 90.8678 82.758 91.0118C82.614 91.1558 82.374 91.2838 82.038 91.3958C81.718 91.5078 81.374 91.5718 81.006 91.5878C80.638 91.6038 80.126 91.6118 79.47 91.6118C79.342 91.6118 78.782 91.5958 77.79 91.5638C77.422 91.5478 77.11 91.4038 76.854 91.1318C76.598 90.8758 76.454 90.5638 76.422 90.1958C76.406 89.8438 76.518 89.5478 76.758 89.3078C77.014 89.0678 77.318 88.9558 77.67 88.9718C78.406 89.0038 78.822 89.0198 78.918 89.0198C79.558 89.0198 79.926 88.9718 80.022 88.8758C80.134 88.7798 80.19 88.4278 80.19 87.8198V83.8358C80.19 83.6918 80.126 83.6198 79.998 83.6198H72.798C72.446 83.6198 72.142 83.4998 71.886 83.2598C71.63 83.0038 71.502 82.6918 71.502 82.3238V88.2998C71.502 88.6678 71.366 88.9878 71.094 89.2598C70.838 89.5318 70.526 89.6678 70.158 89.6678H66.966C66.854 89.6678 66.798 89.7238 66.798 89.8358C66.798 90.1558 66.678 90.4278 66.438 90.6518C66.198 90.8918 65.918 91.0118 65.598 91.0118H65.262ZM66.798 73.7798V78.5318C66.798 78.6758 66.862 78.7478 66.99 78.7478H68.55C68.678 78.7478 68.742 78.6758 68.742 78.5318V73.7798C68.742 73.6518 68.678 73.5878 68.55 73.5878H66.99C66.862 73.5878 66.798 73.6518 66.798 73.7798ZM66.798 81.5798V86.8118C66.798 86.9558 66.862 87.0278 66.99 87.0278H68.55C68.678 87.0278 68.742 86.9558 68.742 86.8118V81.5798C68.742 81.4518 68.678 81.3878 68.55 81.3878H66.99C66.862 81.3878 66.798 81.4518 66.798 81.5798ZM71.502 82.3238C71.502 81.9558 71.63 81.6518 71.886 81.4118C72.142 81.1558 72.446 81.0278 72.798 81.0278H79.998C80.126 81.0278 80.19 80.9558 80.19 80.8118V79.3478C80.19 79.2038 80.126 79.1318 79.998 79.1318H72.798C72.446 79.1318 72.142 79.0038 71.886 78.7478C71.63 78.4918 71.502 78.1878 71.502 77.8358V82.3238Z" fill="#583F48"/>
<path d="M206.934 56.1078C207.158 55.5638 207.27 55.1238 207.27 54.7878C207.27 54.2918 207.078 53.9158 206.694 53.6598C206.31 53.3878 205.622 53.2518 204.63 53.2518C203.83 53.2518 203.214 53.3878 202.782 53.6598C202.366 53.9158 202.158 54.2358 202.158 54.6198C202.158 55.7398 203.518 56.2998 206.238 56.2998H206.67C206.782 56.2998 206.87 56.2358 206.934 56.1078ZM198.966 50.6358C198.646 50.7798 198.326 50.7958 198.006 50.6838C197.702 50.5718 197.47 50.3638 197.31 50.0598C197.15 49.7558 197.118 49.4358 197.214 49.0998C197.31 48.7478 197.51 48.4838 197.814 48.3078L207.942 42.1878L207.966 42.1638L207.942 42.1398H199.71C199.358 42.1398 199.046 42.0118 198.774 41.7558C198.518 41.4998 198.39 41.1878 198.39 40.8198C198.39 40.4518 198.518 40.1398 198.774 39.8838C199.046 39.6278 199.358 39.4998 199.71 39.4998H212.31C212.678 39.4998 212.998 39.6358 213.27 39.9078C213.558 40.1638 213.702 40.4758 213.702 40.8438C213.734 41.7238 213.342 42.3958 212.526 42.8598L205.83 46.5798V46.6038H205.878C206.934 46.3958 207.902 46.2918 208.782 46.2918C211.07 46.2918 212.798 46.7638 213.966 47.7078C215.15 48.6518 215.742 49.9958 215.742 51.7398C215.742 54.0118 214.918 55.7718 213.27 57.0198C211.622 58.2518 209.278 58.8678 206.238 58.8678C203.854 58.8678 202.07 58.4998 200.886 57.7638C199.702 57.0438 199.11 55.9958 199.11 54.6198C199.11 53.5638 199.614 52.6758 200.622 51.9558C201.63 51.2198 203.022 50.8518 204.798 50.8518C206.622 50.8518 207.942 51.1558 208.758 51.7638C209.574 52.3718 209.982 53.2678 209.982 54.4518C209.982 54.7398 209.942 55.0998 209.862 55.5318C209.846 55.5798 209.854 55.6198 209.886 55.6518C209.934 55.6678 209.974 55.6678 210.006 55.6518C211.59 54.9638 212.382 53.7558 212.382 52.0278C212.382 50.9238 211.99 50.0918 211.206 49.5318C210.438 48.9718 209.206 48.6918 207.51 48.6918C204.646 48.6918 201.798 49.3398 198.966 50.6358Z" fill="#583F48"/>
<path d="M183.031 50.4197C183.479 50.0037 183.703 49.4837 183.703 48.8597C183.703 48.2357 183.479 47.7237 183.031 47.3237C182.583 46.9077 182.007 46.6997 181.303 46.6997C180.599 46.6997 180.023 46.9077 179.575 47.3237C179.127 47.7237 178.903 48.2357 178.903 48.8597C178.903 49.4837 179.127 50.0037 179.575 50.4197C180.023 50.8197 180.599 51.0197 181.303 51.0197C182.007 51.0197 182.583 50.8197 183.031 50.4197ZM173.311 43.0997C172.959 43.0997 172.655 42.9797 172.399 42.7397C172.159 42.4837 172.039 42.1797 172.039 41.8277C172.039 41.4757 172.159 41.1717 172.399 40.9157C172.655 40.6597 172.959 40.5317 173.311 40.5317H183.175C183.319 40.5317 183.391 40.4677 183.391 40.3397V39.2597C183.391 38.8917 183.527 38.5717 183.799 38.2997C184.071 38.0277 184.391 37.8917 184.759 37.8917H185.071C185.439 37.8917 185.759 38.0277 186.031 38.2997C186.303 38.5717 186.439 38.8917 186.439 39.2597V40.3157C186.439 40.4597 186.503 40.5317 186.631 40.5317H191.551C191.903 40.5317 192.199 40.6597 192.439 40.9157C192.695 41.1717 192.823 41.4757 192.823 41.8277C192.823 42.1797 192.695 42.4837 192.439 42.7397C192.199 42.9797 191.903 43.0997 191.551 43.0997H186.631C186.503 43.0997 186.439 43.1717 186.439 43.3157V47.6597C186.439 47.8197 186.463 47.9557 186.511 48.0677C186.879 49.0277 187.063 50.0357 187.063 51.0917C187.063 53.3637 186.471 55.1157 185.287 56.3477C184.103 57.5797 182.143 58.4117 179.407 58.8437C179.039 58.9077 178.695 58.8197 178.375 58.5797C178.071 58.3397 177.879 58.0357 177.799 57.6677V57.5717C177.735 57.2197 177.807 56.8997 178.015 56.6117C178.239 56.3077 178.535 56.1237 178.903 56.0597C180.647 55.7877 181.879 55.4037 182.599 54.9077C183.319 54.3957 183.783 53.6677 183.991 52.7237C183.991 52.7077 183.991 52.6917 183.991 52.6757C184.007 52.6597 184.015 52.6437 184.015 52.6277V52.6037H183.943C183.127 53.2597 182.087 53.5877 180.823 53.5877C179.367 53.5877 178.175 53.1477 177.247 52.2677C176.335 51.3717 175.879 50.2357 175.879 48.8597C175.879 47.4677 176.343 46.3317 177.271 45.4517C178.215 44.5717 179.431 44.1317 180.919 44.1317C181.767 44.1317 182.567 44.3157 183.319 44.6837C183.335 44.6837 183.343 44.6917 183.343 44.7077C183.343 44.7077 183.351 44.7077 183.367 44.7077C183.383 44.7077 183.391 44.6997 183.391 44.6837V43.3157C183.391 43.1717 183.319 43.0997 183.175 43.0997H173.311Z" fill="#583F48"/>
<path d="M169.039 49.1718C169.215 49.2198 169.351 49.3318 169.447 49.5078C169.543 49.6678 169.559 49.8358 169.495 50.0118C169.207 50.9558 168.823 51.9238 168.343 52.9158C168.183 53.2678 167.911 53.5078 167.527 53.6358C167.159 53.7638 166.799 53.7558 166.447 53.6118L166.399 53.5878C166.063 53.4598 165.831 53.2278 165.703 52.8918C165.591 52.5398 165.623 52.2038 165.799 51.8838C166.263 50.9398 166.647 49.9878 166.951 49.0278C166.999 48.8998 166.959 48.7958 166.831 48.7158C165.231 47.8518 163.959 46.6918 163.015 45.2358C162.935 45.1238 162.863 45.1158 162.799 45.2118C161.759 46.8278 160.287 48.0838 158.383 48.9798C158.351 48.9958 158.335 49.0198 158.335 49.0518C158.351 49.0838 158.375 49.1078 158.407 49.1238L159.079 49.2678C159.447 49.3478 159.727 49.5558 159.919 49.8918C160.127 50.2118 160.175 50.5478 160.063 50.8998C159.823 51.6678 159.535 52.4438 159.199 53.2278C159.039 53.5798 158.783 53.8278 158.431 53.9718C158.095 54.0998 157.743 54.0998 157.375 53.9718C157.039 53.8598 156.807 53.6358 156.679 53.2998C156.551 52.9478 156.559 52.6118 156.703 52.2918C157.087 51.4278 157.415 50.4518 157.687 49.3638C157.687 49.3158 157.663 49.2998 157.615 49.3158C157.423 49.3798 157.239 49.3718 157.063 49.2918C156.887 49.1958 156.767 49.0518 156.703 48.8598L156.439 48.0678C156.327 47.7158 156.343 47.3718 156.487 47.0358C156.647 46.6838 156.903 46.4358 157.255 46.2918C158.711 45.6678 159.743 44.8838 160.351 43.9398C160.959 42.9958 161.263 41.7398 161.263 40.1718V39.4278C161.263 39.0598 161.399 38.7398 161.671 38.4678C161.943 38.1958 162.263 38.0598 162.631 38.0598H162.943C163.311 38.0598 163.631 38.1958 163.903 38.4678C164.175 38.7398 164.311 39.0598 164.311 39.4278V40.1718C164.311 41.7238 164.623 42.9798 165.247 43.9398C165.887 44.8838 166.959 45.6758 168.463 46.3158C168.815 46.4598 169.071 46.6998 169.231 47.0358C169.391 47.3718 169.415 47.7158 169.303 48.0678L168.967 49.0518C168.951 49.0998 168.975 49.1398 169.039 49.1718ZM157.735 43.9638C157.399 43.8518 157.167 43.6278 157.039 43.2918C156.911 42.9558 156.919 42.6278 157.063 42.3078C157.335 41.6678 157.583 40.9798 157.807 40.2438C157.919 39.8918 158.135 39.6278 158.455 39.4518C158.775 39.2598 159.111 39.2038 159.463 39.2838C159.831 39.3638 160.111 39.5718 160.303 39.9078C160.495 40.2278 160.535 40.5638 160.423 40.9158C160.183 41.6838 159.895 42.4598 159.559 43.2438C159.399 43.5958 159.143 43.8358 158.791 43.9638C158.455 44.0918 158.103 44.0918 157.735 43.9638ZM166.279 43.6038C165.943 43.4758 165.711 43.2358 165.583 42.8838C165.471 42.5318 165.503 42.2038 165.679 41.8998C166.063 41.1478 166.351 40.4918 166.543 39.9318C166.671 39.5798 166.895 39.3158 167.215 39.1398C167.551 38.9478 167.895 38.8998 168.247 38.9958C168.615 39.0918 168.887 39.3078 169.063 39.6438C169.239 39.9638 169.271 40.2998 169.159 40.6518C168.871 41.4678 168.559 42.2198 168.223 42.9078C168.063 43.2598 167.791 43.4998 167.407 43.6278C167.039 43.7558 166.679 43.7478 166.327 43.6038H166.279ZM162.943 47.7318C163.311 47.7318 163.631 47.8678 163.903 48.1398C164.175 48.4118 164.311 48.7318 164.311 49.0998V50.2998C164.311 51.8358 164.631 53.0838 165.271 54.0438C165.927 54.9878 167.023 55.7798 168.559 56.4198C168.911 56.5638 169.167 56.8118 169.327 57.1638C169.503 57.4998 169.535 57.8438 169.423 58.1958L169.351 58.3638C169.223 58.7318 168.991 58.9958 168.655 59.1558C168.319 59.3318 167.983 59.3398 167.647 59.1798C165.663 58.3158 164.127 57.0358 163.039 55.3398C162.959 55.2278 162.887 55.2198 162.823 55.3158C161.751 57.0118 160.215 58.2998 158.215 59.1798C157.879 59.3398 157.543 59.3318 157.207 59.1558C156.871 58.9958 156.639 58.7318 156.511 58.3638L156.439 58.1958C156.327 57.8438 156.343 57.4998 156.487 57.1638C156.647 56.8118 156.903 56.5638 157.255 56.4198C158.711 55.7958 159.743 55.0118 160.351 54.0678C160.959 53.1238 161.263 51.8678 161.263 50.2998V49.0998C161.263 48.7318 161.399 48.4118 161.671 48.1398C161.943 47.8678 162.263 47.7318 162.631 47.7318H162.943ZM149.071 41.0838C148.735 41.0838 148.447 40.9638 148.207 40.7238C147.983 40.4838 147.871 40.1958 147.871 39.8598C147.871 39.5238 147.983 39.2438 148.207 39.0198C148.447 38.7798 148.735 38.6598 149.071 38.6598H154.495C154.831 38.6598 155.119 38.7798 155.359 39.0198C155.599 39.2438 155.719 39.5238 155.719 39.8598C155.719 40.1958 155.599 40.4838 155.359 40.7238C155.119 40.9638 154.831 41.0838 154.495 41.0838H149.071ZM148.519 44.6838C148.151 44.6838 147.839 44.5558 147.583 44.2998C147.343 44.0438 147.223 43.7398 147.223 43.3878C147.223 43.0358 147.343 42.7318 147.583 42.4758C147.839 42.2198 148.151 42.0918 148.519 42.0918H154.975C155.327 42.0918 155.631 42.2198 155.887 42.4758C156.143 42.7318 156.271 43.0358 156.271 43.3878C156.271 43.7398 156.143 44.0438 155.887 44.2998C155.631 44.5558 155.327 44.6838 154.975 44.6838H148.519ZM149.239 48.0918C148.919 48.0918 148.639 47.9798 148.399 47.7558C148.175 47.5158 148.063 47.2358 148.063 46.9158C148.063 46.5958 148.175 46.3238 148.399 46.0998C148.639 45.8598 148.919 45.7398 149.239 45.7398H154.495C154.815 45.7398 155.087 45.8598 155.311 46.0998C155.551 46.3238 155.671 46.5958 155.671 46.9158C155.671 47.2358 155.551 47.5158 155.311 47.7558C155.087 47.9798 154.815 48.0918 154.495 48.0918H149.239ZM149.239 51.4758C148.919 51.4758 148.639 51.3638 148.399 51.1398C148.175 50.8998 148.063 50.6198 148.063 50.2998C148.063 49.9798 148.175 49.7078 148.399 49.4838C148.639 49.2598 148.919 49.1478 149.239 49.1478H154.495C154.815 49.1478 155.087 49.2598 155.311 49.4838C155.551 49.7078 155.671 49.9798 155.671 50.2998C155.671 50.6198 155.551 50.8998 155.311 51.1398C155.087 51.3638 154.815 51.4758 154.495 51.4758H149.239ZM147.871 58.5078V53.8998C147.871 53.5318 148.007 53.2118 148.279 52.9398C148.551 52.6678 148.871 52.5318 149.239 52.5318H154.423C154.791 52.5318 155.111 52.6678 155.383 52.9398C155.655 53.2118 155.791 53.5318 155.791 53.8998V57.6198C155.791 57.9878 155.655 58.3078 155.383 58.5798C155.111 58.8518 154.791 58.9878 154.423 58.9878H150.823C150.743 58.9878 150.703 59.0198 150.703 59.0838C150.703 59.3078 150.631 59.4918 150.487 59.6358C150.343 59.7798 150.159 59.8518 149.935 59.8518H149.239C148.871 59.8518 148.551 59.7158 148.279 59.4438C148.007 59.1878 147.871 58.8758 147.871 58.5078ZM150.703 55.0518V56.4678C150.703 56.6118 150.775 56.6838 150.919 56.6838H152.983C153.127 56.6838 153.199 56.6118 153.199 56.4678V55.0518C153.199 54.9078 153.127 54.8358 152.983 54.8358H150.919C150.775 54.8358 150.703 54.9078 150.703 55.0518Z" fill="#583F48"/>
<path d="M123.678 54.4998L123.39 53.9478C122.99 53.1638 123.03 52.3878 123.51 51.6198C124.838 49.5078 125.79 47.3158 126.366 45.0438C126.398 44.9158 126.342 44.8518 126.198 44.8518H125.07C124.702 44.8518 124.382 44.7238 124.11 44.4678C123.838 44.1958 123.702 43.8758 123.702 43.5078C123.702 43.1398 123.838 42.8198 124.11 42.5478C124.382 42.2758 124.702 42.1398 125.07 42.1398H126.702C126.846 42.1398 126.918 42.0678 126.918 41.9238V39.3318C126.918 38.9638 127.046 38.6518 127.302 38.3958C127.574 38.1238 127.894 37.9878 128.262 37.9878H128.598C128.966 37.9878 129.278 38.1238 129.534 38.3958C129.806 38.6518 129.942 38.9638 129.942 39.3318V41.9238C129.942 42.0678 130.014 42.1398 130.158 42.1398H130.95C131.318 42.1398 131.638 42.2758 131.91 42.5478C132.182 42.8198 132.318 43.1398 132.318 43.5078C132.318 43.8758 132.182 44.1958 131.91 44.4678C131.638 44.7238 131.318 44.8518 130.95 44.8518H130.59C130.542 44.8518 130.502 44.8758 130.47 44.9238C130.454 44.9718 130.462 45.0118 130.494 45.0438C131.038 45.9558 131.846 47.3638 132.918 49.2678C132.934 49.2838 132.958 49.2918 132.99 49.2918C133.022 49.2918 133.038 49.2838 133.038 49.2678V39.9798C133.038 39.6118 133.166 39.2918 133.422 39.0198C133.694 38.7478 134.014 38.6118 134.382 38.6118H143.502C143.87 38.6118 144.19 38.7478 144.462 39.0198C144.734 39.2918 144.87 39.6118 144.87 39.9798V58.1478C144.87 58.5158 144.734 58.8278 144.462 59.0838C144.19 59.3558 143.87 59.4918 143.502 59.4918H142.734C142.462 59.4918 142.23 59.3958 142.038 59.2038C141.846 59.0118 141.75 58.7878 141.75 58.5318C141.75 58.4358 141.702 58.3878 141.606 58.3878H136.206C136.11 58.3878 136.062 58.4358 136.062 58.5318C136.062 58.8038 135.966 59.0278 135.774 59.2038C135.582 59.3958 135.358 59.4918 135.102 59.4918H134.382C134.014 59.4918 133.694 59.3558 133.422 59.0838C133.166 58.8278 133.038 58.5158 133.038 58.1478V51.2358C133.038 51.2038 133.022 51.1878 132.99 51.1878C132.958 51.1878 132.934 51.1958 132.918 51.2118C132.822 51.3398 132.742 51.4278 132.678 51.4758C132.422 51.6998 132.126 51.7798 131.79 51.7158C131.47 51.6518 131.238 51.4678 131.094 51.1638C130.758 50.4598 130.406 49.7558 130.038 49.0518C130.022 49.0358 129.998 49.0358 129.966 49.0518C129.95 49.0518 129.942 49.0678 129.942 49.0998V58.3878C129.942 58.7558 129.806 59.0678 129.534 59.3238C129.278 59.5958 128.966 59.7318 128.598 59.7318H128.262C127.894 59.7318 127.574 59.5958 127.302 59.3238C127.046 59.0678 126.918 58.7558 126.918 58.3878V50.6118C126.902 50.5958 126.878 50.6038 126.846 50.6358C126.382 52.0278 125.782 53.3398 125.046 54.5718C124.886 54.8278 124.654 54.9478 124.35 54.9318C124.046 54.9158 123.822 54.7718 123.678 54.4998ZM136.062 41.4198V44.2038C136.062 44.3478 136.134 44.4198 136.278 44.4198H141.534C141.678 44.4198 141.75 44.3478 141.75 44.2038V41.4198C141.75 41.2918 141.678 41.2278 141.534 41.2278H136.278C136.134 41.2278 136.062 41.2918 136.062 41.4198ZM136.062 47.1558V49.9398C136.062 50.0678 136.134 50.1318 136.278 50.1318H141.534C141.678 50.1318 141.75 50.0678 141.75 49.9398V47.1558C141.75 47.0118 141.678 46.9398 141.534 46.9398H136.278C136.134 46.9398 136.062 47.0118 136.062 47.1558ZM136.062 52.8678V55.6518C136.062 55.7958 136.134 55.8678 136.278 55.8678H141.534C141.678 55.8678 141.75 55.7958 141.75 55.6518V52.8678C141.75 52.7238 141.678 52.6518 141.534 52.6518H136.278C136.134 52.6518 136.062 52.7238 136.062 52.8678Z" fill="#583F48"/>
<path d="M101.552 45.3318C101.184 45.3318 100.864 45.2038 100.592 44.9478C100.32 44.6758 100.184 44.3558 100.184 43.9878C100.184 43.6198 100.32 43.2998 100.592 43.0278C100.864 42.7558 101.184 42.6198 101.552 42.6198H104.288C104.416 42.6198 104.496 42.5478 104.528 42.4038C104.768 41.3478 104.984 40.2518 105.176 39.1158C105.256 38.7478 105.44 38.4518 105.728 38.2278C106.032 37.9878 106.376 37.8838 106.76 37.9158L106.928 37.9398C107.296 37.9718 107.592 38.1398 107.816 38.4438C108.04 38.7318 108.12 39.0598 108.056 39.4278C107.848 40.6438 107.672 41.6438 107.528 42.4278C107.496 42.5558 107.552 42.6198 107.696 42.6198H109.064C109.88 42.6198 110.488 42.6198 110.888 42.6198C111.304 42.6198 111.76 42.6678 112.256 42.7638C112.752 42.8598 113.088 42.9398 113.264 43.0038C113.456 43.0678 113.672 43.2518 113.912 43.5558C114.168 43.8598 114.32 44.1318 114.368 44.3718C114.416 44.6118 114.48 45.0438 114.56 45.6678C114.64 46.2758 114.68 46.8358 114.68 47.3478C114.68 47.8598 114.68 48.6278 114.68 49.6518C114.68 52.7238 114.304 54.9878 113.552 56.4438C112.8 57.8998 111.784 58.6278 110.504 58.6278C109.544 58.6278 108.288 58.3958 106.736 57.9318C106.368 57.8198 106.096 57.5958 105.92 57.2598C105.744 56.9238 105.712 56.5638 105.824 56.1798L105.872 56.0358C105.984 55.6838 106.2 55.4278 106.52 55.2678C106.856 55.0918 107.208 55.0598 107.576 55.1718C108.632 55.4918 109.4 55.6518 109.88 55.6518C110.152 55.6518 110.4 55.4518 110.624 55.0518C110.848 54.6518 111.04 53.9478 111.2 52.9398C111.376 51.9158 111.464 50.6598 111.464 49.1718C111.464 47.2518 111.376 46.1318 111.2 45.8118C111.04 45.4918 110.44 45.3318 109.4 45.3318H107.096C106.968 45.3318 106.888 45.3958 106.856 45.5238C105.864 49.6678 104.608 53.6758 103.088 57.5478C102.944 57.9158 102.696 58.1718 102.344 58.3158C102.008 58.4758 101.664 58.4918 101.312 58.3638L101.144 58.3158C100.792 58.2038 100.544 57.9718 100.4 57.6198C100.256 57.2838 100.248 56.9398 100.376 56.5878C101.704 53.0838 102.848 49.3958 103.808 45.5238C103.84 45.3958 103.792 45.3318 103.664 45.3318H101.552ZM118.592 52.3158C117.744 49.2598 116.72 46.1398 115.52 42.9558C115.392 42.6198 115.408 42.2918 115.568 41.9718C115.728 41.6358 115.984 41.4118 116.336 41.2998L116.648 41.2038C117.016 41.0918 117.376 41.1238 117.728 41.2998C118.08 41.4758 118.32 41.7478 118.448 42.1158C119.552 44.9958 120.576 48.1638 121.52 51.6198C121.616 51.9718 121.568 52.3158 121.376 52.6518C121.184 52.9718 120.904 53.1718 120.536 53.2518L120.248 53.2998C119.88 53.3798 119.536 53.3238 119.216 53.1318C118.896 52.9398 118.688 52.6678 118.592 52.3158Z" fill="#583F48"/>
<path d="M89.5728 53.4197V53.3237C89.5728 53.1797 89.5088 53.0837 89.3808 53.0357C88.5328 52.6197 87.7408 52.4117 87.0048 52.4117C86.1248 52.4117 85.4608 52.5797 85.0128 52.9157C84.5808 53.2517 84.3648 53.7157 84.3648 54.3077C84.3648 54.9317 84.5968 55.4197 85.0608 55.7717C85.5248 56.1237 86.1728 56.2997 87.0048 56.2997C87.9808 56.2997 88.6528 56.0997 89.0208 55.6997C89.3888 55.2997 89.5728 54.5397 89.5728 53.4197ZM95.7408 41.5637C96.1248 41.5957 96.4288 41.7637 96.6528 42.0677C96.8928 42.3717 96.9888 42.7157 96.9408 43.0997C96.8928 43.4677 96.7168 43.7637 96.4128 43.9877C96.1088 44.2117 95.7728 44.2997 95.4048 44.2517C94.5088 44.1397 93.6448 44.0757 92.8128 44.0597C92.6848 44.0597 92.6208 44.1317 92.6208 44.2757V51.5477C92.6208 51.6757 92.6688 51.7797 92.7648 51.8597C93.8528 52.5317 95.0048 53.3957 96.2208 54.4517C96.5088 54.6917 96.6608 55.0037 96.6768 55.3877C96.6928 55.7717 96.5728 56.0997 96.3168 56.3717L96.2448 56.4437C95.9888 56.7157 95.6768 56.8677 95.3088 56.8997C94.9408 56.9317 94.6128 56.8277 94.3248 56.5877C94.0848 56.3797 93.7568 56.1157 93.3408 55.7957C92.9248 55.4597 92.6848 55.2677 92.6208 55.2197C92.5248 55.1557 92.4608 55.1717 92.4288 55.2677C92.1728 56.4997 91.5968 57.4037 90.7008 57.9797C89.8208 58.5717 88.5888 58.8677 87.0048 58.8677C85.2288 58.8677 83.8368 58.4597 82.8288 57.6437C81.8368 56.8277 81.3408 55.7157 81.3408 54.3077C81.3408 52.9317 81.8288 51.8437 82.8048 51.0437C83.7968 50.2277 85.1968 49.8197 87.0048 49.8197C87.7088 49.8197 88.5088 49.9557 89.4048 50.2277C89.5168 50.2597 89.5728 50.2117 89.5728 50.0837V42.6197C89.5728 42.2517 89.7008 41.9317 89.9568 41.6597C90.2288 41.3877 90.5488 41.2597 90.9168 41.2757C92.9648 41.3397 94.5728 41.4357 95.7408 41.5637ZM76.7568 55.5077C76.4048 55.3957 76.1568 55.1717 76.0128 54.8357C75.8688 54.4997 75.8608 54.1557 75.9888 53.8037C77.2048 50.7157 78.3088 47.5077 79.3008 44.1797C79.3328 44.0517 79.2848 43.9877 79.1568 43.9877H77.3808C77.0128 43.9877 76.6928 43.8517 76.4208 43.5797C76.1648 43.3077 76.0368 42.9877 76.0368 42.6197C76.0368 42.2517 76.1648 41.9317 76.4208 41.6597C76.6928 41.3877 77.0128 41.2517 77.3808 41.2517H79.9248C80.0688 41.2517 80.1568 41.1877 80.1888 41.0597C80.2528 40.8517 80.3328 40.5397 80.4288 40.1237C80.5248 39.7077 80.6048 39.3957 80.6688 39.1877C80.7648 38.8197 80.9728 38.5317 81.2928 38.3237C81.6128 38.0997 81.9648 38.0117 82.3488 38.0597H82.5168C82.8848 38.1077 83.1648 38.2837 83.3568 38.5877C83.5648 38.8917 83.6288 39.2197 83.5488 39.5717C83.3888 40.2437 83.2688 40.7397 83.1888 41.0597C83.1568 41.1877 83.2128 41.2517 83.3568 41.2517H85.7808C86.1488 41.2517 86.4688 41.3877 86.7408 41.6597C87.0128 41.9317 87.1488 42.2517 87.1488 42.6197C87.1488 42.9877 87.0128 43.3077 86.7408 43.5797C86.4688 43.8517 86.1488 43.9877 85.7808 43.9877H82.6128C82.4688 43.9877 82.3808 44.0597 82.3488 44.2037C81.3568 47.7237 80.1648 51.2357 78.7728 54.7397C78.6288 55.0917 78.3808 55.3557 78.0288 55.5317C77.6928 55.6917 77.3408 55.7077 76.9728 55.5797L76.7568 55.5077Z" fill="#583F48"/>
<path d="M53.5516 45.3318C53.1836 45.3318 52.8636 45.2038 52.5916 44.9478C52.3196 44.6758 52.1836 44.3558 52.1836 43.9878C52.1836 43.6198 52.3196 43.2998 52.5916 43.0278C52.8636 42.7558 53.1836 42.6198 53.5516 42.6198H56.2876C56.4156 42.6198 56.4956 42.5478 56.5276 42.4038C56.7676 41.3478 56.9836 40.2518 57.1756 39.1158C57.2556 38.7478 57.4396 38.4518 57.7276 38.2278C58.0316 37.9878 58.3756 37.8838 58.7596 37.9158L58.9276 37.9398C59.2956 37.9718 59.5916 38.1398 59.8156 38.4438C60.0396 38.7318 60.1196 39.0598 60.0556 39.4278C59.8476 40.6438 59.6716 41.6438 59.5276 42.4278C59.4956 42.5558 59.5516 42.6198 59.6956 42.6198H61.0636C61.8796 42.6198 62.4876 42.6198 62.8876 42.6198C63.3036 42.6198 63.7596 42.6678 64.2556 42.7638C64.7516 42.8598 65.0876 42.9398 65.2636 43.0038C65.4556 43.0678 65.6716 43.2518 65.9116 43.5558C66.1676 43.8598 66.3196 44.1318 66.3676 44.3718C66.4156 44.6118 66.4796 45.0438 66.5596 45.6678C66.6396 46.2758 66.6796 46.8358 66.6796 47.3478C66.6796 47.8598 66.6796 48.6278 66.6796 49.6518C66.6796 52.7238 66.3036 54.9878 65.5516 56.4438C64.7996 57.8998 63.7836 58.6278 62.5036 58.6278C61.5436 58.6278 60.2876 58.3958 58.7356 57.9318C58.3676 57.8198 58.0956 57.5958 57.9196 57.2598C57.7436 56.9238 57.7116 56.5638 57.8236 56.1798L57.8716 56.0358C57.9836 55.6838 58.1996 55.4278 58.5196 55.2678C58.8556 55.0918 59.2076 55.0598 59.5756 55.1718C60.6316 55.4918 61.3996 55.6518 61.8796 55.6518C62.1516 55.6518 62.3996 55.4518 62.6236 55.0518C62.8476 54.6518 63.0396 53.9478 63.1996 52.9398C63.3756 51.9158 63.4636 50.6598 63.4636 49.1718C63.4636 47.2518 63.3756 46.1318 63.1996 45.8118C63.0396 45.4918 62.4396 45.3318 61.3996 45.3318H59.0956C58.9676 45.3318 58.8876 45.3958 58.8556 45.5238C57.8636 49.6678 56.6076 53.6758 55.0876 57.5478C54.9436 57.9158 54.6956 58.1718 54.3436 58.3158C54.0076 58.4758 53.6636 58.4918 53.3116 58.3638L53.1436 58.3158C52.7916 58.2038 52.5436 57.9718 52.3996 57.6198C52.2556 57.2838 52.2476 56.9398 52.3756 56.5878C53.7036 53.0838 54.8476 49.3958 55.8076 45.5238C55.8396 45.3958 55.7916 45.3318 55.6636 45.3318H53.5516ZM70.5916 52.3158C69.7436 49.2598 68.7196 46.1398 67.5196 42.9558C67.3916 42.6198 67.4076 42.2918 67.5676 41.9718C67.7276 41.6358 67.9836 41.4118 68.3356 41.2998L68.6476 41.2038C69.0156 41.0918 69.3756 41.1238 69.7276 41.2998C70.0796 41.4758 70.3196 41.7478 70.4476 42.1158C71.5516 44.9958 72.5756 48.1638 73.5196 51.6198C73.6156 51.9718 73.5676 52.3158 73.3756 52.6518C73.1836 52.9718 72.9036 53.1718 72.5356 53.2518L72.2476 53.2998C71.8796 53.3798 71.5356 53.3238 71.2156 53.1318C70.8956 52.9398 70.6876 52.6678 70.5916 52.3158Z" fill="#583F48"/>
<path d="M41.5728 53.4197V53.3237C41.5728 53.1797 41.5088 53.0837 41.3808 53.0357C40.5328 52.6197 39.7408 52.4117 39.0048 52.4117C38.1248 52.4117 37.4608 52.5797 37.0128 52.9157C36.5808 53.2517 36.3648 53.7157 36.3648 54.3077C36.3648 54.9317 36.5968 55.4197 37.0608 55.7717C37.5248 56.1237 38.1728 56.2997 39.0048 56.2997C39.9808 56.2997 40.6528 56.0997 41.0208 55.6997C41.3888 55.2997 41.5728 54.5397 41.5728 53.4197ZM47.7408 41.5637C48.1248 41.5957 48.4288 41.7637 48.6528 42.0677C48.8928 42.3717 48.9888 42.7157 48.9408 43.0997C48.8928 43.4677 48.7168 43.7637 48.4128 43.9877C48.1088 44.2117 47.7728 44.2997 47.4048 44.2517C46.5088 44.1397 45.6448 44.0757 44.8128 44.0597C44.6848 44.0597 44.6208 44.1317 44.6208 44.2757V51.5477C44.6208 51.6757 44.6688 51.7797 44.7648 51.8597C45.8528 52.5317 47.0048 53.3957 48.2208 54.4517C48.5088 54.6917 48.6608 55.0037 48.6768 55.3877C48.6928 55.7717 48.5728 56.0997 48.3168 56.3717L48.2448 56.4437C47.9888 56.7157 47.6768 56.8677 47.3088 56.8997C46.9408 56.9317 46.6128 56.8277 46.3248 56.5877C46.0848 56.3797 45.7568 56.1157 45.3408 55.7957C44.9248 55.4597 44.6848 55.2677 44.6208 55.2197C44.5248 55.1557 44.4608 55.1717 44.4288 55.2677C44.1728 56.4997 43.5968 57.4037 42.7008 57.9797C41.8208 58.5717 40.5888 58.8677 39.0048 58.8677C37.2288 58.8677 35.8368 58.4597 34.8288 57.6437C33.8368 56.8277 33.3408 55.7157 33.3408 54.3077C33.3408 52.9317 33.8288 51.8437 34.8048 51.0437C35.7968 50.2277 37.1968 49.8197 39.0048 49.8197C39.7088 49.8197 40.5088 49.9557 41.4048 50.2277C41.5168 50.2597 41.5728 50.2117 41.5728 50.0837V42.6197C41.5728 42.2517 41.7008 41.9317 41.9568 41.6597C42.2288 41.3877 42.5488 41.2597 42.9168 41.2757C44.9648 41.3397 46.5728 41.4357 47.7408 41.5637ZM28.7568 55.5077C28.4048 55.3957 28.1568 55.1717 28.0128 54.8357C27.8688 54.4997 27.8608 54.1557 27.9888 53.8037C29.2048 50.7157 30.3088 47.5077 31.3008 44.1797C31.3328 44.0517 31.2848 43.9877 31.1568 43.9877H29.3808C29.0128 43.9877 28.6928 43.8517 28.4208 43.5797C28.1648 43.3077 28.0368 42.9877 28.0368 42.6197C28.0368 42.2517 28.1648 41.9317 28.4208 41.6597C28.6928 41.3877 29.0128 41.2517 29.3808 41.2517H31.9248C32.0688 41.2517 32.1568 41.1877 32.1888 41.0597C32.2528 40.8517 32.3328 40.5397 32.4288 40.1237C32.5248 39.7077 32.6048 39.3957 32.6688 39.1877C32.7648 38.8197 32.9728 38.5317 33.2928 38.3237C33.6128 38.0997 33.9648 38.0117 34.3488 38.0597H34.5168C34.8848 38.1077 35.1648 38.2837 35.3568 38.5877C35.5648 38.8917 35.6288 39.2197 35.5488 39.5717C35.3888 40.2437 35.2688 40.7397 35.1888 41.0597C35.1568 41.1877 35.2128 41.2517 35.3568 41.2517H37.7808C38.1488 41.2517 38.4688 41.3877 38.7408 41.6597C39.0128 41.9317 39.1488 42.2517 39.1488 42.6197C39.1488 42.9877 39.0128 43.3077 38.7408 43.5797C38.4688 43.8517 38.1488 43.9877 37.7808 43.9877H34.6128C34.4688 43.9877 34.3808 44.0597 34.3488 44.2037C33.3568 47.7237 32.1648 51.2357 30.7728 54.7397C30.6288 55.0917 30.3808 55.3557 30.0288 55.5317C29.6928 55.6917 29.3408 55.7077 28.9728 55.5797L28.7568 55.5077Z" fill="#583F48"/>
</svg>
