<svg width="355" height="181" viewBox="0 0 355 181" fill="none" xmlns="http://www.w3.org/2000/svg">
<path d="M337.66 11.6037C337.833 7.09765 334.249 3.6748 330.045 3.6748C325.841 3.6748 322.321 7.04349 322.408 11.6037C322.408 15.9256 325.819 24.2335 330.045 24.2335C334.27 24.2335 337.486 15.8714 337.66 11.6037Z" fill="#FDD000"/>
<path d="M324.485 27.6437C325.788 23.6468 318.814 17.9817 314.806 16.5086C310.558 14.9597 306.191 17.2885 304.888 21.2963C303.584 25.2932 305.713 29.6367 310.091 30.9691C314.208 32.3014 323.181 31.6406 324.485 27.6329" fill="#FDD000"/>
<path d="M326.05 33.9445C322.639 31.4857 315.067 36.3383 312.438 39.6962C309.647 43.2382 310.516 48.1017 313.927 50.5713C317.316 53.041 322.139 52.3585 324.757 48.6324C327.299 45.1337 329.428 36.4142 326.039 33.9445" fill="#FDD000"/>
<path d="M332.528 34.4465C329.139 36.9161 331.42 45.5816 333.81 49.1344C336.33 52.8714 341.251 53.5429 344.662 51.0841C348.051 48.6145 348.909 43.8376 346.15 40.1982C343.597 36.6995 335.939 31.9768 332.528 34.4465Z" fill="#FDD000"/>
<path d="M354.622 22.0825C353.319 18.0856 349.039 15.8109 344.704 17.2949C340.587 18.6272 333.722 24.433 335.025 28.4191C336.329 32.416 345.302 32.9143 349.419 31.7553C353.753 30.5205 355.926 26.0686 354.622 22.0825Z" fill="#FDD000"/>
<path d="M127.127 55.0856C127.496 55.313 128.061 55.5947 128.539 55.7788C129.984 56.3637 131.385 55.833 132.004 54.6523C133.058 52.6376 137.208 44.4813 141.748 35.4584C142.139 34.9168 142.737 34.4077 143.791 34.3427C144.953 34.321 146.202 34.3427 147.093 34.4077C149.222 34.5702 149.896 35.87 150.232 37.2673C150.526 38.5021 150.341 42.5207 150.363 44.2321C150.439 51.7169 155.284 55.2914 160.705 55.573C161.421 55.6055 163.312 55.6055 163.898 55.573C169.884 55.2914 173.74 52.1393 174.305 46.0627C174.435 44.5463 174.414 37.8305 174.392 36.9532C174.349 35.6533 173.458 34.6135 171.839 34.4077C171.372 34.3644 170.785 34.3644 170.307 34.4077C168.819 34.5593 167.885 35.5884 167.863 36.9532C167.842 38.3938 167.82 42.6399 167.766 43.8422C167.711 45.0553 167.646 46.301 167.016 47.3084C166.495 48.1424 165.148 48.9115 164.159 48.9656C163.16 49.0198 162.247 49.0414 161.085 48.9656C159.912 48.8898 158.934 48.554 158.043 47.525C157.467 46.8751 157.055 45.012 157.098 43.3873C157.141 41.7516 157.163 38.5563 157.163 37.0398C157.163 35.0251 156.837 32.8912 154.893 30.5949C153.046 28.4177 150.124 27.8003 148.777 27.7461C148.505 27.7461 147.995 27.692 147.495 27.6595C147.006 27.627 145.92 26.9121 146.528 25.9047C147.082 24.9732 155.403 8.21643 155.968 6.97077C156.501 5.79011 156.142 4.44697 154.741 3.5371C154.328 3.27713 153.796 3.01717 153.328 2.85469C151.895 2.3131 150.482 2.76804 149.863 3.9812C147.365 8.84467 128.202 46.7668 125.899 51.6627C125.313 52.8976 125.769 54.3057 127.127 55.0964" fill="#E5005A"/>
<path d="M8.70859 41.9704C10.501 45.924 13.7165 49.8018 17.0189 53.0513C18.4854 54.492 19.7346 55.2393 20.897 54.8927C22.1137 54.5461 23.1131 53.5496 23.7323 52.3798C24.3515 51.1991 23.7323 50.2459 22.3309 48.7403C20.582 46.8555 16.9428 43.3677 15.5415 40.5081C14.7702 38.9375 14.0098 36.3054 14.0098 34.074C14.0098 26.2968 14.0532 10.4716 13.9663 5.90057C13.9446 4.53576 12.9452 3.47424 11.4244 3.35509C11.0116 3.33343 10.1425 3.31177 9.63196 3.35509C8.11113 3.47424 7.12258 4.56826 7.08999 5.90057C6.98136 10.3741 6.98136 26.3401 7.03568 33.2833C7.0574 34.9081 7.42675 39.1108 8.70859 41.9596" fill="#E5005A"/>
<path d="M41.8905 47.5064C41.4994 48.0913 40.5978 48.9687 39.0227 48.9687C37.4475 48.9687 36.6219 48.6437 35.8832 47.7338C35.1228 46.8131 34.9816 43.5961 35.4813 41.9063C35.9919 40.2274 37.4692 39.7725 38.6316 39.5883C39.1639 39.5125 40.2502 39.48 41.1844 39.675C41.9666 39.8375 42.3685 40.1733 42.5097 41.3539C42.727 43.152 42.7922 46.1632 41.8905 47.5064ZM55.9148 32.9268C55.0783 32.9268 53.3185 32.916 51.2219 32.9051C49.9727 32.8835 49.3426 32.3744 49.3209 30.4571C49.3209 29.3415 49.3426 28.0958 49.3426 26.7852C49.3861 24.9654 49.9727 24.4563 51.135 24.4238C51.6673 24.4238 52.1453 24.4022 52.5472 24.3805C53.8508 24.3372 54.8937 23.449 55.0892 21.8459C55.1435 21.3801 55.1435 20.7952 55.0892 20.3186C54.948 18.8346 53.9051 17.8056 52.5472 17.7839C52.091 17.7731 51.6564 17.7731 51.2002 17.7623C50.0487 17.7406 49.4404 17.2857 49.3426 15.6717C49.3426 14.4478 49.3209 13.3321 49.3209 12.3897C49.3535 10.6025 49.9401 10.0609 51.0698 10.0067C51.6782 9.98506 52.1996 9.98506 52.5581 9.97423C53.8617 9.92007 54.9045 9.0427 55.1 7.42876C55.1544 6.96299 55.1544 6.37808 55.1 5.90148C54.9588 4.40669 53.916 3.37767 52.5581 3.35601C47.0722 3.26935 35.6768 3.26935 30.2453 3.35601C28.8874 3.37767 27.8119 4.38503 27.6924 5.90148C27.6707 6.32392 27.6599 6.9305 27.6924 7.42876C27.8119 8.95604 28.9091 9.94173 30.2453 9.97423C32.6569 10.0284 36.698 10.0501 40.7173 10.0501C41.8253 10.115 42.5532 10.7108 42.6183 12.4439C42.6183 13.2563 42.6075 14.1336 42.5966 15.0435H42.5858C42.5858 17.0799 41.8145 17.6973 40.5326 17.7081C39.2508 17.7298 37.9581 17.7515 36.6328 17.7731C35.264 17.7948 34.1994 18.7913 34.0799 20.3078C34.0474 20.7194 34.0474 21.3368 34.0799 21.835C34.1886 23.3515 35.2966 24.3372 36.6328 24.3697C37.3606 24.3913 39.3377 24.4238 40.7933 24.5105C42.2164 24.5755 42.5097 25.6587 42.5858 26.8935C42.6509 28.1283 42.6075 29.2981 42.6075 30.3597C42.5858 32.331 41.7276 32.8726 40.5326 32.9485C40.1633 32.9809 39.2508 32.981 38.838 32.9918C33.0697 33.2084 28.4963 37.0212 28.4963 44.2135C28.4963 51.4058 33.124 55.5544 38.838 55.5544C44.552 55.5544 48.4192 52.0341 49.234 46.0441C49.3535 45.2317 49.3752 43.6178 49.3752 41.863C49.4078 39.935 49.9618 39.6208 51.1459 39.5883C53.2968 39.5883 55.0349 39.5558 55.9039 39.5234C57.2075 39.48 58.2503 38.581 58.4459 36.9887C58.5002 36.5229 58.4893 35.938 58.4459 35.4614C58.3047 33.9666 57.2618 32.9484 55.9039 32.916L55.9148 32.9268Z" fill="#E5005A"/>
<path d="M74.0609 41.9704C75.8533 45.924 79.0688 49.8018 82.3712 53.0513C83.8485 54.492 85.0869 55.2393 86.2384 54.8927C87.4551 54.5461 88.4654 53.5496 89.0846 52.3798C89.7038 51.1991 89.0846 50.2459 87.6724 48.7403C85.9234 46.8555 82.2843 43.3677 80.8829 40.5081C80.1008 38.9375 79.3404 36.3054 79.3404 34.074C79.3404 26.2968 79.3838 10.4716 79.3078 5.90057C79.286 4.53576 78.2758 3.47424 76.7658 3.35509C76.353 3.33343 75.484 3.31177 74.9843 3.35509C73.4526 3.47424 72.464 4.56826 72.4423 5.90057C72.3337 10.3741 72.3228 26.3401 72.388 33.2833C72.4097 34.9081 72.7791 39.1108 74.0609 41.9596" fill="#E5005A"/>
<path d="M120.759 7.71222C119.846 7.69056 117.913 7.67972 116.566 7.66889C115.653 7.58224 115.132 7.09481 115.034 5.73001C115.023 4.98261 115.012 4.35437 115.001 3.8886C114.969 2.55629 113.98 1.46228 112.448 1.35396C111.96 1.32147 111.08 1.32147 110.667 1.35396C109.146 1.47311 108.147 2.52379 108.114 3.8886C108.114 4.31104 108.114 4.83097 108.103 5.43755C107.995 7.00816 107.321 7.58224 106.246 7.6364C101.401 7.6364 96.6644 7.65806 94.1007 7.71222C92.732 7.73388 91.6565 8.74124 91.5479 10.2469C91.5153 10.6693 91.5153 11.2759 91.5479 11.7741C91.6565 13.3014 92.7537 14.2763 94.1007 14.3088C96.5232 14.3738 101.336 14.4063 106.191 14.4063C107.343 14.4713 108.092 15.5328 108.082 17.0601C108.06 18.5657 108.082 30.5673 108.082 34.6725C108.082 36.9039 107.321 39.5252 106.55 41.0958C105.138 43.9446 101.509 47.4324 99.7495 49.3279C98.3482 50.8336 97.729 51.7868 98.3482 52.9674C98.9674 54.1373 99.9776 55.1338 101.183 55.4804C102.346 55.8162 103.584 55.0796 105.051 53.6282C108.375 50.3895 111.579 46.5009 113.361 42.5473C114.654 39.6877 115.023 35.4958 115.045 33.871C115.077 30.1882 115.088 18.3165 115.088 16.8867C115.088 15.457 115.61 14.4496 116.674 14.3521C118.206 14.3413 120.15 14.3304 120.759 14.2979C122.062 14.2546 123.105 13.3664 123.301 11.7633C123.366 11.2975 123.355 10.7126 123.301 10.236C123.159 8.75207 122.127 7.72305 120.759 7.70139" fill="#E5005A"/>
<path d="M230.67 3.31188C225.184 3.2144 192.182 3.2144 186.761 3.31188C185.403 3.33355 184.328 4.3409 184.219 5.84652C184.198 6.12815 184.198 6.43144 184.219 6.75639C184.328 8.28367 185.436 9.26937 186.761 9.30186C188.13 9.33436 194.04 9.36685 195.267 9.37769C196.484 9.37769 196.223 10.905 195.68 11.5657C195.137 12.2156 191.748 16.2559 190.531 18.9097C189.238 21.7693 188.901 25.9611 188.858 27.5859C188.782 30.0231 188.652 37.1287 188.804 44.6026C188.956 52.0766 193.736 55.6511 199.145 55.9435C203.338 56.1602 218.699 55.9544 219.492 55.9435C225.477 55.7811 229.204 52.4882 229.899 46.4224C230.236 43.4003 230.127 31.3662 229.964 27.7051C229.714 21.7476 226.52 17.8915 220.426 17.3282C218.905 17.1874 208.835 17.2199 207.955 17.2524C206.663 17.2849 205.609 18.1839 205.413 19.787C205.348 20.2636 205.37 20.8377 205.413 21.3143C205.555 22.7983 206.597 23.8273 207.955 23.8598C209.4 23.8814 217.189 23.7948 218.395 23.8598C219.611 23.9139 220.839 23.9898 221.882 24.6072C222.479 24.9646 223.348 25.8962 223.348 27.4668C223.348 27.4668 223.348 28.29 223.348 29.5465C223.348 31.5828 222.577 32.2003 221.295 32.2111C215.418 32.1786 205.946 32.2111 202.002 32.2652C200.634 32.2869 199.569 33.2943 199.449 34.8107C199.417 35.2332 199.417 35.8397 199.449 36.338C199.558 37.8653 200.655 38.8401 202.002 38.8835C205.717 38.9701 215.657 38.9918 221.263 38.9593C222.544 38.9701 223.327 39.5875 223.327 41.6131H223.359C223.359 43.1512 223.359 44.2452 223.348 44.4293C223.294 45.6317 223.218 46.8665 222.599 47.8955C222.24 48.4913 221.317 49.3036 219.742 49.347C215.244 49.4553 204.11 49.412 199.526 49.347C198.385 49.3361 197.114 49.022 196.375 48.1122C195.81 47.4406 195.463 46.3791 195.376 44.5268C195.3 42.6746 195.376 34.7349 195.376 34.7349C195.376 31.7453 195.376 28.9724 195.376 26.8169C195.376 24.6613 196.191 21.9642 196.962 20.3828C198.07 18.1298 202.306 13.5588 205.174 10.6233C205.815 10.0817 207.021 9.49684 208.618 9.39935C218.33 9.39935 229.106 9.36685 230.659 9.31269C231.952 9.26937 233.006 8.38116 233.201 6.76723C233.255 6.31229 233.255 6.33395 233.201 5.85736C233.06 4.36257 232.028 3.33355 230.659 3.32272" fill="#E5005A"/>
<path d="M292.559 48.4585C291.408 48.4044 280.773 48.4044 278.035 48.3719C276.894 48.361 275.841 47.8953 275.091 46.9854C274.537 46.3138 273.972 45.4148 273.896 43.5517C273.809 41.7103 273.929 29.3837 273.842 25.1485C273.82 23.7837 272.821 22.7222 271.3 22.603C270.876 22.5814 270.322 22.5705 269.812 22.603C268.291 22.7222 267.313 23.8054 267.27 25.1485C267.161 28.2139 267.107 37.9733 267.215 43.6384C267.368 51.1123 272.136 54.6976 277.557 54.9792C279.904 55.0984 291.147 55.1309 292.559 55.0659C293.863 55.0117 294.906 54.1344 295.101 52.5313C295.166 52.0655 295.144 51.4806 295.101 51.004C294.949 49.52 293.928 48.5235 292.559 48.4693" fill="#E5005A"/>
<path d="M284.846 5.06812C284.846 4.22324 284.846 3.3567 284.825 2.49016C284.803 1.16868 283.814 0.128827 282.337 0.0205088C281.924 -0.00115477 281.327 -0.0119866 280.838 0.0205088C279.35 0.139658 278.383 1.19034 278.361 2.49016C278.339 3.36753 278.318 4.3099 278.307 5.27392C278.242 6.16213 277.84 7.01784 275.884 7.05034C275.526 7.05034 274.483 7.05034 273.766 7.072C272.441 7.09366 271.398 8.06853 271.278 9.55248C271.246 9.96409 271.246 10.1916 271.278 10.679C271.398 12.1629 272.462 13.127 273.766 13.1595C274.581 13.1811 275.45 13.192 276.33 13.2028C277.937 13.3111 278.22 14.0693 278.296 14.8492C278.318 16.0082 278.328 17.3622 278.361 18.0879C278.394 19.3552 279.274 20.3734 280.838 20.5576C281.294 20.6226 281.87 20.6117 282.337 20.5576C283.782 20.4276 284.803 19.4202 284.825 18.0879C284.846 17.2106 284.846 16.0082 284.846 15.1417C284.901 14.2751 285.042 13.3653 286.758 13.2136C287.812 13.192 288.724 13.192 289.398 13.1595C290.68 13.1161 291.701 12.2388 291.896 10.679C291.94 10.2241 291.94 10.0182 291.896 9.55248C291.744 8.10102 290.745 7.09366 289.398 7.072C288.681 7.072 287.834 7.05034 287.28 7.02867C285.085 6.98535 284.89 6.02132 284.835 5.06812" fill="#E5005A"/>
<path d="M258.203 5.06812C258.192 4.22324 258.181 3.3567 258.17 2.49016C258.148 1.16868 257.171 0.128827 255.693 0.0205088C255.28 -0.00115477 254.683 -0.0119866 254.194 0.0205088C252.706 0.139658 251.75 1.19034 251.717 2.49016C251.696 3.36753 251.685 4.3099 251.663 5.27392C251.598 6.16213 251.196 7.01784 249.241 7.05034C248.882 7.05034 247.839 7.05034 247.133 7.072C245.797 7.09366 244.765 8.06853 244.646 9.55248C244.613 9.96409 244.613 10.1916 244.646 10.679C244.754 12.1629 245.819 13.127 247.133 13.1595C247.948 13.1811 248.817 13.192 249.697 13.2028C251.305 13.3111 251.598 14.0693 251.663 14.8492C251.685 16.0082 251.707 17.3622 251.728 18.0879C251.772 19.3552 252.641 20.3734 254.205 20.5576C254.661 20.6226 255.237 20.6117 255.704 20.5576C257.149 20.4276 258.159 19.4202 258.181 18.0879C258.203 17.2106 258.203 16.0082 258.214 15.1417C258.246 14.2751 258.387 13.3653 260.125 13.2136C261.179 13.192 262.092 13.192 262.765 13.1595C264.036 13.1161 265.057 12.2388 265.253 10.679C265.296 10.2241 265.285 10.0182 265.253 9.55248C265.112 8.10102 264.101 7.09366 262.765 7.072C262.048 7.072 261.19 7.05034 260.647 7.02867C258.453 6.98535 258.257 6.02132 258.214 5.06812" fill="#E5005A"/>
<path d="M261.044 23.5351C259.969 22.4411 258.502 22.387 257.449 23.221C253.19 26.6114 245.945 32.7963 243.674 34.8435C242.707 35.7101 242.468 37.0749 243.359 38.4288C243.609 38.808 244 39.2521 244.337 39.5987C245.412 40.6385 246.857 40.7685 247.932 39.9128C248.704 39.2954 249.899 38.2555 250.344 37.9306C250.779 37.6165 251.528 37.9631 251.55 38.8946C251.572 39.8261 251.561 50.5388 251.637 52.5535C251.669 53.8533 252.56 54.8932 254.179 55.099C254.646 55.164 255.232 55.1423 255.71 55.099C257.199 54.9582 258.242 53.9183 258.263 52.5535C258.35 47.5059 258.296 33.5329 258.285 32.8071C258.263 32.0922 258.709 30.8899 259.111 30.5433C259.513 30.1967 260.903 28.9944 261.739 28.2795C262.771 27.3804 262.934 25.9398 262.044 24.705C261.805 24.3584 261.414 23.8817 261.066 23.5243" fill="#E5005A"/>
<path d="M293.897 23.6455C292.832 22.5515 291.355 22.4973 290.312 23.3314C286.053 26.7217 279.557 32.1701 277.265 34.2173C276.298 35.0839 276.07 36.4378 276.961 37.8026C277.222 38.1817 277.602 38.6367 277.95 38.9616C279.014 40.0123 280.47 40.1315 281.524 39.2758C285.793 35.8312 290.464 31.9426 294.581 28.4006C295.602 27.5016 295.776 26.0501 294.874 24.8153C294.646 24.4687 294.233 24.0029 293.897 23.6455Z" fill="#E5005A"/>
<path d="M0 81.9804C0 78.7838 2.59139 76.1924 5.78804 76.1924H349.212C352.409 76.1924 355 78.7838 355 81.9804V111.885C355 115.082 352.409 117.673 349.212 117.673H5.78805C2.59141 117.673 0 115.082 0 111.885V81.9804Z" fill="#FF2978"/>
<path d="M322.424 87.3739H331.766C332.144 87.3739 333.17 87.3739 333.17 88.6429C333.17 89.6419 332.792 90.0739 331.766 90.0739H314.189C313.271 90.0739 312.812 90.5329 312.812 91.4509V97.4179C312.812 100.064 312.596 104.519 311.219 107.975C310.625 109.487 310.22 109.865 309.518 109.865C308.708 109.865 307.898 109.325 307.898 108.434C307.898 108.056 307.979 107.813 308.87 105.734C309.572 104.06 310.004 101.198 310.004 97.3909V90.9379C310.004 88.2649 311.03 87.3739 313.541 87.3739H319.454V86.0779C319.454 85.0249 320.102 84.7549 320.858 84.7549C321.533 84.7549 322.424 84.8359 322.424 86.0779V87.3739ZM320.858 99.3349V91.5319C320.858 91.1539 320.858 90.2629 322.154 90.2629C323.288 90.2629 323.639 90.6409 323.639 91.5319V93.4219H331.766C332.198 93.4219 333.143 93.4759 333.143 94.7179C333.143 95.7169 332.576 96.0139 331.766 96.0139H323.639V99.3349H328.445C330.524 99.3349 331.442 100.064 331.442 102.332V106.679C331.442 109.028 330.443 109.676 328.445 109.676H316.997C314.999 109.676 314 109.028 314 106.679V102.332C314 100.091 314.891 99.3349 316.997 99.3349H320.858ZM328.634 106.004V102.953C328.634 102.224 328.256 101.873 327.554 101.873H317.834C317.132 101.873 316.781 102.197 316.781 102.953V106.004C316.781 106.706 317.105 107.084 317.834 107.084H327.554C328.283 107.084 328.634 106.706 328.634 106.004Z" fill="white"/>
<path d="M290.619 92.7737C290.241 93.9887 289.728 95.6627 288.783 98.1467C289.836 97.5797 292.698 96.0137 296.559 96.0137C302.337 96.0137 304.227 99.3887 304.227 102.116C304.227 103.655 303.633 106.382 300.393 107.867C298.314 108.812 295.074 109.136 292.536 109.136C290.484 109.136 288.135 108.947 287.19 108.677C286.731 108.542 286.299 108.137 286.299 107.354C286.299 106.571 286.839 106.004 287.568 106.004C287.838 106.004 288.054 106.004 288.621 106.085C289.89 106.247 290.943 106.355 292.428 106.355C293.778 106.355 301.203 106.355 301.203 102.008C301.203 100.766 300.447 98.6057 296.397 98.6057C292.941 98.6057 289.755 100.253 288.27 101.198C287.055 101.981 286.893 102.062 286.542 102.062C285.732 102.062 284.976 101.441 284.976 100.685C284.976 100.334 285.408 99.3887 285.732 98.6327C286.029 97.8767 286.866 95.7707 287.73 92.8277C282.924 92.8547 282.168 92.8547 282.168 91.2887C282.168 90.8027 282.357 89.9117 283.491 89.9117C284.139 89.9117 286.974 90.0467 287.541 90.0467H288.486C288.621 89.4797 289.161 87.0227 289.296 86.5367C289.458 85.9157 289.674 85.4297 290.673 85.4297C291.429 85.4297 292.239 85.7807 292.239 86.5637C292.239 87.0497 291.645 89.2097 291.429 89.9657C295.398 89.8037 298.53 89.2907 299.799 89.0747C301.689 88.7507 301.905 88.7237 302.202 88.7237C303.498 88.7237 303.498 90.0737 303.498 90.2087C303.498 91.2887 302.715 91.4777 301.338 91.7207C296.775 92.5037 291.321 92.7467 290.619 92.7737Z" fill="white"/>
<path d="M268.533 92.0447V94.7177C269.532 94.6907 273.906 94.5017 274.797 94.5017C275.229 94.5017 276.417 94.5017 276.417 95.9327C276.417 97.2017 275.445 97.2557 275.04 97.2827C273.528 97.3907 270.207 97.4447 268.56 97.4717L268.587 101.117C270.585 101.576 273.609 102.845 275.283 103.844C276.39 104.492 276.579 104.978 276.579 105.464C276.579 106.382 275.904 107.111 275.148 107.111C274.797 107.111 274.365 106.868 273.015 106.058C271.233 104.978 269.316 104.276 268.587 104.033C268.533 106.004 268.506 109.217 262.944 109.217C259.218 109.217 256.896 107.489 256.896 104.924C256.896 104.465 256.896 100.523 263.511 100.523C264.159 100.523 265.077 100.577 265.617 100.631V97.5257C260.46 97.5797 258.867 97.5527 258.624 97.5527C257.949 97.5257 257.004 97.4717 257.004 96.1217C257.004 94.7447 258.084 94.7447 258.705 94.7447C259.785 94.7447 264.618 94.7717 265.59 94.7447L265.563 92.0717C263.619 92.0987 259.542 92.1257 257.733 92.0717C257.004 92.0447 256.059 92.0177 256.059 90.6677C256.059 89.2637 257.139 89.2637 257.814 89.2637C259.029 89.2637 264.456 89.3177 265.563 89.3177L265.536 86.8607C265.536 86.1857 265.833 85.5107 266.967 85.5107C267.399 85.5107 268.506 85.5107 268.506 86.8607V89.2907C269.694 89.2907 274.932 89.1017 276.012 89.1017C276.363 89.1017 277.524 89.1017 277.524 90.4787C277.524 91.8287 276.444 91.8557 276.093 91.8827C272.934 91.9907 271.989 91.9907 268.533 92.0447ZM265.644 103.25C265.239 103.196 264.564 103.088 263.511 103.088C260.298 103.088 259.704 104.222 259.704 104.951C259.704 106.193 261.189 106.679 262.647 106.679C265.644 106.679 265.644 105.383 265.644 103.25Z" fill="white"/>
<path d="M242.854 100.415C242.827 99.7129 242.638 96.3109 242.638 95.5549C242.638 94.9609 242.854 94.1239 243.988 94.1239C244.204 94.1239 245.365 94.1509 245.5 95.3659C245.554 96.0139 245.716 100.091 245.743 101.252C247.606 101.954 249.118 102.737 250.09 103.385C250.846 103.871 251.116 104.195 251.116 104.789C251.116 105.572 250.576 106.49 249.685 106.49C249.442 106.49 249.118 106.301 248.092 105.653C247.363 105.194 246.391 104.681 245.824 104.411C245.824 106.139 245.635 109.217 240.451 109.217C236.941 109.217 234.403 107.516 234.403 104.654C234.403 102.386 236.158 100.118 240.127 100.118C241.207 100.118 241.99 100.253 242.854 100.415ZM242.935 103.223C242.503 103.088 241.342 102.737 239.992 102.737C237.886 102.737 237.076 103.628 237.076 104.627C237.076 106.112 238.777 106.625 240.154 106.625C240.937 106.625 242.746 106.463 242.908 105.032C242.962 104.6 242.935 104.276 242.935 103.223ZM236.185 92.5579C235.213 95.3929 233.62 99.3079 232.324 101.954C231.244 104.168 230.893 104.681 230.002 104.681C229.246 104.681 228.328 104.168 228.328 103.25C228.328 102.791 228.463 102.602 229.354 100.982C229.867 100.064 231.622 96.4459 232.945 92.7739C231.703 92.8279 230.812 92.8279 230.758 92.8279C229.705 92.8279 228.463 92.8279 228.463 91.2889C228.463 89.8579 229.516 89.8579 230.11 89.8579C230.92 89.8579 233.242 89.8579 233.917 89.8309C234.079 89.3179 234.7 86.9689 234.862 86.5099C235.159 85.5379 235.915 85.4839 236.239 85.4839C236.914 85.4839 237.913 85.8079 237.913 86.6989C237.913 87.2119 237.373 88.9129 237.157 89.5609C237.616 89.5069 239.641 89.1829 240.073 89.1829C240.937 89.1829 241.261 89.8579 241.261 90.5869C241.261 91.9639 240.775 92.0719 236.185 92.5579ZM244.42 89.4259C245.176 89.4259 247.174 90.3979 248.956 91.2889C250.522 92.0719 251.143 92.4229 251.143 93.2599C251.143 94.0699 250.63 94.8799 249.901 94.8799C249.442 94.8799 249.226 94.7989 247.606 93.8539C246.58 93.2599 244.366 92.2879 243.853 92.0719C243.232 91.8019 242.962 91.4509 242.962 90.9109C242.962 89.9929 243.691 89.4259 244.42 89.4259Z" fill="white"/>
<path d="M202.924 92.4227L207.919 91.8287C208.081 91.0457 208.702 87.5627 208.837 86.8607C208.945 86.3477 209.107 85.6997 210.241 85.6997C211.24 85.6997 211.78 86.2127 211.78 86.8337C211.78 87.4277 211.294 89.6687 210.889 91.5047C217.261 91.0997 218.341 94.3397 218.341 98.9027C218.341 107.921 215.533 108.812 212.401 108.812C209.809 108.812 208.945 108.353 208.945 107.165C208.945 106.274 209.431 105.734 210.106 105.734C210.511 105.734 211.672 105.95 212.158 105.95C213.643 105.95 215.398 105.707 215.398 98.8217C215.398 96.1217 215.236 94.1777 211.969 94.1777C211.456 94.1777 210.97 94.2047 210.214 94.2587C208.513 100.55 207.028 104.033 205.705 106.544C204.895 108.056 204.517 108.731 203.734 108.731C203.059 108.731 202.087 108.272 202.087 107.327C202.087 107.003 202.33 106.571 203.005 105.356C204.652 102.413 206.137 98.6597 207.217 94.5827C206.461 94.6907 202.789 95.2847 202.465 95.2847C201.682 95.2847 201.223 94.6637 201.223 93.8537C201.223 92.7197 201.952 92.5307 202.924 92.4227ZM219.178 88.9127C220.204 88.9127 221.284 90.4787 222.229 92.0447C224.011 95.0147 224.767 98.3627 224.767 99.6587C224.767 100.631 224.119 101.117 223.12 101.117C222.013 101.117 221.905 100.739 221.635 99.0377C221.365 97.3907 220.447 94.3397 218.503 91.7207C217.801 90.7757 217.666 90.5597 217.666 90.1817C217.666 89.5607 218.314 88.9127 219.178 88.9127Z" fill="white"/>
<path d="M174.734 106.922V95.2039C174.734 93.1519 175.166 92.4229 177.434 92.4229H178.433V91.1809C178.433 90.9109 178.433 89.8039 179.621 89.8039C180.62 89.8039 180.836 90.5329 180.836 91.1809V92.4229H181.754C183.887 92.4229 183.968 93.7999 183.968 95.2039V99.4429C183.968 101.684 183.374 102.224 181.484 102.224H177.191V106.328C177.65 106.22 178.109 106.112 178.757 105.95C179.081 105.869 180.458 105.491 180.728 105.41C180.161 104.303 180.053 104.06 180.053 103.763C180.053 103.115 180.728 102.656 181.43 102.656C182.132 102.656 182.348 103.034 182.996 104.195C183.023 104.276 184.643 107.246 184.643 108.056C184.643 108.785 183.941 109.271 183.212 109.271C182.483 109.271 182.267 108.866 182.159 108.623C182.078 108.434 181.781 107.651 181.7 107.489C180.944 107.759 175.112 109.622 174.194 109.622C173.6 109.622 173.06 109.001 173.06 108.245C173.06 107.327 173.519 107.192 174.734 106.922ZM177.191 95.3389V96.3379H181.673V95.3389C181.673 94.8259 181.43 94.5559 180.89 94.5559H177.947C177.38 94.5559 177.191 94.8529 177.191 95.3389ZM181.673 99.2809V98.2819H177.191V100.037H180.89C181.403 100.037 181.673 99.7939 181.673 99.2809ZM188.963 87.6979H196.955C197.36 87.6979 198.359 87.7249 198.359 89.0209C198.359 90.2629 197.495 90.3709 196.955 90.3709H192.554V93.6649H194.606C196.847 93.6649 197.414 94.2049 197.414 96.4729V105.383C197.414 107.678 195.983 107.678 194.525 107.678C194.039 107.678 192.986 107.678 192.986 106.193C192.986 105.167 193.472 105.059 194.282 105.005C194.876 104.951 195.038 104.951 195.038 104.303V96.9319C195.038 96.4459 194.822 96.1759 194.282 96.1759H192.554V109.109C192.554 109.46 192.554 110.378 191.312 110.378C190.097 110.378 190.043 109.541 190.043 109.109V96.1759H188.369C187.856 96.1759 187.613 96.4189 187.613 96.9319V106.598C187.613 106.922 187.613 107.84 186.533 107.84C185.669 107.84 185.318 107.489 185.318 106.598V96.4729C185.318 94.2589 185.831 93.6649 188.099 93.6649H190.043V90.3709H187.667C186.236 92.9359 185.804 93.0439 185.318 93.0439C184.589 93.0439 183.941 92.4499 183.941 91.8019C183.941 91.4239 184.022 91.2889 184.886 90.0469C185.642 88.9939 186.56 86.6989 186.83 85.9429C187.073 85.3219 187.289 84.7549 188.126 84.7549C188.504 84.7549 189.584 84.9439 189.584 85.8349C189.584 86.2399 189.368 86.7259 188.963 87.6979ZM179.837 87.5089C179.648 87.5089 179.621 87.5629 179.432 87.8599C178.325 89.5069 177.11 90.9109 175.868 91.9639C174.842 92.8549 174.545 92.9629 174.194 92.9629C173.411 92.9629 172.844 92.1259 172.844 91.4779C172.844 90.9649 173.168 90.6949 173.6 90.3709C175.679 88.8589 176.543 87.7519 177.812 86.0239C178.271 85.4029 178.622 84.8899 179.81 84.8899C180.809 84.8899 181.052 85.1599 182.078 86.2669C182.996 87.2659 183.239 87.4549 184.481 88.3999C184.886 88.7239 185.021 88.9939 185.021 89.3449C185.021 90.1819 184.346 90.8839 183.59 90.8839C183.239 90.8839 183.131 90.8839 181.673 89.4799C181.052 88.8859 180.377 88.0219 180.269 87.8599C180.08 87.6169 179.999 87.5089 179.837 87.5089Z" fill="white"/>
<path d="M154.834 99.4967H168.037C168.658 99.4967 169.198 99.6587 169.63 99.9287C170.251 100.334 170.494 100.928 170.494 102.143C170.494 102.845 170.305 107.354 169.63 108.758C169.009 110.081 167.821 110.081 165.553 110.081C164.122 110.081 163.15 110.081 163.15 108.461C163.15 107.327 163.96 107.327 164.419 107.327C164.662 107.327 165.688 107.381 165.904 107.381C166.957 107.381 167.254 107.111 167.416 105.761C167.551 104.789 167.659 102.629 167.659 102.494C167.659 102.197 167.659 101.576 166.822 101.576H153.16C152.863 101.9 152.512 102.224 152.053 102.629V103.79C153.025 103.709 155.941 103.358 158.128 102.953C158.641 102.845 161.044 102.251 161.395 102.251C162.34 102.251 162.34 103.277 162.34 103.493C162.34 104.222 162.205 104.249 160.18 104.708C158.533 105.086 155.374 105.491 152.053 105.761C152.053 107.084 152.134 107.084 154.618 107.084C155.455 107.084 159.694 107.084 160.099 107.003C160.612 106.922 160.666 106.814 161.098 105.68C161.206 105.41 161.395 104.951 162.151 104.951C162.286 104.951 163.582 104.951 163.582 106.058C163.582 106.49 163.258 108.299 162.259 108.893C161.773 109.19 161.665 109.217 156.157 109.217C155.212 109.217 151.297 109.217 150.838 109.109C149.353 108.812 149.299 107.516 149.299 106.409V104.627C148.111 105.329 147.76 105.437 147.409 105.437C146.41 105.437 146.059 104.492 146.059 103.952C146.059 103.169 146.626 102.872 148.138 102.089C148.894 101.711 150.784 100.496 152.08 98.5247H151.594C149.461 98.5247 148.786 98.0657 148.786 95.7977V93.0437C148.786 90.8027 149.407 90.2897 151.594 90.2897H153.106C152.755 90.0737 152.674 89.8847 152.674 89.4257V88.8857H147.436C146.896 88.8857 146.059 88.8047 146.059 87.6977C146.059 86.7797 146.626 86.5097 147.436 86.5097H152.674V85.9427C152.674 85.6457 152.674 84.7817 153.97 84.7817C154.996 84.7817 155.401 85.1057 155.401 85.9427V86.5097H161.935V85.9427C161.935 85.6187 161.935 84.7817 163.231 84.7817C164.284 84.7817 164.689 85.1057 164.689 85.9427V86.5097H169.981C170.413 86.5097 171.358 86.5637 171.358 87.6977C171.358 88.6157 170.764 88.8857 169.981 88.8857H164.689V89.4257C164.689 89.9927 164.473 90.1277 164.23 90.2897H165.823C167.983 90.2897 168.604 90.8027 168.604 93.0437V95.7977C168.604 98.0657 167.956 98.5247 165.823 98.5247H155.428C155.104 99.0647 154.996 99.2267 154.834 99.4967ZM151.594 93.5297H165.796V92.9357C165.796 92.5037 165.634 92.1797 165.067 92.1797H152.323C151.702 92.1797 151.594 92.5577 151.594 92.9357V93.5297ZM161.935 89.4257V88.8857H155.401V89.4257C155.401 89.8847 155.239 90.1007 154.969 90.2897H162.34C162.097 90.1007 161.935 89.9927 161.935 89.4257ZM165.796 95.2307H151.594V95.9597C151.594 96.4187 151.783 96.7157 152.323 96.7157H165.067C165.58 96.7157 165.796 96.4187 165.796 95.9597V95.2307Z" fill="white"/>
<path d="M122.599 104.141C122.761 104.141 123.814 104.573 124.03 104.654C124.651 104.897 125.785 105.302 127.216 105.302C129.538 105.302 131.644 104.249 131.644 101.981C131.644 99.6321 129.565 98.9031 127.594 98.2011C125.11 97.3371 121.897 96.1491 121.897 92.2071C121.897 88.8321 124.462 85.9971 128.647 85.9971C130.78 85.9971 132.589 86.7531 132.94 86.9691C133.48 87.2931 133.669 87.6981 133.669 88.2381C133.669 89.0751 133.048 89.7771 132.346 89.7771C132.103 89.7771 131.806 89.6691 131.212 89.4531C130.375 89.1291 129.592 88.9671 128.728 88.9671C126.136 88.9671 125.137 90.6951 125.137 92.0721C125.137 94.1241 126.838 94.7181 128.782 95.3661C131.59 96.3381 134.911 97.4991 134.911 101.765C134.911 105.815 131.617 108.272 127.351 108.272C126.325 108.272 124.273 108.137 122.167 107.111C121.681 106.868 121.168 106.517 121.168 105.707C121.168 104.951 121.681 104.141 122.599 104.141Z" fill="white"/>
<path d="M114.41 106.706V87.5361C114.41 86.2401 115.274 85.9971 116.03 85.9971C117.083 85.9971 117.704 86.4291 117.704 87.5361V106.706C117.704 107.651 117.245 108.272 116.084 108.272C115.301 108.272 114.41 108.056 114.41 106.706Z" fill="white"/>
<path d="M90.06 95.7171L97.917 87.0771C97.998 86.9961 98.349 86.5371 98.43 86.4561C98.808 86.0781 99.186 85.9971 99.483 85.9971C100.347 85.9971 101.211 86.6451 101.211 87.4281C101.211 87.8061 100.914 88.2651 100.671 88.5081L93.354 96.2301L101.373 105.491C101.751 105.923 102.048 106.301 102.048 106.787C102.048 107.732 100.968 108.272 100.266 108.272C99.564 108.272 99.213 107.813 98.673 107.165L90.06 96.7701V106.733C90.06 107.678 89.574 108.272 88.44 108.272C87.441 108.272 86.793 107.867 86.793 106.733V87.5091C86.793 86.5911 87.252 85.9971 88.413 85.9971C89.439 85.9971 90.06 86.4021 90.06 87.5091V95.7171Z" fill="white"/>
<path d="M78.1497 98.4977L83.1448 105.41C83.5768 106.004 83.7928 106.409 83.7928 106.841C83.7928 107.732 82.7937 108.272 82.0107 108.272C81.2817 108.272 81.0387 107.867 80.5798 107.192L74.6938 98.6327H73.1818V106.76C73.1818 107.111 73.1817 108.272 71.5887 108.272C70.4817 108.272 69.9688 107.786 69.9688 106.76V89.6687C69.9688 88.5347 69.9687 86.4287 73.0737 86.4287H76.0978C77.3668 86.4287 78.8787 86.4557 80.2827 87.1847C82.3887 88.2647 83.3608 90.3977 83.3608 92.5847C83.3608 94.7717 82.4158 96.3647 81.1468 97.3367C80.0668 98.1737 79.1218 98.3357 78.1497 98.4977ZM73.1818 95.8247H75.8008C76.6918 95.8247 80.0938 95.8247 80.0938 92.6387C80.0938 89.3987 77.3938 89.3987 75.8278 89.3987H74.1268C73.4788 89.3987 73.1818 89.5607 73.1818 90.3437V95.8247Z" fill="white"/>
<path d="M52.7323 102.278L51.1123 106.706C50.7343 107.732 50.5453 108.272 49.5463 108.272C48.7903 108.272 47.6562 107.921 47.6562 106.922C47.6562 106.679 47.7102 106.409 48.0072 105.626L54.6763 88.2111C55.0543 87.2121 55.5403 85.9971 57.3493 85.9971C59.2123 85.9971 59.6713 87.1581 60.0763 88.2111L66.7453 105.626C66.9613 106.22 67.0963 106.571 67.0963 106.922C67.0963 107.894 65.9892 108.272 65.2332 108.272C64.1802 108.272 63.9643 107.678 63.6133 106.706L62.0203 102.278H52.7323ZM53.7583 99.4971H60.9943L57.3763 89.5881L53.7583 99.4971Z" fill="white"/>
<path d="M33.6087 103.844L38.6037 88.5081C39.0897 87.0231 39.4137 85.9971 41.1417 85.9971C43.3287 85.9971 43.5717 87.6711 43.6797 88.5081L46.1367 105.95C46.1907 106.409 46.2447 106.652 46.2447 106.895C46.2447 108.218 44.7867 108.272 44.4897 108.272C43.1667 108.272 43.0587 107.516 42.9237 106.463L40.8717 90.9111L35.8227 106.463C35.5797 107.246 35.2557 108.272 33.6357 108.272C31.9617 108.272 31.6647 107.3 31.3947 106.463L26.3457 90.9111L24.2937 106.463C24.1587 107.489 24.0507 108.272 22.7277 108.272C22.1877 108.272 20.9727 108.11 20.9727 106.922C20.9727 106.652 21.0267 106.355 21.0807 105.977L23.5377 88.5081C23.6727 87.5901 23.8887 85.9971 26.0487 85.9971C27.8037 85.9971 28.1277 86.9961 28.6137 88.5081L33.6087 103.844Z" fill="white"/>
<path d="M302.928 154.376L307.66 150.996C308.804 152.002 310.017 153.111 311.3 154.324C312.617 155.538 313.917 156.786 315.2 158.068C316.483 159.316 317.679 160.53 318.788 161.708C319.897 162.887 320.833 163.962 321.596 164.932L316.448 168.988C315.755 168.018 314.871 166.926 313.796 165.712C312.756 164.499 311.612 163.234 310.364 161.916C309.151 160.564 307.885 159.264 306.568 158.016C305.285 156.734 304.072 155.52 302.928 154.376ZM303.032 131.236H309.48V143.716C309.48 145.45 309.359 147.252 309.116 149.124C308.908 150.962 308.509 152.834 307.92 154.74C307.365 156.612 306.551 158.467 305.476 160.304C304.436 162.107 303.084 163.84 301.42 165.504C299.791 167.134 297.797 168.659 295.44 170.08C295.128 169.63 294.712 169.11 294.192 168.52C293.672 167.931 293.117 167.359 292.528 166.804C291.973 166.215 291.436 165.73 290.916 165.348C293.169 164.204 295.041 162.939 296.532 161.552C298.023 160.166 299.201 158.727 300.068 157.236C300.935 155.711 301.576 154.168 301.992 152.608C302.408 151.048 302.685 149.523 302.824 148.032C302.963 146.507 303.032 145.068 303.032 143.716V131.236ZM284.832 139.92H324.3V146.004H291.072V180.22H284.832V139.92ZM321.596 139.92H327.784V172.992C327.784 174.656 327.576 175.956 327.16 176.892C326.744 177.863 325.981 178.591 324.872 179.076C323.797 179.562 322.428 179.856 320.764 179.96C319.1 180.099 317.107 180.168 314.784 180.168C314.715 179.579 314.559 178.903 314.316 178.14C314.108 177.378 313.865 176.632 313.588 175.904C313.311 175.176 313.016 174.535 312.704 173.98C313.744 174.015 314.784 174.05 315.824 174.084C316.864 174.084 317.783 174.084 318.58 174.084C319.412 174.084 319.984 174.084 320.296 174.084C320.781 174.05 321.111 173.963 321.284 173.824C321.492 173.651 321.596 173.339 321.596 172.888V139.92Z" fill="#DD1760"/>
<path d="M251.033 131.289H257.325V138.257H251.033V131.289ZM250.929 159.681H257.169V180.065H250.929V159.681ZM231.897 134.773H276.617V142.729H270.637V139.869H237.669V142.729H231.897V134.773ZM231.533 143.717H276.981V148.605H231.533V143.717ZM230.597 163.217H277.969V168.365H230.597V163.217ZM248.537 139.609L254.361 141.273C253.252 142.833 252.056 144.462 250.773 146.161C249.49 147.825 248.242 149.437 247.029 150.997C245.816 152.522 244.689 153.874 243.649 155.053L237.773 153.441C238.848 152.227 240.009 150.841 241.257 149.281C242.54 147.686 243.822 146.057 245.105 144.393C246.388 142.694 247.532 141.099 248.537 139.609ZM241.933 153.753L245.365 150.009C247.653 150.425 250.132 150.945 252.801 151.569C255.47 152.158 258.14 152.799 260.809 153.493C263.513 154.186 266.061 154.897 268.453 155.625C270.88 156.353 272.994 157.063 274.797 157.757L271.105 162.125C269.476 161.431 267.5 160.703 265.177 159.941C262.854 159.178 260.358 158.415 257.689 157.653C255.02 156.89 252.333 156.179 249.629 155.521C246.925 154.827 244.36 154.238 241.933 153.753ZM249.369 166.181L253.997 168.261C252.402 169.994 250.478 171.606 248.225 173.097C246.006 174.553 243.597 175.835 240.997 176.945C238.432 178.054 235.814 178.938 233.145 179.597C232.902 179.077 232.556 178.505 232.105 177.881C231.654 177.257 231.186 176.633 230.701 176.009C230.216 175.419 229.748 174.934 229.297 174.553C231.897 174.102 234.48 173.461 237.045 172.629C239.61 171.797 241.95 170.843 244.065 169.769C246.214 168.659 247.982 167.463 249.369 166.181ZM258.729 166.077C260.185 167.325 262.005 168.503 264.189 169.613C266.408 170.687 268.817 171.623 271.417 172.421C274.052 173.218 276.704 173.825 279.373 174.241C278.922 174.691 278.437 175.229 277.917 175.853C277.397 176.477 276.912 177.101 276.461 177.725C276.045 178.383 275.681 178.99 275.369 179.545C272.734 178.886 270.1 178.002 267.465 176.893C264.865 175.783 262.421 174.483 260.133 172.993C257.845 171.467 255.869 169.821 254.205 168.053L258.729 166.077ZM262.109 146.629H268.609C267.95 148.535 267.101 150.234 266.061 151.725C265.021 153.215 263.669 154.533 262.005 155.677C260.376 156.821 258.33 157.809 255.869 158.641C253.442 159.438 250.513 160.114 247.081 160.669C243.649 161.223 239.593 161.657 234.913 161.969C234.809 161.275 234.532 160.461 234.081 159.525C233.665 158.589 233.266 157.791 232.885 157.133C237.184 156.925 240.876 156.63 243.961 156.249C247.046 155.833 249.629 155.347 251.709 154.793C253.824 154.203 255.54 153.527 256.857 152.765C258.209 151.967 259.284 151.066 260.081 150.061C260.913 149.055 261.589 147.911 262.109 146.629Z" fill="#DD1760"/>
<path d="M219.572 140.18C219.364 140.492 219.052 140.978 218.636 141.636C218.255 142.295 217.96 142.902 217.752 143.456C217.024 145.086 216.123 146.906 215.048 148.916C214.008 150.927 212.812 152.955 211.46 155C210.143 157.011 208.739 158.9 207.248 160.668C205.307 162.852 203.158 165.019 200.8 167.168C198.478 169.283 196.016 171.242 193.416 173.044C190.851 174.812 188.216 176.338 185.512 177.62L180.156 172.004C182.964 170.93 185.686 169.578 188.32 167.948C190.955 166.319 193.399 164.551 195.652 162.644C197.906 160.738 199.847 158.883 201.476 157.08C202.62 155.763 203.695 154.359 204.7 152.868C205.74 151.378 206.659 149.904 207.456 148.448C208.254 146.958 208.843 145.588 209.224 144.34C208.878 144.34 208.254 144.34 207.352 144.34C206.451 144.34 205.394 144.34 204.18 144.34C203.002 144.34 201.754 144.34 200.436 144.34C199.119 144.34 197.854 144.34 196.64 144.34C195.462 144.34 194.422 144.34 193.52 144.34C192.619 144.34 191.978 144.34 191.596 144.34C190.868 144.34 190.106 144.375 189.308 144.444C188.511 144.479 187.748 144.531 187.02 144.6C186.327 144.635 185.79 144.67 185.408 144.704V137.32C185.928 137.355 186.57 137.407 187.332 137.476C188.095 137.546 188.858 137.598 189.62 137.632C190.418 137.667 191.076 137.684 191.596 137.684C192.047 137.684 192.758 137.684 193.728 137.684C194.699 137.684 195.808 137.684 197.056 137.684C198.304 137.684 199.587 137.684 200.904 137.684C202.256 137.684 203.539 137.684 204.752 137.684C206 137.684 207.075 137.684 207.976 137.684C208.878 137.684 209.536 137.684 209.952 137.684C211.096 137.684 212.136 137.615 213.072 137.476C214.043 137.338 214.788 137.182 215.308 137.008L219.572 140.18ZM207.924 156.352C209.276 157.427 210.715 158.675 212.24 160.096C213.766 161.518 215.274 162.991 216.764 164.516C218.255 166.042 219.624 167.515 220.872 168.936C222.155 170.323 223.23 171.536 224.096 172.576L218.168 177.724C216.886 175.956 215.412 174.119 213.748 172.212C212.119 170.306 210.386 168.416 208.548 166.544C206.746 164.638 204.908 162.835 203.036 161.136L207.924 156.352Z" fill="#DD1760"/>
<path d="M138.871 168.52C138.871 167.792 138.871 166.752 138.871 165.4C138.871 164.014 138.871 162.454 138.871 160.72C138.871 158.952 138.871 157.115 138.871 155.208C138.871 153.267 138.871 151.378 138.871 149.54C138.871 147.668 138.871 145.935 138.871 144.34C138.871 142.746 138.871 141.411 138.871 140.336C138.871 139.782 138.854 139.14 138.819 138.412C138.819 137.684 138.784 136.956 138.715 136.228C138.646 135.5 138.559 134.876 138.455 134.356H146.203C146.099 135.154 145.995 136.142 145.891 137.32C145.787 138.464 145.735 139.47 145.735 140.336C145.735 141.376 145.735 142.624 145.735 144.08C145.735 145.502 145.735 147.044 145.735 148.708C145.735 150.338 145.735 152.002 145.735 153.7C145.735 155.399 145.735 157.063 145.735 158.692C145.735 160.322 145.735 161.812 145.735 163.164C145.735 164.516 145.735 165.695 145.735 166.7C145.735 167.74 145.891 168.59 146.203 169.248C146.515 169.907 147.139 170.375 148.075 170.652C149.046 170.93 150.484 171.068 152.391 171.068C154.228 171.068 156.066 170.999 157.903 170.86C159.775 170.687 161.63 170.479 163.467 170.236C165.304 169.959 167.072 169.647 168.771 169.3L168.563 176.372C167.142 176.58 165.53 176.771 163.727 176.944C161.924 177.118 160.052 177.256 158.111 177.36C156.204 177.464 154.315 177.516 152.443 177.516C149.496 177.516 147.122 177.326 145.319 176.944C143.516 176.598 142.147 176.06 141.211 175.332C140.31 174.604 139.686 173.668 139.339 172.524C139.027 171.38 138.871 170.046 138.871 168.52ZM171.631 145.64C171.388 146.022 171.094 146.49 170.747 147.044C170.435 147.564 170.158 148.05 169.915 148.5C169.36 149.575 168.65 150.788 167.783 152.14C166.951 153.492 166.05 154.879 165.079 156.3C164.108 157.722 163.103 159.074 162.063 160.356C161.058 161.639 160.087 162.731 159.151 163.632L153.431 160.252C154.575 159.247 155.684 158.103 156.759 156.82C157.868 155.503 158.856 154.22 159.723 152.972C160.59 151.69 161.266 150.615 161.751 149.748C161.266 149.818 160.416 149.991 159.203 150.268C158.024 150.511 156.568 150.806 154.835 151.152C153.102 151.499 151.212 151.88 149.167 152.296C147.122 152.678 145.059 153.076 142.979 153.492C140.899 153.908 138.888 154.324 136.947 154.74C135.006 155.122 133.255 155.486 131.695 155.832C130.135 156.144 128.887 156.404 127.951 156.612L126.703 149.8C127.708 149.662 129.026 149.471 130.655 149.228C132.284 148.951 134.104 148.639 136.115 148.292C138.126 147.911 140.223 147.512 142.407 147.096C144.591 146.68 146.758 146.264 148.907 145.848C151.056 145.432 153.067 145.051 154.939 144.704C156.811 144.323 158.44 143.994 159.827 143.716C161.214 143.404 162.254 143.162 162.947 142.988C163.675 142.815 164.351 142.642 164.975 142.468C165.599 142.26 166.154 142.035 166.639 141.792L171.631 145.64Z" fill="#DD1760"/>
<path d="M118.953 143.092C118.676 143.578 118.381 144.167 118.069 144.86C117.757 145.519 117.48 146.178 117.237 146.836C116.786 148.362 116.145 150.112 115.313 152.088C114.516 154.03 113.51 156.058 112.297 158.172C111.118 160.252 109.749 162.263 108.189 164.204C105.693 167.186 102.781 169.89 99.453 172.316C96.1596 174.743 92.069 176.927 87.181 178.868L81.045 173.356C84.581 172.316 87.6316 171.12 90.197 169.768C92.7623 168.416 94.9983 166.978 96.905 165.452C98.8116 163.892 100.51 162.246 102.001 160.512C103.214 159.16 104.324 157.635 105.329 155.936C106.334 154.203 107.201 152.487 107.929 150.788C108.657 149.09 109.142 147.599 109.385 146.316H91.861L94.253 140.44C94.7383 140.44 95.4836 140.44 96.489 140.44C97.529 140.44 98.6903 140.44 99.973 140.44C101.29 140.44 102.573 140.44 103.821 140.44C105.104 140.44 106.213 140.44 107.149 140.44C108.12 140.44 108.778 140.44 109.125 140.44C109.922 140.44 110.72 140.388 111.517 140.284C112.349 140.18 113.06 140.024 113.649 139.816L118.953 143.092ZM102.001 134.876C101.377 135.778 100.77 136.748 100.181 137.788C99.5916 138.828 99.141 139.626 98.829 140.18C97.6503 142.26 96.1943 144.427 94.461 146.68C92.7623 148.899 90.821 151.066 88.637 153.18C86.453 155.26 84.1303 157.167 81.669 158.9L75.793 154.584C78.081 153.163 80.0916 151.707 81.825 150.216C83.593 148.726 85.1183 147.252 86.401 145.796C87.6836 144.306 88.7756 142.884 89.677 141.532C90.613 140.146 91.4103 138.915 92.069 137.84C92.485 137.182 92.9183 136.332 93.369 135.292C93.8196 134.218 94.1663 133.247 94.409 132.38L102.001 134.876Z" fill="#DD1760"/>
<path d="M72.4559 140.233C72.1785 140.579 71.8319 141.03 71.4159 141.585C70.9999 142.105 70.6705 142.555 70.4279 142.937C69.6305 144.289 68.5732 145.849 67.2559 147.617C65.9385 149.35 64.4825 151.083 62.8879 152.817C61.2932 154.515 59.6465 155.971 57.9479 157.185L52.5399 152.869C53.5799 152.245 54.6025 151.517 55.6079 150.685C56.6132 149.853 57.5319 148.986 58.3639 148.085C59.2305 147.149 59.9759 146.265 60.5999 145.433C61.2585 144.601 61.7612 143.855 62.1079 143.197C61.6572 143.197 60.8945 143.197 59.8199 143.197C58.7452 143.197 57.4625 143.197 55.9719 143.197C54.4812 143.197 52.8692 143.197 51.1359 143.197C49.4372 143.197 47.7385 143.197 46.0399 143.197C44.3412 143.197 42.7292 143.197 41.2039 143.197C39.7132 143.197 38.4132 143.197 37.3039 143.197C36.2292 143.197 35.4665 143.197 35.0159 143.197C33.9412 143.197 32.9185 143.231 31.9479 143.301C30.9772 143.37 29.8852 143.457 28.6719 143.561V136.333C29.6772 136.471 30.7172 136.593 31.7919 136.697C32.8665 136.801 33.9412 136.853 35.0159 136.853C35.4665 136.853 36.2639 136.853 37.4079 136.853C38.5519 136.853 39.9039 136.853 41.4639 136.853C43.0585 136.853 44.7399 136.853 46.5079 136.853C48.3105 136.853 50.0959 136.853 51.8639 136.853C53.6665 136.853 55.3305 136.853 56.8559 136.853C58.4159 136.853 59.7332 136.853 60.8079 136.853C61.9172 136.853 62.6625 136.853 63.0439 136.853C63.5292 136.853 64.1185 136.835 64.8119 136.801C65.5052 136.766 66.1812 136.714 66.8399 136.645C67.5332 136.575 68.0359 136.489 68.3479 136.385L72.4559 140.233ZM51.2399 147.253C51.2399 149.818 51.1879 152.297 51.0839 154.689C50.9799 157.081 50.6852 159.386 50.1999 161.605C49.7492 163.789 49.0039 165.869 47.9639 167.845C46.9585 169.821 45.5545 171.693 43.7519 173.461C41.9492 175.229 39.6439 176.858 36.8359 178.349L30.7519 173.409C31.5839 173.131 32.4679 172.767 33.4039 172.317C34.3399 171.831 35.2759 171.242 36.2119 170.549C37.8759 169.405 39.2105 168.191 40.2159 166.909C41.2559 165.626 42.0532 164.239 42.6079 162.749C43.1625 161.223 43.5439 159.577 43.7519 157.809C43.9599 156.006 44.0639 154.047 44.0639 151.933C44.0639 151.135 44.0465 150.373 44.0119 149.645C43.9772 148.882 43.8732 148.085 43.6999 147.253H51.2399Z" fill="#DD1760"/>
</svg>
