<svg width="42" height="39" viewBox="0 0 42 39" fill="none" xmlns="http://www.w3.org/2000/svg">
<path d="M9.75321 0.000288629C11.3809 -0.0151218 12.9593 0.585789 14.177 1.98955L14.4163 2.28154V2.28252C15.2772 3.39826 16.8746 5.16189 17.7161 6.93779C18.1599 7.87442 18.4811 8.9682 18.3645 10.1419C18.2517 11.2776 17.7444 12.3323 16.8411 13.2698L16.6556 13.4563C15.9274 14.1584 15.727 15.1419 16.1917 16.5247C16.6695 17.9463 17.8027 19.5424 19.3206 20.9222C20.8336 22.2975 22.5892 23.3312 24.1712 23.7513C25.7457 24.1692 26.8951 23.9345 27.6546 23.2073L27.6624 23.2005L27.8518 23.0247C29.8198 21.2709 32.0819 21.3965 33.9671 22.0227C35.7673 22.6209 37.6696 23.8467 38.8333 24.4602L39.1556 24.6409C40.7239 25.5722 41.6281 26.9316 41.8743 28.4993C42.1243 30.0916 41.668 31.7085 40.9261 33.0892C40.1765 34.4839 39.0687 35.7668 37.804 36.7395C36.6278 37.6441 35.2277 38.3469 33.764 38.5481L33.47 38.5823C25.2773 39.3234 17.1176 35.4543 10.972 29.8226C4.83527 24.1988 0.430274 16.5658 0.00809197 9.38017V9.3792C-0.0815303 7.83802 0.584054 6.28629 1.47098 5.00127C2.37926 3.68542 3.64328 2.46557 5.04813 1.56377C6.44153 0.669364 8.08684 0.0161597 9.75321 0.000288629ZM9.78251 3.10576C8.8817 3.11434 7.80562 3.48401 6.72587 4.17705C5.65737 4.86294 4.69492 5.7968 4.02665 6.76494C3.33742 7.76346 3.07555 8.62664 3.10868 9.19853L3.15262 9.77666C3.71268 15.7738 7.50739 22.4362 13.0696 27.5335C18.8028 32.7873 26.1384 36.1276 33.1907 35.4895C34.0049 35.416 34.9685 35.0038 35.9114 34.2786C36.8443 33.5611 37.6589 32.6108 38.1917 31.6194C38.732 30.614 38.9186 29.6916 38.8069 28.9808C38.714 28.3891 38.3963 27.796 37.5598 27.304L37.385 27.2073C35.813 26.3784 34.4688 25.4611 32.9876 24.969C31.661 24.5284 30.6959 24.6006 29.8333 25.4202C29.8274 25.426 29.8226 25.433 29.8167 25.4388C27.9926 27.1965 25.5589 27.3318 23.3753 26.7522C21.195 26.1735 19.0112 24.8376 17.2317 23.22C15.4569 21.6067 13.9446 19.5857 13.2483 17.514C12.5392 15.4037 12.6354 13.0175 14.5003 11.22C15.0639 10.6767 15.2368 10.2156 15.2747 9.83427C15.3162 9.41539 15.2125 8.90434 14.9104 8.26689C14.26 6.89408 13.078 5.63004 11.9583 4.179V4.17802C11.3461 3.38654 10.6127 3.09787 9.78251 3.10576Z" fill="#DD1760"/>
</svg>
