<svg width="285" height="74" viewBox="0 0 285 74" fill="none" xmlns="http://www.w3.org/2000/svg">
<path d="M18.502 1.66992H265.624C274.878 1.66992 282.457 7.77055 282.457 15.2182V36.3698C282.457 43.8174 274.878 49.918 265.624 49.918H231.613C230.673 55.0723 231.212 62.2416 235.223 72.0605C235.223 72.0605 220.963 68.6762 210.438 49.918H18.502C9.24884 49.918 1.66928 43.8174 1.66928 36.3698V15.2182C1.66928 7.77055 9.24884 1.66992 18.502 1.66992Z" fill="white"/>
<path d="M3.34082 15.2178C3.34109 9.01275 9.81656 3.33984 18.5039 3.33984H265.626C274.313 3.33984 280.789 9.01274 280.789 15.2178V36.3701C280.789 42.5752 274.313 48.248 265.626 48.248H231.615L231.466 48.2549C230.725 48.321 230.108 48.8742 229.973 49.6182C229.081 54.5044 229.459 60.9044 232.362 69.2158C231.078 68.6299 229.481 67.7945 227.693 66.626C223.018 63.5695 217.017 58.2259 211.896 49.1006C211.601 48.5739 211.043 48.248 210.439 48.248H18.5039C9.81651 48.248 3.34103 42.5752 3.34082 36.3701V15.2178ZM0.000976562 36.3701C0.00117478 45.06 8.68535 51.5879 18.5039 51.5879H209.471C214.77 60.708 220.932 66.195 225.866 69.4209C228.406 71.0812 230.614 72.1387 232.204 72.7852C232.999 73.1084 233.64 73.3298 234.091 73.4717C234.316 73.5426 234.495 73.5933 234.621 73.6279C234.684 73.6452 234.734 73.6586 234.771 73.668C234.789 73.6726 234.804 73.6769 234.815 73.6797C234.821 73.6811 234.826 73.6817 234.83 73.6826C234.832 73.6831 234.834 73.6842 234.836 73.6846H234.838C234.839 73.6848 234.84 73.6852 235.226 72.0605L234.84 73.6855C235.449 73.83 236.087 73.6218 236.494 73.1465C236.901 72.6712 237.008 72.0079 236.771 71.4287C233.208 62.7059 232.503 56.2642 233.054 51.5879H265.626C275.445 51.5879 284.129 45.06 284.129 36.3701V15.2178C284.129 6.52793 275.445 0 265.626 0H18.5039C8.68539 0 0.00123704 6.52792 0.000976562 15.2178V36.3701Z" fill="#DD1760"/>
<path d="M214.014 20.506C211.83 20.9726 210.112 21.9713 208.862 23.502C207.611 25.014 206.986 26.8713 206.986 29.074C206.986 30.4926 207.275 31.7526 207.854 32.854C208.432 33.9553 208.983 34.506 209.506 34.506C209.767 34.506 210.038 34.3846 210.318 34.142C210.598 33.8806 210.906 33.4233 211.242 32.77C211.596 32.098 211.932 31.2673 212.25 30.278C212.586 29.27 212.922 27.9446 213.258 26.302C213.612 24.6406 213.93 22.774 214.21 20.702C214.228 20.646 214.21 20.5993 214.154 20.562C214.116 20.506 214.07 20.4873 214.014 20.506ZM209.506 38.034C207.994 38.034 206.603 37.166 205.334 35.43C204.064 33.694 203.43 31.5753 203.43 29.074C203.43 25.4526 204.662 22.5126 207.126 20.254C209.59 17.9953 212.81 16.866 216.786 16.866C219.996 16.866 222.647 17.874 224.738 19.89C226.847 21.906 227.902 24.4726 227.902 27.59C227.902 30.5206 227.22 32.938 225.858 34.842C224.514 36.7273 222.666 37.9313 220.314 38.454C219.866 38.5473 219.455 38.4633 219.082 38.202C218.727 37.9406 218.503 37.586 218.41 37.138L218.354 36.886C218.26 36.4753 218.335 36.0926 218.578 35.738C218.82 35.3833 219.147 35.1406 219.558 35.01C222.75 34.0206 224.346 31.5473 224.346 27.59C224.346 25.686 223.776 24.0806 222.638 22.774C221.518 21.4486 220.043 20.6366 218.214 20.338C218.046 20.3006 217.943 20.366 217.906 20.534C217.532 23.3526 217.112 25.8073 216.646 27.898C216.179 29.97 215.684 31.65 215.162 32.938C214.658 34.2073 214.088 35.234 213.454 36.018C212.819 36.7833 212.194 37.3153 211.578 37.614C210.962 37.894 210.271 38.034 209.506 38.034Z" fill="#DD1760"/>
<path d="M173.752 39.21L173.192 38.51C172.576 37.7446 172.436 36.8486 172.772 35.822C173.201 34.59 173.5 33.1433 173.668 31.482C173.854 29.802 173.948 27.4873 173.948 24.538V18.098C173.948 17.6686 174.097 17.2953 174.396 16.978C174.713 16.6606 175.086 16.502 175.516 16.502H184.056C184.224 16.502 184.308 16.4273 184.308 16.278V15.858C184.308 15.4286 184.457 15.0553 184.756 14.738C185.073 14.4206 185.446 14.262 185.876 14.262H186.548C186.977 14.262 187.341 14.4206 187.64 14.738C187.957 15.0553 188.116 15.4286 188.116 15.858V16.278C188.116 16.4273 188.2 16.502 188.368 16.502H196.656C197.066 16.502 197.421 16.6513 197.72 16.95C198.018 17.2486 198.168 17.6033 198.168 18.014C198.168 18.4246 198.018 18.7793 197.72 19.078C197.421 19.358 197.066 19.498 196.656 19.498H189.964C189.796 19.498 189.712 19.5726 189.712 19.722V20.31C189.712 20.4593 189.796 20.534 189.964 20.534H195.368C195.797 20.534 196.161 20.6926 196.46 21.01C196.777 21.3273 196.936 21.7006 196.936 22.13V23.95C196.936 24.0806 197.001 24.146 197.132 24.146C197.505 24.146 197.813 24.2766 198.056 24.538C198.317 24.7806 198.448 25.0793 198.448 25.434V25.574C198.448 25.9286 198.317 26.2366 198.056 26.498C197.813 26.7406 197.505 26.862 197.132 26.862C197.001 26.862 196.936 26.9273 196.936 27.058V28.934C196.936 29.3073 196.814 29.6433 196.572 29.942C196.497 30.054 196.506 30.138 196.6 30.194C196.712 30.25 196.814 30.3246 196.908 30.418C197.206 30.698 197.374 31.034 197.412 31.426C197.449 31.818 197.328 32.1633 197.048 32.462C196.432 33.1526 195.685 33.89 194.808 34.674C194.714 34.7673 194.714 34.8513 194.808 34.926C195.629 35.5046 196.413 35.9993 197.16 36.41C197.533 36.6153 197.776 36.9233 197.888 37.334C198.018 37.726 197.972 38.1086 197.748 38.482L197.692 38.538C197.449 38.93 197.113 39.182 196.684 39.294C196.254 39.4246 195.844 39.378 195.452 39.154C193.342 37.9033 191.476 36.3166 189.852 34.394C189.814 34.3566 189.777 34.3473 189.74 34.366C189.721 34.3846 189.712 34.4126 189.712 34.45V35.654C189.712 36.774 189.674 37.6046 189.6 38.146C189.544 38.6873 189.357 39.1353 189.04 39.49C188.741 39.8446 188.358 40.05 187.892 40.106C187.425 40.1806 186.697 40.218 185.708 40.218C185.558 40.218 184.998 40.1993 184.028 40.162C183.598 40.1433 183.234 39.9753 182.936 39.658C182.637 39.3593 182.469 38.9953 182.432 38.566C182.413 38.1553 182.544 37.81 182.824 37.53C183.104 37.25 183.449 37.1193 183.86 37.138C184.494 37.1753 184.858 37.194 184.952 37.194C185.418 37.194 185.708 37.1286 185.82 36.998C185.932 36.8673 185.988 36.494 185.988 35.878V30.754C185.988 30.586 185.904 30.502 185.736 30.502H179.744C179.408 30.502 179.118 30.39 178.876 30.166C178.633 29.9233 178.512 29.634 178.512 29.298C178.512 28.962 178.633 28.6726 178.876 28.43C179.118 28.1873 179.408 28.066 179.744 28.066H185.736C185.904 28.066 185.988 27.982 185.988 27.814V27.114C185.988 26.946 185.904 26.862 185.736 26.862H177.728C177.56 26.862 177.476 26.946 177.476 27.114V27.254C177.476 32.2193 176.813 36.1486 175.488 39.042C175.338 39.3966 175.068 39.5833 174.676 39.602C174.302 39.6393 173.994 39.5086 173.752 39.21ZM192.512 32.77C193.221 32.1726 193.949 31.482 194.696 30.698C194.733 30.6793 194.742 30.642 194.724 30.586C194.705 30.53 194.677 30.502 194.64 30.502H190.468C190.43 30.502 190.393 30.53 190.356 30.586C190.337 30.6233 190.337 30.6606 190.356 30.698C190.822 31.314 191.429 31.9953 192.176 32.742C192.306 32.854 192.418 32.8633 192.512 32.77ZM189.712 23.222V23.894C189.712 24.062 189.796 24.146 189.964 24.146H193.296C193.464 24.146 193.548 24.062 193.548 23.894V23.222C193.548 23.0726 193.464 22.998 193.296 22.998H189.964C189.796 22.998 189.712 23.0726 189.712 23.222ZM189.712 27.114V27.814C189.712 27.982 189.796 28.066 189.964 28.066H193.296C193.464 28.066 193.548 27.982 193.548 27.814V27.114C193.548 26.946 193.464 26.862 193.296 26.862H189.964C189.796 26.862 189.712 26.946 189.712 27.114ZM177.476 19.722V23.894C177.476 24.062 177.56 24.146 177.728 24.146H185.736C185.904 24.146 185.988 24.062 185.988 23.894V23.222C185.988 23.0726 185.904 22.998 185.736 22.998H179.744C179.408 22.998 179.118 22.8766 178.876 22.634C178.633 22.3913 178.512 22.102 178.512 21.766C178.512 21.43 178.633 21.1406 178.876 20.898C179.118 20.6553 179.408 20.534 179.744 20.534H185.736C185.904 20.534 185.988 20.4593 185.988 20.31V19.722C185.988 19.5726 185.904 19.498 185.736 19.498H177.728C177.56 19.498 177.476 19.5726 177.476 19.722ZM177.756 36.494C178.876 35.8966 179.772 35.374 180.444 34.926C180.5 34.9073 180.528 34.8606 180.528 34.786C180.528 34.7113 180.509 34.6553 180.472 34.618C180.173 34.3006 179.688 33.806 179.016 33.134C178.736 32.854 178.596 32.518 178.596 32.126C178.614 31.734 178.764 31.4073 179.044 31.146C179.342 30.866 179.688 30.7353 180.08 30.754C180.49 30.754 180.845 30.894 181.144 31.174C181.368 31.398 181.937 31.986 182.852 32.938C182.945 33.05 183.057 33.0593 183.188 32.966C183.225 32.9286 183.29 32.882 183.384 32.826C183.477 32.7513 183.542 32.6953 183.58 32.658C183.878 32.3966 184.224 32.294 184.616 32.35C185.026 32.3873 185.353 32.5553 185.596 32.854C185.857 33.1713 185.969 33.5353 185.932 33.946C185.894 34.3566 185.726 34.6926 185.428 34.954C183.654 36.466 181.704 37.8286 179.576 39.042C179.184 39.266 178.764 39.322 178.316 39.21C177.886 39.1166 177.541 38.8833 177.28 38.51C177.037 38.174 176.962 37.8006 177.056 37.39C177.168 36.9793 177.401 36.6806 177.756 36.494Z" fill="#DD1760"/>
<path d="M167.057 20.2259C167.374 20.2259 167.645 20.3473 167.869 20.5899C168.111 20.8139 168.233 21.0846 168.233 21.4019V21.9059C168.233 22.2233 168.111 22.5033 167.869 22.7459C167.645 22.9699 167.374 23.0819 167.057 23.0819C166.926 23.0819 166.861 23.1379 166.861 23.2499V25.4619C166.861 25.8913 166.702 26.2646 166.385 26.5819C166.086 26.8806 165.722 27.0299 165.293 27.0299H162.017C161.867 27.0299 161.793 27.1139 161.793 27.2819V28.1499C161.793 28.2993 161.867 28.3739 162.017 28.3739H165.853C166.207 28.3739 166.515 28.5046 166.777 28.7659C167.057 29.0273 167.197 29.3446 167.197 29.7179C167.197 30.0913 167.057 30.4086 166.777 30.6699C166.515 30.9313 166.207 31.0619 165.853 31.0619H162.017C161.867 31.0619 161.793 31.1366 161.793 31.2859V32.2099C161.793 32.3593 161.867 32.4339 162.017 32.4339H166.161C166.553 32.4339 166.879 32.5739 167.141 32.8539C167.421 33.1339 167.561 33.4699 167.561 33.8619C167.561 34.2539 167.421 34.5899 167.141 34.8699C166.879 35.1313 166.553 35.2619 166.161 35.2619H162.017C161.867 35.2619 161.793 35.3366 161.793 35.4859V35.7099C161.793 36.0646 161.671 36.3913 161.429 36.6899C161.335 36.8206 161.363 36.8859 161.513 36.8859H166.413C166.823 36.8859 167.169 37.0353 167.449 37.3339C167.729 37.6326 167.859 37.9873 167.841 38.3979C167.822 38.8086 167.654 39.1633 167.337 39.4619C167.019 39.7606 166.646 39.9099 166.217 39.9099H161.345C158.806 39.9099 156.743 39.7139 155.157 39.3219C153.57 38.9486 152.198 38.2766 151.041 37.3059C150.929 37.1939 150.835 37.2033 150.761 37.3339C150.35 38.0246 149.93 38.6313 149.501 39.1539C149.239 39.4713 148.903 39.6206 148.493 39.6019C148.082 39.5833 147.755 39.4059 147.513 39.0699L147.401 38.9019C147.139 38.5099 147.018 38.0899 147.037 37.6419C147.074 37.1939 147.233 36.7833 147.513 36.4099C147.923 35.9059 148.297 35.3646 148.633 34.7859C148.707 34.6553 148.698 34.5246 148.605 34.3939C148.119 33.6286 147.606 32.6579 147.065 31.4819C146.878 31.0526 146.831 30.6233 146.925 30.1939C147.037 29.7459 147.27 29.3726 147.625 29.0739C147.923 28.8313 148.25 28.7566 148.605 28.8499C148.959 28.9433 149.211 29.1673 149.361 29.5219C149.585 30.0259 149.809 30.5019 150.033 30.9499C150.089 31.0619 150.135 31.0619 150.173 30.9499C150.434 29.8486 150.621 28.7006 150.733 27.5059C150.733 27.3379 150.658 27.2539 150.509 27.2539H148.969C148.558 27.2539 148.203 27.1139 147.905 26.8339C147.625 26.5353 147.485 26.1806 147.485 25.7699C147.485 24.7993 147.746 23.8753 148.269 22.9979C148.922 21.9153 149.575 20.6553 150.229 19.2179C150.247 19.1619 150.238 19.1153 150.201 19.0779C150.163 19.0219 150.117 18.9939 150.061 18.9939H149.053C148.679 18.9939 148.353 18.8819 148.073 18.6579C147.979 18.6019 147.914 18.6206 147.877 18.7139C147.597 20.1699 147.261 21.5513 146.869 22.8579C146.831 22.9513 146.813 23.1099 146.813 23.3339V38.7059C146.813 39.1353 146.654 39.4993 146.337 39.7979C146.019 40.1153 145.646 40.2739 145.217 40.2739H145.021C144.591 40.2739 144.218 40.1153 143.901 39.7979C143.602 39.4993 143.453 39.1353 143.453 38.7059V29.0739C143.453 29.0366 143.434 29.0179 143.397 29.0179C143.359 29.0179 143.331 29.0273 143.313 29.0459C143.201 29.2699 143.117 29.4286 143.061 29.5219C142.911 29.7833 142.687 29.8953 142.389 29.8579C142.09 29.8019 141.903 29.6246 141.829 29.3259L141.549 28.2059C141.287 27.2166 141.418 26.2366 141.941 25.2659C143.266 22.6899 144.227 19.7126 144.825 16.3339C144.899 15.8859 145.114 15.5219 145.469 15.2419C145.823 14.9619 146.225 14.8313 146.673 14.8499H146.841C147.158 14.8686 147.438 14.9806 147.681 15.1859C147.923 15.3726 148.091 15.6153 148.185 15.9139C148.222 16.0633 148.306 16.1099 148.437 16.0539C148.661 15.9606 148.866 15.9139 149.053 15.9139H151.769C152.179 15.9139 152.534 16.0726 152.833 16.3899C153.15 16.6886 153.309 17.0433 153.309 17.4539C153.309 18.4993 153.131 19.4886 152.777 20.4219C152.273 21.7099 151.675 22.9326 150.985 24.0899C150.966 24.1273 150.966 24.1739 150.985 24.2299C151.022 24.2673 151.069 24.2859 151.125 24.2859H151.993C152.422 24.2859 152.795 24.4446 153.113 24.7619C153.43 25.0606 153.589 25.4246 153.589 25.8539V27.2539C153.365 29.8673 152.917 32.1446 152.245 34.0859C152.189 34.2353 152.217 34.3659 152.329 34.4779C153.038 35.2059 153.859 35.7473 154.793 36.1019C155.726 36.4379 156.911 36.6619 158.349 36.7739C158.386 36.7739 158.414 36.7553 158.433 36.7179C158.451 36.6806 158.451 36.6526 158.433 36.6339C158.246 36.3913 158.153 36.0833 158.153 35.7099V35.4859C158.153 35.3366 158.069 35.2619 157.901 35.2619H154.401C154.009 35.2619 153.673 35.1313 153.393 34.8699C153.113 34.5899 152.973 34.2539 152.973 33.8619C152.973 33.4699 153.113 33.1339 153.393 32.8539C153.673 32.5739 154.009 32.4339 154.401 32.4339H157.901C158.069 32.4339 158.153 32.3593 158.153 32.2099V31.2859C158.153 31.1366 158.069 31.0619 157.901 31.0619H155.325C154.97 31.0619 154.653 30.9313 154.373 30.6699C154.111 30.4086 153.981 30.0913 153.981 29.7179C153.981 29.3446 154.111 29.0273 154.373 28.7659C154.653 28.5046 154.97 28.3739 155.325 28.3739H157.901C158.069 28.3739 158.153 28.2993 158.153 28.1499V27.2819C158.153 27.1139 158.069 27.0299 157.901 27.0299H155.661C155.306 27.0299 154.998 26.9086 154.737 26.6659C154.494 26.4046 154.373 26.0966 154.373 25.7419C154.373 25.3873 154.494 25.0886 154.737 24.8459C154.998 24.5846 155.306 24.4539 155.661 24.4539H157.901C158.069 24.4539 158.153 24.3793 158.153 24.2299V23.3059C158.153 23.1566 158.069 23.0819 157.901 23.0819H154.121C153.729 23.0819 153.393 22.9419 153.113 22.6619C152.833 22.3819 152.693 22.0459 152.693 21.6539C152.693 21.2619 152.833 20.9259 153.113 20.6459C153.393 20.3659 153.729 20.2259 154.121 20.2259H157.901C158.069 20.2259 158.153 20.1419 158.153 19.9739V19.1619C158.153 18.9939 158.069 18.9099 157.901 18.9099H155.465C155.091 18.9099 154.774 18.7793 154.513 18.5179C154.251 18.2566 154.121 17.9486 154.121 17.5939C154.121 17.2393 154.251 16.9313 154.513 16.6699C154.774 16.3899 155.091 16.2499 155.465 16.2499H157.957C158.087 16.2499 158.153 16.1846 158.153 16.0539C158.153 15.6993 158.274 15.4006 158.517 15.1579C158.759 14.9153 159.058 14.7939 159.413 14.7939H160.533C160.887 14.7939 161.186 14.9153 161.429 15.1579C161.671 15.4006 161.793 15.6993 161.793 16.0539C161.793 16.1846 161.849 16.2499 161.961 16.2499H165.293C165.722 16.2499 166.086 16.4086 166.385 16.7259C166.702 17.0433 166.861 17.4166 166.861 17.8459V20.0299C166.861 20.1606 166.926 20.2259 167.057 20.2259ZM163.781 24.2299V23.3059C163.781 23.1566 163.706 23.0819 163.557 23.0819H162.017C161.867 23.0819 161.793 23.1566 161.793 23.3059V24.2299C161.793 24.3793 161.867 24.4539 162.017 24.4539H163.557C163.706 24.4539 163.781 24.3793 163.781 24.2299ZM163.781 19.9739V19.1619C163.781 18.9939 163.706 18.9099 163.557 18.9099H162.017C161.867 18.9099 161.793 18.9939 161.793 19.1619V19.9739C161.793 20.1419 161.867 20.2259 162.017 20.2259H163.557C163.706 20.2259 163.781 20.1419 163.781 19.9739Z" fill="#DD1760"/>
<path d="M124.471 39.0699C121.018 39.0699 118.414 38.4912 116.659 37.3339C114.905 36.1766 114.027 34.4872 114.027 32.2659C114.027 29.8392 115.474 27.6646 118.367 25.7419C118.479 25.6486 118.526 25.5366 118.507 25.4059V25.3219C117.798 22.3166 117.266 19.8152 116.911 17.8179C116.837 17.3886 116.921 16.9966 117.163 16.6419C117.425 16.2686 117.77 16.0446 118.199 15.9699L118.899 15.8579C119.329 15.7832 119.721 15.8766 120.075 16.1379C120.43 16.3992 120.654 16.7446 120.747 17.1739C121.158 19.3766 121.606 21.4859 122.091 23.5019C122.129 23.6886 122.222 23.7446 122.371 23.6699C124.891 22.6059 127.934 21.6352 131.499 20.7579C131.929 20.6646 132.33 20.7392 132.703 20.9819C133.077 21.2059 133.301 21.5326 133.375 21.9619L133.431 22.2139C133.525 22.6432 133.45 23.0446 133.207 23.4179C132.965 23.7912 132.629 24.0246 132.199 24.1179C127.477 25.2752 123.921 26.5446 121.531 27.9259C119.142 29.3072 117.947 30.6886 117.947 32.0699C117.947 34.4966 120.122 35.7099 124.471 35.7099C126.954 35.7099 129.446 35.5419 131.947 35.2059C132.377 35.1499 132.759 35.2526 133.095 35.5139C133.45 35.7752 133.655 36.1206 133.711 36.5499L133.739 36.7459C133.795 37.1752 133.683 37.5672 133.403 37.9219C133.142 38.2952 132.797 38.5099 132.367 38.5659C129.997 38.9019 127.365 39.0699 124.471 39.0699Z" fill="#DD1760"/>
<path d="M82.9476 40.19C82.5182 40.19 82.1449 40.0313 81.8276 39.714C81.5102 39.3966 81.3516 39.0233 81.3516 38.594V17.146C81.3516 16.7166 81.5102 16.3433 81.8276 16.026C82.1449 15.7086 82.5182 15.55 82.9476 15.55H89.4436C89.8356 15.55 90.1622 15.69 90.4236 15.97C90.7036 16.2313 90.8436 16.558 90.8436 16.95C90.8436 17.6033 90.7502 18.3033 90.5636 19.05C90.5449 19.0873 90.5542 19.1246 90.5916 19.162C90.6289 19.1806 90.6662 19.1713 90.7036 19.134C92.1596 18.1446 93.5316 17.0153 94.8196 15.746C95.6036 14.9993 96.4996 14.626 97.5076 14.626H97.7876C98.7956 14.626 99.6916 14.9993 100.476 15.746C102.118 17.3326 103.854 18.7046 105.684 19.862C106.057 20.1046 106.318 20.4406 106.468 20.87C106.617 21.2993 106.598 21.7286 106.412 22.158L106.356 22.298C106.188 22.6713 105.908 22.9233 105.516 23.054C105.124 23.1846 104.75 23.138 104.396 22.914C103.537 22.3166 103.005 21.9433 102.8 21.794C102.688 21.7193 102.604 21.738 102.548 21.85C102.305 22.3726 101.885 22.634 101.288 22.634H99.6076C99.4582 22.634 99.3836 22.718 99.3836 22.886V23.81C99.3836 23.9593 99.4582 24.034 99.6076 24.034H103.724C104.153 24.034 104.517 24.1926 104.816 24.51C105.133 24.8273 105.292 25.2006 105.292 25.63V31.146C105.292 31.5753 105.133 31.9486 104.816 32.266C104.517 32.5646 104.153 32.714 103.724 32.714H100.14C100.084 32.714 100.037 32.742 99.9996 32.798C99.9622 32.854 99.9622 32.9006 99.9996 32.938C100.896 34.45 102.716 35.6726 105.46 36.606C105.87 36.7553 106.169 37.0166 106.356 37.39C106.542 37.7446 106.552 38.118 106.384 38.51L106.272 38.734C106.085 39.1446 105.786 39.4433 105.376 39.63C104.965 39.8166 104.554 39.826 104.144 39.658C101.456 38.5566 99.3836 37.0073 97.9276 35.01C97.8342 34.8793 97.7316 34.87 97.6196 34.982C96.0329 36.9606 93.6062 38.5286 90.3396 39.686C89.9102 39.8353 89.4902 39.8166 89.0796 39.63C88.6689 39.4433 88.3702 39.1446 88.1836 38.734L88.0716 38.51C87.9036 38.118 87.9129 37.7446 88.0996 37.39C88.2862 37.0166 88.5849 36.7646 88.9956 36.634C92.1129 35.6633 94.1382 34.4313 95.0716 32.938C95.1089 32.9006 95.1089 32.854 95.0716 32.798C95.0529 32.742 95.0156 32.714 94.9596 32.714H92.6076H91.2916C90.8622 32.714 90.5169 32.5926 90.2556 32.35C90.1436 32.2753 90.0689 32.294 90.0316 32.406C89.7142 33.974 88.7436 34.87 87.1196 35.094C86.6716 35.15 86.2516 35.038 85.8596 34.758C85.4862 34.478 85.2249 34.1046 85.0756 33.638L84.8516 32.91C84.8329 32.91 84.8049 32.9193 84.7676 32.938V38.594C84.7676 39.0233 84.6089 39.3966 84.2916 39.714C83.9742 40.0313 83.6009 40.19 83.1716 40.19H82.9476ZM92.6076 29.886C92.6076 30.0353 92.6916 30.11 92.8596 30.11H95.4916C95.6596 30.11 95.7436 30.0353 95.7436 29.886V26.974C95.7436 26.8246 95.6596 26.75 95.4916 26.75H92.8596C92.6916 26.75 92.6076 26.8246 92.6076 26.974V29.886ZM102.072 26.75H99.6076C99.4582 26.75 99.3836 26.8246 99.3836 26.974V29.886C99.3836 30.0353 99.4582 30.11 99.6076 30.11H102.072C102.24 30.11 102.324 30.0353 102.324 29.886V26.974C102.324 26.8246 102.24 26.75 102.072 26.75ZM97.5076 17.146C96.5182 18.2286 95.6876 19.078 95.0156 19.694C94.9782 19.7313 94.9689 19.7686 94.9876 19.806C95.0062 19.8246 95.0342 19.834 95.0716 19.834H100.224C100.261 19.834 100.289 19.8246 100.308 19.806C100.326 19.7686 100.317 19.7313 100.28 19.694C99.3462 18.8166 98.5249 17.9766 97.8156 17.174C97.7036 17.062 97.6009 17.0526 97.5076 17.146ZM88.1556 24.762C88.0996 24.9113 88.1089 25.042 88.1836 25.154C88.7996 25.994 89.2849 26.862 89.6396 27.758C89.6582 27.7766 89.6769 27.786 89.6956 27.786C89.7142 27.786 89.7236 27.7673 89.7236 27.73V25.63C89.7236 25.2006 89.8729 24.8273 90.1716 24.51C90.4889 24.1926 90.8622 24.034 91.2916 24.034H95.4916C95.6596 24.034 95.7436 23.9593 95.7436 23.81V22.886C95.7436 22.718 95.6596 22.634 95.4916 22.634H93.9236C93.3449 22.634 92.9342 22.3913 92.6916 21.906C92.6729 21.85 92.6262 21.822 92.5516 21.822C92.4769 21.8033 92.4209 21.8126 92.3836 21.85C91.9356 22.186 91.4502 22.5313 90.9276 22.886C90.4049 23.2406 89.8822 23.222 89.3596 22.83C89.2476 22.718 89.1542 22.7273 89.0796 22.858C88.6689 23.754 88.3609 24.3886 88.1556 24.762ZM84.7676 18.602V24.398C84.7676 24.4353 84.7769 24.454 84.7956 24.454C84.8329 24.454 84.8609 24.4446 84.8796 24.426C85.9249 22.5033 86.7649 20.5526 87.3996 18.574C87.4369 18.4246 87.3809 18.35 87.2316 18.35H85.0196C84.8516 18.35 84.7676 18.434 84.7676 18.602ZM84.7676 25.63V32.014C84.7676 32.182 84.8516 32.266 85.0196 32.266H85.2716C85.9062 32.266 86.3262 32.1353 86.5316 31.874C86.7556 31.594 86.8676 31.0246 86.8676 30.166C86.8676 29.3446 86.7276 28.6073 86.4476 27.954C86.1862 27.282 85.6729 26.4886 84.9076 25.574C84.8702 25.5366 84.8329 25.5273 84.7956 25.546C84.7769 25.5646 84.7676 25.5926 84.7676 25.63Z" fill="#DD1760"/>
<path d="M54.0208 40.274C53.5914 40.274 53.2181 40.1153 52.9008 39.798C52.5834 39.4993 52.4248 39.1353 52.4248 38.706V28.878C52.4248 28.8406 52.4061 28.822 52.3688 28.822C52.3501 28.8033 52.3314 28.8033 52.3128 28.822L51.6408 29.83C51.4541 30.0913 51.2021 30.1846 50.8848 30.11C50.5861 30.0353 50.3994 29.8393 50.3248 29.522L50.0448 28.29C49.8208 27.3193 50.0074 26.3673 50.6048 25.434C52.1914 22.9513 53.4048 19.9273 54.2448 16.362C54.3381 15.9326 54.5714 15.5966 54.9448 15.354C55.3181 15.0926 55.7194 14.9993 56.1488 15.074L56.4568 15.13C56.8861 15.2233 57.2221 15.4473 57.4648 15.802C57.7261 16.138 57.8194 16.5206 57.7448 16.95C57.3154 19.022 56.7741 20.8513 56.1208 22.438C56.0648 22.5873 56.0368 22.746 56.0368 22.914V38.706C56.0368 39.1353 55.8781 39.4993 55.5608 39.798C55.2434 40.1153 54.8701 40.274 54.4408 40.274H54.0208ZM75.5528 35.206C75.9261 35.486 76.1688 35.85 76.2808 36.298C76.3928 36.7273 76.3461 37.1473 76.1408 37.558L76.0008 37.866C75.8141 38.2393 75.5248 38.4726 75.1328 38.566C74.7408 38.6593 74.3861 38.5753 74.0688 38.314C72.0154 36.5966 70.2794 34.7673 68.8608 32.826C68.8421 32.7886 68.8141 32.7793 68.7768 32.798C68.7394 32.798 68.7208 32.8166 68.7208 32.854V38.65C68.7208 39.0793 68.5621 39.4526 68.2448 39.77C67.9274 40.0873 67.5541 40.246 67.1248 40.246H66.5648C66.1354 40.246 65.7621 40.0873 65.4448 39.77C65.1461 39.4526 64.9968 39.0793 64.9968 38.65V32.966C64.9968 32.9286 64.9781 32.9006 64.9408 32.882C64.9221 32.8633 64.8941 32.8726 64.8568 32.91C63.3821 34.8886 61.6834 36.6713 59.7608 38.258C59.4434 38.5193 59.0794 38.6033 58.6688 38.51C58.2581 38.4353 57.9501 38.2113 57.7448 37.838L57.5208 37.446C57.3154 37.054 57.2594 36.634 57.3528 36.186C57.4648 35.738 57.7074 35.3833 58.0808 35.122C60.0408 33.6846 61.7021 32.126 63.0648 30.446C63.1581 30.3153 63.1301 30.25 62.9808 30.25H59.2008C58.7901 30.25 58.4354 30.11 58.1368 29.83C57.8568 29.5313 57.7168 29.1766 57.7168 28.766C57.7168 28.3553 57.8568 28.0006 58.1368 27.702C58.4354 27.4033 58.7901 27.254 59.2008 27.254H64.7448C64.9128 27.254 64.9968 27.1793 64.9968 27.03V25.742C64.9968 25.574 64.9128 25.49 64.7448 25.49H62.5048H60.4608C60.0314 25.49 59.6581 25.3313 59.3408 25.014C59.0234 24.6966 58.8648 24.3233 58.8648 23.894V17.09C58.8648 16.6606 59.0234 16.2873 59.3408 15.97C59.6581 15.6526 60.0314 15.494 60.4608 15.494H73.4808C73.9101 15.494 74.2834 15.6526 74.6008 15.97C74.9181 16.2873 75.0768 16.6606 75.0768 17.09V23.894C75.0768 24.3233 74.9181 24.6966 74.6008 25.014C74.2834 25.3313 73.9101 25.49 73.4808 25.49H68.9728C68.8048 25.49 68.7208 25.574 68.7208 25.742V27.03C68.7208 27.1793 68.8048 27.254 68.9728 27.254H74.6008C75.0114 27.254 75.3568 27.4033 75.6368 27.702C75.9354 28.0006 76.0848 28.3553 76.0848 28.766C76.0848 29.1766 75.9354 29.5313 75.6368 29.83C75.3568 30.11 75.0114 30.25 74.6008 30.25H70.6528C70.5034 30.25 70.4754 30.3153 70.5688 30.446C71.8568 32.07 73.5181 33.6566 75.5528 35.206ZM62.7568 22.606H71.1848C71.3528 22.606 71.4368 22.522 71.4368 22.354V18.742C71.4368 18.574 71.3528 18.49 71.1848 18.49H62.7568C62.5888 18.49 62.5048 18.574 62.5048 18.742V22.354C62.5048 22.522 62.5888 22.606 62.7568 22.606Z" fill="#DD1760"/>
</svg>
