<svg width="36" height="36" viewBox="0 0 36 36" fill="none" xmlns="http://www.w3.org/2000/svg">
<path d="M4.5 27V9C4.5 7.80653 4.97445 6.66227 5.81836 5.81836C6.66227 4.97445 7.80653 4.5 9 4.5H19.125C19.7463 4.5 20.25 5.00368 20.25 5.625C20.25 6.24632 19.7463 6.75 19.125 6.75H9C8.40326 6.75 7.83114 6.98722 7.40918 7.40918C6.98722 7.83114 6.75 8.40326 6.75 9V27C6.75 27.5967 6.98722 28.1689 7.40918 28.5908C7.83114 29.0128 8.40326 29.25 9 29.25H27C27.5967 29.25 28.1689 29.0128 28.5908 28.5908C29.0128 28.1689 29.25 27.5967 29.25 27V16.875C29.25 16.2537 29.7537 15.75 30.375 15.75C30.9963 15.75 31.5 16.2537 31.5 16.875V27C31.5 28.1935 31.0256 29.3377 30.1816 30.1816C29.3377 31.0256 28.1935 31.5 27 31.5H9C7.80653 31.5 6.66227 31.0256 5.81836 30.1816C4.97445 29.3377 4.5 28.1935 4.5 27ZM31.5 11.25V6.0918L23.2959 14.2959C22.8566 14.7352 22.1434 14.7352 21.7041 14.2959C21.2648 13.8566 21.2648 13.1434 21.7041 12.7041L29.9082 4.5H24.75C24.1287 4.5 23.625 3.99632 23.625 3.375C23.625 2.75368 24.1287 2.25 24.75 2.25H32.625C33.2463 2.25 33.75 2.75368 33.75 3.375V11.25C33.75 11.8713 33.2463 12.375 32.625 12.375C32.0037 12.375 31.5 11.8713 31.5 11.25Z" fill="#6A6A6A"/>
</svg>
