<svg width="564" height="26" viewBox="0 0 564 26" fill="none" xmlns="http://www.w3.org/2000/svg">
<path d="M553.769 5.61609L542.321 6.88509C541.97 6.91209 541.187 7.02009 540.89 7.02009C539.972 7.02009 539.594 6.26409 539.594 5.42709C539.594 4.40109 540.215 4.10409 540.971 3.99609C541.403 3.94209 543.293 3.83409 543.671 3.80709L560.735 2.59209C561.005 2.56509 561.464 2.53809 561.761 2.53809C562.247 2.53809 563.246 2.53809 563.246 4.07709C563.246 5.31909 562.544 5.40009 560.924 5.58909C555.47 6.21009 549.935 10.2331 549.935 14.7961C549.935 19.4131 554.903 20.7901 556.226 21.0871C557.495 21.3571 558.224 21.5191 558.224 22.5991C558.224 23.3821 557.684 24.2191 556.658 24.2191C555.497 24.2191 546.911 22.7611 546.911 15.0661C546.911 11.3671 548.801 8.10009 553.769 5.61609Z" fill="white"/>
<path d="M515.725 2.78125C516.022 2.78125 517.291 2.78125 517.291 4.02325C517.291 4.40125 517.048 5.99425 517.021 6.31825C516.751 8.58625 516.751 10.4492 516.751 10.7732C516.751 15.5522 517.966 20.1963 519.91 20.1963C520.909 20.1963 521.935 18.0633 522.556 16.4433C523.042 15.1743 523.204 14.7153 524.068 14.7153C524.608 14.7153 525.553 15.0123 525.553 15.9843C525.553 16.6593 524.959 18.2252 524.23 19.6562C522.961 22.1133 521.611 23.5983 519.775 23.5983C516.913 23.5983 513.754 19.3863 513.754 10.5573C513.754 7.72225 514.078 5.10325 514.213 4.26625C514.348 3.53725 514.564 2.78125 515.725 2.78125ZM531.115 4.77925C532.411 4.77925 533.788 7.23625 534.625 9.15325C535.975 12.3123 536.407 15.3902 536.407 17.2533C536.407 17.9552 536.407 19.3053 534.814 19.3053C533.491 19.3053 533.437 18.4413 533.302 16.8753C532.978 12.7983 531.709 9.69325 530.44 7.64125C529.819 6.66925 529.684 6.39925 529.684 6.10225C529.684 5.45425 530.305 4.77925 531.115 4.77925Z" fill="white"/>
<path d="M487.185 6.04833L493.098 4.72533C495.879 4.10433 497.499 3.86133 499.632 3.86133C506.463 3.86133 509.001 8.42433 509.001 12.5553C509.001 14.9583 508.218 20.0883 501.441 21.9783C498.957 22.6803 495.528 23.0583 494.07 23.0583C492.693 23.0583 492.153 22.5723 492.153 21.4383C492.153 20.1423 492.882 20.0883 494.529 20.0073C498.444 19.7913 505.815 18.9003 505.815 12.4473C505.815 8.85633 503.277 6.77733 499.686 6.77733C497.148 6.77733 492.693 7.77633 489.048 8.85633C488.481 9.01833 487.293 9.36933 486.942 9.36933C485.943 9.36933 485.484 8.45133 485.484 7.61433C485.484 6.69633 486.024 6.31833 487.185 6.04833Z" fill="white"/>
<path d="M460.023 14.1753C460.023 10.2333 460.86 3.78028 461.454 2.56528C461.643 2.16028 462.021 1.86328 462.723 1.86328C463.506 1.86328 464.289 2.34928 464.289 3.15928C464.289 3.51028 464.208 3.80728 464.046 4.53628C463.371 7.50628 462.993 10.9893 462.993 14.0943C462.993 16.8753 463.29 19.1703 463.749 21.3843C463.992 22.5183 463.992 22.5993 463.992 22.9503C463.992 24.0303 462.885 24.1653 462.48 24.1653C461.616 24.1653 461.292 23.7873 461.076 23.2203C460.671 22.2213 460.023 18.6303 460.023 14.1753ZM480.813 5.42728C480.813 6.96628 479.841 6.99328 479.274 6.99328C479.085 6.99328 476.304 6.91228 475.737 6.91228C474.792 6.91228 473.307 6.93928 471.174 7.12828C470.877 7.15528 469.446 7.26328 469.311 7.26328C468.96 7.26328 468.015 7.26328 468.015 5.75128C468.015 4.64428 468.771 4.37428 469.554 4.26628C470.31 4.15828 473.334 3.94228 475.683 3.94228C480.192 3.94228 480.813 4.10428 480.813 5.42728ZM467.124 18.0363C467.124 16.9023 467.988 13.9593 469.635 13.9593C470.175 13.9593 470.985 14.2293 470.985 14.9583C470.985 15.2283 470.85 15.4713 470.715 15.6873C470.121 16.6053 469.905 16.9563 469.905 17.4693C469.905 19.3053 472.227 19.6293 475.386 19.6293C476.871 19.6293 478.032 19.5213 479.625 19.3323C480.219 19.2783 480.408 19.2513 480.624 19.2513C481.866 19.2513 482.028 20.2233 482.028 20.6823C482.028 21.7083 481.38 22.0323 481.056 22.1403C480.354 22.3563 477.816 22.5993 475.575 22.5993C472.119 22.5993 467.124 22.2753 467.124 18.0363Z" fill="white"/>
<path d="M434.725 2.78125C435.022 2.78125 436.291 2.78125 436.291 4.02325C436.291 4.40125 436.048 5.99425 436.021 6.31825C435.751 8.58625 435.751 10.4492 435.751 10.7732C435.751 15.5522 436.966 20.1963 438.91 20.1963C439.909 20.1963 440.935 18.0633 441.556 16.4433C442.042 15.1743 442.204 14.7153 443.068 14.7153C443.608 14.7153 444.553 15.0123 444.553 15.9843C444.553 16.6593 443.959 18.2252 443.23 19.6562C441.961 22.1133 440.611 23.5983 438.775 23.5983C435.913 23.5983 432.754 19.3863 432.754 10.5573C432.754 7.72225 433.078 5.10325 433.213 4.26625C433.348 3.53725 433.564 2.78125 434.725 2.78125ZM450.115 4.77925C451.411 4.77925 452.788 7.23625 453.625 9.15325C454.975 12.3123 455.407 15.3902 455.407 17.2533C455.407 17.9552 455.407 19.3053 453.814 19.3053C452.491 19.3053 452.437 18.4413 452.302 16.8753C451.978 12.7983 450.709 9.69325 449.44 7.64125C448.819 6.66925 448.684 6.39925 448.684 6.10225C448.684 5.45425 449.305 4.77925 450.115 4.77925Z" fill="white"/>
<path d="M413.72 1.1074H423.71C424.574 1.1074 424.898 1.1344 425.438 1.4854C426.032 1.8904 426.248 2.4844 426.248 3.1054C426.248 3.7534 425.924 4.9144 425.843 5.1844C425.735 5.5894 425.114 7.6144 425.114 7.8034C425.114 8.2084 425.33 8.2084 426.14 8.2084C426.869 8.2084 428.435 8.2084 428.435 10.0984C428.435 11.8804 427.382 16.0924 424.655 19.6294C425.735 20.7094 426.221 21.0604 428.435 22.5454C428.867 22.8154 429.137 23.0584 429.137 23.5984C429.137 24.4084 428.489 25.3264 427.625 25.3264C427.355 25.3264 427.058 25.2454 426.545 24.8944C425.141 23.9224 423.791 22.7344 422.819 21.7084C420.74 23.7064 418.04 25.3534 417.014 25.3534C416.042 25.3534 415.583 24.4084 415.583 23.8144C415.583 23.1124 416.042 22.8424 416.744 22.4914C419.525 21.0334 420.2 20.4124 421.037 19.6294C419.228 17.1994 418.391 15.0934 417.851 13.3384C417.176 18.9274 414.989 22.3294 413.639 24.2464C413.018 25.1104 412.694 25.4074 412.127 25.4074C411.344 25.4074 410.615 24.7594 410.615 23.9764C410.615 23.5714 410.777 23.2474 411.236 22.6534C412.397 21.0604 414.125 18.6844 415.016 14.2294C415.583 11.2864 415.772 6.9124 415.772 3.7534H413.72C413.342 3.7534 412.397 3.7534 412.397 2.4034C412.397 1.1074 413.369 1.1074 413.72 1.1074ZM422.549 3.7534H418.499C418.472 5.6704 418.472 5.8864 418.634 7.0744C418.958 9.6934 419.66 12.2314 420.821 14.5804C421.523 15.9574 422.252 16.9024 422.792 17.6044C425.033 14.6074 425.438 11.6914 425.438 11.3944C425.438 10.8274 424.979 10.8274 424.493 10.8274C423.737 10.8274 423.467 10.8004 423.17 10.6654C422.441 10.3414 422.063 9.8284 422.063 9.0994C422.063 8.4784 422.225 8.0194 422.414 7.4524C422.684 6.6154 423.251 4.6714 423.251 4.2934C423.251 3.8884 422.9 3.7534 422.549 3.7534ZM410.102 15.4714V22.4914C410.102 25.2994 409.076 25.2994 406.133 25.2994C405.269 25.2994 404.135 25.2994 404.135 23.7334C404.135 22.5454 404.891 22.3834 405.971 22.3834C407.051 22.3834 407.375 22.3834 407.375 21.4924V16.4974C406.106 16.9564 405.323 17.2264 404.864 17.2264C404.081 17.2264 403.676 16.4434 403.676 15.6874C403.676 14.8774 404.108 14.6614 404.378 14.5264C404.567 14.4454 406.916 13.7164 407.375 13.5544V7.7224H405.134C404.729 7.7224 403.757 7.7224 403.757 6.3994C403.757 5.1844 404.54 5.0494 405.134 5.0494H407.375V1.5124C407.375 1.1614 407.375 0.108398 408.725 0.108398C410.075 0.108398 410.102 1.1074 410.102 1.5124V5.0494H411.722C412.1 5.0494 413.072 5.0494 413.072 6.3724C413.072 7.5874 412.343 7.7224 411.722 7.7224H410.102V12.5554C411.668 11.9074 411.83 11.8264 412.154 11.8264C413.261 11.8264 413.288 13.0954 413.288 13.2304C413.288 14.1754 412.883 14.3374 410.102 15.4714Z" fill="white"/>
<path d="M391.308 2.37626L397.842 2.37626C399.786 2.37626 401.244 2.37626 401.244 5.13026C401.244 5.40026 401.055 12.2313 397.41 18.3063C398.652 19.8723 398.895 20.1153 401.379 22.0863C401.757 22.3833 402.135 22.7343 402.135 23.4093C402.135 24.1923 401.487 25.1103 400.542 25.1103C400.191 25.1103 399.813 25.0833 398.463 23.8683C397.842 23.3013 396.816 22.3023 395.682 20.7633C395.169 21.3573 394.008 22.7883 391.929 24.4083C391.335 24.8673 391.038 24.9753 390.66 24.9753C389.769 24.9753 389.148 24.1653 389.148 23.3553C389.148 22.7343 389.553 22.3833 390.201 21.8973C392.334 20.2503 393.198 19.3053 394.008 18.2793C391.254 13.7163 390.525 7.64126 390.525 7.07426C390.525 5.83226 391.767 5.83226 391.929 5.83226C393.036 5.83226 393.144 6.58826 393.225 7.18226C393.819 11.9073 395.196 14.6343 395.709 15.6603C396.546 14.1483 397.572 11.7723 398.139 8.53226C398.301 7.61426 398.463 6.31826 398.463 5.91326C398.463 5.04926 397.95 4.99526 397.302 4.99526L391.308 4.99526C390.471 4.99526 389.904 4.69826 389.904 3.69926C389.904 3.42926 389.931 3.32126 389.985 3.18626C389.688 3.45626 389.445 3.45626 388.824 3.45626V24.1383C388.824 24.4893 388.797 25.5153 387.555 25.5153C386.637 25.5153 386.124 25.1913 386.124 24.1383V20.5473C382.965 21.4113 378.672 22.2213 378.105 22.2213C376.89 22.2213 376.836 21.0063 376.836 20.7633C376.836 19.5753 377.727 19.4403 378.834 19.2783V3.45626H378.24C377.214 3.45626 376.917 2.83526 376.917 2.18726C376.917 1.40426 377.322 0.864258 378.24 0.864258L389.04 0.864258C389.445 0.864258 390.309 0.891258 390.309 2.16026C390.309 2.43026 390.282 2.56526 390.228 2.72726C390.552 2.40326 391.011 2.37626 391.308 2.37626ZM386.151 12.6363V9.20726H381.534V12.6363H386.151ZM386.151 6.85826V3.45626L381.534 3.45626V6.85826H386.151ZM381.534 14.9853V18.9003C381.696 18.8733 381.777 18.8463 381.966 18.8193C383.019 18.6573 384.99 18.2523 386.151 18.0093V14.9853H381.534Z" fill="white"/>
<path d="M357.48 5.58929V2.21429C357.48 1.75529 357.48 0.675293 358.938 0.675293C360.396 0.675293 360.396 1.72829 360.396 2.21429V5.37329C361.719 5.21129 362.556 5.10329 363.879 4.86029C364.473 4.75229 364.689 4.72529 364.905 4.72529C365.661 4.72529 366.174 5.37329 366.174 6.15629C366.174 7.04729 365.526 7.37129 364.905 7.53329C364.203 7.69529 362.583 7.99229 360.396 8.20829V11.0703C361.8 10.6383 363.609 10.0983 366.012 10.0983C371.466 10.0983 373.788 13.5543 373.788 17.0373C373.788 20.4393 371.736 23.8143 366.984 23.8143C365.58 23.8143 363.879 23.5713 363.879 22.0593C363.879 21.3033 364.419 20.6823 365.094 20.6823C365.553 20.6823 366.471 20.8713 366.876 20.8713C370.116 20.8713 370.764 18.6843 370.764 17.0643C370.764 14.9043 369.387 12.8253 365.526 12.8253C363.555 12.8253 361.881 13.3653 360.396 13.8783V19.3053C360.396 21.1413 360.396 24.3003 356.886 24.3003C354.564 24.3003 351 22.5453 351 19.2783C351 16.6053 353.241 14.2023 357.48 12.1773V8.42429C356.049 8.50529 355.59 8.53229 354.564 8.53229C352.431 8.53229 351.621 8.47829 351.621 7.02029C351.621 5.88629 352.296 5.58929 353.16 5.58929H357.48ZM357.561 19.3593V15.1473C356.913 15.4983 353.646 17.2803 353.646 19.3053C353.646 20.6283 355.347 21.5463 356.454 21.5463C357.534 21.5463 357.561 20.6013 357.561 19.3593ZM368.955 3.07829C369.657 3.07829 370.629 3.83429 372.087 5.07629C374.49 7.12829 374.49 7.61429 374.49 8.04629C374.49 8.85629 373.761 9.50429 373.005 9.50429C372.438 9.50429 372.276 9.36929 370.98 7.93829C370.251 7.12829 369.225 6.29129 368.226 5.50829C367.794 5.15729 367.551 4.80629 367.551 4.42829C367.551 3.72629 368.253 3.07829 368.955 3.07829Z" fill="white"/>
<path d="M337.066 4.77925C336.796 6.99325 336.094 12.7172 333.961 18.1172C333.313 19.7372 332.017 22.7342 329.452 22.7342C327.022 22.7342 323.836 19.2242 323.836 13.8782C323.836 7.37125 328.696 2.05225 336.121 2.05225C343.411 2.05225 347.218 7.23625 347.218 12.7172C347.218 20.8982 339.712 23.9762 338.524 23.9762C337.579 23.9762 337.039 23.1662 337.039 22.4102C337.039 21.7082 337.255 21.5462 338.713 20.8172C341.521 19.4402 344.14 17.0912 344.14 12.6902C344.14 11.5562 344.032 5.64325 337.066 4.77925ZM334.15 4.91425C327.238 6.39925 326.698 12.3392 326.698 14.0132C326.698 17.0642 328.156 19.6292 329.344 19.6292C330.397 19.6292 331.234 17.3342 331.828 15.5522C332.827 12.6632 333.61 9.20725 334.15 4.91425Z" fill="white"/>
<path d="M317.004 12.8253H311.928V24.0303C311.928 24.3813 311.928 25.4343 310.686 25.4343C309.768 25.4343 309.282 25.0833 309.282 24.0303V3.99625C309.282 1.83625 310.092 0.999254 312.306 0.999254L317.841 0.999254C320.163 0.999254 320.352 2.37625 320.352 3.42925C320.352 4.61725 320.136 7.26325 319.488 8.26225C318.867 9.20725 318.192 9.20725 315.195 9.20725C314.574 9.20725 313.656 9.20725 313.656 7.91125C313.656 7.66825 313.71 7.15525 314.196 6.91225C314.385 6.80425 314.493 6.83125 315.573 6.83125H316.14C316.95 6.83125 317.139 6.61525 317.301 6.15625C317.517 5.56225 317.598 4.94125 317.598 4.32025C317.598 3.88825 317.517 3.59125 316.842 3.59125H312.981C312.333 3.59125 311.928 3.91525 311.928 4.64425V10.4223H317.652C318.543 10.4223 320.352 10.4223 320.352 12.8253C320.352 14.2023 319.812 17.2533 318.084 20.4393C318.489 20.8713 320.676 22.6533 320.865 22.9233C321.027 23.1123 321.108 23.3823 321.108 23.6253C321.108 24.5163 320.379 25.1913 319.677 25.1913C318.813 25.1913 317.409 23.6523 316.572 22.7343C315.87 23.5983 314.682 25.1103 313.845 25.1103C313.062 25.1103 312.468 24.3543 312.468 23.7063C312.468 23.1933 312.792 22.8693 313.17 22.5453C313.818 21.9783 314.466 21.3843 315.006 20.6823C313.386 18.3063 312.414 15.6873 312.414 14.8503C312.414 14.0403 313.17 13.7703 313.656 13.7703C314.412 13.7703 314.601 14.2563 314.763 14.7423C315.006 15.5253 315.519 16.9023 316.437 18.3603C317.031 17.1183 317.895 14.7423 317.895 13.4733C317.895 12.8253 317.328 12.8253 317.004 12.8253ZM303.774 2.61925L306.96 2.61925C307.338 2.61925 308.202 2.61925 308.202 3.83425C308.202 4.99525 307.473 5.07625 306.96 5.07625H303.774V7.45225H307.878C308.634 7.45225 309.012 7.83025 309.012 8.61325C309.012 9.01825 308.985 9.85525 307.959 9.85525H307.176C306.987 10.8273 306.744 11.7453 306.339 13.0413H307.797C308.418 13.0413 308.931 13.3113 308.931 14.2563C308.931 14.8773 308.769 15.5253 307.797 15.5253H303.774V18.1713H307.041C307.392 18.1713 308.31 18.1713 308.31 19.4133C308.31 20.6823 307.419 20.6823 307.041 20.6823H303.774V24.0843C303.774 24.4623 303.774 25.4883 302.478 25.4883C301.425 25.4883 301.02 25.0563 301.02 24.0843V20.6823H297.915C297.591 20.6823 296.592 20.6823 296.592 19.4133C296.592 18.1983 297.483 18.1713 297.915 18.1713H301.02V15.5253H297.267C296.97 15.5253 295.971 15.5253 295.971 14.3103C295.971 13.5273 296.376 13.0413 297.159 13.0413H298.725C298.536 12.0153 297.969 10.2603 297.834 9.85525H296.943C296.16 9.85525 295.863 9.28825 295.863 8.69425C295.863 7.50625 296.754 7.45225 297.105 7.45225H301.02V5.07625H297.861C297.537 5.07625 296.592 5.07625 296.592 3.86125C296.592 2.67325 297.402 2.61925 297.861 2.61925H301.02V1.37725C301.02 0.918253 301.047 0.135254 302.316 0.135254C303.477 0.135254 303.774 0.513254 303.774 1.37725V2.61925ZM301.209 13.0413H303.828C304.044 12.4473 304.422 10.8273 304.53 9.85525H300.318C300.48 10.4223 301.101 12.6633 301.209 13.0413Z" fill="white"/>
<path d="M290.086 20.655H281.149V24.246C281.149 24.597 281.149 25.623 279.853 25.623C278.854 25.623 278.422 25.218 278.422 24.246V14.877C278.422 12.825 279.286 12.177 281.149 12.177H290.14C291.949 12.177 292.867 12.744 292.867 14.877V22.491C292.867 25.056 292.111 25.299 289.411 25.299C287.17 25.299 286.441 25.299 286.441 24.003C286.441 22.761 287.143 22.761 287.872 22.761C288.115 22.761 289.249 22.815 289.492 22.788C289.951 22.707 290.086 22.491 290.086 21.978V20.655ZM281.149 15.66H290.086V15.093C290.086 14.634 289.87 14.337 289.33 14.337H281.905C281.392 14.337 281.149 14.607 281.149 15.093V15.66ZM290.086 18.846V17.496H281.149V18.846H290.086ZM274.831 1.242V24.381C274.831 24.786 274.831 25.623 273.535 25.623C272.347 25.623 272.212 24.975 272.212 24.381V1.242C272.212 0.783 272.266 0 273.508 0C274.723 0 274.831 0.674999 274.831 1.242ZM270.484 5.454C271.348 5.454 271.348 6.183 271.348 6.561C271.348 8.019 271.051 10.665 270.754 12.258C270.592 13.122 270.484 13.662 269.674 13.662C269.188 13.662 268.594 13.392 268.594 12.771C268.594 12.582 268.972 10.746 269.026 10.341C269.269 8.802 269.323 8.262 269.431 6.399C269.485 5.562 269.836 5.454 270.484 5.454ZM276.1 4.266C276.586 4.266 276.775 4.536 277.153 5.373C277.423 5.967 277.963 7.209 277.963 7.749C277.963 8.343 277.423 8.667 276.91 8.667C276.37 8.667 276.316 8.559 275.749 6.885C275.668 6.669 275.29 5.67 275.236 5.454C275.182 5.292 275.182 5.13 275.182 5.103C275.182 4.536 275.695 4.266 276.1 4.266ZM286.981 1.89L292.408 1.89C292.732 1.89 293.65 1.917 293.65 2.943C293.65 3.834 293.002 4.05 292.408 4.05H286.981V5.427H292.03C292.543 5.427 293.083 5.589 293.083 6.399C293.083 7.047 292.732 7.344 292.03 7.344H286.981V8.775H292.894C293.677 8.775 294.109 9.099 294.109 9.882C294.109 10.611 293.785 10.989 292.894 10.989H278.125C277.477 10.989 276.91 10.773 276.91 9.909C276.91 9.153 277.288 8.775 278.125 8.775H284.227V7.344H279.259C278.422 7.344 278.233 6.912 278.233 6.399C278.233 6.021 278.287 5.427 279.259 5.427H284.227V4.05H278.773C278.125 4.05 277.558 3.834 277.558 2.97C277.558 2.214 277.99 1.89 278.773 1.89L284.227 1.89V1.08C284.227 0.323999 284.767 0.0269997 285.604 0.0269997C286.657 0.0269997 286.981 0.431999 286.981 1.08V1.89Z" fill="white"/>
<path d="M252.934 4.23911V1.67411C252.934 1.26911 252.934 0.162109 254.5 0.162109C256.039 0.162109 256.093 1.18811 256.093 1.67411V4.23911C256.093 7.69511 256.849 13.0141 259.792 16.9021C262.087 19.9261 265.111 21.6001 266.002 22.0861C266.515 22.3561 267.082 22.7071 267.082 23.4901C267.082 24.1111 266.596 25.2451 265.435 25.2451C264.328 25.2451 261.331 22.7881 260.089 21.6271C258.469 20.0611 255.877 17.3071 254.527 11.3401C253.204 17.0911 250.828 19.7371 249.235 21.3031C247.777 22.7341 244.753 25.2451 243.565 25.2451C242.593 25.2451 241.918 24.2731 241.918 23.4631C241.918 22.7881 242.323 22.4911 242.782 22.2211C247.048 19.8181 250.666 16.9291 252.394 9.66611C252.691 8.42411 252.934 4.50911 252.934 4.23911Z" fill="white"/>
<path d="M229.146 11.8263H229.578V9.39625H226.662C226.122 9.39625 225.474 9.28825 225.474 8.20825C225.474 7.07425 226.284 7.04725 226.662 7.04725H229.578V5.04925C229.578 4.37425 229.902 3.86125 230.739 3.86125C231.765 3.86125 231.9 4.64425 231.9 5.04925V7.04725H234.816C235.302 7.04725 236.004 7.15525 236.004 8.23525C236.004 9.36925 235.194 9.39625 234.816 9.39625H231.9V11.8263H232.386C234.573 11.8263 235.086 12.4203 235.086 14.6343V17.9823C235.086 20.2233 234.546 20.7633 232.386 20.7633H229.146C226.932 20.7633 226.446 20.1963 226.446 17.9823V14.6343C226.446 12.3933 226.959 11.8263 229.146 11.8263ZM232.926 17.8473V14.7693C232.926 14.3103 232.71 14.0133 232.197 14.0133H229.389C228.741 14.0133 228.66 14.4723 228.66 14.7693V17.8473C228.66 18.2523 228.795 18.6033 229.389 18.6033H232.197C232.71 18.6033 232.926 18.3333 232.926 17.8473ZM239.217 3.96925V21.8973C239.217 24.1113 238.407 24.9213 236.301 24.9213H225.177C223.125 24.9213 222.261 24.1653 222.261 21.8973V3.96925C222.261 1.70125 223.125 0.972253 225.177 0.972253L236.301 0.972253C238.326 0.972253 239.217 1.70125 239.217 3.96925ZM236.571 21.3573V4.50925C236.571 3.78025 236.22 3.42925 235.545 3.42925H225.933C225.177 3.42925 224.88 3.83425 224.88 4.50925V21.3573C224.88 22.0593 225.204 22.4103 225.933 22.4103H235.545C236.22 22.4103 236.571 22.0863 236.571 21.3573ZM220.263 6.77725V24.1653C220.263 24.5163 220.263 25.5693 218.886 25.5693C217.536 25.5693 217.536 24.5433 217.536 24.1653V12.2853C216.969 13.1223 216.726 13.4733 216.024 13.4733C215.241 13.4733 214.566 12.7713 214.566 11.7993C214.566 11.3943 214.647 11.1243 215.025 10.5843C217.536 6.93925 218.103 4.61725 218.967 1.18825C219.075 0.810253 219.237 0.135254 220.263 0.135254C220.776 0.135254 221.694 0.270254 221.694 1.40425C221.694 1.99825 221.181 4.18525 220.263 6.77725Z" fill="white"/>
<path d="M202.499 4.40097C200.042 4.64397 196.478 5.02197 194.075 5.02197C193.454 5.02197 192.374 5.02197 192.374 3.61797C192.374 2.18697 193.454 2.18697 194.372 2.18697C196.478 2.18697 197.666 2.18697 200.501 2.05197C201.284 1.99797 204.848 1.64697 205.415 1.64697C206.981 1.64697 207.359 2.69997 207.359 3.26697C207.359 3.91497 207.197 4.02297 205.658 5.15697C201.878 7.93797 200.771 8.88297 199.151 10.206C200.609 9.74697 201.797 9.42297 203.336 9.42297C209.222 9.42297 211.247 13.365 211.247 16.443C211.247 21.357 207.008 24.597 201.554 24.597C198.395 24.597 194.291 23.382 194.291 20.061C194.291 18.063 195.857 16.119 198.962 16.119C200.852 16.119 202.877 16.956 204.308 18.549C204.956 19.305 205.334 20.034 205.712 20.925C208.277 19.467 208.277 16.983 208.277 16.551C208.277 11.826 203.174 11.826 202.364 11.826C198.341 11.826 195.29 13.878 193.049 15.903C191.699 17.091 191.537 17.226 191.024 17.226C190.214 17.226 189.539 16.47 189.539 15.714C189.539 15.147 189.728 14.985 191.456 13.581C195.074 10.584 198.827 7.45197 202.499 4.40097ZM203.093 21.924C202.229 19.818 200.825 18.576 198.8 18.576C197.396 18.576 196.937 19.467 196.937 20.061C196.937 21.411 199.286 22.113 201.176 22.113C202.067 22.113 202.715 22.005 203.093 21.924Z" fill="white"/>
<path d="M177.875 6.72327L177.956 15.3093C177.956 16.6053 177.956 19.3593 175.931 21.8163C174.554 23.4903 171.746 25.1643 170.585 25.1643C169.64 25.1643 169.046 24.2733 169.046 23.5983C169.046 22.8693 169.478 22.6533 170.585 22.1673C171.233 21.8703 174.068 20.6013 174.743 18.0363C173.906 18.9003 172.799 19.2783 171.584 19.2783C168.803 19.2783 166.508 17.1183 166.508 13.8243C166.508 10.3953 169.073 8.37027 171.908 8.37027C173.609 8.37027 174.635 9.12627 175.094 9.50427L175.04 6.80427L167.318 6.99327C166.67 7.02027 163.808 7.12827 163.214 7.12827C162.782 7.12827 161.621 7.12827 161.621 5.69727C161.621 4.72527 162.242 4.37427 163.052 4.34727C163.673 4.32027 166.508 4.32027 167.102 4.32027L174.986 4.15827L174.932 1.89027C174.905 1.16127 175.148 0.405273 176.39 0.405273C177.794 0.405273 177.821 1.51227 177.821 1.86327L177.848 4.10427L180.278 4.05027C180.845 4.05027 183.41 3.88827 183.95 3.88827C184.841 3.88827 185.462 4.21227 185.462 5.29227C185.462 6.42627 184.733 6.56127 184.49 6.58827C184.058 6.66927 180.926 6.64227 180.251 6.66927L177.875 6.72327ZM174.905 13.7703C174.905 12.0963 173.744 10.8813 172.097 10.8813C170.558 10.8813 169.316 12.0153 169.316 13.8243C169.316 15.6603 170.531 16.7673 172.097 16.7673C173.879 16.7673 174.905 15.2553 174.905 13.7703Z" fill="white"/>
<path d="M155.545 21.5731V10.0711H150.307C148.363 10.0711 147.58 9.36911 147.58 7.34411V3.59111C147.58 1.59311 148.363 0.891113 150.307 0.891113L155.464 0.891113C157.3 0.891113 158.191 1.48511 158.191 3.59111V22.3561C158.191 24.6511 157.678 25.2721 154.762 25.2721C154.087 25.2721 153.223 25.2721 152.845 24.9481C152.467 24.6241 152.332 24.0841 152.359 23.5711C152.197 23.7871 151.9 24.2191 151.333 24.2191C150.604 24.2191 148.039 22.7341 146.473 19.8721C144.853 23.1931 141.127 24.4621 140.452 24.4621C139.291 24.4621 139.075 23.3821 139.075 23.0311C139.075 22.3291 139.534 22.1671 139.885 22.0591C142.342 21.2221 143.449 20.4661 144.259 18.7651H139.615C139.291 18.7651 138.4 18.7381 138.4 17.6851C138.4 16.7131 139.129 16.6321 139.615 16.6321H144.907C145.015 16.2001 145.069 15.7411 145.096 14.9041H140.182C139.669 14.9041 139.075 14.6611 139.075 13.8511C139.075 13.0951 139.615 12.7981 140.182 12.7981H142.315C142.18 12.3661 142.153 12.2851 141.91 11.6371C141.856 11.5021 141.829 11.3671 141.829 11.2591C141.829 10.6111 142.558 10.3411 143.179 10.3411C143.692 10.3411 144.151 10.4491 144.421 11.0701C144.637 11.5291 144.88 12.0961 144.88 12.4741C144.88 12.6631 144.826 12.7171 144.745 12.7981H148.066C148.255 12.2581 148.66 11.0161 148.741 10.9081C148.957 10.5301 149.416 10.4221 149.794 10.4221C150.55 10.4221 151.144 10.7731 151.144 11.3671C151.144 11.6101 150.982 12.0691 150.739 12.7981H152.845C153.412 12.7981 153.952 13.0681 153.952 13.8511C153.952 14.6881 153.331 14.9041 152.845 14.9041H147.607C147.58 15.5251 147.526 16.0111 147.445 16.6321H153.331C153.655 16.6321 154.546 16.6321 154.546 17.6851C154.546 18.6841 153.79 18.7651 153.331 18.7651H148.471C149.794 20.5741 150.685 21.0601 152.17 21.8431C152.332 21.9241 152.683 22.1131 152.683 22.7341C152.764 22.6261 152.953 22.4641 153.385 22.4641C153.628 22.4641 154.681 22.4911 154.897 22.4911C155.491 22.4101 155.545 21.9781 155.545 21.5731ZM150.253 4.56311H155.545V3.80711C155.545 3.40211 155.383 3.05111 154.789 3.05111H150.982C150.469 3.05111 150.253 3.32111 150.253 3.80711V4.56311ZM150.982 8.04611H155.545V6.34511L150.253 6.34511V7.29011C150.253 7.69511 150.415 8.04611 150.982 8.04611ZM137.509 10.0711V24.2191C137.509 24.5701 137.509 25.5151 136.24 25.5151C135.079 25.5151 134.863 24.9481 134.863 24.2191V3.59111C134.863 1.51211 135.727 0.891113 137.563 0.891113L142.693 0.891113C144.502 0.891113 145.393 1.48511 145.393 3.59111V7.34411C145.393 9.42311 144.529 10.0711 142.693 10.0711H137.509ZM137.509 4.56311H142.828V3.80711C142.828 3.29411 142.558 3.05111 142.072 3.05111H138.265C137.752 3.05111 137.509 3.32111 137.509 3.80711V4.56311ZM137.509 6.34511V8.04611H142.072C142.585 8.04611 142.828 7.77611 142.828 7.29011V6.34511H137.509Z" fill="white"/>
<path d="M109.023 14.1753C109.023 10.2333 109.86 3.78028 110.454 2.56528C110.643 2.16028 111.021 1.86328 111.723 1.86328C112.506 1.86328 113.289 2.34928 113.289 3.15928C113.289 3.51028 113.208 3.80728 113.046 4.53628C112.371 7.50628 111.993 10.9893 111.993 14.0943C111.993 16.8753 112.29 19.1703 112.749 21.3843C112.992 22.5183 112.992 22.5993 112.992 22.9503C112.992 24.0303 111.885 24.1653 111.48 24.1653C110.616 24.1653 110.292 23.7873 110.076 23.2203C109.671 22.2213 109.023 18.6303 109.023 14.1753ZM129.813 5.42728C129.813 6.96628 128.841 6.99328 128.274 6.99328C128.085 6.99328 125.304 6.91228 124.737 6.91228C123.792 6.91228 122.307 6.93928 120.174 7.12828C119.877 7.15528 118.446 7.26328 118.311 7.26328C117.96 7.26328 117.015 7.26328 117.015 5.75128C117.015 4.64428 117.771 4.37428 118.554 4.26628C119.31 4.15828 122.334 3.94228 124.683 3.94228C129.192 3.94228 129.813 4.10428 129.813 5.42728ZM116.124 18.0363C116.124 16.9023 116.988 13.9593 118.635 13.9593C119.175 13.9593 119.985 14.2293 119.985 14.9583C119.985 15.2283 119.85 15.4713 119.715 15.6873C119.121 16.6053 118.905 16.9563 118.905 17.4693C118.905 19.3053 121.227 19.6293 124.386 19.6293C125.871 19.6293 127.032 19.5213 128.625 19.3323C129.219 19.2783 129.408 19.2513 129.624 19.2513C130.866 19.2513 131.028 20.2233 131.028 20.6823C131.028 21.7083 130.38 22.0323 130.056 22.1403C129.354 22.3563 126.816 22.5993 124.575 22.5993C121.119 22.5993 116.124 22.2753 116.124 18.0363Z" fill="white"/>
<path d="M94.3099 7.29035V9.96335C95.3089 9.93635 99.6829 9.74735 100.574 9.74735C101.006 9.74735 102.194 9.74735 102.194 11.1783C102.194 12.4473 101.222 12.5013 100.817 12.5283C99.3049 12.6363 95.9839 12.6903 94.3369 12.7173L94.3639 16.3623C96.3619 16.8213 99.3859 18.0903 101.06 19.0893C102.167 19.7373 102.356 20.2233 102.356 20.7093C102.356 21.6273 101.681 22.3563 100.925 22.3563C100.574 22.3563 100.142 22.1133 98.7919 21.3033C97.0099 20.2233 95.0929 19.5213 94.3639 19.2783C94.3099 21.2493 94.2829 24.4623 88.7209 24.4623C84.9949 24.4623 82.6729 22.7343 82.6729 20.1693C82.6729 19.7103 82.6729 15.7683 89.2879 15.7683C89.9359 15.7683 90.8539 15.8223 91.3939 15.8763V12.7713C86.2369 12.8253 84.6439 12.7983 84.4009 12.7983C83.7259 12.7713 82.7809 12.7173 82.7809 11.3673C82.7809 9.99035 83.8609 9.99035 84.4819 9.99035C85.5619 9.99035 90.3949 10.0173 91.3669 9.99035L91.3399 7.31735C89.3959 7.34435 85.3189 7.37135 83.5099 7.31735C82.7809 7.29035 81.8359 7.26335 81.8359 5.91335C81.8359 4.50935 82.9159 4.50935 83.5909 4.50935C84.8059 4.50935 90.2329 4.56335 91.3399 4.56335L91.3129 2.10635C91.3129 1.43135 91.6099 0.756348 92.7439 0.756348C93.1759 0.756348 94.2829 0.756348 94.2829 2.10635V4.53635C95.4709 4.53635 100.709 4.34735 101.789 4.34735C102.14 4.34735 103.301 4.34735 103.301 5.72435C103.301 7.07435 102.221 7.10135 101.87 7.12835C98.7109 7.23635 97.7659 7.23635 94.3099 7.29035ZM91.4209 18.4953C91.0159 18.4413 90.3409 18.3333 89.2879 18.3333C86.0749 18.3333 85.4809 19.4673 85.4809 20.1963C85.4809 21.4383 86.9659 21.9243 88.4239 21.9243C91.4209 21.9243 91.4209 20.6283 91.4209 18.4953Z" fill="white"/>
<path d="M69.5777 7.85738C71.7647 11.1244 72.5207 12.0964 74.3297 14.2834C74.6267 14.6614 74.8157 14.9314 74.8157 15.3904C74.8157 16.1734 74.1947 16.8214 73.4657 16.8214C73.0877 16.8214 71.4677 16.0924 70.7927 15.8494C70.3607 15.6874 68.7677 15.3094 67.9577 15.0934C67.5797 14.9854 67.2287 14.6614 67.2287 14.0944C67.2287 13.5814 67.5257 12.8794 68.2277 12.8794C68.4437 12.8794 69.5777 13.2304 70.0907 13.4194C68.4707 11.2864 67.9037 10.4764 66.5807 8.42438C64.1777 8.80238 60.4787 9.12638 57.2387 9.12638C55.7807 9.12638 54.5117 9.12638 54.5117 7.58738C54.5117 6.53438 55.0247 6.18338 56.1047 6.18338C56.5367 6.18338 58.4537 6.21038 58.8317 6.21038C61.0997 6.21038 63.2057 6.02138 64.9337 5.80538C64.6907 5.34638 63.5567 3.37538 63.3137 2.97038C63.0167 2.43038 62.9357 2.10638 62.9357 1.89038C62.9357 0.918383 64.0697 0.567383 64.6367 0.567383C65.1497 0.567383 65.5817 0.837383 65.8517 1.29638C66.2027 1.94438 67.6877 4.72538 68.0117 5.29238C69.5777 4.94138 71.3867 4.53638 73.1687 3.88838C73.5737 3.72638 74.7887 3.26738 75.0857 3.26738C76.0037 3.26738 76.4357 4.18538 76.4357 4.91438C76.4357 5.61638 76.0307 5.96738 75.5177 6.18338C73.8437 6.88538 71.7647 7.39838 69.5777 7.85738ZM58.9397 17.9554C58.9397 21.4924 65.0687 21.4924 66.3647 21.4924C68.4977 21.4924 70.0637 21.3034 71.6567 21.0334C72.5747 20.8714 72.6827 20.8714 72.9797 20.8714C73.8167 20.8714 74.2757 21.4654 74.2757 22.3024C74.2757 23.3284 73.5197 23.5714 73.1957 23.6794C72.5207 23.9224 69.9287 24.3274 66.4457 24.3274C62.8277 24.3274 60.0737 23.8144 58.0757 22.2484C56.8877 21.3034 55.9697 19.8454 55.9697 18.0634C55.9697 16.6054 56.7527 14.4184 58.1027 14.4184C58.9127 14.4184 59.6687 15.0124 59.6687 15.6604C59.6687 15.9034 59.5067 16.1734 59.2907 16.6054C59.1827 16.7944 58.9397 17.2264 58.9397 17.9554Z" fill="white"/>
<path d="M42.1166 8.667H35.2586C35.1506 8.748 35.1236 8.775 34.7726 9.045C35.5016 9.774 36.7976 10.881 38.5526 11.826C40.1996 11.016 42.5216 9.504 42.5216 8.991C42.5216 8.667 42.2246 8.667 42.1166 8.667ZM47.7326 19.71V22.302C47.7326 24.516 46.6256 25.029 44.7356 25.029H32.2346C30.2906 25.029 29.2106 24.489 29.2106 22.302V19.71C29.2106 17.442 30.3986 16.983 32.2346 16.983H44.7356C44.9246 16.983 45.1406 16.983 45.6806 17.037C44.1416 16.713 41.1986 15.876 38.5256 14.661C33.2876 16.956 27.7526 17.739 27.0776 17.739C25.9436 17.739 25.8086 16.632 25.8086 16.281C25.8086 15.12 26.6726 15.039 27.5096 14.985C30.3176 14.769 33.0446 14.04 35.7176 13.068C34.7996 12.474 33.4766 11.448 32.6666 10.503C31.0466 11.502 28.6976 12.663 27.9146 12.663C27.1856 12.663 26.7266 11.853 26.7266 11.205C26.7266 10.53 27.1046 10.314 27.6986 10.098C31.7756 8.559 33.1256 7.209 35.2046 5.157C35.6366 4.725 35.8256 4.671 36.0686 4.617H30.4256C29.8316 4.617 29.3726 4.86 29.3726 5.67V7.236C29.3726 7.641 29.3456 8.586 28.0226 8.586C26.8346 8.586 26.5376 8.073 26.5376 7.236V5.238C26.5376 3.024 27.3746 2.241 29.5346 2.241L36.9866 2.241V1.161C36.9866 0.405 37.4456 0 38.3906 0C39.3086 0 40.0106 0.188999 40.0106 1.161V2.241H47.4626C49.5416 2.241 50.4866 2.943 50.4866 5.238V7.317C50.4866 7.83 50.4326 8.748 49.0556 8.748C47.7056 8.748 47.6246 7.911 47.6246 7.317V5.67C47.6246 4.914 47.2196 4.617 46.5716 4.617L36.6896 4.617C37.5806 4.833 37.8236 5.481 37.8236 5.751C37.8236 5.994 37.6886 6.264 37.4456 6.534L44.1686 6.534C45.0326 6.534 46.4366 6.534 46.4366 8.181C46.4366 8.91 46.1396 9.396 45.1676 10.314C44.1416 11.286 42.9266 12.231 41.4956 13.095C44.7086 14.175 45.8966 14.391 49.9466 14.985C50.5946 15.093 51.2696 15.255 51.2696 16.254C51.2696 16.74 51.1616 17.739 49.9196 17.739C49.4876 17.739 48.1376 17.577 46.0856 17.118C47.2196 17.469 47.7326 18.09 47.7326 19.71ZM44.9246 21.762V20.115C44.9246 19.332 44.4386 19.116 43.8716 19.116H33.0716C32.4506 19.116 32.0186 19.359 32.0186 20.115V21.762C32.0186 22.518 32.4506 22.761 33.0716 22.761H43.8716C44.5196 22.761 44.9246 22.464 44.9246 21.762Z" fill="white"/>
<path d="M6.48 5.58929V2.21429C6.48 1.75529 6.48 0.675293 7.938 0.675293C9.396 0.675293 9.396 1.72829 9.396 2.21429V5.37329C10.719 5.21129 11.556 5.10329 12.879 4.86029C13.473 4.75229 13.689 4.72529 13.905 4.72529C14.661 4.72529 15.174 5.37329 15.174 6.15629C15.174 7.04729 14.526 7.37129 13.905 7.53329C13.203 7.69529 11.583 7.99229 9.396 8.20829V11.0703C10.8 10.6383 12.609 10.0983 15.012 10.0983C20.466 10.0983 22.788 13.5543 22.788 17.0373C22.788 20.4393 20.736 23.8143 15.984 23.8143C14.58 23.8143 12.879 23.5713 12.879 22.0593C12.879 21.3033 13.419 20.6823 14.094 20.6823C14.553 20.6823 15.471 20.8713 15.876 20.8713C19.116 20.8713 19.764 18.6843 19.764 17.0643C19.764 14.9043 18.387 12.8253 14.526 12.8253C12.555 12.8253 10.881 13.3653 9.396 13.8783V19.3053C9.396 21.1413 9.396 24.3003 5.886 24.3003C3.564 24.3003 0 22.5453 0 19.2783C0 16.6053 2.241 14.2023 6.48 12.1773V8.42429C5.049 8.50529 4.59 8.53229 3.564 8.53229C1.431 8.53229 0.621 8.47829 0.621 7.02029C0.621 5.88629 1.296 5.58929 2.16 5.58929H6.48ZM6.561 19.3593L6.561 15.1473C5.913 15.4983 2.646 17.2803 2.646 19.3053C2.646 20.6283 4.347 21.5463 5.454 21.5463C6.534 21.5463 6.561 20.6013 6.561 19.3593ZM17.955 3.07829C18.657 3.07829 19.629 3.83429 21.087 5.07629C23.49 7.12829 23.49 7.61429 23.49 8.04629C23.49 8.85629 22.761 9.50429 22.005 9.50429C21.438 9.50429 21.276 9.36929 19.98 7.93829C19.251 7.12829 18.225 6.29129 17.226 5.50829C16.794 5.15729 16.551 4.80629 16.551 4.42829C16.551 3.72629 17.253 3.07829 17.955 3.07829Z" fill="white"/>
</svg>
