<svg width="181" height="171" viewBox="0 0 181 171" fill="none" xmlns="http://www.w3.org/2000/svg">
<path fill-rule="evenodd" clip-rule="evenodd" d="M103.411 3.6838C56.9719 -6.47665 11.4887 21.1028 1.82208 65.2844C-6.12735 101.618 12.6216 137.863 45.3602 155.244L39.7752 170.263L61.9471 162.018C64.0612 162.644 66.2146 163.201 68.4051 163.68C114.844 173.84 160.326 146.26 169.993 102.078C179.659 57.897 149.85 13.8444 103.411 3.6838Z" fill="white"/>
<mask id="path-2-inside-1_2217_2330" fill="white">
<path fill-rule="evenodd" clip-rule="evenodd" d="M111.087 2.15239C63.6302 -8.2305 17.1509 19.9529 7.27242 65.1026C-0.815811 102.07 18.1422 138.949 51.3281 156.801L46.0478 171L66.6806 163.327C69.4896 164.23 72.369 165.01 75.3144 165.654C122.771 176.037 169.25 147.853 179.129 102.703C189.007 57.5533 158.544 12.5355 111.087 2.15239Z"/>
</mask>
<path d="M111.087 2.15239L111.577 -0.0856101L111.577 -0.0856081L111.087 2.15239ZM7.27242 65.1026L5.03441 64.6129V64.6129L7.27242 65.1026ZM51.3281 156.801L52.4134 154.783L54.171 155.729L53.4753 157.599L51.3281 156.801ZM46.0478 171L46.8463 173.147L42.1565 174.891L43.9005 170.202L46.0478 171ZM66.6806 163.327L65.8821 161.18L66.6261 160.903L67.3818 161.146L66.6806 163.327ZM75.3144 165.654L74.8248 167.892H74.8247L75.3144 165.654ZM179.129 102.703L181.367 103.193L181.367 103.193L179.129 102.703ZM111.087 2.15239L110.597 4.39039C64.2701 -5.74537 19.0957 21.7824 9.51041 65.5922L7.27242 65.1026L5.03441 64.6129C15.206 18.1234 62.9903 -10.7156 111.577 -0.0856101L111.087 2.15239ZM7.27242 65.1026L9.51041 65.5922C1.66074 101.47 20.0436 137.37 52.4134 154.783L51.3281 156.801L50.2428 158.818C16.2407 140.527 -3.29237 102.671 5.03441 64.6129L7.27242 65.1026ZM51.3281 156.801L53.4753 157.599L48.1951 171.799L46.0478 171L43.9005 170.202L49.1808 156.002L51.3281 156.801ZM46.0478 171L45.2493 168.853L65.8821 161.18L66.6806 163.327L67.4791 165.474L46.8463 173.147L46.0478 171ZM66.6806 163.327L67.3818 161.146C70.1222 162.027 72.931 162.788 75.8041 163.416L75.3144 165.654L74.8247 167.892C71.8069 167.232 68.8569 166.433 65.9795 165.508L66.6806 163.327ZM75.3144 165.654L75.8041 163.416C122.131 173.552 167.306 146.024 176.891 102.214L179.129 102.703L181.367 103.193C171.195 149.683 123.411 178.523 74.8248 167.892L75.3144 165.654ZM179.129 102.703L176.891 102.214C186.476 58.4035 156.924 14.5264 110.597 4.39039L111.087 2.15239L111.577 -0.0856081C160.163 10.5447 191.538 56.7032 181.367 103.193L179.129 102.703Z" fill="#E33B60" mask="url(#path-2-inside-1_2217_2330)"/>
<path d="M44.7031 64.688C44.6831 64.8476 44.6532 65.0971 44.6132 65.4365C44.5733 65.7558 44.5334 66.0852 44.4935 66.4245C44.4735 66.7439 44.4536 67.0333 44.4336 67.2928C44.3937 67.8717 44.3538 68.5104 44.3138 69.209C44.2939 69.8877 44.2739 70.5963 44.254 71.3348C44.234 72.0534 44.214 72.782 44.1941 73.5205C44.1941 74.2591 44.1941 74.9777 44.1941 75.6763C44.1941 76.4947 44.204 77.4029 44.224 78.4009C44.244 79.379 44.2639 80.357 44.2839 81.3351C44.3238 82.2932 44.3438 83.1715 44.3438 83.9699C44.3637 84.7683 44.3737 85.3871 44.3737 85.8263C44.3737 87.0638 44.234 88.0219 43.9545 88.7006C43.6951 89.3793 43.3158 89.8483 42.8168 90.1078C42.3178 90.3873 41.7389 90.527 41.0802 90.527C40.3616 90.527 39.5931 90.3773 38.7748 90.0779C37.9564 89.7984 37.1879 89.3992 36.4693 88.8802C35.7707 88.3613 35.1918 87.7624 34.7327 87.0838C34.2936 86.3852 34.074 85.6366 34.074 84.8382C34.074 83.8801 34.4333 82.932 35.1519 81.9938C35.8904 81.0357 36.8585 80.1574 38.0562 79.359C39.2738 78.5606 40.5812 77.9218 41.9784 77.4428C43.3158 76.9438 44.6931 76.5845 46.1103 76.3649C47.5275 76.1254 48.805 76.0056 49.9427 76.0056C51.4797 76.0056 52.867 76.2651 54.1045 76.7841C55.3421 77.2831 56.3301 78.0217 57.0687 78.9997C57.8072 79.9778 58.1765 81.1555 58.1765 82.5328C58.1765 83.6905 57.9569 84.7584 57.5178 85.7364C57.0787 86.7145 56.3701 87.5628 55.392 88.2814C54.4339 88.98 53.1564 89.529 51.5595 89.9282C50.8809 90.0679 50.2022 90.1677 49.5236 90.2276C48.8649 90.3074 48.2361 90.3673 47.6373 90.4072L46.26 86.5448C46.9387 86.5448 47.5874 86.5349 48.2062 86.5149C48.8449 86.475 49.4238 86.4151 49.9427 86.3353C50.7611 86.1756 51.4997 85.936 52.1584 85.6167C52.8171 85.2973 53.336 84.8781 53.7153 84.3592C54.0945 83.8402 54.2842 83.2214 54.2842 82.5028C54.2842 81.8242 54.0945 81.2453 53.7153 80.7662C53.356 80.2872 52.847 79.9179 52.1883 79.6584C51.5296 79.3989 50.7611 79.2692 49.8828 79.2692C48.6253 79.2692 47.3478 79.3989 46.0504 79.6584C44.7729 79.9179 43.5453 80.2772 42.3677 80.7363C41.4894 81.0756 40.701 81.4748 40.0023 81.9339C39.3037 82.3731 38.7548 82.8322 38.3556 83.3112C37.9564 83.7903 37.7568 84.2494 37.7568 84.6885C37.7568 84.928 37.8266 85.1576 37.9664 85.3771C38.126 85.5768 38.3256 85.7564 38.5652 85.9161C38.8047 86.0758 39.0442 86.2055 39.2838 86.3053C39.5432 86.3852 39.7628 86.4251 39.9425 86.4251C40.2219 86.4251 40.4514 86.3452 40.6311 86.1856C40.8107 86.0059 40.9006 85.6666 40.9006 85.1676C40.9006 84.6286 40.8806 83.8601 40.8407 82.8621C40.8207 81.8441 40.7908 80.7163 40.7509 79.4788C40.7309 78.2412 40.7209 77.0136 40.7209 75.796C40.7209 74.9577 40.7209 74.1094 40.7209 73.2511C40.7409 72.3928 40.7509 71.5744 40.7509 70.7959C40.7509 70.0174 40.7509 69.3288 40.7509 68.73C40.7708 68.1312 40.7808 67.6621 40.7808 67.3228C40.7808 67.1032 40.7708 66.8237 40.7509 66.4844C40.7309 66.1451 40.701 65.8057 40.661 65.4664C40.6411 65.1071 40.6111 64.8476 40.5712 64.688H44.7031ZM53.2362 67.9216C53.9947 68.2809 54.8431 68.72 55.7812 69.239C56.7393 69.758 57.6475 70.2769 58.5058 70.7959C59.3841 71.2949 60.0827 71.744 60.6017 72.1432L58.8053 75.1972C58.426 74.8779 57.927 74.5186 57.3082 74.1193C56.7094 73.7201 56.0507 73.3109 55.3321 72.8918C54.6335 72.4726 53.9548 72.0834 53.2961 71.7241C52.6374 71.3448 52.0685 71.0454 51.5895 70.8258L53.2362 67.9216ZM34.8824 69.5683C35.7607 69.6681 36.5292 69.738 37.1879 69.7779C37.8665 69.7979 38.4753 69.8079 39.0143 69.8079C39.7927 69.8079 40.6511 69.7779 41.5892 69.718C42.5274 69.6382 43.4855 69.5384 44.4635 69.4186C45.4416 69.2789 46.3897 69.1192 47.3079 68.9396C48.2461 68.7599 49.0944 68.5603 49.8529 68.3407L49.9427 72.0534C49.1044 72.253 48.1962 72.4327 47.2181 72.5924C46.24 72.7321 45.252 72.8618 44.254 72.9816C43.2759 73.1014 42.3377 73.1912 41.4395 73.2511C40.5612 73.3109 39.7927 73.3409 39.134 73.3409C38.136 73.3409 37.3176 73.3309 36.6789 73.3109C36.0402 73.291 35.4613 73.2511 34.9423 73.1912L34.8824 69.5683ZM63.3563 76.6643H90.9918V80.2872H63.3563V76.6643ZM75.3027 71.9037H79.0753V87.503C79.0753 88.5209 78.9355 89.3094 78.6561 89.8683C78.3966 90.4272 77.8976 90.8464 77.159 91.1258C76.4405 91.4053 75.5622 91.5849 74.5242 91.6647C73.4863 91.7446 72.2787 91.7745 70.9014 91.7546C70.8415 91.3953 70.7217 90.9861 70.5421 90.527C70.3625 90.0879 70.1728 89.6387 69.9732 89.1796C69.7736 88.7405 69.574 88.3613 69.3744 88.0419C70.073 88.0619 70.7617 88.0818 71.4403 88.1018C72.139 88.1217 72.7577 88.1317 73.2967 88.1317C73.8556 88.1317 74.2448 88.1317 74.4644 88.1317C74.7837 88.1317 75.0033 88.0818 75.1231 87.982C75.2428 87.8822 75.3027 87.7026 75.3027 87.4431V71.9037ZM66.5001 65.4065H85.3629V68.9396H66.5001V65.4065ZM84.1652 65.4065H85.1233L85.9617 65.1969L88.6863 67.2629C87.7681 68.2409 86.7102 69.219 85.5126 70.1971C84.3349 71.1752 83.1073 72.1133 81.8298 73.0115C80.5524 73.8898 79.3048 74.6483 78.0872 75.287C77.9076 75.0276 77.678 74.7381 77.3986 74.4188C77.1191 74.0994 76.8297 73.79 76.5303 73.4906C76.2309 73.1712 75.9614 72.9018 75.7219 72.6822C76.7998 72.1432 77.8876 71.4945 78.9854 70.736C80.1032 69.9775 81.1212 69.1991 82.0394 68.4006C82.9576 67.6022 83.6662 66.8736 84.1652 66.2149V65.4065ZM107.908 67.7419C107.789 67.4026 107.649 66.9834 107.489 66.4844C107.33 65.9854 107.15 65.4864 106.95 64.9874L110.992 64.5083C111.152 65.2868 111.332 66.0652 111.531 66.8437C111.731 67.6022 111.95 68.3507 112.19 69.0893C112.429 69.8079 112.669 70.4865 112.909 71.1253C113.368 72.3628 113.907 73.5804 114.525 74.778C115.164 75.9557 115.723 76.8839 116.202 77.5626C116.462 77.9418 116.721 78.3011 116.981 78.6404C117.26 78.9598 117.539 79.2692 117.819 79.5686L115.963 82.2633C115.543 82.1834 115.014 82.1036 114.376 82.0238C113.737 81.924 113.038 81.8341 112.28 81.7543C111.541 81.6744 110.793 81.5946 110.034 81.5148C109.296 81.4349 108.617 81.375 107.998 81.3351L108.298 78.1614C108.797 78.2013 109.326 78.2512 109.885 78.3111C110.443 78.351 110.962 78.3909 111.441 78.4308C111.94 78.4708 112.35 78.5007 112.669 78.5207C112.31 77.9418 111.93 77.2831 111.531 76.5446C111.132 75.806 110.743 75.0375 110.364 74.2391C109.984 73.4207 109.635 72.6023 109.316 71.784C108.996 70.9456 108.717 70.1871 108.477 69.5084C108.258 68.8298 108.068 68.2409 107.908 67.7419ZM97.0099 69.1492C98.8662 69.3687 100.613 69.5184 102.25 69.5983C103.886 69.6781 105.413 69.6981 106.831 69.6581C108.248 69.6182 109.545 69.5284 110.723 69.3887C111.641 69.2689 112.529 69.1392 113.388 68.9994C114.266 68.8597 115.124 68.6901 115.963 68.4904C116.821 68.2908 117.629 68.0713 118.388 67.8318L118.867 71.6043C118.208 71.784 117.49 71.9536 116.711 72.1133C115.953 72.273 115.164 72.4227 114.346 72.5624C113.527 72.6822 112.719 72.792 111.92 72.8918C109.904 73.1113 107.689 73.2411 105.274 73.281C102.858 73.3209 100.124 73.2211 97.0698 72.9816L97.0099 69.1492ZM102.998 79.359C102.539 80.0576 102.18 80.7463 101.92 81.4249C101.661 82.0836 101.531 82.7423 101.531 83.401C101.531 84.6586 102.08 85.5768 103.178 86.1556C104.276 86.7145 105.842 86.994 107.878 86.994C109.515 86.994 110.992 86.9241 112.31 86.7844C113.647 86.6446 114.845 86.475 115.903 86.2754L115.693 90.0479C114.855 90.2076 113.757 90.3673 112.4 90.527C111.062 90.6867 109.475 90.7665 107.639 90.7665C105.623 90.7466 103.866 90.4771 102.369 89.9581C100.872 89.4591 99.7146 88.7106 98.8962 87.7125C98.0778 86.6945 97.6686 85.4769 97.6686 84.0597C97.6686 83.1416 97.7983 82.2433 98.0578 81.3651C98.3373 80.4668 98.7365 79.5087 99.2555 78.4907L102.998 79.359ZM141.143 64.7778C141.103 65.0772 141.063 65.4165 141.023 65.7958C141.003 66.1551 140.983 66.5243 140.963 66.9036C140.943 67.3028 140.923 67.8417 140.903 68.5204C140.883 69.1791 140.873 69.9077 140.873 70.7061C140.873 71.5045 140.873 72.293 140.873 73.0714C140.873 73.8499 140.873 74.5585 140.873 75.1972C140.873 76.0356 140.893 76.9737 140.933 78.0117C140.973 79.0297 141.023 80.0676 141.083 81.1255C141.163 82.1635 141.223 83.1416 141.263 84.0597C141.322 84.958 141.352 85.7065 141.352 86.3053C141.352 87.1437 141.133 87.9121 140.694 88.6108C140.255 89.2894 139.596 89.8284 138.718 90.2276C137.859 90.6268 136.771 90.8264 135.454 90.8264C133.059 90.8264 131.242 90.3873 130.005 89.509C128.767 88.6307 128.148 87.4031 128.148 85.8263C128.148 84.8083 128.438 83.92 129.017 83.1615C129.616 82.3831 130.464 81.7743 131.562 81.3351C132.68 80.896 134.007 80.6764 135.544 80.6764C137.181 80.6764 138.708 80.8561 140.125 81.2154C141.562 81.5547 142.869 82.0038 144.047 82.5627C145.225 83.1216 146.273 83.7104 147.191 84.3292C148.109 84.948 148.888 85.5069 149.526 86.0059L147.371 89.3593C146.652 88.6806 145.844 88.0119 144.945 87.3532C144.067 86.6945 143.099 86.0957 142.041 85.5568C141.003 85.0179 139.895 84.5887 138.718 84.2693C137.56 83.93 136.332 83.7603 135.035 83.7603C133.997 83.7603 133.189 83.94 132.61 84.2993C132.051 84.6586 131.771 85.0977 131.771 85.6167C131.771 85.9959 131.891 86.3253 132.131 86.6047C132.37 86.8842 132.719 87.0938 133.179 87.2335C133.638 87.3732 134.217 87.4431 134.915 87.4431C135.454 87.4431 135.913 87.3832 136.292 87.2634C136.692 87.1437 137.001 86.9241 137.221 86.6047C137.44 86.2854 137.55 85.8362 137.55 85.2574C137.55 84.8182 137.53 84.1895 137.49 83.3711C137.47 82.5527 137.44 81.6545 137.4 80.6764C137.36 79.6784 137.32 78.7003 137.28 77.7422C137.241 76.7841 137.221 75.9358 137.221 75.1972C137.221 74.4786 137.221 73.7301 137.221 72.9517C137.241 72.1532 137.251 71.3648 137.251 70.5863C137.251 69.8079 137.251 69.0992 137.251 68.4605C137.27 67.8018 137.28 67.2629 137.28 66.8437C137.28 66.5643 137.261 66.2249 137.221 65.8257C137.201 65.4065 137.161 65.0572 137.101 64.7778H141.143ZM128.717 67.5922C129.256 67.6721 129.855 67.7519 130.514 67.8318C131.173 67.9116 131.841 67.9914 132.52 68.0713C133.218 68.1312 133.877 68.1811 134.496 68.221C135.115 68.2409 135.654 68.2509 136.113 68.2509C138.149 68.2509 140.175 68.191 142.191 68.0713C144.227 67.9316 146.333 67.682 148.508 67.3228L148.478 70.766C147.46 70.9057 146.283 71.0354 144.945 71.1552C143.608 71.275 142.181 71.3748 140.664 71.4546C139.167 71.5145 137.66 71.5444 136.143 71.5444C135.524 71.5444 134.755 71.5245 133.837 71.4845C132.939 71.4247 132.041 71.3548 131.143 71.275C130.244 71.1752 129.466 71.0853 128.807 71.0055L128.717 67.5922ZM128.568 74.0595C129.047 74.1393 129.616 74.2192 130.274 74.299C130.933 74.3788 131.602 74.4387 132.28 74.4786C132.979 74.5186 133.638 74.5585 134.256 74.5984C134.875 74.6184 135.384 74.6283 135.783 74.6283C137.64 74.6283 139.316 74.5884 140.814 74.5086C142.331 74.4287 143.748 74.3289 145.065 74.2092C146.383 74.0894 147.65 73.9497 148.868 73.79L148.838 77.323C147.8 77.4428 146.792 77.5426 145.814 77.6224C144.856 77.7023 143.867 77.7721 142.849 77.832C141.851 77.8919 140.774 77.9318 139.616 77.9518C138.458 77.9718 137.161 77.9817 135.724 77.9817C135.145 77.9817 134.426 77.9718 133.568 77.9518C132.709 77.9119 131.831 77.862 130.933 77.8021C130.055 77.7422 129.276 77.6723 128.598 77.5925L128.568 74.0595ZM39.6131 111.227V122.275H36.1699V114.551H32.7866V111.227H39.6131ZM39.6131 120.838C40.192 121.836 41.0103 122.575 42.0683 123.054C43.1262 123.513 44.4136 123.772 45.9306 123.832C46.8289 123.872 47.9067 123.902 49.1643 123.922C50.4417 123.922 51.7691 123.912 53.1464 123.892C54.5437 123.872 55.901 123.842 57.2184 123.802C58.5557 123.742 59.7534 123.663 60.8113 123.563C60.6716 123.822 60.5219 124.172 60.3622 124.611C60.2225 125.03 60.0827 125.459 59.943 125.898C59.8232 126.337 59.7334 126.727 59.6735 127.066C58.7553 127.126 57.6974 127.166 56.4998 127.186C55.3022 127.206 54.0646 127.216 52.7871 127.216C51.5096 127.236 50.2721 127.236 49.0744 127.216C47.8768 127.216 46.8189 127.196 45.9007 127.156C44.1042 127.076 42.5773 126.786 41.3197 126.287C40.0622 125.788 38.9843 124.96 38.0861 123.802C37.5073 124.401 36.8885 124.99 36.2298 125.569C35.591 126.168 34.8924 126.786 34.1339 127.425L32.4273 123.862C33.066 123.443 33.7347 122.974 34.4333 122.455C35.1519 121.936 35.8405 121.397 36.4992 120.838H39.6131ZM32.9063 102.365L35.631 100.329C36.2098 100.768 36.8086 101.267 37.4274 101.826C38.0462 102.385 38.6151 102.944 39.134 103.502C39.653 104.061 40.0722 104.59 40.3916 105.089L37.4274 107.365C37.148 106.866 36.7587 106.327 36.2597 105.748C35.7807 105.149 35.2417 104.56 34.6429 103.981C34.0441 103.383 33.4652 102.844 32.9063 102.365ZM40.9006 101.706H59.7634V104.61H40.9006V101.706ZM40.5413 117.395H60.1526V120.329H40.5413V117.395ZM48.4157 99.5502H51.9188V123.144H48.4157V99.5502ZM45.3618 112.125V113.622H55.0327V112.125H45.3618ZM45.3618 108.323V109.79H55.0327V108.323H45.3618ZM42.0982 105.868H58.4759V116.108H42.0982V105.868ZM91.381 123.443C90.6824 124.082 89.874 124.611 88.9558 125.03C88.0376 125.449 86.9697 125.659 85.7521 125.659C84.6343 125.659 83.7261 125.269 83.0275 124.491C82.3488 123.713 82.0095 122.595 82.0095 121.138C82.0095 120.339 82.0594 119.481 82.1592 118.563C82.279 117.625 82.4087 116.686 82.5484 115.748C82.6881 114.81 82.8079 113.922 82.9077 113.084C83.0275 112.225 83.0874 111.457 83.0874 110.778C83.0874 110.04 82.9077 109.491 82.5484 109.131C82.1891 108.752 81.6901 108.562 81.0514 108.562C80.3528 108.562 79.5743 108.812 78.716 109.311C77.8577 109.79 76.9794 110.409 76.0812 111.167C75.1829 111.926 74.3246 112.734 73.5063 113.592C72.7078 114.451 72.0092 115.269 71.4104 116.048L71.3804 111.437C71.7397 111.038 72.2088 110.568 72.7877 110.03C73.3865 109.491 74.0552 108.932 74.7937 108.353C75.5522 107.774 76.3407 107.235 77.159 106.736C77.9974 106.217 78.8357 105.798 79.6741 105.479C80.5324 105.159 81.3608 104.999 82.1592 104.999C83.2371 104.999 84.1153 105.199 84.794 105.598C85.4926 105.978 86.0116 106.506 86.3509 107.185C86.6903 107.844 86.8599 108.592 86.8599 109.431C86.8599 110.209 86.81 111.057 86.7102 111.976C86.6104 112.874 86.4906 113.792 86.3509 114.73C86.2112 115.668 86.0914 116.597 85.9916 117.515C85.9118 118.433 85.8719 119.271 85.8719 120.03C85.8719 120.429 85.9717 120.758 86.1713 121.018C86.3709 121.257 86.6503 121.377 87.0096 121.377C87.5685 121.377 88.1873 121.197 88.866 120.838C89.5446 120.459 90.2233 119.92 90.9019 119.221L91.381 123.443ZM70.6918 109.161C70.3724 109.201 69.9632 109.251 69.4642 109.311C68.9652 109.371 68.4263 109.441 67.8474 109.521C67.2885 109.6 66.7196 109.68 66.1408 109.76C65.5619 109.84 65.023 109.91 64.524 109.97L64.1347 106.137C64.5739 106.157 64.9831 106.167 65.3623 106.167C65.7615 106.147 66.2206 106.127 66.7396 106.107C67.2187 106.067 67.7875 106.017 68.4462 105.958C69.1249 105.878 69.8036 105.788 70.4822 105.688C71.1808 105.588 71.8296 105.479 72.4284 105.359C73.0272 105.239 73.4963 105.119 73.8356 104.999L75.0332 106.526C74.8536 106.766 74.644 107.065 74.4045 107.425C74.1849 107.784 73.9554 108.153 73.7158 108.532C73.4763 108.892 73.2667 109.211 73.0871 109.491L71.3206 115.119C71.0012 115.579 70.602 116.157 70.1229 116.856C69.6638 117.555 69.1748 118.293 68.6558 119.072C68.1368 119.85 67.6278 120.599 67.1288 121.317C66.6298 122.036 66.1807 122.665 65.7815 123.204L63.4162 119.94C63.7954 119.461 64.2246 118.912 64.7036 118.293C65.2026 117.654 65.7216 116.986 66.2605 116.287C66.7995 115.569 67.3284 114.86 67.8474 114.161C68.3664 113.443 68.8454 112.774 69.2846 112.155C69.7437 111.517 70.1229 110.968 70.4223 110.509L70.4822 109.73L70.6918 109.161ZM70.3325 103.413C70.3325 102.973 70.3325 102.534 70.3325 102.095C70.3325 101.636 70.2926 101.177 70.2127 100.718L74.5841 100.868C74.4644 101.327 74.3346 101.995 74.1949 102.874C74.0751 103.732 73.9454 104.72 73.8057 105.838C73.6859 106.956 73.5661 108.133 73.4464 109.371C73.3466 110.588 73.2567 111.806 73.1769 113.024C73.117 114.241 73.0871 115.379 73.0871 116.437C73.0871 117.255 73.0871 118.084 73.0871 118.922C73.107 119.76 73.127 120.619 73.147 121.497C73.1669 122.375 73.2068 123.283 73.2667 124.222C73.2867 124.481 73.3166 124.84 73.3565 125.299C73.3965 125.778 73.4364 126.188 73.4763 126.527H69.3445C69.3844 126.168 69.4043 125.768 69.4043 125.329C69.4243 124.89 69.4343 124.551 69.4343 124.311C69.4542 123.333 69.4742 122.425 69.4942 121.587C69.5141 120.748 69.5241 119.86 69.5241 118.922C69.5441 117.984 69.574 116.896 69.6139 115.658C69.6339 115.199 69.6638 114.62 69.7038 113.922C69.7437 113.203 69.7836 112.425 69.8235 111.586C69.8834 110.728 69.9433 109.86 70.0032 108.982C70.063 108.103 70.1129 107.285 70.1529 106.526C70.2127 105.748 70.2527 105.089 70.2726 104.55C70.3126 103.991 70.3325 103.612 70.3325 103.413ZM98.0578 116.018H107.459V118.413H98.0578V116.018ZM98.0578 119.7H107.459V122.126H98.0578V119.7ZM97.3692 102.065H107.908V104.85H97.3692V102.065ZM93.7463 107.005H108.298V109.88H93.7463V107.005ZM98.0578 123.413H108.358V126.078H98.0578V123.413ZM101.501 113.563H104.615V124.611H101.501V113.563ZM99.2854 112.155H107.759V114.76H99.2854V127.665H96.1416V115.06L98.8662 112.155H99.2854ZM102.489 109.79L105.723 110.359C105.403 111.057 105.084 111.726 104.765 112.365C104.465 113.004 104.186 113.553 103.926 114.012L101.202 113.443C101.421 112.924 101.651 112.325 101.89 111.646C102.15 110.948 102.349 110.329 102.489 109.79ZM96.8303 99.5203L100.004 100.269C99.6048 101.606 99.0758 102.914 98.4171 104.191C97.7584 105.469 97.0698 106.536 96.3512 107.395C96.1516 107.215 95.8821 107.015 95.5428 106.796C95.2234 106.556 94.8841 106.337 94.5248 106.137C94.1655 105.918 93.8561 105.738 93.5966 105.598C94.3152 104.86 94.954 103.952 95.5129 102.874C96.0718 101.776 96.5109 100.658 96.8303 99.5203ZM99.5848 103.742L102.669 104.461C102.17 106.297 101.541 108.073 100.782 109.79C100.044 111.487 99.1956 113.074 98.2375 114.551C97.2794 116.028 96.2314 117.305 95.0937 118.383C94.9939 118.144 94.8242 117.844 94.5847 117.485C94.3452 117.106 94.1056 116.726 93.8661 116.347C93.6266 115.968 93.397 115.668 93.1775 115.449C94.6545 114.111 95.942 112.415 97.0398 110.359C98.1377 108.283 98.986 106.077 99.5848 103.742ZM110.873 104.91H119.286V108.173H110.873V104.91ZM114.495 106.257H116.202V111.377C116.202 111.976 116.252 112.694 116.352 113.533C116.452 114.351 116.621 115.249 116.861 116.227C117.12 117.205 117.46 118.193 117.879 119.191C118.318 120.17 118.877 121.118 119.555 122.036C120.234 122.954 121.052 123.772 122.011 124.491C121.791 124.77 121.542 125.09 121.262 125.449C121.003 125.828 120.743 126.218 120.484 126.617C120.224 127.016 120.005 127.365 119.825 127.665C118.987 127.026 118.248 126.258 117.609 125.359C116.971 124.461 116.432 123.533 115.992 122.575C115.573 121.597 115.234 120.669 114.974 119.79C114.735 118.892 114.565 118.124 114.465 117.485C114.366 118.124 114.176 118.892 113.897 119.79C113.617 120.669 113.228 121.587 112.729 122.545C112.25 123.503 111.651 124.431 110.932 125.329C110.234 126.228 109.405 127.006 108.447 127.665C108.328 127.405 108.148 127.076 107.908 126.677C107.669 126.297 107.419 125.918 107.16 125.539C106.9 125.18 106.671 124.89 106.471 124.671C107.509 123.952 108.387 123.134 109.106 122.215C109.845 121.277 110.443 120.309 110.903 119.311C111.382 118.293 111.751 117.295 112.01 116.317C112.29 115.339 112.479 114.431 112.579 113.592C112.679 112.734 112.729 111.996 112.729 111.377V106.257H114.495ZM110.364 99.5203L113.747 99.9993C113.547 101.756 113.258 103.472 112.879 105.149C112.519 106.806 112.09 108.353 111.591 109.79C111.092 111.227 110.523 112.485 109.885 113.563C109.665 113.403 109.366 113.213 108.986 112.994C108.607 112.754 108.218 112.535 107.819 112.335C107.439 112.135 107.11 111.976 106.831 111.856C107.469 110.898 108.018 109.77 108.477 108.473C108.956 107.155 109.346 105.738 109.645 104.221C109.944 102.684 110.184 101.117 110.364 99.5203ZM118.328 104.91H118.807L119.346 104.79L121.711 105.419C121.591 106.377 121.452 107.365 121.292 108.383C121.152 109.401 120.993 110.379 120.813 111.317C120.633 112.255 120.444 113.093 120.244 113.832L117.43 113.024C117.549 112.365 117.659 111.606 117.759 110.748C117.879 109.89 117.989 109.002 118.088 108.083C118.208 107.145 118.288 106.267 118.328 105.449V104.91ZM130.843 111.227V122.275H127.49V114.551H124.376V111.227H130.843ZM130.843 120.868C131.422 121.886 132.25 122.635 133.328 123.114C134.426 123.593 135.743 123.862 137.28 123.922C138.219 123.962 139.336 123.992 140.634 124.012C141.931 124.012 143.299 124.002 144.736 123.982C146.173 123.962 147.57 123.932 148.927 123.892C150.305 123.832 151.522 123.752 152.58 123.653C152.461 123.932 152.321 124.271 152.161 124.671C152.021 125.05 151.892 125.449 151.772 125.868C151.652 126.307 151.562 126.697 151.502 127.036C150.544 127.076 149.446 127.106 148.209 127.126C146.971 127.166 145.684 127.186 144.347 127.186C143.029 127.206 141.762 127.206 140.544 127.186C139.326 127.166 138.239 127.136 137.28 127.096C135.464 127.016 133.917 126.727 132.64 126.228C131.382 125.729 130.294 124.89 129.376 123.713C128.817 124.311 128.228 124.91 127.61 125.509C127.011 126.108 126.352 126.737 125.633 127.395L123.927 123.982C124.546 123.543 125.194 123.054 125.873 122.515C126.552 121.976 127.2 121.427 127.819 120.868H130.843ZM124.166 102.005L127.011 100.209C127.55 100.688 128.089 101.217 128.628 101.796C129.186 102.375 129.695 102.953 130.155 103.532C130.614 104.111 130.973 104.65 131.232 105.149L128.178 107.155C127.959 106.676 127.63 106.137 127.19 105.538C126.751 104.92 126.262 104.301 125.723 103.682C125.204 103.063 124.685 102.504 124.166 102.005ZM141.382 101.407H149.676V104.431H144.646V123.024H141.382V101.407ZM133.298 101.676L136.592 102.514V117.964H133.298V101.676ZM147.85 101.407H151.143V116.676C151.143 117.395 151.063 117.984 150.904 118.443C150.744 118.882 150.425 119.231 149.945 119.491C149.506 119.75 148.957 119.91 148.299 119.97C147.66 120.03 146.901 120.06 146.023 120.06C145.963 119.621 145.834 119.112 145.634 118.533C145.454 117.934 145.255 117.435 145.035 117.036C145.534 117.056 146.013 117.066 146.472 117.066C146.931 117.066 147.241 117.066 147.401 117.066C147.7 117.066 147.85 116.906 147.85 116.587V101.407ZM138.987 99.5502L141.472 102.245C140.514 102.804 139.486 103.323 138.388 103.802C137.31 104.281 136.272 104.69 135.274 105.029C135.195 104.69 135.045 104.271 134.825 103.772C134.626 103.273 134.426 102.854 134.226 102.514C134.785 102.235 135.354 101.935 135.933 101.616C136.532 101.297 137.091 100.957 137.61 100.598C138.149 100.239 138.608 99.8895 138.987 99.5502ZM131.562 117.066C132.7 116.806 134.047 116.497 135.604 116.137C137.181 115.758 138.768 115.369 140.364 114.97L140.754 118.024C139.356 118.403 137.929 118.792 136.472 119.191C135.015 119.571 133.688 119.92 132.49 120.239L131.562 117.066Z" fill="#E33B60"/>
<path d="M33.0371 40.434C32.9865 40.1553 32.9231 39.902 32.8471 39.674C32.7838 39.446 32.7205 39.218 32.6571 38.99L35.3361 38.553C35.3615 38.743 35.3868 38.9837 35.4121 39.275C35.4501 39.5537 35.4945 39.807 35.5451 40.035C35.5705 40.2123 35.6275 40.5417 35.7161 41.023C35.8048 41.5043 35.9125 42.087 36.0391 42.771C36.1658 43.455 36.3051 44.196 36.4571 44.994C36.6218 45.7793 36.7801 46.5773 36.9321 47.388C37.0841 48.186 37.2298 48.946 37.3691 49.668C37.5211 50.39 37.6478 51.0297 37.7491 51.587C37.8631 52.1443 37.9455 52.556 37.9961 52.822C38.0595 53.1007 38.1355 53.4047 38.2241 53.734C38.3128 54.0633 38.4015 54.38 38.4901 54.684L35.7351 55.178C35.6845 54.8233 35.6465 54.4813 35.6211 54.152C35.5958 53.8353 35.5515 53.5377 35.4881 53.259C35.4375 53.0057 35.3615 52.6193 35.2601 52.1C35.1715 51.568 35.0575 50.9473 34.9181 50.238C34.7915 49.5287 34.6521 48.775 34.5001 47.977C34.3481 47.179 34.1961 46.381 34.0441 45.583C33.8921 44.785 33.7465 44.0377 33.6071 43.341C33.4805 42.6443 33.3665 42.0427 33.2651 41.536C33.1638 41.0167 33.0878 40.6493 33.0371 40.434ZM27.8501 42.847C28.1541 42.8343 28.4518 42.8217 28.7431 42.809C29.0345 42.7837 29.3258 42.752 29.6171 42.714C29.8958 42.676 30.2885 42.6253 30.7951 42.562C31.3018 42.486 31.8845 42.4037 32.5431 42.315C33.2018 42.2137 33.8795 42.106 34.5761 41.992C35.2855 41.878 35.9695 41.7703 36.6281 41.669C37.2868 41.555 37.8695 41.4537 38.3761 41.365C38.8955 41.2763 39.3008 41.2067 39.5921 41.156C39.8961 41.0927 40.2128 41.0293 40.5421 40.966C40.8715 40.89 41.1501 40.8203 41.3781 40.757L41.8341 43.246C41.6315 43.2587 41.3591 43.2903 41.0171 43.341C40.6751 43.3917 40.3648 43.436 40.0861 43.474C39.7441 43.5247 39.2945 43.5943 38.7371 43.683C38.1925 43.7717 37.5845 43.873 36.9131 43.987C36.2418 44.0883 35.5578 44.196 34.8611 44.31C34.1645 44.4113 33.4995 44.519 32.8661 44.633C32.2328 44.7343 31.6755 44.823 31.1941 44.899C30.7128 44.975 30.3518 45.032 30.1111 45.07C29.8071 45.1333 29.5221 45.1967 29.2561 45.26C28.9901 45.3107 28.6925 45.3803 28.3631 45.469L27.8501 42.847ZM27.8691 48.433C28.1225 48.4203 28.4391 48.395 28.8191 48.357C29.2118 48.3063 29.5538 48.262 29.8451 48.224C30.1871 48.1733 30.6431 48.1037 31.2131 48.015C31.7831 47.9263 32.4228 47.825 33.1321 47.711C33.8541 47.597 34.5951 47.483 35.3551 47.369C36.1151 47.2423 36.8561 47.1157 37.5781 46.989C38.3001 46.8623 38.9588 46.7483 39.5541 46.647C40.1495 46.5457 40.6308 46.4633 40.9981 46.4C41.3655 46.324 41.7138 46.248 42.0431 46.172C42.3851 46.096 42.6828 46.02 42.9361 45.944L43.4491 48.452C43.1958 48.4647 42.8855 48.5027 42.5181 48.566C42.1635 48.6167 41.8025 48.6737 41.4351 48.737C41.0298 48.8003 40.5231 48.8827 39.9151 48.984C39.3071 49.0853 38.6358 49.1993 37.9011 49.326C37.1791 49.44 36.4381 49.5603 35.6781 49.687C34.9181 49.801 34.1898 49.9213 33.4931 50.048C32.7965 50.162 32.1695 50.2633 31.6121 50.352C31.0548 50.4407 30.6178 50.5167 30.3011 50.58C29.8958 50.656 29.5285 50.7257 29.1991 50.789C28.8825 50.8523 28.6165 50.9157 28.4011 50.979L27.8691 48.433ZM52.2461 42.714C52.3348 42.9167 52.4488 43.208 52.5881 43.588C52.7401 43.9553 52.8985 44.3543 53.0631 44.785C53.2278 45.203 53.3735 45.602 53.5001 45.982C53.6268 46.362 53.7281 46.6597 53.8041 46.875L51.5241 47.673C51.4735 47.4323 51.3848 47.1283 51.2581 46.761C51.1315 46.3937 50.9921 46.0073 50.8401 45.602C50.6881 45.184 50.5361 44.785 50.3841 44.405C50.2321 44.025 50.0991 43.7083 49.9851 43.455L52.2461 42.714ZM59.2571 44.101C59.1558 44.405 59.0671 44.6647 58.9911 44.88C58.9278 45.0953 58.8645 45.298 58.8011 45.488C58.5605 46.4507 58.2311 47.4133 57.8131 48.376C57.3951 49.326 56.8631 50.219 56.2171 51.055C55.3305 52.195 54.3235 53.164 53.1961 53.962C52.0815 54.7473 50.9668 55.349 49.8521 55.767L47.8571 53.734C48.5538 53.544 49.2885 53.2653 50.0611 52.898C50.8338 52.518 51.5811 52.062 52.3031 51.53C53.0251 50.998 53.6458 50.409 54.1651 49.763C54.5958 49.2183 54.9758 48.5977 55.3051 47.901C55.6471 47.1917 55.9258 46.438 56.1411 45.64C56.3691 44.8293 56.5211 44.0313 56.5971 43.246L59.2571 44.101ZM47.8381 43.721C47.9648 43.9617 48.1041 44.272 48.2561 44.652C48.4208 45.032 48.5855 45.431 48.7501 45.849C48.9148 46.267 49.0731 46.6723 49.2251 47.065C49.3898 47.4577 49.5165 47.787 49.6051 48.053L47.2871 48.927C47.2111 48.6737 47.0971 48.3443 46.9451 47.939C46.8058 47.5337 46.6475 47.1093 46.4701 46.666C46.2928 46.21 46.1218 45.792 45.9571 45.412C45.8051 45.032 45.6721 44.7407 45.5581 44.538L47.8381 43.721ZM73.7731 38.192C73.9378 38.4327 74.1151 38.7177 74.3051 39.047C74.5078 39.3637 74.6978 39.6803 74.8751 39.997C75.0525 40.3137 75.1918 40.5797 75.2931 40.795L73.7541 41.441C73.5641 41.061 73.3298 40.624 73.0511 40.13C72.7851 39.636 72.5255 39.199 72.2721 38.819L73.7731 38.192ZM76.1671 37.527C76.3445 37.7677 76.5281 38.0463 76.7181 38.363C76.9081 38.6797 77.0918 38.9963 77.2691 39.313C77.4591 39.617 77.6048 39.883 77.7061 40.111L76.2051 40.757C76.0025 40.3643 75.7618 39.921 75.4831 39.427C75.2045 38.933 74.9321 38.5087 74.6661 38.154L76.1671 37.527ZM74.6471 41.574C74.5711 41.688 74.4571 41.8653 74.3051 42.106C74.1658 42.3467 74.0581 42.5683 73.9821 42.771C73.7161 43.3663 73.3868 44.0313 72.9941 44.766C72.6141 45.5007 72.1771 46.2417 71.6831 46.989C71.2018 47.7363 70.6888 48.4267 70.1441 49.06C69.4348 49.8707 68.6495 50.6623 67.7881 51.435C66.9395 52.2077 66.0401 52.9233 65.0901 53.582C64.1528 54.228 63.1901 54.7853 62.2021 55.254L60.2451 53.202C61.2711 52.8093 62.2655 52.3153 63.2281 51.72C64.1908 51.1247 65.0838 50.4787 65.9071 49.782C66.7305 49.0853 67.4398 48.4077 68.0351 47.749C68.4531 47.2803 68.8458 46.7737 69.2131 46.229C69.5931 45.6717 69.9288 45.127 70.2201 44.595C70.5115 44.0503 70.7268 43.5563 70.8661 43.113C70.7395 43.113 70.5115 43.113 70.1821 43.113C69.8528 43.113 69.4665 43.113 69.0231 43.113C68.5925 43.113 68.1365 43.113 67.6551 43.113C67.1738 43.113 66.7115 43.113 66.2681 43.113C65.8375 43.113 65.4575 43.113 65.1281 43.113C64.7988 43.113 64.5645 43.113 64.4251 43.113C64.1591 43.113 63.8805 43.1193 63.5891 43.132C63.2978 43.1447 63.0191 43.1637 62.7531 43.189C62.4998 43.2143 62.3035 43.227 62.1641 43.227V40.529C62.3541 40.5417 62.5885 40.5607 62.8671 40.586C63.1458 40.6113 63.4245 40.6303 63.7031 40.643C63.9945 40.6557 64.2351 40.662 64.4251 40.662C64.5898 40.662 64.8495 40.662 65.2041 40.662C65.5588 40.662 65.9641 40.662 66.4201 40.662C66.8761 40.662 67.3448 40.662 67.8261 40.662C68.3201 40.662 68.7888 40.662 69.2321 40.662C69.6881 40.662 70.0808 40.662 70.4101 40.662C70.7395 40.662 70.9801 40.662 71.1321 40.662C71.5501 40.662 71.9301 40.643 72.2721 40.605C72.6268 40.5543 72.8991 40.4973 73.0891 40.434L74.6471 41.574ZM70.3911 47.483C70.8851 47.8757 71.4108 48.3317 71.9681 48.851C72.5255 49.3703 73.0765 49.9087 73.6211 50.466C74.1658 51.0233 74.6661 51.5617 75.1221 52.081C75.5908 52.5877 75.9835 53.031 76.3001 53.411L74.1341 55.311C73.6655 54.6523 73.1271 53.9747 72.5191 53.278C71.9238 52.5813 71.2905 51.891 70.6191 51.207C69.9605 50.5103 69.2891 49.8517 68.6051 49.231L70.3911 47.483ZM91.5571 41.118C91.4811 41.232 91.3671 41.4093 91.2151 41.65C91.0758 41.8907 90.9681 42.1123 90.8921 42.315C90.6261 42.9103 90.2968 43.5753 89.9041 44.31C89.5241 45.0447 89.0871 45.7857 88.5931 46.533C88.1118 47.2677 87.5988 47.958 87.0541 48.604C86.3448 49.402 85.5595 50.1937 84.6981 50.979C83.8495 51.7517 82.9501 52.4673 82.0001 53.126C81.0628 53.772 80.1001 54.3293 79.1121 54.798L77.1551 52.746C78.1811 52.3533 79.1755 51.8593 80.1381 51.264C81.1008 50.6687 81.9938 50.0227 82.8171 49.326C83.6405 48.6293 84.3498 47.9517 84.9451 47.293C85.3631 46.8117 85.7558 46.2987 86.1231 45.754C86.5031 45.2093 86.8388 44.671 87.1301 44.139C87.4215 43.5943 87.6368 43.094 87.7761 42.638C87.6495 42.638 87.4215 42.638 87.0921 42.638C86.7628 42.638 86.3765 42.638 85.9331 42.638C85.5025 42.638 85.0465 42.638 84.5651 42.638C84.0838 42.638 83.6215 42.638 83.1781 42.638C82.7475 42.638 82.3675 42.638 82.0381 42.638C81.7088 42.638 81.4745 42.638 81.3351 42.638C81.0691 42.638 80.7905 42.6507 80.4991 42.676C80.2078 42.6887 79.9291 42.7077 79.6631 42.733C79.4098 42.7457 79.2135 42.7583 79.0741 42.771V40.073C79.2641 40.0857 79.4985 40.1047 79.7771 40.13C80.0558 40.1553 80.3345 40.1743 80.6131 40.187C80.9045 40.1997 81.1451 40.206 81.3351 40.206C81.4998 40.206 81.7595 40.206 82.1141 40.206C82.4688 40.206 82.8741 40.206 83.3301 40.206C83.7861 40.206 84.2548 40.206 84.7361 40.206C85.2301 40.206 85.6988 40.206 86.1421 40.206C86.5981 40.206 86.9908 40.206 87.3201 40.206C87.6495 40.206 87.8901 40.206 88.0421 40.206C88.4601 40.206 88.8401 40.1807 89.1821 40.13C89.5368 40.0793 89.8091 40.0223 89.9991 39.959L91.5571 41.118ZM87.3011 47.027C87.7951 47.4197 88.3208 47.8757 88.8781 48.395C89.4355 48.9143 89.9865 49.4527 90.5311 50.01C91.0758 50.5673 91.5761 51.1057 92.0321 51.625C92.5008 52.1317 92.8935 52.575 93.2101 52.955L91.0441 54.836C90.5755 54.19 90.0371 53.5187 89.4291 52.822C88.8338 52.1253 88.2005 51.435 87.5291 50.751C86.8705 50.0543 86.1991 49.3957 85.5151 48.775L87.3011 47.027ZM104.642 42.372C104.642 42.7013 104.756 42.9863 104.984 43.227C105.225 43.455 105.51 43.569 105.839 43.569C106.181 43.569 106.466 43.455 106.694 43.227C106.935 42.9863 107.055 42.7013 107.055 42.372C107.055 42.03 106.935 41.745 106.694 41.517C106.466 41.2763 106.181 41.156 105.839 41.156C105.51 41.156 105.225 41.2763 104.984 41.517C104.756 41.745 104.642 42.03 104.642 42.372ZM103.388 42.372C103.388 41.9033 103.496 41.4853 103.711 41.118C103.939 40.7507 104.237 40.4593 104.604 40.244C104.972 40.016 105.383 39.902 105.839 39.902C106.308 39.902 106.726 40.016 107.093 40.244C107.461 40.4593 107.752 40.7507 107.967 41.118C108.195 41.4853 108.309 41.9033 108.309 42.372C108.309 42.8153 108.195 43.227 107.967 43.607C107.752 43.9743 107.461 44.272 107.093 44.5C106.726 44.7153 106.308 44.823 105.839 44.823C105.383 44.823 104.972 44.7153 104.604 44.5C104.237 44.272 103.939 43.9743 103.711 43.607C103.496 43.227 103.388 42.8153 103.388 42.372ZM91.5702 48.585C91.8615 48.3443 92.1212 48.1163 92.3492 47.901C92.5772 47.6857 92.8432 47.4323 93.1472 47.141C93.3625 46.913 93.6095 46.6407 93.8882 46.324C94.1668 46.0073 94.4645 45.6527 94.7812 45.26C95.1105 44.8673 95.4462 44.4683 95.7882 44.063C96.1302 43.645 96.4658 43.2397 96.7952 42.847C97.3525 42.1757 97.9288 41.8083 98.5242 41.745C99.1195 41.669 99.7845 41.9857 100.519 42.695C100.95 43.0877 101.387 43.512 101.83 43.968C102.286 44.424 102.73 44.88 103.16 45.336C103.604 45.792 104.015 46.229 104.395 46.647C104.826 47.0903 105.307 47.6033 105.839 48.186C106.384 48.7687 106.935 49.364 107.492 49.972C108.062 50.58 108.588 51.1437 109.069 51.663L106.979 53.905C106.561 53.373 106.112 52.8157 105.63 52.233C105.149 51.6503 104.68 51.0867 104.224 50.542C103.768 49.9847 103.35 49.4907 102.97 49.06C102.704 48.7307 102.4 48.3823 102.058 48.015C101.729 47.635 101.4 47.2613 101.07 46.894C100.741 46.5267 100.437 46.1973 100.158 45.906C99.8795 45.6147 99.6578 45.3803 99.4932 45.203C99.1765 44.899 98.9042 44.7597 98.6762 44.785C98.4608 44.7977 98.2138 44.975 97.9352 45.317C97.7578 45.5577 97.5425 45.8427 97.2892 46.172C97.0358 46.5013 96.7762 46.8497 96.5102 47.217C96.2442 47.5843 95.9845 47.939 95.7312 48.281C95.4905 48.623 95.2752 48.9207 95.0852 49.174C94.8698 49.478 94.6545 49.7883 94.4392 50.105C94.2238 50.409 94.0275 50.6877 93.8502 50.941L91.5702 48.585ZM109.183 45.203C109.411 45.2157 109.703 45.2347 110.057 45.26C110.412 45.2727 110.779 45.2853 111.159 45.298C111.552 45.3107 111.913 45.317 112.242 45.317C112.559 45.317 112.952 45.317 113.42 45.317C113.889 45.317 114.396 45.317 114.94 45.317C115.498 45.317 116.068 45.317 116.65 45.317C117.246 45.317 117.835 45.317 118.417 45.317C119 45.317 119.551 45.317 120.07 45.317C120.59 45.317 121.052 45.317 121.457 45.317C121.875 45.317 122.205 45.317 122.445 45.317C122.889 45.317 123.307 45.3043 123.699 45.279C124.092 45.241 124.415 45.2157 124.668 45.203V48.186C124.453 48.1733 124.13 48.1543 123.699 48.129C123.269 48.1037 122.851 48.091 122.445 48.091C122.205 48.091 121.875 48.091 121.457 48.091C121.039 48.091 120.571 48.091 120.051 48.091C119.532 48.091 118.981 48.091 118.398 48.091C117.828 48.091 117.246 48.091 116.65 48.091C116.055 48.091 115.479 48.091 114.921 48.091C114.377 48.091 113.87 48.091 113.401 48.091C112.945 48.091 112.559 48.091 112.242 48.091C111.698 48.091 111.14 48.1037 110.57 48.129C110 48.1417 109.538 48.1607 109.183 48.186V45.203ZM138.865 41.118C138.789 41.232 138.675 41.4093 138.523 41.65C138.384 41.8907 138.276 42.1123 138.2 42.315C137.934 42.9103 137.605 43.5753 137.212 44.31C136.832 45.0447 136.395 45.7857 135.901 46.533C135.42 47.2677 134.907 47.958 134.362 48.604C133.653 49.402 132.867 50.1937 132.006 50.979C131.157 51.7517 130.258 52.4673 129.308 53.126C128.371 53.772 127.408 54.3293 126.42 54.798L124.463 52.746C125.489 52.3533 126.483 51.8593 127.446 51.264C128.409 50.6687 129.302 50.0227 130.125 49.326C130.948 48.6293 131.658 47.9517 132.253 47.293C132.671 46.8117 133.064 46.2987 133.431 45.754C133.811 45.2093 134.147 44.671 134.438 44.139C134.729 43.5943 134.945 43.094 135.084 42.638C134.957 42.638 134.729 42.638 134.4 42.638C134.071 42.638 133.684 42.638 133.241 42.638C132.81 42.638 132.354 42.638 131.873 42.638C131.392 42.638 130.929 42.638 130.486 42.638C130.055 42.638 129.675 42.638 129.346 42.638C129.017 42.638 128.782 42.638 128.643 42.638C128.377 42.638 128.098 42.6507 127.807 42.676C127.516 42.6887 127.237 42.7077 126.971 42.733C126.718 42.7457 126.521 42.7583 126.382 42.771V40.073C126.572 40.0857 126.806 40.1047 127.085 40.13C127.364 40.1553 127.642 40.1743 127.921 40.187C128.212 40.1997 128.453 40.206 128.643 40.206C128.808 40.206 129.067 40.206 129.422 40.206C129.777 40.206 130.182 40.206 130.638 40.206C131.094 40.206 131.563 40.206 132.044 40.206C132.538 40.206 133.007 40.206 133.45 40.206C133.906 40.206 134.299 40.206 134.628 40.206C134.957 40.206 135.198 40.206 135.35 40.206C135.768 40.206 136.148 40.1807 136.49 40.13C136.845 40.0793 137.117 40.0223 137.307 39.959L138.865 41.118ZM134.609 47.027C135.103 47.4197 135.629 47.8757 136.186 48.395C136.743 48.9143 137.294 49.4527 137.839 50.01C138.384 50.5673 138.884 51.1057 139.34 51.625C139.809 52.1317 140.201 52.575 140.518 52.955L138.352 54.836C137.883 54.19 137.345 53.5187 136.737 52.822C136.142 52.1253 135.508 51.435 134.837 50.751C134.178 50.0543 133.507 49.3957 132.823 48.775L134.609 47.027ZM141.924 40.149H158.872V42.296H141.924V40.149ZM147.054 47.008H155.3V48.908H147.054V47.008ZM145.363 43.797H154.958V45.792H147.605V55.691H145.363V43.797ZM154.502 43.797H156.744V53.24C156.744 53.7973 156.674 54.2407 156.535 54.57C156.408 54.8993 156.149 55.1527 155.756 55.33C155.376 55.5073 154.907 55.615 154.35 55.653C153.793 55.691 153.128 55.71 152.355 55.71C152.317 55.3933 152.228 55.0197 152.089 54.589C151.962 54.171 151.823 53.81 151.671 53.506C152 53.5187 152.33 53.5313 152.659 53.544C152.988 53.5567 153.28 53.563 153.533 53.563C153.799 53.563 153.983 53.563 154.084 53.563C154.249 53.5503 154.356 53.5187 154.407 53.468C154.47 53.4173 154.502 53.3287 154.502 53.202V43.797ZM147.814 37.85L150.17 38.382C149.727 39.8007 149.169 41.213 148.498 42.619C147.839 44.0123 147.041 45.3107 146.104 46.514C145.179 47.7173 144.096 48.7497 142.855 49.611C142.741 49.4463 142.589 49.2563 142.399 49.041C142.222 48.813 142.038 48.5977 141.848 48.395C141.671 48.1797 141.506 48.0023 141.354 47.863C142.19 47.3057 142.95 46.647 143.634 45.887C144.331 45.127 144.945 44.3037 145.477 43.417C146.022 42.5177 146.484 41.5993 146.864 40.662C147.257 39.712 147.573 38.7747 147.814 37.85ZM147.054 50.143H155.3V52.043H147.054V50.143Z" fill="#E33B60"/>
</svg>
