<svg width="355" height="179" viewBox="0 0 355 179" fill="none" xmlns="http://www.w3.org/2000/svg">
<path d="M337.66 11.6039C337.833 7.09789 334.249 3.67505 330.045 3.67505C325.841 3.67505 322.321 7.04373 322.408 11.6039C322.408 15.9258 325.819 24.2338 330.045 24.2338C334.27 24.2338 337.486 15.8716 337.66 11.6039Z" fill="#FDD000"/>
<path d="M324.485 27.6441C325.788 23.6471 318.814 17.9821 314.806 16.509C310.558 14.96 306.191 17.2889 304.888 21.2966C303.584 25.2936 305.713 29.6371 310.091 30.9694C314.208 32.3017 323.181 31.641 324.485 27.6332" fill="#FDD000"/>
<path d="M326.05 33.9448C322.639 31.4859 315.067 36.3386 312.438 39.6964C309.647 43.2384 310.516 48.1019 313.927 50.5715C317.316 53.0412 322.139 52.3588 324.757 48.6327C327.299 45.134 329.428 36.4144 326.039 33.9448" fill="#FDD000"/>
<path d="M332.528 34.4467C329.139 36.9164 331.42 45.5818 333.81 49.1346C336.33 52.8716 341.251 53.5432 344.662 51.0844C348.051 48.6147 348.909 43.8379 346.15 40.1984C343.597 36.6997 335.939 31.9771 332.528 34.4467Z" fill="#FDD000"/>
<path d="M354.622 22.0828C353.319 18.0858 349.039 15.8112 344.704 17.2951C340.587 18.6274 333.722 24.4333 335.025 28.4194C336.329 32.4163 345.302 32.9145 349.419 31.7555C353.753 30.5207 355.926 26.0689 354.622 22.0828Z" fill="#FDD000"/>
<path d="M127.127 55.0858C127.496 55.3133 128.061 55.5949 128.539 55.7791C129.984 56.364 131.385 55.8332 132.004 54.6526C133.058 52.6378 137.208 44.4815 141.748 35.4586C142.139 34.917 142.737 34.4079 143.791 34.3429C144.953 34.3213 146.202 34.3429 147.093 34.4079C149.222 34.5704 149.896 35.8702 150.232 37.2675C150.526 38.5024 150.341 42.5209 150.363 44.2324C150.439 51.7171 155.284 55.2916 160.705 55.5733C161.421 55.6057 163.312 55.6057 163.898 55.5733C169.884 55.2916 173.74 52.1396 174.305 46.0629C174.435 44.5465 174.414 37.8308 174.392 36.9534C174.349 35.6536 173.458 34.6137 171.839 34.4079C171.372 34.3646 170.785 34.3646 170.307 34.4079C168.819 34.5596 167.885 35.5886 167.863 36.9534C167.842 38.394 167.82 42.6401 167.766 43.8424C167.711 45.0556 167.646 46.3012 167.016 47.3086C166.495 48.1426 165.148 48.9117 164.159 48.9659C163.16 49.02 162.247 49.0417 161.085 48.9659C159.912 48.89 158.934 48.5543 158.043 47.5252C157.467 46.8753 157.055 45.0123 157.098 43.3875C157.141 41.7519 157.163 38.5565 157.163 37.0401C157.163 35.0254 156.837 32.8915 154.893 30.5951C153.046 28.418 150.124 27.8005 148.777 27.7464C148.505 27.7464 147.995 27.6922 147.495 27.6597C147.006 27.6272 145.92 26.9123 146.528 25.905C147.082 24.9735 155.403 8.21667 155.968 6.97102C156.501 5.79035 156.142 4.44721 154.741 3.53734C154.328 3.27738 153.796 3.01741 153.328 2.85494C151.895 2.31335 150.482 2.76828 149.863 3.98144C147.365 8.84492 128.202 46.767 125.899 51.663C125.313 52.8978 125.769 54.3059 127.127 55.0967" fill="#E5005A"/>
<path d="M8.70859 41.9703C10.501 45.9239 13.7165 49.8017 17.0189 53.0512C18.4854 54.4918 19.7346 55.2392 20.897 54.8926C22.1137 54.546 23.1131 53.5495 23.7323 52.3796C24.3515 51.199 23.7323 50.2458 22.3309 48.7402C20.582 46.8554 16.9428 43.3676 15.5415 40.508C14.7702 38.9374 14.0098 36.3053 14.0098 34.0739C14.0098 26.2967 14.0532 10.4715 13.9663 5.90044C13.9446 4.53564 12.9452 3.47412 11.4244 3.35497C11.0116 3.33331 10.1425 3.31164 9.63196 3.35497C8.11113 3.47412 7.12258 4.56813 7.08999 5.90044C6.98136 10.374 6.98136 26.34 7.03568 33.2832C7.0574 34.908 7.42675 39.1107 8.70859 41.9595" fill="#E5005A"/>
<path d="M41.8905 47.5065C41.4994 48.0914 40.5978 48.9688 39.0227 48.9688C37.4475 48.9688 36.6219 48.6438 35.8832 47.734C35.1228 46.8133 34.9816 43.5962 35.4813 41.9065C35.9919 40.2275 37.4692 39.7726 38.6316 39.5885C39.1639 39.5126 40.2502 39.4801 41.1844 39.6751C41.9666 39.8376 42.3685 40.1734 42.5097 41.354C42.727 43.1521 42.7922 46.1634 41.8905 47.5065ZM55.9148 32.9269C55.0783 32.9269 53.3185 32.9161 51.2219 32.9052C49.9727 32.8836 49.3426 32.3745 49.3209 30.4573C49.3209 29.3416 49.3426 28.0959 49.3426 26.7853C49.3861 24.9655 49.9727 24.4565 51.135 24.424C51.6673 24.424 52.1453 24.4023 52.5472 24.3806C53.8508 24.3373 54.8937 23.4491 55.0892 21.846C55.1435 21.3802 55.1435 20.7953 55.0892 20.3187C54.948 18.8348 53.9051 17.8057 52.5472 17.7841C52.091 17.7732 51.6564 17.7732 51.2002 17.7624C50.0487 17.7407 49.4404 17.2858 49.3426 15.6719C49.3426 14.4479 49.3209 13.3322 49.3209 12.3898C49.3535 10.6026 49.9401 10.061 51.0698 10.0068C51.6782 9.98518 52.1996 9.98518 52.5581 9.97435C53.8617 9.92019 54.9045 9.04282 55.1 7.42888C55.1544 6.96312 55.1544 6.3782 55.1 5.9016C54.9588 4.40681 53.916 3.37779 52.5581 3.35613C47.0722 3.26947 35.6768 3.26947 30.2453 3.35613C28.8874 3.37779 27.8119 4.38515 27.6924 5.9016C27.6707 6.32404 27.6599 6.93062 27.6924 7.42888C27.8119 8.95616 28.9091 9.94186 30.2453 9.97435C32.6569 10.0285 36.698 10.0502 40.7173 10.0502C41.8253 10.1152 42.5532 10.7109 42.6183 12.444C42.6183 13.2564 42.6075 14.1338 42.5966 15.0436H42.5858C42.5858 17.08 41.8145 17.6974 40.5326 17.7082C39.2508 17.7299 37.9581 17.7516 36.6328 17.7732C35.264 17.7949 34.1994 18.7914 34.0799 20.3079C34.0474 20.7195 34.0474 21.3369 34.0799 21.8352C34.1886 23.3516 35.2966 24.3373 36.6328 24.3698C37.3606 24.3915 39.3377 24.424 40.7933 24.5106C42.2164 24.5756 42.5097 25.6588 42.5858 26.8936C42.6509 28.1284 42.6075 29.2983 42.6075 30.3598C42.5858 32.3312 41.7276 32.8728 40.5326 32.9486C40.1633 32.9811 39.2508 32.9811 38.838 32.9919C33.0697 33.2085 28.4963 37.0213 28.4963 44.2136C28.4963 51.4059 33.124 55.5545 38.838 55.5545C44.552 55.5545 48.4192 52.0342 49.234 46.0442C49.3535 45.2318 49.3752 43.6179 49.3752 41.8631C49.4078 39.9351 49.9618 39.621 51.1459 39.5885C53.2968 39.5885 55.0349 39.556 55.9039 39.5235C57.2075 39.4801 58.2503 38.5811 58.4459 36.9888C58.5002 36.5231 58.4893 35.9382 58.4459 35.4615C58.3047 33.9668 57.2618 32.9486 55.9039 32.9161L55.9148 32.9269Z" fill="#E5005A"/>
<path d="M74.0609 41.9703C75.8533 45.9239 79.0688 49.8017 82.3712 53.0512C83.8485 54.4918 85.0869 55.2392 86.2384 54.8926C87.4551 54.546 88.4654 53.5495 89.0846 52.3796C89.7038 51.199 89.0846 50.2458 87.6724 48.7402C85.9234 46.8554 82.2843 43.3676 80.8829 40.508C80.1008 38.9374 79.3404 36.3053 79.3404 34.0739C79.3404 26.2967 79.3838 10.4715 79.3078 5.90044C79.286 4.53564 78.2758 3.47412 76.7658 3.35497C76.353 3.33331 75.484 3.31164 74.9843 3.35497C73.4526 3.47412 72.464 4.56813 72.4423 5.90044C72.3337 10.374 72.3228 26.34 72.388 33.2832C72.4097 34.908 72.7791 39.1107 74.0609 41.9595" fill="#E5005A"/>
<path d="M120.759 7.71222C119.846 7.69056 117.913 7.67972 116.566 7.66889C115.653 7.58224 115.132 7.09481 115.034 5.73001C115.023 4.98261 115.012 4.35437 115.001 3.8886C114.969 2.55629 113.98 1.46228 112.448 1.35396C111.96 1.32147 111.08 1.32147 110.667 1.35396C109.146 1.47311 108.147 2.52379 108.114 3.8886C108.114 4.31104 108.114 4.83097 108.103 5.43755C107.995 7.00816 107.321 7.58224 106.246 7.6364C101.401 7.6364 96.6644 7.65806 94.1007 7.71222C92.732 7.73388 91.6565 8.74124 91.5479 10.2469C91.5153 10.6693 91.5153 11.2759 91.5479 11.7741C91.6565 13.3014 92.7537 14.2763 94.1007 14.3088C96.5232 14.3738 101.336 14.4063 106.191 14.4063C107.343 14.4713 108.092 15.5328 108.082 17.0601C108.06 18.5657 108.082 30.5673 108.082 34.6725C108.082 36.9039 107.321 39.5252 106.55 41.0958C105.138 43.9446 101.509 47.4324 99.7495 49.3279C98.3482 50.8336 97.729 51.7868 98.3482 52.9674C98.9674 54.1373 99.9776 55.1338 101.183 55.4804C102.346 55.8162 103.584 55.0796 105.051 53.6282C108.375 50.3895 111.579 46.5009 113.361 42.5473C114.654 39.6877 115.023 35.4958 115.045 33.871C115.077 30.1882 115.088 18.3165 115.088 16.8867C115.088 15.457 115.61 14.4496 116.674 14.3521C118.206 14.3413 120.15 14.3304 120.759 14.2979C122.062 14.2546 123.105 13.3664 123.301 11.7633C123.366 11.2975 123.355 10.7126 123.301 10.236C123.159 8.75207 122.127 7.72305 120.759 7.70139" fill="#E5005A"/>
<path d="M230.67 3.31188C225.184 3.2144 192.182 3.2144 186.761 3.31188C185.403 3.33355 184.328 4.3409 184.219 5.84652C184.198 6.12815 184.198 6.43144 184.219 6.75639C184.328 8.28367 185.436 9.26937 186.761 9.30186C188.13 9.33436 194.04 9.36685 195.267 9.37769C196.484 9.37769 196.223 10.905 195.68 11.5657C195.137 12.2156 191.748 16.2559 190.531 18.9097C189.238 21.7693 188.901 25.9611 188.858 27.5859C188.782 30.0231 188.652 37.1287 188.804 44.6026C188.956 52.0766 193.736 55.6511 199.145 55.9435C203.338 56.1602 218.699 55.9544 219.492 55.9435C225.477 55.7811 229.204 52.4882 229.899 46.4224C230.236 43.4003 230.127 31.3662 229.964 27.7051C229.714 21.7476 226.52 17.8915 220.426 17.3282C218.905 17.1874 208.835 17.2199 207.955 17.2524C206.663 17.2849 205.609 18.1839 205.413 19.787C205.348 20.2636 205.37 20.8377 205.413 21.3143C205.555 22.7983 206.597 23.8273 207.955 23.8598C209.4 23.8814 217.189 23.7948 218.395 23.8598C219.611 23.9139 220.839 23.9898 221.882 24.6072C222.479 24.9646 223.348 25.8962 223.348 27.4668C223.348 27.4668 223.348 28.29 223.348 29.5465C223.348 31.5828 222.577 32.2003 221.295 32.2111C215.418 32.1786 205.946 32.2111 202.002 32.2652C200.634 32.2869 199.569 33.2943 199.449 34.8107C199.417 35.2332 199.417 35.8397 199.449 36.338C199.558 37.8653 200.655 38.8401 202.002 38.8835C205.717 38.9701 215.657 38.9918 221.263 38.9593C222.544 38.9701 223.327 39.5875 223.327 41.6131H223.359C223.359 43.1512 223.359 44.2452 223.348 44.4293C223.294 45.6317 223.218 46.8665 222.599 47.8955C222.24 48.4913 221.317 49.3036 219.742 49.347C215.244 49.4553 204.11 49.412 199.526 49.347C198.385 49.3361 197.114 49.022 196.375 48.1122C195.81 47.4406 195.463 46.3791 195.376 44.5268C195.3 42.6746 195.376 34.7349 195.376 34.7349C195.376 31.7453 195.376 28.9724 195.376 26.8169C195.376 24.6613 196.191 21.9642 196.962 20.3828C198.07 18.1298 202.306 13.5588 205.174 10.6233C205.815 10.0817 207.021 9.49684 208.618 9.39935C218.33 9.39935 229.106 9.36685 230.659 9.31269C231.952 9.26937 233.006 8.38116 233.201 6.76723C233.255 6.31229 233.255 6.33395 233.201 5.85736C233.06 4.36257 232.028 3.33355 230.659 3.32272" fill="#E5005A"/>
<path d="M292.559 48.4585C291.408 48.4044 280.773 48.4044 278.035 48.3719C276.894 48.361 275.841 47.8953 275.091 46.9854C274.537 46.3138 273.972 45.4148 273.896 43.5517C273.809 41.7103 273.929 29.3837 273.842 25.1485C273.82 23.7837 272.821 22.7222 271.3 22.603C270.876 22.5814 270.322 22.5705 269.812 22.603C268.291 22.7222 267.313 23.8054 267.27 25.1485C267.161 28.2139 267.107 37.9733 267.215 43.6384C267.368 51.1123 272.136 54.6976 277.557 54.9792C279.904 55.0984 291.147 55.1309 292.559 55.0659C293.863 55.0117 294.906 54.1344 295.101 52.5313C295.166 52.0655 295.144 51.4806 295.101 51.004C294.949 49.52 293.928 48.5235 292.559 48.4693" fill="#E5005A"/>
<path d="M284.846 5.06812C284.846 4.22324 284.846 3.3567 284.825 2.49016C284.803 1.16868 283.814 0.128827 282.337 0.0205088C281.924 -0.00115477 281.327 -0.0119866 280.838 0.0205088C279.35 0.139658 278.383 1.19034 278.361 2.49016C278.339 3.36753 278.318 4.3099 278.307 5.27392C278.242 6.16213 277.84 7.01784 275.884 7.05034C275.526 7.05034 274.483 7.05034 273.766 7.072C272.441 7.09366 271.398 8.06853 271.278 9.55248C271.246 9.96409 271.246 10.1916 271.278 10.679C271.398 12.1629 272.462 13.127 273.766 13.1595C274.581 13.1811 275.45 13.192 276.33 13.2028C277.937 13.3111 278.22 14.0693 278.296 14.8492C278.318 16.0082 278.328 17.3622 278.361 18.0879C278.394 19.3552 279.274 20.3734 280.838 20.5576C281.294 20.6226 281.87 20.6117 282.337 20.5576C283.782 20.4276 284.803 19.4202 284.825 18.0879C284.846 17.2106 284.846 16.0082 284.846 15.1417C284.901 14.2751 285.042 13.3653 286.758 13.2136C287.812 13.192 288.724 13.192 289.398 13.1595C290.68 13.1161 291.701 12.2388 291.896 10.679C291.94 10.2241 291.94 10.0182 291.896 9.55248C291.744 8.10102 290.745 7.09366 289.398 7.072C288.681 7.072 287.834 7.05034 287.28 7.02867C285.085 6.98535 284.89 6.02132 284.835 5.06812" fill="#E5005A"/>
<path d="M258.203 5.06812C258.192 4.22324 258.181 3.3567 258.17 2.49016C258.148 1.16868 257.171 0.128827 255.693 0.0205088C255.28 -0.00115477 254.683 -0.0119866 254.194 0.0205088C252.706 0.139658 251.75 1.19034 251.717 2.49016C251.696 3.36753 251.685 4.3099 251.663 5.27392C251.598 6.16213 251.196 7.01784 249.241 7.05034C248.882 7.05034 247.839 7.05034 247.133 7.072C245.797 7.09366 244.765 8.06853 244.646 9.55248C244.613 9.96409 244.613 10.1916 244.646 10.679C244.754 12.1629 245.819 13.127 247.133 13.1595C247.948 13.1811 248.817 13.192 249.697 13.2028C251.305 13.3111 251.598 14.0693 251.663 14.8492C251.685 16.0082 251.707 17.3622 251.728 18.0879C251.772 19.3552 252.641 20.3734 254.205 20.5576C254.661 20.6226 255.237 20.6117 255.704 20.5576C257.149 20.4276 258.159 19.4202 258.181 18.0879C258.203 17.2106 258.203 16.0082 258.214 15.1417C258.246 14.2751 258.387 13.3653 260.125 13.2136C261.179 13.192 262.092 13.192 262.765 13.1595C264.036 13.1161 265.057 12.2388 265.253 10.679C265.296 10.2241 265.285 10.0182 265.253 9.55248C265.112 8.10102 264.101 7.09366 262.765 7.072C262.048 7.072 261.19 7.05034 260.647 7.02867C258.453 6.98535 258.257 6.02132 258.214 5.06812" fill="#E5005A"/>
<path d="M261.044 23.5351C259.969 22.4411 258.502 22.387 257.449 23.221C253.19 26.6114 245.945 32.7963 243.674 34.8435C242.707 35.7101 242.468 37.0749 243.359 38.4288C243.609 38.808 244 39.2521 244.337 39.5987C245.412 40.6385 246.857 40.7685 247.932 39.9128C248.704 39.2954 249.899 38.2555 250.344 37.9306C250.779 37.6165 251.528 37.9631 251.55 38.8946C251.572 39.8261 251.561 50.5388 251.637 52.5535C251.669 53.8533 252.56 54.8932 254.179 55.099C254.646 55.164 255.232 55.1423 255.71 55.099C257.199 54.9582 258.242 53.9183 258.263 52.5535C258.35 47.5059 258.296 33.5329 258.285 32.8071C258.263 32.0922 258.709 30.8899 259.111 30.5433C259.513 30.1967 260.903 28.9944 261.739 28.2795C262.771 27.3804 262.934 25.9398 262.044 24.705C261.805 24.3584 261.414 23.8817 261.066 23.5243" fill="#E5005A"/>
<path d="M293.897 23.6456C292.832 22.5516 291.355 22.4974 290.312 23.3315C286.053 26.7218 279.557 32.1702 277.265 34.2174C276.298 35.084 276.07 36.4379 276.961 37.8028C277.222 38.1819 277.602 38.6368 277.95 38.9618C279.014 40.0124 280.47 40.1316 281.524 39.2759C285.793 35.8314 290.464 31.9428 294.581 28.4008C295.602 27.5017 295.776 26.0503 294.874 24.8154C294.646 24.4688 294.233 24.0031 293.897 23.6456Z" fill="#E5005A"/>
<path d="M0 81.9807C0 78.784 2.59139 76.1926 5.78804 76.1926H349.212C352.409 76.1926 355 78.784 355 81.9807V111.886C355 115.082 352.409 117.674 349.212 117.674H5.78805C2.59141 117.674 0 115.082 0 111.886V81.9807Z" fill="#FF2978"/>
<path d="M322.424 87.374H331.766C332.144 87.374 333.17 87.374 333.17 88.643C333.17 89.642 332.792 90.074 331.766 90.074H314.189C313.271 90.074 312.812 90.533 312.812 91.451V97.418C312.812 100.064 312.596 104.519 311.219 107.975C310.625 109.487 310.22 109.865 309.518 109.865C308.708 109.865 307.898 109.325 307.898 108.434C307.898 108.056 307.979 107.813 308.87 105.734C309.572 104.06 310.004 101.198 310.004 97.391V90.938C310.004 88.265 311.03 87.374 313.541 87.374H319.454V86.078C319.454 85.025 320.102 84.755 320.858 84.755C321.533 84.755 322.424 84.836 322.424 86.078V87.374ZM320.858 99.335V91.532C320.858 91.154 320.858 90.263 322.154 90.263C323.288 90.263 323.639 90.641 323.639 91.532V93.422H331.766C332.198 93.422 333.143 93.476 333.143 94.718C333.143 95.717 332.576 96.014 331.766 96.014H323.639V99.335H328.445C330.524 99.335 331.442 100.064 331.442 102.332V106.679C331.442 109.028 330.443 109.676 328.445 109.676H316.997C314.999 109.676 314 109.028 314 106.679V102.332C314 100.091 314.891 99.335 316.997 99.335H320.858ZM328.634 106.004V102.953C328.634 102.224 328.256 101.873 327.554 101.873H317.834C317.132 101.873 316.781 102.197 316.781 102.953V106.004C316.781 106.706 317.105 107.084 317.834 107.084H327.554C328.283 107.084 328.634 106.706 328.634 106.004Z" fill="white"/>
<path d="M290.619 92.7739C290.241 93.9889 289.728 95.6629 288.783 98.1469C289.836 97.5799 292.698 96.0139 296.559 96.0139C302.337 96.0139 304.227 99.3889 304.227 102.116C304.227 103.655 303.633 106.382 300.393 107.867C298.314 108.812 295.074 109.136 292.536 109.136C290.484 109.136 288.135 108.947 287.19 108.677C286.731 108.542 286.299 108.137 286.299 107.354C286.299 106.571 286.839 106.004 287.568 106.004C287.838 106.004 288.054 106.004 288.621 106.085C289.89 106.247 290.943 106.355 292.428 106.355C293.778 106.355 301.203 106.355 301.203 102.008C301.203 100.766 300.447 98.6059 296.397 98.6059C292.941 98.6059 289.755 100.253 288.27 101.198C287.055 101.981 286.893 102.062 286.542 102.062C285.732 102.062 284.976 101.441 284.976 100.685C284.976 100.334 285.408 99.3889 285.732 98.6329C286.029 97.8769 286.866 95.7709 287.73 92.8279C282.924 92.8549 282.168 92.8549 282.168 91.2889C282.168 90.8029 282.357 89.9119 283.491 89.9119C284.139 89.9119 286.974 90.0469 287.541 90.0469H288.486C288.621 89.4799 289.161 87.0229 289.296 86.5369C289.458 85.9159 289.674 85.4299 290.673 85.4299C291.429 85.4299 292.239 85.7809 292.239 86.5639C292.239 87.0499 291.645 89.2099 291.429 89.9659C295.398 89.8039 298.53 89.2909 299.799 89.0749C301.689 88.7509 301.905 88.7239 302.202 88.7239C303.498 88.7239 303.498 90.0739 303.498 90.2089C303.498 91.2889 302.715 91.4779 301.338 91.7209C296.775 92.5039 291.321 92.7469 290.619 92.7739Z" fill="white"/>
<path d="M268.533 92.045V94.718C269.532 94.691 273.906 94.502 274.797 94.502C275.229 94.502 276.417 94.502 276.417 95.933C276.417 97.202 275.445 97.256 275.04 97.283C273.528 97.391 270.207 97.445 268.56 97.472L268.587 101.117C270.585 101.576 273.609 102.845 275.283 103.844C276.39 104.492 276.579 104.978 276.579 105.464C276.579 106.382 275.904 107.111 275.148 107.111C274.797 107.111 274.365 106.868 273.015 106.058C271.233 104.978 269.316 104.276 268.587 104.033C268.533 106.004 268.506 109.217 262.944 109.217C259.218 109.217 256.896 107.489 256.896 104.924C256.896 104.465 256.896 100.523 263.511 100.523C264.159 100.523 265.077 100.577 265.617 100.631V97.526C260.46 97.58 258.867 97.553 258.624 97.553C257.949 97.526 257.004 97.472 257.004 96.122C257.004 94.745 258.084 94.745 258.705 94.745C259.785 94.745 264.618 94.772 265.59 94.745L265.563 92.072C263.619 92.099 259.542 92.126 257.733 92.072C257.004 92.045 256.059 92.018 256.059 90.668C256.059 89.264 257.139 89.264 257.814 89.264C259.029 89.264 264.456 89.318 265.563 89.318L265.536 86.861C265.536 86.186 265.833 85.511 266.967 85.511C267.399 85.511 268.506 85.511 268.506 86.861V89.291C269.694 89.291 274.932 89.102 276.012 89.102C276.363 89.102 277.524 89.102 277.524 90.479C277.524 91.829 276.444 91.856 276.093 91.883C272.934 91.991 271.989 91.991 268.533 92.045ZM265.644 103.25C265.239 103.196 264.564 103.088 263.511 103.088C260.298 103.088 259.704 104.222 259.704 104.951C259.704 106.193 261.189 106.679 262.647 106.679C265.644 106.679 265.644 105.383 265.644 103.25Z" fill="white"/>
<path d="M242.854 100.415C242.827 99.713 242.638 96.311 242.638 95.555C242.638 94.961 242.854 94.124 243.988 94.124C244.204 94.124 245.365 94.151 245.5 95.366C245.554 96.014 245.716 100.091 245.743 101.252C247.606 101.954 249.118 102.737 250.09 103.385C250.846 103.871 251.116 104.195 251.116 104.789C251.116 105.572 250.576 106.49 249.685 106.49C249.442 106.49 249.118 106.301 248.092 105.653C247.363 105.194 246.391 104.681 245.824 104.411C245.824 106.139 245.635 109.217 240.451 109.217C236.941 109.217 234.403 107.516 234.403 104.654C234.403 102.386 236.158 100.118 240.127 100.118C241.207 100.118 241.99 100.253 242.854 100.415ZM242.935 103.223C242.503 103.088 241.342 102.737 239.992 102.737C237.886 102.737 237.076 103.628 237.076 104.627C237.076 106.112 238.777 106.625 240.154 106.625C240.937 106.625 242.746 106.463 242.908 105.032C242.962 104.6 242.935 104.276 242.935 103.223ZM236.185 92.558C235.213 95.393 233.62 99.308 232.324 101.954C231.244 104.168 230.893 104.681 230.002 104.681C229.246 104.681 228.328 104.168 228.328 103.25C228.328 102.791 228.463 102.602 229.354 100.982C229.867 100.064 231.622 96.446 232.945 92.774C231.703 92.828 230.812 92.828 230.758 92.828C229.705 92.828 228.463 92.828 228.463 91.289C228.463 89.858 229.516 89.858 230.11 89.858C230.92 89.858 233.242 89.858 233.917 89.831C234.079 89.318 234.7 86.969 234.862 86.51C235.159 85.538 235.915 85.484 236.239 85.484C236.914 85.484 237.913 85.808 237.913 86.699C237.913 87.212 237.373 88.913 237.157 89.561C237.616 89.507 239.641 89.183 240.073 89.183C240.937 89.183 241.261 89.858 241.261 90.587C241.261 91.964 240.775 92.072 236.185 92.558ZM244.42 89.426C245.176 89.426 247.174 90.398 248.956 91.289C250.522 92.072 251.143 92.423 251.143 93.26C251.143 94.07 250.63 94.88 249.901 94.88C249.442 94.88 249.226 94.799 247.606 93.854C246.58 93.26 244.366 92.288 243.853 92.072C243.232 91.802 242.962 91.451 242.962 90.911C242.962 89.993 243.691 89.426 244.42 89.426Z" fill="white"/>
<path d="M202.924 92.423L207.919 91.829C208.081 91.046 208.702 87.563 208.837 86.861C208.945 86.348 209.107 85.7 210.241 85.7C211.24 85.7 211.78 86.213 211.78 86.834C211.78 87.428 211.294 89.669 210.889 91.505C217.261 91.1 218.341 94.34 218.341 98.903C218.341 107.921 215.533 108.812 212.401 108.812C209.809 108.812 208.945 108.353 208.945 107.165C208.945 106.274 209.431 105.734 210.106 105.734C210.511 105.734 211.672 105.95 212.158 105.95C213.643 105.95 215.398 105.707 215.398 98.822C215.398 96.122 215.236 94.178 211.969 94.178C211.456 94.178 210.97 94.205 210.214 94.259C208.513 100.55 207.028 104.033 205.705 106.544C204.895 108.056 204.517 108.731 203.734 108.731C203.059 108.731 202.087 108.272 202.087 107.327C202.087 107.003 202.33 106.571 203.005 105.356C204.652 102.413 206.137 98.66 207.217 94.583C206.461 94.691 202.789 95.285 202.465 95.285C201.682 95.285 201.223 94.664 201.223 93.854C201.223 92.72 201.952 92.531 202.924 92.423ZM219.178 88.913C220.204 88.913 221.284 90.479 222.229 92.045C224.011 95.015 224.767 98.363 224.767 99.659C224.767 100.631 224.119 101.117 223.12 101.117C222.013 101.117 221.905 100.739 221.635 99.038C221.365 97.391 220.447 94.34 218.503 91.721C217.801 90.776 217.666 90.56 217.666 90.182C217.666 89.561 218.314 88.913 219.178 88.913Z" fill="white"/>
<path d="M174.734 106.922V95.204C174.734 93.152 175.166 92.423 177.434 92.423H178.433V91.181C178.433 90.911 178.433 89.804 179.621 89.804C180.62 89.804 180.836 90.533 180.836 91.181V92.423H181.754C183.887 92.423 183.968 93.8 183.968 95.204V99.443C183.968 101.684 183.374 102.224 181.484 102.224H177.191V106.328C177.65 106.22 178.109 106.112 178.757 105.95C179.081 105.869 180.458 105.491 180.728 105.41C180.161 104.303 180.053 104.06 180.053 103.763C180.053 103.115 180.728 102.656 181.43 102.656C182.132 102.656 182.348 103.034 182.996 104.195C183.023 104.276 184.643 107.246 184.643 108.056C184.643 108.785 183.941 109.271 183.212 109.271C182.483 109.271 182.267 108.866 182.159 108.623C182.078 108.434 181.781 107.651 181.7 107.489C180.944 107.759 175.112 109.622 174.194 109.622C173.6 109.622 173.06 109.001 173.06 108.245C173.06 107.327 173.519 107.192 174.734 106.922ZM177.191 95.339V96.338H181.673V95.339C181.673 94.826 181.43 94.556 180.89 94.556H177.947C177.38 94.556 177.191 94.853 177.191 95.339ZM181.673 99.281V98.282H177.191V100.037H180.89C181.403 100.037 181.673 99.794 181.673 99.281ZM188.963 87.698H196.955C197.36 87.698 198.359 87.725 198.359 89.021C198.359 90.263 197.495 90.371 196.955 90.371H192.554V93.665H194.606C196.847 93.665 197.414 94.205 197.414 96.473V105.383C197.414 107.678 195.983 107.678 194.525 107.678C194.039 107.678 192.986 107.678 192.986 106.193C192.986 105.167 193.472 105.059 194.282 105.005C194.876 104.951 195.038 104.951 195.038 104.303V96.932C195.038 96.446 194.822 96.176 194.282 96.176H192.554V109.109C192.554 109.46 192.554 110.378 191.312 110.378C190.097 110.378 190.043 109.541 190.043 109.109V96.176H188.369C187.856 96.176 187.613 96.419 187.613 96.932V106.598C187.613 106.922 187.613 107.84 186.533 107.84C185.669 107.84 185.318 107.489 185.318 106.598V96.473C185.318 94.259 185.831 93.665 188.099 93.665H190.043V90.371H187.667C186.236 92.936 185.804 93.044 185.318 93.044C184.589 93.044 183.941 92.45 183.941 91.802C183.941 91.424 184.022 91.289 184.886 90.047C185.642 88.994 186.56 86.699 186.83 85.943C187.073 85.322 187.289 84.755 188.126 84.755C188.504 84.755 189.584 84.944 189.584 85.835C189.584 86.24 189.368 86.726 188.963 87.698ZM179.837 87.509C179.648 87.509 179.621 87.563 179.432 87.86C178.325 89.507 177.11 90.911 175.868 91.964C174.842 92.855 174.545 92.963 174.194 92.963C173.411 92.963 172.844 92.126 172.844 91.478C172.844 90.965 173.168 90.695 173.6 90.371C175.679 88.859 176.543 87.752 177.812 86.024C178.271 85.403 178.622 84.89 179.81 84.89C180.809 84.89 181.052 85.16 182.078 86.267C182.996 87.266 183.239 87.455 184.481 88.4C184.886 88.724 185.021 88.994 185.021 89.345C185.021 90.182 184.346 90.884 183.59 90.884C183.239 90.884 183.131 90.884 181.673 89.48C181.052 88.886 180.377 88.022 180.269 87.86C180.08 87.617 179.999 87.509 179.837 87.509Z" fill="white"/>
<path d="M154.834 99.497H168.037C168.658 99.497 169.198 99.659 169.63 99.929C170.251 100.334 170.494 100.928 170.494 102.143C170.494 102.845 170.305 107.354 169.63 108.758C169.009 110.081 167.821 110.081 165.553 110.081C164.122 110.081 163.15 110.081 163.15 108.461C163.15 107.327 163.96 107.327 164.419 107.327C164.662 107.327 165.688 107.381 165.904 107.381C166.957 107.381 167.254 107.111 167.416 105.761C167.551 104.789 167.659 102.629 167.659 102.494C167.659 102.197 167.659 101.576 166.822 101.576H153.16C152.863 101.9 152.512 102.224 152.053 102.629V103.79C153.025 103.709 155.941 103.358 158.128 102.953C158.641 102.845 161.044 102.251 161.395 102.251C162.34 102.251 162.34 103.277 162.34 103.493C162.34 104.222 162.205 104.249 160.18 104.708C158.533 105.086 155.374 105.491 152.053 105.761C152.053 107.084 152.134 107.084 154.618 107.084C155.455 107.084 159.694 107.084 160.099 107.003C160.612 106.922 160.666 106.814 161.098 105.68C161.206 105.41 161.395 104.951 162.151 104.951C162.286 104.951 163.582 104.951 163.582 106.058C163.582 106.49 163.258 108.299 162.259 108.893C161.773 109.19 161.665 109.217 156.157 109.217C155.212 109.217 151.297 109.217 150.838 109.109C149.353 108.812 149.299 107.516 149.299 106.409V104.627C148.111 105.329 147.76 105.437 147.409 105.437C146.41 105.437 146.059 104.492 146.059 103.952C146.059 103.169 146.626 102.872 148.138 102.089C148.894 101.711 150.784 100.496 152.08 98.525H151.594C149.461 98.525 148.786 98.066 148.786 95.798V93.044C148.786 90.803 149.407 90.29 151.594 90.29H153.106C152.755 90.074 152.674 89.885 152.674 89.426V88.886H147.436C146.896 88.886 146.059 88.805 146.059 87.698C146.059 86.78 146.626 86.51 147.436 86.51H152.674V85.943C152.674 85.646 152.674 84.782 153.97 84.782C154.996 84.782 155.401 85.106 155.401 85.943V86.51H161.935V85.943C161.935 85.619 161.935 84.782 163.231 84.782C164.284 84.782 164.689 85.106 164.689 85.943V86.51H169.981C170.413 86.51 171.358 86.564 171.358 87.698C171.358 88.616 170.764 88.886 169.981 88.886H164.689V89.426C164.689 89.993 164.473 90.128 164.23 90.29H165.823C167.983 90.29 168.604 90.803 168.604 93.044V95.798C168.604 98.066 167.956 98.525 165.823 98.525H155.428C155.104 99.065 154.996 99.227 154.834 99.497ZM151.594 93.53H165.796V92.936C165.796 92.504 165.634 92.18 165.067 92.18H152.323C151.702 92.18 151.594 92.558 151.594 92.936V93.53ZM161.935 89.426V88.886H155.401V89.426C155.401 89.885 155.239 90.101 154.969 90.29H162.34C162.097 90.101 161.935 89.993 161.935 89.426ZM165.796 95.231H151.594V95.96C151.594 96.419 151.783 96.716 152.323 96.716H165.067C165.58 96.716 165.796 96.419 165.796 95.96V95.231Z" fill="white"/>
<path d="M122.599 104.141C122.761 104.141 123.814 104.573 124.03 104.654C124.651 104.897 125.785 105.302 127.216 105.302C129.538 105.302 131.644 104.249 131.644 101.981C131.644 99.6319 129.565 98.9029 127.594 98.2009C125.11 97.3369 121.897 96.1489 121.897 92.2069C121.897 88.8319 124.462 85.9969 128.647 85.9969C130.78 85.9969 132.589 86.7529 132.94 86.9689C133.48 87.2929 133.669 87.6979 133.669 88.2379C133.669 89.0749 133.048 89.7769 132.346 89.7769C132.103 89.7769 131.806 89.6689 131.212 89.4529C130.375 89.1289 129.592 88.9669 128.728 88.9669C126.136 88.9669 125.137 90.6949 125.137 92.0719C125.137 94.1239 126.838 94.7179 128.782 95.3659C131.59 96.3379 134.911 97.4989 134.911 101.765C134.911 105.815 131.617 108.272 127.351 108.272C126.325 108.272 124.273 108.137 122.167 107.111C121.681 106.868 121.168 106.517 121.168 105.707C121.168 104.951 121.681 104.141 122.599 104.141Z" fill="white"/>
<path d="M114.41 106.706V87.5359C114.41 86.2399 115.274 85.9969 116.03 85.9969C117.083 85.9969 117.704 86.4289 117.704 87.5359V106.706C117.704 107.651 117.245 108.272 116.084 108.272C115.301 108.272 114.41 108.056 114.41 106.706Z" fill="white"/>
<path d="M90.06 95.7169L97.917 87.0769C97.998 86.9959 98.349 86.5369 98.43 86.4559C98.808 86.0779 99.186 85.9969 99.483 85.9969C100.347 85.9969 101.211 86.6449 101.211 87.4279C101.211 87.8059 100.914 88.2649 100.671 88.5079L93.354 96.2299L101.373 105.491C101.751 105.923 102.048 106.301 102.048 106.787C102.048 107.732 100.968 108.272 100.266 108.272C99.564 108.272 99.213 107.813 98.673 107.165L90.06 96.7699V106.733C90.06 107.678 89.574 108.272 88.44 108.272C87.441 108.272 86.793 107.867 86.793 106.733V87.5089C86.793 86.5909 87.252 85.9969 88.413 85.9969C89.439 85.9969 90.06 86.4019 90.06 87.5089V95.7169Z" fill="white"/>
<path d="M78.1497 98.498L83.1448 105.41C83.5768 106.004 83.7928 106.409 83.7928 106.841C83.7928 107.732 82.7937 108.272 82.0107 108.272C81.2817 108.272 81.0387 107.867 80.5798 107.192L74.6938 98.633H73.1818V106.76C73.1818 107.111 73.1817 108.272 71.5887 108.272C70.4817 108.272 69.9688 107.786 69.9688 106.76V89.669C69.9688 88.535 69.9687 86.429 73.0737 86.429H76.0978C77.3668 86.429 78.8787 86.456 80.2827 87.185C82.3887 88.265 83.3608 90.398 83.3608 92.585C83.3608 94.772 82.4158 96.365 81.1468 97.337C80.0668 98.174 79.1218 98.336 78.1497 98.498ZM73.1818 95.825H75.8008C76.6918 95.825 80.0938 95.825 80.0938 92.639C80.0938 89.399 77.3938 89.399 75.8278 89.399H74.1268C73.4788 89.399 73.1818 89.561 73.1818 90.344V95.825Z" fill="white"/>
<path d="M52.7323 102.278L51.1123 106.706C50.7343 107.732 50.5453 108.272 49.5463 108.272C48.7903 108.272 47.6562 107.921 47.6562 106.922C47.6562 106.679 47.7102 106.409 48.0072 105.626L54.6763 88.2109C55.0543 87.2119 55.5403 85.9969 57.3493 85.9969C59.2123 85.9969 59.6713 87.1579 60.0763 88.2109L66.7453 105.626C66.9613 106.22 67.0963 106.571 67.0963 106.922C67.0963 107.894 65.9892 108.272 65.2332 108.272C64.1802 108.272 63.9643 107.678 63.6133 106.706L62.0203 102.278H52.7323ZM53.7583 99.4969H60.9943L57.3763 89.5879L53.7583 99.4969Z" fill="white"/>
<path d="M33.6087 103.844L38.6037 88.5079C39.0897 87.0229 39.4137 85.9969 41.1417 85.9969C43.3287 85.9969 43.5717 87.6709 43.6797 88.5079L46.1367 105.95C46.1907 106.409 46.2447 106.652 46.2447 106.895C46.2447 108.218 44.7867 108.272 44.4897 108.272C43.1667 108.272 43.0587 107.516 42.9237 106.463L40.8717 90.9109L35.8227 106.463C35.5797 107.246 35.2557 108.272 33.6357 108.272C31.9617 108.272 31.6647 107.3 31.3947 106.463L26.3457 90.9109L24.2937 106.463C24.1587 107.489 24.0507 108.272 22.7277 108.272C22.1877 108.272 20.9727 108.11 20.9727 106.922C20.9727 106.652 21.0267 106.355 21.0807 105.977L23.5377 88.5079C23.6727 87.5899 23.8887 85.9969 26.0487 85.9969C27.8037 85.9969 28.1277 86.9959 28.6137 88.5079L33.6087 103.844Z" fill="white"/>
<path d="M312.707 170.445C312.707 169.786 312.707 168.711 312.707 167.221C312.707 165.695 312.707 163.945 312.707 161.969C312.707 159.958 312.707 157.861 312.707 155.677C312.707 153.493 312.707 151.395 312.707 149.385C312.707 147.339 312.707 145.537 312.707 143.977C312.707 142.417 312.707 141.273 312.707 140.545C312.707 139.643 312.655 138.603 312.551 137.425C312.482 136.246 312.361 135.206 312.188 134.305H320.299C320.195 135.206 320.091 136.211 319.987 137.321C319.883 138.395 319.831 139.47 319.831 140.545C319.831 141.515 319.831 142.833 319.831 144.497C319.831 146.161 319.831 148.015 319.831 150.061C319.831 152.071 319.831 154.134 319.831 156.249C319.831 158.329 319.831 160.339 319.831 162.281C319.831 164.222 319.831 165.921 319.831 167.377C319.831 168.798 319.831 169.821 319.831 170.445C319.831 170.93 319.849 171.623 319.883 172.525C319.918 173.391 319.987 174.293 320.091 175.229C320.195 176.165 320.265 176.997 320.299 177.725H312.188C312.326 176.685 312.447 175.471 312.551 174.085C312.655 172.698 312.707 171.485 312.707 170.445ZM318.271 147.773C320.005 148.223 321.946 148.813 324.095 149.541C326.245 150.234 328.411 150.979 330.595 151.777C332.779 152.574 334.825 153.371 336.731 154.169C338.673 154.931 340.285 155.642 341.567 156.301L338.603 163.477C337.147 162.714 335.535 161.951 333.767 161.189C331.999 160.391 330.197 159.629 328.359 158.901C326.557 158.173 324.771 157.497 323.003 156.873C321.27 156.249 319.693 155.694 318.271 155.209V147.773Z" fill="#DD1760"/>
<path d="M256.91 135.917C257.811 136.541 258.869 137.303 260.082 138.205C261.295 139.106 262.544 140.094 263.826 141.169C265.144 142.209 266.374 143.231 267.518 144.237C268.662 145.242 269.598 146.143 270.326 146.941L265.022 152.349C264.363 151.621 263.497 150.754 262.422 149.749C261.347 148.743 260.186 147.703 258.938 146.629C257.69 145.554 256.459 144.531 255.246 143.561C254.033 142.59 252.958 141.775 252.022 141.117L256.91 135.917ZM250.41 170.549C253.114 170.167 255.662 169.63 258.054 168.937C260.446 168.243 262.665 167.446 264.71 166.545C266.756 165.643 268.628 164.707 270.326 163.737C273.273 161.969 275.977 159.958 278.438 157.705C280.9 155.451 283.049 153.111 284.886 150.685C286.724 148.223 288.179 145.831 289.254 143.509L293.31 150.841C291.993 153.163 290.363 155.486 288.422 157.809C286.515 160.131 284.349 162.35 281.922 164.465C279.495 166.545 276.878 168.417 274.07 170.081C272.302 171.155 270.395 172.178 268.35 173.149C266.305 174.085 264.138 174.917 261.85 175.645C259.597 176.407 257.239 176.997 254.778 177.413L250.41 170.549Z" fill="#DD1760"/>
<path d="M195.602 155.209C200.282 153.995 204.511 152.591 208.29 150.997C212.103 149.367 215.448 147.669 218.326 145.901C220.128 144.791 221.931 143.526 223.734 142.105C225.571 140.649 227.287 139.158 228.882 137.633C230.511 136.107 231.88 134.651 232.99 133.265L238.606 138.621C237.011 140.181 235.26 141.758 233.354 143.353C231.482 144.947 229.523 146.473 227.478 147.929C225.432 149.385 223.404 150.719 221.394 151.933C219.418 153.077 217.199 154.255 214.738 155.469C212.311 156.682 209.746 157.826 207.042 158.901C204.338 159.975 201.616 160.929 198.878 161.761L195.602 155.209ZM217.234 149.229L224.618 147.513V170.913C224.618 171.675 224.635 172.507 224.67 173.409C224.704 174.31 224.756 175.142 224.826 175.905C224.895 176.702 224.982 177.309 225.086 177.725H216.87C216.939 177.309 216.991 176.702 217.026 175.905C217.095 175.142 217.147 174.31 217.182 173.409C217.216 172.507 217.234 171.675 217.234 170.913V149.229Z" fill="#DD1760"/>
<path d="M180.681 136.437C180.681 137.234 180.958 137.91 181.513 138.465C182.068 138.985 182.744 139.245 183.541 139.245C184.304 139.245 184.962 138.985 185.517 138.465C186.072 137.91 186.349 137.234 186.349 136.437C186.349 135.674 186.072 135.015 185.517 134.461C184.962 133.906 184.304 133.629 183.541 133.629C182.744 133.629 182.068 133.906 181.513 134.461C180.958 135.015 180.681 135.674 180.681 136.437ZM177.509 136.437C177.509 135.327 177.769 134.322 178.289 133.421C178.844 132.519 179.572 131.791 180.473 131.237C181.409 130.682 182.432 130.405 183.541 130.405C184.65 130.405 185.656 130.682 186.557 131.237C187.458 131.791 188.169 132.519 188.689 133.421C189.244 134.322 189.521 135.327 189.521 136.437C189.521 137.546 189.244 138.569 188.689 139.505C188.169 140.406 187.458 141.134 186.557 141.689C185.656 142.209 184.65 142.469 183.541 142.469C182.432 142.469 181.409 142.209 180.473 141.689C179.572 141.134 178.844 140.406 178.289 139.505C177.769 138.569 177.509 137.546 177.509 136.437ZM170.333 134.409C170.298 134.651 170.246 135.05 170.177 135.605C170.108 136.159 170.038 136.749 169.969 137.373C169.9 137.962 169.865 138.482 169.865 138.933C169.865 139.973 169.865 141.117 169.865 142.365C169.865 143.613 169.865 144.861 169.865 146.109C169.865 147.322 169.865 148.431 169.865 149.437C169.865 150.13 169.865 151.101 169.865 152.349C169.865 153.597 169.865 155.001 169.865 156.561C169.865 158.121 169.865 159.75 169.865 161.449C169.865 163.113 169.865 164.742 169.865 166.337C169.865 167.897 169.865 169.318 169.865 170.601C169.865 171.849 169.865 172.837 169.865 173.565C169.865 175.055 169.414 176.234 168.513 177.101C167.646 178.002 166.294 178.453 164.457 178.453C163.521 178.453 162.568 178.435 161.597 178.401C160.626 178.366 159.673 178.314 158.737 178.245C157.801 178.175 156.882 178.089 155.981 177.985L155.357 171.537C156.466 171.745 157.541 171.901 158.581 172.005C159.656 172.109 160.505 172.161 161.129 172.161C161.822 172.161 162.308 172.022 162.585 171.745C162.862 171.433 163.018 170.947 163.053 170.289C163.053 169.977 163.053 169.301 163.053 168.261C163.088 167.221 163.105 165.99 163.105 164.569C163.105 163.147 163.105 161.639 163.105 160.045C163.105 158.45 163.105 156.925 163.105 155.469C163.105 154.013 163.105 152.747 163.105 151.673C163.105 150.598 163.105 149.853 163.105 149.437C163.105 148.813 163.105 147.877 163.105 146.629C163.105 145.346 163.105 143.994 163.105 142.573C163.105 141.151 163.105 139.938 163.105 138.933C163.105 138.239 163.053 137.425 162.949 136.489C162.845 135.518 162.741 134.825 162.637 134.409H170.333ZM144.853 142.677C145.65 142.781 146.482 142.885 147.349 142.989C148.216 143.058 149.065 143.093 149.897 143.093C150.313 143.093 151.145 143.093 152.393 143.093C153.676 143.093 155.201 143.093 156.969 143.093C158.737 143.093 160.626 143.093 162.637 143.093C164.682 143.093 166.728 143.093 168.773 143.093C170.853 143.093 172.777 143.093 174.545 143.093C176.348 143.093 177.908 143.093 179.225 143.093C180.542 143.093 181.461 143.093 181.981 143.093C182.709 143.093 183.558 143.058 184.529 142.989C185.534 142.919 186.401 142.833 187.129 142.729V149.541C186.332 149.471 185.465 149.437 184.529 149.437C183.593 149.402 182.761 149.385 182.033 149.385C181.513 149.385 180.594 149.385 179.277 149.385C177.994 149.385 176.452 149.385 174.649 149.385C172.881 149.385 170.974 149.385 168.929 149.385C166.884 149.385 164.838 149.385 162.793 149.385C160.748 149.385 158.841 149.385 157.073 149.385C155.305 149.385 153.78 149.385 152.497 149.385C151.249 149.385 150.382 149.385 149.897 149.385C149.134 149.385 148.285 149.402 147.349 149.437C146.448 149.471 145.616 149.523 144.853 149.593V142.677ZM158.113 156.769C157.524 157.947 156.813 159.213 155.981 160.565C155.149 161.917 154.248 163.269 153.277 164.621C152.341 165.973 151.422 167.238 150.521 168.417C149.62 169.561 148.805 170.514 148.077 171.277L142.461 167.429C143.328 166.631 144.212 165.695 145.113 164.621C146.049 163.511 146.95 162.35 147.817 161.137C148.718 159.923 149.533 158.71 150.261 157.497C151.024 156.283 151.682 155.122 152.237 154.013L158.113 156.769ZM180.473 153.857C181.132 154.689 181.86 155.677 182.657 156.821C183.489 157.965 184.321 159.195 185.153 160.513C185.985 161.795 186.765 163.061 187.493 164.309C188.221 165.522 188.845 166.597 189.365 167.533L183.229 170.861C182.674 169.751 182.033 168.555 181.305 167.273C180.612 165.99 179.884 164.707 179.121 163.425C178.358 162.142 177.596 160.946 176.833 159.837C176.105 158.693 175.429 157.722 174.805 156.925L180.473 153.857Z" fill="#DD1760"/>
<path d="M119.111 139.817C118.764 142.451 118.314 145.259 117.759 148.241C117.204 151.222 116.459 154.238 115.523 157.289C114.518 160.79 113.339 163.806 111.987 166.337C110.635 168.867 109.144 170.826 107.515 172.213C105.92 173.565 104.17 174.241 102.263 174.241C100.356 174.241 98.5884 173.599 96.959 172.317C95.3644 170.999 94.0817 169.197 93.111 166.909C92.175 164.621 91.707 162.021 91.707 159.109C91.707 156.093 92.3137 153.25 93.527 150.581C94.7404 147.911 96.4217 145.554 98.571 143.509C100.755 141.429 103.286 139.799 106.163 138.621C109.075 137.442 112.212 136.853 115.575 136.853C118.799 136.853 121.694 137.373 124.259 138.413C126.859 139.453 129.078 140.891 130.915 142.729C132.752 144.566 134.156 146.715 135.127 149.177C136.098 151.638 136.583 154.29 136.583 157.133C136.583 160.773 135.838 164.031 134.347 166.909C132.856 169.786 130.638 172.161 127.691 174.033C124.779 175.905 121.139 177.187 116.771 177.881L112.871 171.693C113.876 171.589 114.76 171.467 115.523 171.329C116.286 171.19 117.014 171.034 117.707 170.861C119.371 170.445 120.914 169.855 122.335 169.093C123.791 168.295 125.056 167.325 126.131 166.181C127.206 165.002 128.038 163.633 128.627 162.073C129.251 160.513 129.563 158.797 129.563 156.925C129.563 154.879 129.251 153.007 128.627 151.309C128.003 149.61 127.084 148.137 125.871 146.889C124.658 145.606 123.184 144.635 121.451 143.977C119.718 143.283 117.724 142.937 115.471 142.937C112.698 142.937 110.254 143.439 108.139 144.445C106.024 145.415 104.239 146.681 102.783 148.241C101.327 149.801 100.218 151.482 99.455 153.285C98.727 155.087 98.363 156.803 98.363 158.433C98.363 160.166 98.571 161.622 98.987 162.801C99.403 163.945 99.9057 164.811 100.495 165.401C101.119 165.955 101.778 166.233 102.471 166.233C103.199 166.233 103.91 165.869 104.603 165.141C105.331 164.378 106.042 163.234 106.735 161.709C107.428 160.183 108.122 158.259 108.815 155.937C109.612 153.441 110.288 150.771 110.843 147.929C111.398 145.086 111.796 142.313 112.039 139.609L119.111 139.817Z" fill="#DD1760"/>
<path d="M39.1875 146.941C40.1582 146.767 41.2328 146.525 42.4115 146.213C43.5902 145.901 44.6475 145.623 45.5835 145.381C46.5888 145.069 47.9408 144.635 49.6395 144.081C51.3728 143.526 53.2795 142.971 55.3595 142.417C57.4395 141.862 59.5542 141.394 61.7035 141.013C63.8875 140.597 65.9155 140.389 67.7875 140.389C70.9422 140.389 73.7848 140.978 76.3155 142.157C78.8462 143.335 80.8568 145.034 82.3475 147.253C83.8382 149.471 84.5835 152.193 84.5835 155.417C84.5835 157.774 84.1502 159.958 83.2835 161.969C82.4168 163.979 81.1342 165.782 79.4355 167.377C77.7715 168.971 75.7435 170.358 73.3515 171.537C70.9595 172.715 68.2208 173.669 65.1355 174.397C62.0848 175.09 58.7222 175.523 55.0475 175.697L52.0315 168.781C55.5675 168.711 58.8435 168.399 61.8595 167.845C64.9102 167.255 67.5795 166.423 69.8675 165.349C72.1555 164.239 73.9408 162.853 75.2235 161.189C76.5062 159.525 77.1475 157.566 77.1475 155.313C77.1475 153.683 76.7835 152.227 76.0555 150.945C75.3275 149.627 74.2355 148.587 72.7795 147.825C71.3582 147.062 69.6075 146.681 67.5275 146.681C66.0022 146.681 64.3208 146.871 62.4835 147.253C60.6462 147.599 58.7568 148.067 56.8155 148.657C54.9088 149.246 53.0368 149.887 51.1995 150.581C49.3622 151.239 47.6635 151.898 46.1035 152.557C44.5435 153.215 43.2262 153.77 42.1515 154.221L39.1875 146.941Z" fill="#DD1760"/>
<path d="M33.1937 146.629C33.1937 148.327 32.8297 149.801 32.1017 151.049C31.4083 152.297 30.455 153.319 29.2417 154.117C28.063 154.914 26.711 155.503 25.1857 155.885V156.041C28.167 156.387 30.4203 157.289 31.9457 158.745C33.5057 160.201 34.2857 162.159 34.2857 164.621C34.2857 166.77 33.7483 168.711 32.6737 170.445C31.6337 172.143 30.0043 173.495 27.7857 174.501C25.6017 175.471 22.7763 175.957 19.3097 175.957C17.2643 175.957 15.3577 175.783 13.5897 175.437C11.8217 175.09 10.1577 174.587 8.59766 173.929V167.273C10.1923 168.07 11.8563 168.677 13.5897 169.093C15.3577 169.509 16.987 169.717 18.4777 169.717C21.2857 169.717 23.2443 169.231 24.3537 168.261C25.4977 167.29 26.0697 165.921 26.0697 164.153C26.0697 163.113 25.8097 162.246 25.2897 161.553C24.7697 160.825 23.851 160.287 22.5337 159.941C21.251 159.559 19.4483 159.369 17.1257 159.369H14.3177V153.337H17.1777C19.4657 153.337 21.199 153.129 22.3777 152.713C23.591 152.262 24.4057 151.673 24.8217 150.945C25.2723 150.182 25.4977 149.315 25.4977 148.345C25.4977 147.027 25.0817 146.005 24.2497 145.277C23.4523 144.514 22.1003 144.133 20.1937 144.133C19.015 144.133 17.9403 144.289 16.9697 144.601C15.999 144.878 15.115 145.225 14.3177 145.641C13.555 146.057 12.879 146.455 12.2897 146.837L8.64966 141.429C9.62032 140.735 10.695 140.111 11.8737 139.557C13.087 139.002 14.4217 138.569 15.8777 138.257C17.3337 137.945 18.963 137.789 20.7657 137.789C24.579 137.789 27.595 138.569 29.8137 140.129C32.067 141.654 33.1937 143.821 33.1937 146.629Z" fill="#DD1760"/>
</svg>
