<svg width="38" height="38" viewBox="0 0 38 38" fill="none" xmlns="http://www.w3.org/2000/svg">
<path d="M19 0C21.4981 0.000201095 23.5232 2.0253 23.5234 4.52344V14.4756H33.4766C35.9747 14.4758 37.9998 16.5019 38 19C37.9998 21.4981 35.9747 23.5232 33.4766 23.5234L23.5234 23.5234L23.5234 33.4766C23.5232 35.9747 21.4981 37.9998 19 38C16.5019 37.9998 14.4758 35.9747 14.4756 33.4766V23.5234H4.52344C2.0253 23.5232 0.000200986 21.4981 0 19C0.000200986 16.5019 2.0253 14.4758 4.52344 14.4756H14.4756V4.52344C14.4758 2.0253 16.5019 0.000201774 19 0Z" fill="#DD1760"/>
</svg>
