<svg width="108" height="23" viewBox="0 0 108 23" fill="none" xmlns="http://www.w3.org/2000/svg">
<path d="M99.1195 8.36993C98.8395 8.58993 98.5395 8.61993 98.2195 8.45993C97.9195 8.29993 97.7695 8.04993 97.7695 7.70993V6.50993C97.7695 5.38993 98.2195 4.47993 99.1195 3.77993L102.33 1.31993C103.23 0.639927 104.25 0.299927 105.39 0.299927H106.29C106.75 0.299927 107.14 0.469927 107.46 0.809926C107.8 1.14993 107.97 1.54993 107.97 2.00993V20.4899C107.97 20.9499 107.8 21.3499 107.46 21.6899C107.14 22.0299 106.75 22.1999 106.29 22.1999H105.39C104.93 22.1999 104.53 22.0299 104.19 21.6899C103.85 21.3499 103.68 20.9499 103.68 20.4899V4.91993L103.65 4.88993L103.62 4.91993L99.1195 8.36993Z" fill="white"/>
<path d="M72.6253 22.1999C72.1653 22.1999 71.7653 22.0299 71.4253 21.6899C71.1053 21.3499 70.9453 20.9499 70.9453 20.4899V2.00993C70.9453 1.54993 71.1053 1.14993 71.4253 0.809926C71.7653 0.469927 72.1653 0.299927 72.6253 0.299927H82.5253C82.9853 0.299927 83.3853 0.469927 83.7253 0.809926C84.0653 1.14993 84.2353 1.54993 84.2353 2.00993C84.2353 2.46993 84.0653 2.86993 83.7253 3.20993C83.3853 3.52993 82.9853 3.68993 82.5253 3.68993H75.3853C75.2253 3.68993 75.1453 3.77993 75.1453 3.95993V9.20993C75.1453 9.36993 75.2253 9.44993 75.3853 9.44993H82.0153C82.4553 9.44993 82.8353 9.60993 83.1553 9.92993C83.4753 10.2299 83.6353 10.6099 83.6353 11.0699C83.6353 11.5299 83.4753 11.9199 83.1553 12.2399C82.8353 12.5399 82.4553 12.6899 82.0153 12.6899H75.3853C75.2253 12.6899 75.1453 12.7699 75.1453 12.9299V20.4899C75.1453 20.9499 74.9753 21.3499 74.6353 21.6899C74.2953 22.0299 73.8953 22.1999 73.4353 22.1999H72.6253Z" fill="white"/>
<path d="M55.0472 22.1999C54.5872 22.1999 54.1872 22.0299 53.8472 21.6899C53.5272 21.3499 53.3672 20.9499 53.3672 20.4899V2.00993C53.3672 1.54993 53.5272 1.14993 53.8472 0.809926C54.1872 0.469927 54.5872 0.299927 55.0472 0.299927H64.9472C65.4072 0.299927 65.8072 0.469927 66.1472 0.809926C66.4872 1.14993 66.6572 1.54993 66.6572 2.00993C66.6572 2.46993 66.4872 2.86993 66.1472 3.20993C65.8072 3.52993 65.4072 3.68993 64.9472 3.68993H57.8072C57.6472 3.68993 57.5672 3.77993 57.5672 3.95993V9.20993C57.5672 9.36993 57.6472 9.44993 57.8072 9.44993H64.4372C64.8772 9.44993 65.2572 9.60993 65.5772 9.92993C65.8972 10.2299 66.0572 10.6099 66.0572 11.0699C66.0572 11.5299 65.8972 11.9199 65.5772 12.2399C65.2572 12.5399 64.8772 12.6899 64.4372 12.6899H57.8072C57.6472 12.6899 57.5672 12.7699 57.5672 12.9299V20.4899C57.5672 20.9499 57.3972 21.3499 57.0572 21.6899C56.7172 22.0299 56.3172 22.1999 55.8572 22.1999H55.0472Z" fill="white"/>
<path d="M41.2999 4.01993L38.6599 13.4399C38.6399 13.4999 38.6499 13.5599 38.6899 13.6199C38.7299 13.6799 38.7799 13.7099 38.8399 13.7099H43.8199C43.8799 13.7099 43.9299 13.6799 43.9699 13.6199C44.0099 13.5599 44.0199 13.4999 43.9999 13.4399L41.3599 4.01993C41.3599 3.99993 41.3499 3.98993 41.3299 3.98993C41.3099 3.98993 41.2999 3.99993 41.2999 4.01993ZM33.5299 22.1999C33.1099 22.1999 32.7799 22.0299 32.5399 21.6899C32.2999 21.3499 32.2499 20.9799 32.3899 20.5799L38.5999 1.91993C38.7799 1.43993 39.0699 1.04993 39.4699 0.749927C39.8899 0.449927 40.3499 0.299927 40.8499 0.299927H41.9299C42.4499 0.299927 42.9099 0.449927 43.3099 0.749927C43.7299 1.04993 44.0199 1.43993 44.1799 1.91993L50.3899 20.5799C50.5299 20.9799 50.4799 21.3499 50.2399 21.6899C49.9999 22.0299 49.6699 22.1999 49.2499 22.1999H48.1699C47.6899 22.1999 47.2399 22.0499 46.8199 21.7499C46.4199 21.4299 46.1499 21.0299 46.0099 20.5499L45.0499 17.1599C45.0299 16.9999 44.9199 16.9199 44.7199 16.9199H37.9399C37.7599 16.9199 37.6499 16.9999 37.6099 17.1599L36.6499 20.5499C36.5299 21.0299 36.2599 21.4299 35.8399 21.7499C35.4399 22.0499 34.9899 22.1999 34.4899 22.1999H33.5299Z" fill="white"/>
<path d="M18.585 3.77993C18.125 3.77993 17.725 3.61993 17.385 3.29993C17.045 2.95993 16.875 2.55993 16.875 2.09993V2.00993C16.875 1.54993 17.045 1.14993 17.385 0.809926C17.725 0.469927 18.125 0.299927 18.585 0.299927H31.365C31.825 0.299927 32.225 0.469927 32.565 0.809926C32.905 1.14993 33.075 1.54993 33.075 2.00993V2.09993C33.075 2.55993 32.905 2.95993 32.565 3.29993C32.225 3.61993 31.825 3.77993 31.365 3.77993H27.345C27.185 3.77993 27.105 3.86993 27.105 4.04993V20.4899C27.105 20.9499 26.935 21.3499 26.595 21.6899C26.255 22.0299 25.855 22.1999 25.395 22.1999H24.555C24.095 22.1999 23.695 22.0299 23.355 21.6899C23.015 21.3499 22.845 20.9499 22.845 20.4899V4.04993C22.845 3.86993 22.765 3.77993 22.605 3.77993H18.585Z" fill="white"/>
<path d="M6.81 12.96C4.41 12.16 2.67 11.19 1.59 10.05C0.53 8.91 0 7.53 0 5.91C0 4.09 0.61 2.65 1.83 1.59C3.05 0.53 4.76 0 6.96 0C8.82 0 10.44 0.209999 11.82 0.629999C12.3 0.769999 12.68 1.06 12.96 1.5C13.26 1.92 13.41 2.39 13.41 2.91V3.18C13.41 3.56 13.24 3.86 12.9 4.08C12.56 4.28 12.21 4.31 11.85 4.17C10.35 3.59 8.82 3.3 7.26 3.3C6.26 3.3 5.5 3.53 4.98 3.99C4.46 4.45 4.2 5.09 4.2 5.91C4.2 7.35 5.14 8.38 7.02 9C9.72 9.86 11.59 10.84 12.63 11.94C13.69 13.04 14.22 14.46 14.22 16.2C14.22 20.4 11.63 22.5 6.45 22.5C4.83 22.5 3.36 22.25 2.04 21.75C1.56 21.57 1.18 21.26 0.9 20.82C0.64 20.38 0.51 19.89 0.51 19.35V18.99C0.51 18.61 0.67 18.34 0.99 18.18C1.31 18 1.64 17.99 1.98 18.15C3.3 18.81 4.69 19.14 6.15 19.14C8.69 19.14 9.96 18.18 9.96 16.26C9.96 15.48 9.72 14.84 9.24 14.34C8.76 13.82 7.95 13.36 6.81 12.96Z" fill="white"/>
</svg>
