<svg width="112" height="23" viewBox="0 0 112 23" fill="none" xmlns="http://www.w3.org/2000/svg">
<path d="M98.7881 3.69005C98.3281 3.69005 97.9281 3.53005 97.5881 3.21005C97.2481 2.87005 97.0781 2.47005 97.0781 2.01005C97.0781 1.55005 97.2481 1.15005 97.5881 0.810048C97.9281 0.470049 98.3281 0.300049 98.7881 0.300049H109.438C109.898 0.300049 110.288 0.470049 110.608 0.810048C110.948 1.15005 111.118 1.55005 111.118 2.01005C111.118 3.15005 110.698 4.09005 109.858 4.83005L104.998 9.24005C104.978 9.26005 104.968 9.28005 104.968 9.30005C104.968 9.32005 104.978 9.33005 104.998 9.33005H105.478C107.318 9.33005 108.768 9.86005 109.828 10.92C110.888 11.96 111.418 13.42 111.418 15.3C111.418 17.6 110.718 19.38 109.318 20.64C107.918 21.88 105.918 22.5 103.318 22.5C101.778 22.5 100.288 22.32 98.8481 21.96C98.3681 21.84 97.9781 21.5701 97.6781 21.1501C97.3781 20.7301 97.2281 20.26 97.2281 19.74V19.41C97.2281 19.01 97.3881 18.7 97.7081 18.48C98.0481 18.24 98.4181 18.18 98.8181 18.3C100.438 18.84 101.878 19.1101 103.138 19.1101C104.458 19.1101 105.478 18.7901 106.198 18.1501C106.918 17.5101 107.278 16.58 107.278 15.36C107.278 14.24 106.868 13.44 106.048 12.96C105.248 12.46 103.828 12.21 101.788 12.21H101.458C101.058 12.21 100.708 12.06 100.408 11.76C100.128 11.46 99.9881 11.11 99.9881 10.71C99.9881 9.71005 100.348 8.88005 101.068 8.22005L105.958 3.78005C105.978 3.76005 105.988 3.74005 105.988 3.72005C105.988 3.70005 105.978 3.69005 105.958 3.69005H98.7881Z" fill="white"/>
<path d="M72.6253 22.2001C72.1653 22.2001 71.7653 22.03 71.4253 21.69C71.1053 21.35 70.9453 20.95 70.9453 20.49V2.01005C70.9453 1.55005 71.1053 1.15005 71.4253 0.810048C71.7653 0.470049 72.1653 0.300049 72.6253 0.300049H82.5253C82.9853 0.300049 83.3853 0.470049 83.7253 0.810048C84.0653 1.15005 84.2353 1.55005 84.2353 2.01005C84.2353 2.47005 84.0653 2.87005 83.7253 3.21005C83.3853 3.53005 82.9853 3.69005 82.5253 3.69005H75.3853C75.2253 3.69005 75.1453 3.78005 75.1453 3.96005V9.21005C75.1453 9.37005 75.2253 9.45005 75.3853 9.45005H82.0153C82.4553 9.45005 82.8353 9.61005 83.1553 9.93005C83.4753 10.23 83.6353 10.61 83.6353 11.07C83.6353 11.53 83.4753 11.92 83.1553 12.24C82.8353 12.54 82.4553 12.69 82.0153 12.69H75.3853C75.2253 12.69 75.1453 12.77 75.1453 12.93V20.49C75.1453 20.95 74.9753 21.35 74.6353 21.69C74.2953 22.03 73.8953 22.2001 73.4353 22.2001H72.6253Z" fill="white"/>
<path d="M55.0472 22.2001C54.5872 22.2001 54.1872 22.03 53.8472 21.69C53.5272 21.35 53.3672 20.95 53.3672 20.49V2.01005C53.3672 1.55005 53.5272 1.15005 53.8472 0.810048C54.1872 0.470049 54.5872 0.300049 55.0472 0.300049H64.9472C65.4072 0.300049 65.8072 0.470049 66.1472 0.810048C66.4872 1.15005 66.6572 1.55005 66.6572 2.01005C66.6572 2.47005 66.4872 2.87005 66.1472 3.21005C65.8072 3.53005 65.4072 3.69005 64.9472 3.69005H57.8072C57.6472 3.69005 57.5672 3.78005 57.5672 3.96005V9.21005C57.5672 9.37005 57.6472 9.45005 57.8072 9.45005H64.4372C64.8772 9.45005 65.2572 9.61005 65.5772 9.93005C65.8972 10.23 66.0572 10.61 66.0572 11.07C66.0572 11.53 65.8972 11.92 65.5772 12.24C65.2572 12.54 64.8772 12.69 64.4372 12.69H57.8072C57.6472 12.69 57.5672 12.77 57.5672 12.93V20.49C57.5672 20.95 57.3972 21.35 57.0572 21.69C56.7172 22.03 56.3172 22.2001 55.8572 22.2001H55.0472Z" fill="white"/>
<path d="M41.2999 4.02005L38.6599 13.44C38.6399 13.5 38.6499 13.56 38.6899 13.62C38.7299 13.68 38.7799 13.71 38.8399 13.71H43.8199C43.8799 13.71 43.9299 13.68 43.9699 13.62C44.0099 13.56 44.0199 13.5 43.9999 13.44L41.3599 4.02005C41.3599 4.00005 41.3499 3.99005 41.3299 3.99005C41.3099 3.99005 41.2999 4.00005 41.2999 4.02005ZM33.5299 22.2001C33.1099 22.2001 32.7799 22.03 32.5399 21.69C32.2999 21.35 32.2499 20.98 32.3899 20.58L38.5999 1.92005C38.7799 1.44005 39.0699 1.05005 39.4699 0.750049C39.8899 0.450049 40.3499 0.300049 40.8499 0.300049H41.9299C42.4499 0.300049 42.9099 0.450049 43.3099 0.750049C43.7299 1.05005 44.0199 1.44005 44.1799 1.92005L50.3899 20.58C50.5299 20.98 50.4799 21.35 50.2399 21.69C49.9999 22.03 49.6699 22.2001 49.2499 22.2001H48.1699C47.6899 22.2001 47.2399 22.05 46.8199 21.75C46.4199 21.43 46.1499 21.03 46.0099 20.55L45.0499 17.16C45.0299 17 44.9199 16.92 44.7199 16.92H37.9399C37.7599 16.92 37.6499 17 37.6099 17.16L36.6499 20.55C36.5299 21.03 36.2599 21.43 35.8399 21.75C35.4399 22.05 34.9899 22.2001 34.4899 22.2001H33.5299Z" fill="white"/>
<path d="M18.585 3.78005C18.125 3.78005 17.725 3.62005 17.385 3.30005C17.045 2.96005 16.875 2.56005 16.875 2.10005V2.01005C16.875 1.55005 17.045 1.15005 17.385 0.810048C17.725 0.470049 18.125 0.300049 18.585 0.300049H31.365C31.825 0.300049 32.225 0.470049 32.565 0.810048C32.905 1.15005 33.075 1.55005 33.075 2.01005V2.10005C33.075 2.56005 32.905 2.96005 32.565 3.30005C32.225 3.62005 31.825 3.78005 31.365 3.78005H27.345C27.185 3.78005 27.105 3.87005 27.105 4.05005V20.49C27.105 20.95 26.935 21.35 26.595 21.69C26.255 22.03 25.855 22.2001 25.395 22.2001H24.555C24.095 22.2001 23.695 22.03 23.355 21.69C23.015 21.35 22.845 20.95 22.845 20.49V4.05005C22.845 3.87005 22.765 3.78005 22.605 3.78005H18.585Z" fill="white"/>
<path d="M6.81 12.96C4.41 12.16 2.67 11.19 1.59 10.05C0.53 8.91 0 7.53 0 5.91C0 4.09 0.61 2.65 1.83 1.59C3.05 0.53 4.76 0 6.96 0C8.82 0 10.44 0.209999 11.82 0.629999C12.3 0.769999 12.68 1.06 12.96 1.5C13.26 1.92 13.41 2.39 13.41 2.91V3.18C13.41 3.56 13.24 3.86 12.9 4.08C12.56 4.28 12.21 4.31 11.85 4.17C10.35 3.59 8.82 3.3 7.26 3.3C6.26 3.3 5.5 3.53 4.98 3.99C4.46 4.45 4.2 5.09 4.2 5.91C4.2 7.35 5.14 8.38 7.02 9C9.72 9.86 11.59 10.84 12.63 11.94C13.69 13.04 14.22 14.46 14.22 16.2C14.22 20.4 11.63 22.5 6.45 22.5C4.83 22.5 3.36 22.25 2.04 21.75C1.56 21.57 1.18 21.26 0.9 20.82C0.64 20.38 0.51 19.89 0.51 19.35V18.99C0.51 18.61 0.67 18.34 0.99 18.18C1.31 18 1.64 17.99 1.98 18.15C3.3 18.81 4.69 19.14 6.15 19.14C8.69 19.14 9.96 18.18 9.96 16.26C9.96 15.48 9.72 14.84 9.24 14.34C8.76 13.82 7.95 13.36 6.81 12.96Z" fill="white"/>
</svg>
