<svg width="230" height="115" viewBox="0 0 230 115" fill="none" xmlns="http://www.w3.org/2000/svg">
<path d="M152.864 4.21629C168.005 2.28946 183.754 3.99319 198.477 10.4633C207.294 14.3373 215.956 21.355 221.778 33.2608C230.643 51.3933 229.498 73.9272 219.774 89.9098C210.05 105.892 223.275 106.411 207.642 106.411C192.009 106.411 176.941 107.918 144.075 110.539C111.21 113.16 71.3991 114.127 53.5382 112.91C38.3022 111.876 18.2342 105.02 7.0786 85.7316C-1.14192 71.5136 0.385269 50.1561 6.78032 34.5792C11.7794 22.3894 19.4989 13.9722 27.7432 9.02324C40.1874 1.57957 53.8842 0.747989 66.9368 1.80268C95.7504 4.15545 123.955 7.86714 152.864 4.17573V4.21629Z" fill="white"/>
<path d="M68.2943 111.894C67.466 111.885 66.7869 112.549 66.7776 113.377C66.7686 114.205 67.4336 114.885 68.262 114.894C71.3787 114.928 74.6894 114.937 78.1126 114.927C78.941 114.924 79.6103 114.25 79.6077 113.422C79.6051 112.594 78.9321 111.924 78.1038 111.927C74.6913 111.937 71.3942 111.928 68.2943 111.894ZM97.7532 111.698C94.4871 111.759 91.1908 111.81 87.9271 111.85C87.0987 111.86 86.4347 112.54 86.4446 113.368C86.4548 114.196 87.1349 114.86 87.9632 114.85C91.2342 114.81 94.5372 114.759 97.8089 114.698C98.637 114.683 99.2958 113.999 99.2806 113.171C99.2653 112.343 98.5815 111.683 97.7532 111.698ZM49.1009 110.947C48.2806 110.832 47.5216 111.404 47.4066 112.225C47.2916 113.045 47.8637 113.804 48.6839 113.919C49.9004 114.089 51.0983 114.223 52.2708 114.323L53.4349 114.413C54.9256 114.515 56.5821 114.599 58.3753 114.668C59.2031 114.7 59.9001 114.054 59.9319 113.227C59.9637 112.399 59.3183 111.702 58.4905 111.67C56.719 111.602 55.0931 111.519 53.639 111.42H53.638C52.1681 111.32 50.6514 111.165 49.1009 110.947ZM117.404 111.24C114.295 111.326 110.994 111.412 107.581 111.492C106.753 111.512 106.098 112.198 106.117 113.026C106.137 113.855 106.824 114.511 107.652 114.491C111.069 114.411 114.374 114.325 117.487 114.239C118.315 114.216 118.967 113.526 118.945 112.698C118.922 111.87 118.232 111.217 117.404 111.24ZM138.097 110.627C136.359 110.667 134.388 110.723 132.139 110.796C130.662 110.844 129.019 110.897 127.241 110.952C126.413 110.978 125.762 111.67 125.787 112.498C125.813 113.326 126.506 113.976 127.333 113.95C129.114 113.895 130.758 113.842 132.237 113.794C134.477 113.721 136.439 113.666 138.166 113.626C138.994 113.607 139.65 112.92 139.631 112.092C139.612 111.264 138.925 110.608 138.097 110.627ZM167.243 110.58C165.123 110.708 162.981 110.795 160.612 110.795C159.783 110.795 159.112 111.467 159.112 112.295C159.112 113.123 159.783 113.795 160.612 113.795C163.058 113.795 165.262 113.705 167.424 113.575C168.251 113.525 168.881 112.814 168.831 111.987C168.781 111.161 168.07 110.53 167.243 110.58ZM150.075 110.614C149.248 110.585 148.552 111.232 148.523 112.06C148.493 112.888 149.14 113.583 149.968 113.612C152.074 113.688 153.529 113.795 155.96 113.795C156.789 113.795 157.46 113.123 157.46 112.295C157.46 111.467 156.789 110.795 155.96 110.795C153.599 110.795 152.282 110.693 150.075 110.614ZM192.523 109.428C190.973 109.554 189.301 109.615 187.485 109.615C184.978 109.615 182.743 109.663 180.7 109.739C179.873 109.77 179.226 110.466 179.257 111.294C179.288 112.122 179.985 112.768 180.813 112.737C182.819 112.663 185.016 112.615 187.485 112.615C189.366 112.615 191.121 112.553 192.767 112.418C193.593 112.351 194.207 111.627 194.14 110.801C194.072 109.975 193.348 109.36 192.523 109.428ZM31.6312 105.891C30.8784 105.545 29.9877 105.874 29.6419 106.627C29.2961 107.38 29.6264 108.27 30.3792 108.616C33.3511 109.981 36.3636 111.076 39.3441 111.934C40.14 112.163 40.9712 111.703 41.2005 110.907C41.4297 110.111 40.9701 109.28 40.1741 109.051C37.3278 108.231 34.4571 107.189 31.6312 105.891ZM211.872 101.394C211.262 100.833 210.314 100.873 209.753 101.483C207.343 104.106 204.895 105.961 202.031 107.234C201.274 107.571 200.933 108.458 201.27 109.215C201.606 109.972 202.493 110.312 203.249 109.976C206.557 108.505 209.33 106.378 211.962 103.513C212.523 102.903 212.482 101.954 211.872 101.394ZM16.6859 95.7091C16.0937 95.1298 15.1441 95.1404 14.5648 95.7325C13.9855 96.3247 13.9961 97.2743 14.5882 97.8536C16.9367 100.151 19.4349 102.165 22.0257 103.922C22.7113 104.387 23.6437 104.208 24.1087 103.523C24.5736 102.837 24.3949 101.905 23.7093 101.44C21.2585 99.7776 18.9001 97.8755 16.6859 95.7091ZM222.769 84.2052C222.023 83.8453 221.126 84.1582 220.766 84.9044C220.071 86.3461 219.312 87.7453 218.491 89.0948C217.548 90.6447 216.648 92.0881 215.776 93.4317C215.325 94.1266 215.522 95.0558 216.217 95.5069C216.912 95.9579 217.841 95.7603 218.292 95.0655C219.185 93.6903 220.101 92.2209 221.054 90.6544C221.927 89.2197 222.732 87.7348 223.468 86.2081C223.828 85.462 223.515 84.5651 222.769 84.2052ZM6.50031 81.2149C6.1764 80.4527 5.29587 80.0973 4.53351 80.421C3.77113 80.7448 3.41499 81.6253 3.73859 82.3878C4.26435 83.6256 4.85017 84.8291 5.49738 85.9913L5.77863 86.4874C6.59622 87.9011 7.46103 89.2507 8.36749 90.5382C8.84444 91.2154 9.78001 91.3783 10.4573 90.9014C11.1347 90.4245 11.2965 89.489 10.8196 88.8116C9.9644 87.5968 9.14819 86.3219 8.37531 84.9854C7.68009 83.7829 7.05598 82.5232 6.50031 81.2149ZM227.583 65.2257C226.76 65.1352 226.02 65.7294 225.929 66.5528C225.577 69.7594 224.971 72.9116 224.121 75.9591C223.899 76.7571 224.366 77.5843 225.164 77.8067C225.962 78.029 226.79 77.5626 227.012 76.7647C227.906 73.5572 228.541 70.245 228.91 66.8809C229.001 66.0575 228.407 65.3162 227.583 65.2257ZM1.4339 63.1807C0.606444 63.2177 -0.0345456 63.9187 0.0022583 64.7462C0.138148 67.7891 0.490105 70.7952 1.08234 73.7032C1.24765 74.5149 2.03921 75.0393 2.85089 74.8741C3.66264 74.7088 4.18712 73.9163 4.02179 73.1046C3.46367 70.3641 3.12892 67.5144 2.99933 64.6124C2.96226 63.7849 2.26143 63.1438 1.4339 63.1807ZM227.974 46.8487C227.806 46.0375 227.013 45.5153 226.201 45.6827C225.39 45.8503 224.868 46.644 225.035 47.4552C225.684 50.5952 226.081 53.7822 226.229 56.9679C226.267 57.7953 226.969 58.4349 227.796 58.3966C228.624 58.358 229.263 57.6557 229.225 56.8282C229.069 53.4883 228.655 50.1454 227.974 46.8487ZM3.26495 45.7227C2.45371 45.5554 1.66089 46.0775 1.49347 46.8888C0.893337 49.7967 0.454203 52.7728 0.198547 55.7628C0.12796 56.5882 0.740326 57.3143 1.56573 57.3848C2.39102 57.4553 3.11719 56.8439 3.18781 56.0186C3.43312 53.1496 3.85411 50.2903 4.43097 47.4952C4.5984 46.6839 4.07628 45.8902 3.26495 45.7227ZM9.15851 29.3975C8.41436 29.0337 7.51564 29.3419 7.15167 30.086C6.53333 31.3502 5.94576 32.6588 5.39093 34.0118L4.97784 35.043C4.57166 36.082 4.18689 37.1434 3.82452 38.2237C3.56109 39.009 3.98367 39.8595 4.76886 40.1231C5.55428 40.3866 6.4048 39.9632 6.66827 39.1778C7.01549 38.1427 7.38379 37.1273 7.77179 36.1348L8.16632 35.1505C8.69648 33.8577 9.25781 32.609 9.84698 31.4044C10.211 30.6602 9.90269 29.7615 9.15851 29.3975ZM221.099 28.793C220.679 28.0795 219.76 27.8411 219.046 28.2608C218.332 28.681 218.094 29.6006 218.514 30.3145C219.015 31.165 219.499 32.0461 219.967 32.9581L220.429 33.8809C221.131 35.316 221.768 36.7803 222.342 38.2677C222.64 39.0403 223.509 39.4251 224.282 39.127C225.054 38.8288 225.439 37.9604 225.141 37.1876C224.536 35.6212 223.864 34.0776 223.124 32.5636L222.637 31.5889C222.143 30.6257 221.629 29.6941 221.099 28.793ZM19.0013 15.8419C18.3996 15.2724 17.4496 15.2988 16.8802 15.9005C14.9717 17.917 13.157 20.1602 11.471 22.6339C11.0047 23.3183 11.1814 24.2512 11.8655 24.7179C12.5501 25.1844 13.4839 25.0079 13.9505 24.3233C15.5477 21.98 17.2615 19.8611 19.0589 17.962C19.6282 17.3604 19.6027 16.4113 19.0013 15.8419ZM210.044 15.7638C209.404 15.2383 208.458 15.3313 207.933 15.9718C207.407 16.6122 207.5 17.5576 208.141 18.0831C210.137 19.7209 212.058 21.5946 213.863 23.7315C214.397 24.3644 215.344 24.4437 215.977 23.9093C216.61 23.3747 216.689 22.4288 216.155 21.796C214.23 19.517 212.179 17.5151 210.044 15.7638ZM193.566 6.85946C192.785 6.58132 191.927 6.9883 191.649 7.76863C191.371 8.54895 191.779 9.4075 192.559 9.68563C194.343 10.3214 196.115 11.0239 197.871 11.796L197.872 11.797C199.082 12.3284 200.288 12.9204 201.483 13.5782C202.208 13.9777 203.12 13.7131 203.52 12.9874C203.919 12.2618 203.656 11.3499 202.93 10.9503C201.654 10.248 200.367 9.61623 199.078 9.04988C197.255 8.24865 195.417 7.5192 193.566 6.85946ZM33.5745 6.01278C33.2238 5.26238 32.3308 4.93854 31.5804 5.28914C30.2223 5.92396 28.8754 6.62615 27.5423 7.40047L26.972 7.73641L26.97 7.73738C25.7515 8.46889 24.5443 9.27325 23.3568 10.1505C22.6907 10.6427 22.5502 11.5819 23.0423 12.2481C23.5346 12.9143 24.4737 13.0557 25.14 12.5636C26.2512 11.7427 27.3781 10.9915 28.514 10.3097V10.3087C29.9432 9.45384 31.3897 8.68952 32.8499 8.00692C33.6003 7.65614 33.9252 6.76321 33.5745 6.01278ZM136.707 4.02645C133.138 4.18039 129.573 4.24428 126.011 4.23543C125.183 4.23356 124.51 4.90327 124.508 5.73153C124.506 6.55995 125.176 7.23337 126.004 7.23543C129.607 7.24438 133.218 7.17962 136.837 7.02352C137.665 6.98769 138.306 6.28762 138.271 5.46004C138.235 4.63244 137.535 3.99075 136.707 4.02645ZM104.588 3.43953C103.762 3.3857 103.048 4.01147 102.993 4.83797C102.939 5.66463 103.566 6.37863 104.393 6.4327C107.987 6.66779 111.584 6.86436 115.185 7.00399C116.013 7.03609 116.709 6.39038 116.742 5.56258C116.773 4.7349 116.129 4.03804 115.301 4.00594C111.731 3.86752 108.161 3.67323 104.588 3.43953ZM170.402 2.11824C169.575 2.0648 168.862 2.69111 168.808 3.51766C168.754 4.34419 169.381 5.05752 170.207 5.11141C173.998 5.35754 177.786 5.85511 181.546 6.62117C182.358 6.78654 183.15 6.2629 183.316 5.45125C183.481 4.6395 182.957 3.8471 182.145 3.68172C178.247 2.8877 174.324 2.37294 170.402 2.11824ZM158.565 2.12215C157.086 2.21764 155.611 2.34863 154.141 2.51278L152.673 2.68758C150.903 2.91368 149.134 3.11205 147.367 3.28426C146.543 3.36464 145.939 4.09841 146.02 4.92293C146.1 5.74742 146.834 6.35097 147.659 6.27059C149.454 6.09557 151.252 5.89415 153.053 5.66414C154.946 5.42318 156.849 5.23952 158.758 5.11629C159.585 5.06277 160.212 4.34915 160.159 3.52254C160.105 2.69603 159.391 2.06891 158.565 2.12215ZM83.1585 1.71199C82.3335 1.63859 81.6052 2.2483 81.5316 3.07332C81.4582 3.8982 82.0671 4.6265 82.8919 4.70028C86.4732 5.01984 90.0528 5.33583 93.6302 5.62996C94.4557 5.69781 95.1803 5.08334 95.2484 4.25789C95.3162 3.43235 94.7018 2.70775 93.8763 2.63973C90.3099 2.34649 86.7385 2.03145 83.1585 1.71199ZM51.6302 0.192463C48.2141 0.471834 44.7919 0.992104 41.3978 1.83406C40.5938 2.0335 40.1038 2.84653 40.303 3.65047C40.5025 4.45447 41.3154 4.94455 42.1194 4.7452C45.3368 3.94707 48.598 3.44972 51.8753 3.18172C52.7008 3.11405 53.3149 2.3901 53.2474 1.56453C53.1797 0.739016 52.4558 0.124952 51.6302 0.192463ZM61.9339 0.00105662C61.1062 -0.0297239 60.4102 0.61577 60.3792 1.44344C60.3483 2.27129 60.9947 2.96722 61.8226 2.99813C63.4916 3.06043 65.1565 3.16304 66.8138 3.29696C68.601 3.4429 70.3862 3.59468 72.1702 3.7491C72.9956 3.82054 73.7228 3.20921 73.7943 2.38387C73.8655 1.5587 73.2542 0.832251 72.429 0.760822C70.6412 0.606069 68.8503 0.454145 67.0569 0.307697H67.056C65.3608 0.170715 63.6518 0.0651836 61.9339 0.00105662Z" fill="#583F48"/>
<path d="M190.501 84.4308C190.133 84.4308 189.813 84.2948 189.541 84.0228C189.269 83.7508 189.133 83.4308 189.133 83.0628V81.7188C189.133 81.3508 189.269 81.0308 189.541 80.7588C189.813 80.4868 190.133 80.3508 190.501 80.3508H191.605C191.973 80.3508 192.293 80.4868 192.565 80.7588C192.837 81.0308 192.973 81.3508 192.973 81.7188V83.0628C192.973 83.4308 192.837 83.7508 192.565 84.0228C192.293 84.2948 191.973 84.4308 191.605 84.4308H190.501Z" fill="#583F48"/>
<path d="M182.391 84.4308C182.023 84.4308 181.703 84.2948 181.431 84.0228C181.159 83.7508 181.023 83.4308 181.023 83.0628V81.7188C181.023 81.3508 181.159 81.0308 181.431 80.7588C181.703 80.4868 182.023 80.3508 182.391 80.3508H183.495C183.863 80.3508 184.183 80.4868 184.455 80.7588C184.727 81.0308 184.863 81.3508 184.863 81.7188V83.0628C184.863 83.4308 184.727 83.7508 184.455 84.0228C184.183 84.2948 183.863 84.4308 183.495 84.4308H182.391Z" fill="#583F48"/>
<path d="M174.282 84.4308C173.914 84.4308 173.594 84.2948 173.322 84.0228C173.05 83.7508 172.914 83.4308 172.914 83.0628V81.7188C172.914 81.3508 173.05 81.0308 173.322 80.7588C173.594 80.4868 173.914 80.3508 174.282 80.3508H175.386C175.754 80.3508 176.074 80.4868 176.346 80.7588C176.618 81.0308 176.754 81.3508 176.754 81.7188V83.0628C176.754 83.4308 176.618 83.7508 176.346 84.0228C176.074 84.2948 175.754 84.4308 175.386 84.4308H174.282Z" fill="#583F48"/>
<path d="M165.642 81.6228C165.466 77.2548 164.642 73.2388 163.17 69.5748C163.042 69.2388 163.05 68.9108 163.194 68.5908C163.338 68.2548 163.586 68.0308 163.938 67.9188L164.274 67.8228C164.642 67.7108 165.002 67.7428 165.354 67.9188C165.722 68.0788 165.986 68.3348 166.146 68.6868C167.794 72.5428 168.69 76.8548 168.834 81.6228C168.85 81.9908 168.722 82.3108 168.45 82.5828C168.178 82.8548 167.858 82.9908 167.49 82.9908H167.01C166.642 82.9908 166.322 82.8548 166.05 82.5828C165.794 82.3108 165.658 81.9908 165.642 81.6228ZM154.77 85.5588C153.41 85.5588 152.146 84.6308 150.978 82.7748C149.826 80.9188 149.25 78.6708 149.25 76.0308C149.25 73.6148 149.53 71.2468 150.09 68.9268C150.186 68.5428 150.394 68.2468 150.714 68.0388C151.05 67.8148 151.418 67.7268 151.818 67.7748L152.226 67.8228C152.578 67.8548 152.85 68.0228 153.042 68.3268C153.25 68.6308 153.314 68.9588 153.234 69.3108C152.722 71.5828 152.466 73.8228 152.466 76.0308C152.466 77.8068 152.746 79.3028 153.306 80.5188C153.882 81.7348 154.45 82.3428 155.01 82.3428C155.362 82.3428 155.818 82.0068 156.378 81.3348C156.938 80.6468 157.506 79.6548 158.082 78.3588C158.242 78.0068 158.49 77.7588 158.826 77.6148C159.178 77.4548 159.53 77.4388 159.882 77.5668L160.146 77.6628C160.498 77.7908 160.754 78.0308 160.914 78.3828C161.074 78.7188 161.082 79.0548 160.938 79.3908C160.122 81.3268 159.146 82.8388 158.01 83.9268C156.874 85.0148 155.794 85.5588 154.77 85.5588Z" fill="#583F48"/>
<path d="M130.215 79.6788C128.471 78.4788 127.391 77.6468 126.975 77.1828C126.575 76.7188 126.375 76.0948 126.375 75.3108C126.375 74.4628 126.591 73.8068 127.023 73.3428C127.455 72.8788 128.543 72.0868 130.287 70.9668C133.119 69.1268 135.591 67.4148 137.703 65.8308C138.007 65.6068 138.351 65.5188 138.735 65.5668C139.119 65.5988 139.431 65.7668 139.671 66.0708L139.911 66.3828C140.151 66.6708 140.247 66.9988 140.199 67.3668C140.167 67.7348 139.999 68.0228 139.695 68.2308C137.055 70.1828 134.591 71.8948 132.303 73.3668C131.343 73.9748 130.727 74.3908 130.455 74.6148C130.183 74.8388 130.047 75.0708 130.047 75.3108C130.047 75.5348 130.167 75.7588 130.407 75.9828C130.647 76.2068 131.207 76.6148 132.087 77.2068C134.855 79.0788 137.639 81.1428 140.439 83.3988C140.727 83.6228 140.879 83.9268 140.895 84.3108C140.927 84.6788 140.815 84.9988 140.559 85.2708L140.295 85.5828C140.039 85.8548 139.719 85.9988 139.335 86.0148C138.951 86.0468 138.607 85.9428 138.303 85.7028C135.855 83.7188 133.159 81.7108 130.215 79.6788Z" fill="#583F48"/>
<path d="M110.85 67.7028H118.458C118.826 67.7028 119.146 67.8388 119.418 68.1108C119.69 68.3828 119.826 68.7028 119.826 69.0708V69.1428C119.826 69.5108 119.69 69.8308 119.418 70.1028C119.146 70.3748 118.826 70.5108 118.458 70.5108H110.85C110.482 70.5108 110.162 70.3748 109.89 70.1028C109.634 69.8308 109.506 69.5108 109.506 69.1428V69.0708C109.506 68.7028 109.634 68.3828 109.89 68.1108C110.162 67.8388 110.482 67.7028 110.85 67.7028ZM103.962 85.5828C103.578 85.6308 103.226 85.5428 102.906 85.3188C102.586 85.1108 102.386 84.8148 102.306 84.4308C101.714 81.7268 101.418 78.8468 101.418 75.7908C101.418 72.7348 101.714 69.8548 102.306 67.1508C102.386 66.7668 102.586 66.4708 102.906 66.2628C103.226 66.0388 103.578 65.9508 103.962 65.9988L104.418 66.0468C104.77 66.0788 105.05 66.2468 105.258 66.5508C105.466 66.8548 105.53 67.1828 105.45 67.5348C104.89 70.0628 104.61 72.8148 104.61 75.7908C104.61 78.7668 104.89 81.5188 105.45 84.0468C105.53 84.3988 105.466 84.7268 105.258 85.0308C105.05 85.3348 104.77 85.5028 104.418 85.5348L103.962 85.5828ZM114.786 84.7428C112.53 84.7428 110.746 84.3108 109.434 83.4468C108.138 82.5668 107.49 81.3988 107.49 79.9428C107.49 78.6948 108.178 77.2948 109.554 75.7428C109.81 75.4548 110.138 75.3108 110.538 75.3108C110.938 75.2948 111.282 75.4068 111.57 75.6468L111.69 75.7188C111.978 75.9428 112.13 76.2388 112.146 76.6068C112.162 76.9748 112.05 77.2948 111.81 77.5668C111.042 78.4948 110.658 79.2468 110.658 79.8228C110.658 81.1828 112.034 81.8628 114.786 81.8628C116.002 81.8628 117.306 81.7428 118.698 81.5028C119.066 81.4388 119.402 81.5188 119.706 81.7428C120.01 81.9508 120.194 82.2308 120.258 82.5828V82.6788C120.322 83.0628 120.25 83.4148 120.042 83.7348C119.834 84.0548 119.546 84.2468 119.178 84.3108C117.738 84.5988 116.274 84.7428 114.786 84.7428Z" fill="#583F48"/>
<path d="M86.368 85.7988C83.648 85.7988 81.768 85.1428 80.728 83.8308C79.688 82.5028 79.168 80.0628 79.168 76.5108C79.168 73.6148 79.256 70.4948 79.432 67.1508C79.464 66.7668 79.608 66.4468 79.864 66.1908C80.136 65.9348 80.464 65.8148 80.848 65.8308H81.424C81.792 65.8468 82.096 65.9908 82.336 66.2628C82.592 66.5348 82.712 66.8548 82.696 67.2228C82.536 70.6628 82.456 73.7588 82.456 76.5108C82.456 78.2388 82.592 79.5588 82.864 80.4708C83.152 81.3668 83.56 81.9748 84.088 82.2948C84.616 82.5988 85.376 82.7508 86.368 82.7508C89.136 82.7508 91.392 80.8628 93.136 77.0868C93.296 76.7508 93.544 76.5108 93.88 76.3668C94.232 76.2068 94.584 76.1908 94.936 76.3188L95.248 76.4628C95.6 76.5908 95.856 76.8308 96.016 77.1828C96.176 77.5348 96.176 77.8788 96.016 78.2148C93.824 83.2708 90.608 85.7988 86.368 85.7988Z" fill="#583F48"/>
<path d="M72.4966 71.3507C72.8646 71.3507 73.1766 71.4867 73.4326 71.7587C73.6886 72.0147 73.8166 72.3187 73.8166 72.6707C73.8166 73.0227 73.6886 73.3347 73.4326 73.6067C73.1766 73.8627 72.8646 73.9907 72.4966 73.9907H69.1366C69.0086 73.9907 68.9446 74.0627 68.9446 74.2067V76.3907C68.9446 76.5187 69.0086 76.5827 69.1366 76.5827H71.7286C72.0966 76.5827 72.4166 76.7187 72.6886 76.9907C72.9606 77.2627 73.0966 77.5827 73.0966 77.9507V85.1507C73.0966 85.5187 72.9606 85.8387 72.6886 86.1107C72.4166 86.3827 72.0966 86.5187 71.7286 86.5187H70.9606C70.6886 86.5187 70.4566 86.4147 70.2646 86.2067C70.0726 86.0147 69.9766 85.7907 69.9766 85.5347C69.9766 85.4387 69.9286 85.3907 69.8326 85.3907H64.7206C64.6246 85.3907 64.5766 85.4387 64.5766 85.5347C64.5766 85.7907 64.4726 86.0147 64.2646 86.2067C64.0726 86.4147 63.8486 86.5187 63.5926 86.5187H63.0166C62.6486 86.5187 62.3286 86.3827 62.0566 86.1107C61.7846 85.8387 61.6486 85.5187 61.6486 85.1507V77.9507C61.6486 77.5827 61.7846 77.2627 62.0566 76.9907C62.3286 76.7187 62.6486 76.5827 63.0166 76.5827H65.6086C65.7526 76.5827 65.8246 76.5187 65.8246 76.3907V74.2067C65.8246 74.0627 65.7526 73.9907 65.6086 73.9907H62.2246C61.8566 73.9907 61.5446 73.8627 61.2886 73.6067C61.0326 73.3347 60.9046 73.0227 60.9046 72.6707C60.9046 72.3187 61.0326 72.0147 61.2886 71.7587C61.5446 71.4867 61.8566 71.3507 62.2246 71.3507H65.6086C65.7526 71.3507 65.8246 71.2787 65.8246 71.1347V69.2627C65.8246 69.1347 65.7526 69.0707 65.6086 69.0707C64.9846 69.1507 64.1126 69.2307 62.9926 69.3107C62.6406 69.3267 62.3206 69.2147 62.0326 68.9747C61.7606 68.7347 61.6086 68.4307 61.5766 68.0627C61.5606 67.7107 61.6646 67.3987 61.8886 67.1267C62.1286 66.8547 62.4326 66.7027 62.8006 66.6707C66.0006 66.4307 68.8486 65.9907 71.3446 65.3507C71.7126 65.2707 72.0566 65.3267 72.3766 65.5187C72.6966 65.6947 72.8966 65.9587 72.9766 66.3107C73.0566 66.6787 73.0006 67.0307 72.8086 67.3667C72.6166 67.6867 72.3366 67.8947 71.9686 67.9907C70.9446 68.2467 70.0006 68.4467 69.1366 68.5907C69.0086 68.6227 68.9446 68.7027 68.9446 68.8307V71.1347C68.9446 71.2787 69.0086 71.3507 69.1366 71.3507H72.4966ZM69.7606 78.9587H64.7926C64.6486 78.9587 64.5766 79.0307 64.5766 79.1747V82.7987C64.5766 82.9427 64.6486 83.0147 64.7926 83.0147H69.7606C69.9046 83.0147 69.9766 82.9427 69.9766 82.7987V79.1747C69.9766 79.0307 69.9046 78.9587 69.7606 78.9587ZM53.6566 65.5907H59.2486C59.5846 65.5907 59.8646 65.7107 60.0886 65.9507C60.3286 66.1747 60.4486 66.4547 60.4486 66.7907C60.4486 67.1267 60.3286 67.4147 60.0886 67.6547C59.8646 67.8947 59.5846 68.0147 59.2486 68.0147H53.6566C53.3206 68.0147 53.0326 67.8947 52.7926 67.6547C52.5686 67.4147 52.4566 67.1267 52.4566 66.7907C52.4566 66.4547 52.5686 66.1747 52.7926 65.9507C53.0326 65.7107 53.3206 65.5907 53.6566 65.5907ZM53.1046 71.6147C52.7366 71.6147 52.4246 71.4867 52.1686 71.2307C51.9286 70.9747 51.8086 70.6707 51.8086 70.3187C51.8086 69.9667 51.9286 69.6627 52.1686 69.4067C52.4246 69.1507 52.7366 69.0227 53.1046 69.0227H59.7286C60.0966 69.0227 60.4006 69.1507 60.6406 69.4067C60.8966 69.6627 61.0246 69.9667 61.0246 70.3187C61.0246 70.6707 60.8966 70.9747 60.6406 71.2307C60.4006 71.4867 60.0966 71.6147 59.7286 71.6147H53.1046ZM53.8246 75.0227C53.5046 75.0227 53.2246 74.9107 52.9846 74.6867C52.7606 74.4467 52.6486 74.1667 52.6486 73.8467C52.6486 73.5267 52.7606 73.2547 52.9846 73.0307C53.2246 72.7907 53.5046 72.6707 53.8246 72.6707H59.2486C59.5686 72.6707 59.8406 72.7907 60.0646 73.0307C60.3046 73.2547 60.4246 73.5267 60.4246 73.8467C60.4246 74.1667 60.3046 74.4467 60.0646 74.6867C59.8406 74.9107 59.5686 75.0227 59.2486 75.0227H53.8246ZM53.8246 78.4067C53.5046 78.4067 53.2246 78.2947 52.9846 78.0707C52.7606 77.8307 52.6486 77.5507 52.6486 77.2307C52.6486 76.9107 52.7606 76.6387 52.9846 76.4147C53.2246 76.1907 53.5046 76.0787 53.8246 76.0787H59.2486C59.5686 76.0787 59.8406 76.1907 60.0646 76.4147C60.3046 76.6387 60.4246 76.9107 60.4246 77.2307C60.4246 77.5507 60.3046 77.8307 60.0646 78.0707C59.8406 78.2947 59.5686 78.4067 59.2486 78.4067H53.8246ZM60.5446 80.8307V84.5507C60.5446 84.9187 60.4086 85.2387 60.1366 85.5107C59.8646 85.7827 59.5446 85.9187 59.1766 85.9187H55.4086C55.3286 85.9187 55.2886 85.9507 55.2886 86.0147C55.2886 86.2387 55.2166 86.4227 55.0726 86.5667C54.9286 86.7107 54.7446 86.7827 54.5206 86.7827H53.8246C53.4566 86.7827 53.1366 86.6467 52.8646 86.3747C52.5926 86.1187 52.4566 85.8067 52.4566 85.4387V80.8307C52.4566 80.4627 52.5926 80.1427 52.8646 79.8707C53.1366 79.5987 53.4566 79.4627 53.8246 79.4627H59.1766C59.5446 79.4627 59.8646 79.5987 60.1366 79.8707C60.4086 80.1427 60.5446 80.4627 60.5446 80.8307ZM57.9286 83.3987V81.9827C57.9286 81.8387 57.8646 81.7667 57.7366 81.7667H55.5046C55.3606 81.7667 55.2886 81.8387 55.2886 81.9827V83.3987C55.2886 83.5427 55.3606 83.6147 55.5046 83.6147H57.7366C57.8646 83.6147 57.9286 83.5427 57.9286 83.3987Z" fill="#583F48"/>
<path d="M160.166 47.3427C158.502 47.3427 157.67 47.9187 157.67 49.0707C157.67 50.3507 158.502 50.9907 160.166 50.9907C160.95 50.9907 161.518 50.8147 161.87 50.4627C162.222 50.0947 162.398 49.4947 162.398 48.6627V48.1827C162.398 48.0547 162.334 47.9507 162.206 47.8707C161.566 47.5187 160.886 47.3427 160.166 47.3427ZM160.31 53.7027C158.534 53.7027 157.158 53.2947 156.182 52.4787C155.206 51.6787 154.718 50.5427 154.718 49.0707C154.718 47.6787 155.198 46.5827 156.158 45.7827C157.134 44.9827 158.518 44.5827 160.31 44.5827C160.998 44.5827 161.63 44.6707 162.206 44.8467C162.334 44.8787 162.398 44.8307 162.398 44.7027V40.1667C162.398 40.0227 162.326 39.9507 162.182 39.9507H156.878C156.51 39.9507 156.19 39.8147 155.918 39.5427C155.646 39.2707 155.51 38.9507 155.51 38.5827C155.51 38.2147 155.646 37.9027 155.918 37.6467C156.19 37.3747 156.51 37.2387 156.878 37.2387H162.182C162.326 37.2387 162.398 37.1667 162.398 37.0227V34.9107C162.398 34.5427 162.534 34.2227 162.806 33.9507C163.078 33.6787 163.398 33.5427 163.766 33.5427H164.078C164.446 33.5427 164.766 33.6787 165.038 33.9507C165.31 34.2227 165.446 34.5427 165.446 34.9107V37.0227C165.446 37.1667 165.51 37.2387 165.638 37.2387H167.99C168.358 37.2387 168.678 37.3747 168.95 37.6467C169.222 37.9027 169.358 38.2147 169.358 38.5827C169.358 38.9507 169.222 39.2707 168.95 39.5427C168.678 39.8147 168.358 39.9507 167.99 39.9507H165.638C165.51 39.9507 165.446 40.0227 165.446 40.1667V46.5027C165.446 46.6147 165.502 46.7267 165.614 46.8387C166.35 47.4307 167.326 48.3347 168.542 49.5507C168.798 49.8227 168.926 50.1507 168.926 50.5347C168.926 50.9027 168.79 51.2227 168.518 51.4947L168.422 51.5907C168.15 51.8467 167.83 51.9747 167.462 51.9747C167.094 51.9747 166.774 51.8387 166.502 51.5667C166.246 51.2947 165.886 50.9267 165.422 50.4627C165.326 50.3667 165.262 50.3907 165.23 50.5347C164.67 52.6467 163.03 53.7027 160.31 53.7027ZM151.502 53.5587C151.118 53.6067 150.758 53.5187 150.422 53.2947C150.102 53.0867 149.902 52.7987 149.822 52.4307C149.23 49.7267 148.934 46.8467 148.934 43.7907C148.934 40.7347 149.23 37.8547 149.822 35.1507C149.902 34.7827 150.102 34.4947 150.422 34.2867C150.758 34.0627 151.118 33.9747 151.502 34.0227L151.79 34.0467C152.142 34.0947 152.422 34.2707 152.63 34.5747C152.838 34.8627 152.902 35.1827 152.822 35.5347C152.262 38.0627 151.982 40.8147 151.982 43.7907C151.982 46.7667 152.262 49.5187 152.822 52.0467C152.902 52.3987 152.838 52.7187 152.63 53.0067C152.422 53.3107 152.142 53.4867 151.79 53.5347L151.502 53.5587Z" fill="#583F48"/>
<path d="M135.014 35.7028H142.622C142.99 35.7028 143.31 35.8388 143.582 36.1108C143.854 36.3828 143.99 36.7028 143.99 37.0708V37.1428C143.99 37.5108 143.854 37.8308 143.582 38.1028C143.31 38.3748 142.99 38.5108 142.622 38.5108H135.014C134.646 38.5108 134.326 38.3748 134.054 38.1028C133.798 37.8308 133.67 37.5108 133.67 37.1428V37.0708C133.67 36.7028 133.798 36.3828 134.054 36.1108C134.326 35.8388 134.646 35.7028 135.014 35.7028ZM128.126 53.5828C127.742 53.6308 127.39 53.5428 127.07 53.3188C126.75 53.1108 126.55 52.8148 126.47 52.4308C125.878 49.7268 125.582 46.8468 125.582 43.7908C125.582 40.7348 125.878 37.8548 126.47 35.1508C126.55 34.7668 126.75 34.4708 127.07 34.2628C127.39 34.0388 127.742 33.9508 128.126 33.9988L128.582 34.0468C128.934 34.0788 129.214 34.2468 129.422 34.5508C129.63 34.8548 129.694 35.1828 129.614 35.5348C129.054 38.0628 128.774 40.8148 128.774 43.7908C128.774 46.7668 129.054 49.5188 129.614 52.0468C129.694 52.3988 129.63 52.7268 129.422 53.0308C129.214 53.3348 128.934 53.5028 128.582 53.5348L128.126 53.5828ZM138.95 52.7428C136.694 52.7428 134.91 52.3108 133.598 51.4468C132.302 50.5668 131.654 49.3988 131.654 47.9428C131.654 46.6948 132.342 45.2948 133.718 43.7428C133.974 43.4548 134.302 43.3108 134.702 43.3108C135.102 43.2948 135.446 43.4068 135.734 43.6468L135.854 43.7188C136.142 43.9428 136.294 44.2388 136.31 44.6068C136.326 44.9748 136.214 45.2948 135.974 45.5668C135.206 46.4948 134.822 47.2468 134.822 47.8228C134.822 49.1828 136.198 49.8628 138.95 49.8628C140.166 49.8628 141.47 49.7428 142.862 49.5028C143.23 49.4388 143.566 49.5188 143.87 49.7428C144.174 49.9508 144.358 50.2308 144.422 50.5828V50.6788C144.486 51.0628 144.414 51.4148 144.206 51.7348C143.998 52.0548 143.71 52.2468 143.342 52.3108C141.902 52.5988 140.438 52.7428 138.95 52.7428Z" fill="#583F48"/>
<path d="M100.213 46.1428C99.9092 46.0788 99.6692 45.9268 99.4932 45.6868C99.3332 45.4308 99.2772 45.1508 99.3252 44.8468C99.6932 42.6868 99.9972 40.5588 100.237 38.4628C100.269 38.1588 100.397 37.9188 100.621 37.7428C100.845 37.5508 101.109 37.4708 101.413 37.5028C101.653 37.5188 101.869 37.6228 102.061 37.8148C102.093 37.8468 102.117 37.8548 102.133 37.8388C102.165 37.8228 102.181 37.7988 102.181 37.7668V34.2628C102.181 33.8948 102.317 33.5828 102.589 33.3268C102.861 33.0548 103.181 32.9188 103.549 32.9188H103.909C104.277 32.9188 104.589 33.0548 104.845 33.3268C105.117 33.5828 105.253 33.8948 105.253 34.2628V36.9028C105.253 36.9348 105.269 36.9588 105.301 36.9748C105.349 36.9908 105.389 36.9908 105.421 36.9748C105.517 36.8948 105.621 36.8468 105.733 36.8308C106.021 36.7668 106.285 36.8148 106.525 36.9748C106.781 37.1188 106.949 37.3348 107.029 37.6228C107.237 38.4228 107.397 39.1028 107.509 39.6628C107.525 39.6948 107.541 39.7108 107.557 39.7108C107.589 39.7108 107.613 39.6948 107.629 39.6628C108.125 38.0148 108.525 36.3508 108.829 34.6708C108.909 34.3028 109.093 34.0068 109.381 33.7828C109.685 33.5588 110.021 33.4788 110.389 33.5428L110.485 33.5668C110.853 33.6308 111.157 33.8148 111.397 34.1188C111.637 34.4228 111.725 34.7588 111.661 35.1268C111.613 35.4628 111.525 35.9668 111.397 36.6388C111.365 36.7668 111.421 36.8308 111.565 36.8308H113.173C113.301 36.8308 113.365 36.7588 113.365 36.6148V34.2628C113.365 33.8948 113.501 33.5828 113.773 33.3268C114.045 33.0548 114.365 32.9188 114.733 32.9188H115.213C115.581 32.9188 115.901 33.0548 116.173 33.3268C116.445 33.5828 116.581 33.8948 116.581 34.2628V36.6148C116.581 36.7588 116.645 36.8308 116.773 36.8308H120.445C120.813 36.8308 121.133 36.9668 121.405 37.2388C121.677 37.5108 121.813 37.8308 121.813 38.1988C121.813 38.5668 121.677 38.8868 121.405 39.1588C121.133 39.4148 120.813 39.5428 120.445 39.5428H116.773C116.645 39.5428 116.581 39.6148 116.581 39.7588V43.5028C116.581 43.6468 116.645 43.7188 116.773 43.7188H119.941C120.309 43.7188 120.621 43.8548 120.877 44.1268C121.133 44.3828 121.261 44.6868 121.261 45.0388C121.261 45.3908 121.133 45.7028 120.877 45.9748C120.621 46.2308 120.309 46.3588 119.941 46.3588H116.773C116.645 46.3588 116.581 46.4228 116.581 46.5508V51.1108C116.581 51.2388 116.645 51.3028 116.773 51.3028H120.733C121.101 51.3028 121.421 51.4388 121.693 51.7108C121.965 51.9828 122.101 52.3028 122.101 52.6708C122.101 53.0388 121.965 53.3588 121.693 53.6308C121.421 53.9028 121.101 54.0388 120.733 54.0388H107.941C107.573 54.0388 107.253 53.9028 106.981 53.6308C106.709 53.3588 106.573 53.0388 106.573 52.6708C106.573 52.3028 106.709 51.9828 106.981 51.7108C107.253 51.4388 107.573 51.3028 107.941 51.3028H113.173C113.301 51.3028 113.365 51.2388 113.365 51.1108V46.5508C113.365 46.4228 113.301 46.3588 113.173 46.3588H109.405C109.037 46.3588 108.717 46.2228 108.445 45.9508C108.189 45.6788 108.061 45.3588 108.061 44.9908V44.0548C108.061 43.9108 107.997 43.8148 107.869 43.7668L107.701 43.6948C107.205 43.4868 106.917 43.1348 106.837 42.6388C106.805 42.5108 106.733 42.4388 106.621 42.4228C106.397 42.3908 106.197 42.3028 106.021 42.1588C105.861 41.9988 105.757 41.8068 105.709 41.5828C105.645 41.2628 105.509 40.6068 105.301 39.6148C105.301 39.5988 105.293 39.5908 105.277 39.5908C105.261 39.5908 105.253 39.5988 105.253 39.6148V53.3188C105.253 53.6868 105.117 53.9988 104.845 54.2548C104.589 54.5268 104.277 54.6628 103.909 54.6628H103.549C103.181 54.6628 102.861 54.5268 102.589 54.2548C102.317 53.9988 102.181 53.6868 102.181 53.3188V40.6468L102.157 40.6228C101.981 42.1108 101.749 43.6708 101.461 45.3028C101.413 45.6068 101.261 45.8388 101.005 45.9988C100.765 46.1588 100.501 46.2068 100.213 46.1428ZM109.477 43.5268C109.445 43.6548 109.493 43.7188 109.621 43.7188H113.173C113.301 43.7188 113.365 43.6468 113.365 43.5028V39.7588C113.365 39.6148 113.301 39.5428 113.173 39.5428H110.941C110.797 39.5428 110.709 39.6068 110.677 39.7348C110.325 41.0628 109.925 42.3268 109.477 43.5268Z" fill="#583F48"/>
<path d="M78.0131 47.9908C77.6611 47.9908 77.3651 47.8708 77.1251 47.6308C76.9011 47.3908 76.7891 47.0948 76.7891 46.7428C76.7891 46.3908 76.9011 46.1028 77.1251 45.8788C77.3651 45.6388 77.6611 45.5188 78.0131 45.5188H85.0211C85.1491 45.5188 85.2291 45.4388 85.2611 45.2788C85.2931 45.0548 85.3251 44.7188 85.3571 44.2708C85.3571 44.1428 85.2931 44.0788 85.1651 44.0788H81.0611H79.3091C78.9411 44.0788 78.6211 43.9428 78.3491 43.6708C78.0771 43.3988 77.9411 43.0788 77.9411 42.7108V34.8628C77.9411 34.4948 78.0771 34.1828 78.3491 33.9268C78.6211 33.6548 78.9411 33.5188 79.3091 33.5188H94.5731C94.9411 33.5188 95.2611 33.6548 95.5331 33.9268C95.8051 34.1828 95.9411 34.4948 95.9411 34.8628V42.7108C95.9411 43.0788 95.8051 43.3988 95.5331 43.6708C95.2611 43.9428 94.9411 44.0788 94.5731 44.0788H88.6931C88.5491 44.0788 88.4771 44.1348 88.4771 44.2468C88.4451 44.7588 88.4131 45.1188 88.3811 45.3268C88.3651 45.3748 88.3811 45.4228 88.4291 45.4708C88.4771 45.5028 88.5251 45.5188 88.5731 45.5188H95.5811C95.9491 45.5188 96.2611 45.6548 96.5171 45.9268C96.7891 46.1828 96.9171 46.4948 96.9011 46.8628C96.8371 48.5908 96.7331 49.9508 96.5891 50.9428C96.4451 51.9188 96.1891 52.6708 95.8211 53.1988C95.4691 53.7428 95.0611 54.0868 94.5971 54.2308C94.1491 54.3908 93.5011 54.4708 92.6531 54.4708C91.5331 54.4708 90.2771 54.4388 88.8851 54.3748C88.5171 54.3588 88.2051 54.2228 87.9491 53.9668C87.6931 53.7108 87.5571 53.3988 87.5411 53.0308C87.5251 52.6788 87.6371 52.3828 87.8771 52.1428C88.1331 51.9028 88.4371 51.7908 88.7891 51.8068C90.4851 51.8708 91.4851 51.9028 91.7891 51.9028C92.3171 51.9028 92.6931 51.8308 92.9171 51.6868C93.1411 51.5268 93.3091 51.1988 93.4211 50.7028C93.5491 50.2068 93.6531 49.3748 93.7331 48.2068C93.7331 48.0628 93.6691 47.9908 93.5411 47.9908H87.8531C87.7091 47.9908 87.6131 48.0548 87.5651 48.1828C86.2691 50.9348 83.4211 53.0228 79.0211 54.4468C78.6531 54.5588 78.2851 54.5348 77.9171 54.3748C77.5491 54.2308 77.2691 53.9828 77.0771 53.6308L77.0051 53.5348C76.8291 53.2308 76.8051 52.9188 76.9331 52.5988C77.0771 52.2788 77.3171 52.0708 77.6531 51.9748C79.3811 51.4308 80.7651 50.8628 81.8051 50.2708C82.8451 49.6628 83.6451 48.9588 84.2051 48.1588C84.2371 48.1268 84.2371 48.0948 84.2051 48.0628C84.1891 48.0148 84.1571 47.9908 84.1091 47.9908H78.0131ZM88.5011 36.0148V37.5508C88.5011 37.6948 88.5731 37.7668 88.7171 37.7668H92.6051C92.7491 37.7668 92.8211 37.6948 92.8211 37.5508V36.0148C92.8211 35.8868 92.7491 35.8228 92.6051 35.8228H88.7171C88.5731 35.8228 88.5011 35.8868 88.5011 36.0148ZM88.5011 40.0228V41.6548C88.5011 41.7828 88.5731 41.8468 88.7171 41.8468H92.6051C92.7491 41.8468 92.8211 41.7828 92.8211 41.6548V40.0228C92.8211 39.8948 92.7491 39.8308 92.6051 39.8308H88.7171C88.5731 39.8308 88.5011 39.8948 88.5011 40.0228ZM81.0611 36.0148V37.5508C81.0611 37.6948 81.1331 37.7668 81.2771 37.7668H85.1651C85.3091 37.7668 85.3811 37.6948 85.3811 37.5508V36.0148C85.3811 35.8868 85.3091 35.8228 85.1651 35.8228H81.2771C81.1331 35.8228 81.0611 35.8868 81.0611 36.0148ZM85.1651 41.8468C85.3091 41.8468 85.3811 41.7828 85.3811 41.6548V40.0228C85.3811 39.8948 85.3091 39.8308 85.1651 39.8308H81.2771C81.1331 39.8308 81.0611 39.8948 81.0611 40.0228V41.6548C81.0611 41.7828 81.1331 41.8468 81.2771 41.8468H85.1651Z" fill="#583F48"/>
</svg>
