<svg width="492" height="135" viewBox="0 0 492 135" fill="none" xmlns="http://www.w3.org/2000/svg">
<path d="M93.5049 103.626H106.056C106.663 103.626 107.191 103.85 107.639 104.299C108.088 104.748 108.312 105.276 108.312 105.883V106.002C108.312 106.609 108.088 107.137 107.639 107.585C107.191 108.034 106.663 108.258 106.056 108.258H93.5049C92.8978 108.258 92.3699 108.034 91.9212 107.585C91.4989 107.137 91.2878 106.609 91.2878 106.002V105.883C91.2878 105.276 91.4989 104.748 91.9212 104.299C92.3699 103.85 92.8978 103.626 93.5049 103.626ZM82.142 133.122C81.5086 133.201 80.9279 133.056 80.4 132.687C79.8721 132.343 79.5422 131.855 79.4102 131.222C78.4336 126.761 77.9453 122.01 77.9453 116.969C77.9453 111.927 78.4336 107.176 79.4102 102.716C79.5422 102.082 79.8721 101.594 80.4 101.251C80.9279 100.881 81.5086 100.736 82.142 100.815L82.8943 100.894C83.475 100.947 83.9369 101.224 84.28 101.726C84.6231 102.227 84.7287 102.768 84.5967 103.349C83.6729 107.519 83.211 112.059 83.211 116.969C83.211 121.878 83.6729 126.418 84.5967 130.588C84.7287 131.169 84.6231 131.71 84.28 132.211C83.9369 132.713 83.475 132.99 82.8943 133.043L82.142 133.122ZM99.998 131.736C96.2763 131.736 93.3334 131.024 91.169 129.598C89.031 128.147 87.9621 126.22 87.9621 123.818C87.9621 121.759 89.097 119.45 91.367 116.889C91.7893 116.414 92.3304 116.177 92.9902 116.177C93.6501 116.15 94.2176 116.335 94.6927 116.731L94.8906 116.85C95.3657 117.219 95.6165 117.708 95.6429 118.315C95.6693 118.922 95.4845 119.45 95.0886 119.898C93.8217 121.429 93.1882 122.67 93.1882 123.62C93.1882 125.864 95.4581 126.985 99.998 126.985C102.004 126.985 104.155 126.787 106.451 126.391C107.059 126.286 107.613 126.418 108.114 126.787C108.616 127.131 108.919 127.592 109.025 128.173V128.331C109.131 128.965 109.012 129.546 108.669 130.073C108.325 130.601 107.85 130.918 107.243 131.024C104.868 131.499 102.453 131.736 99.998 131.736Z" fill="white"/>
<path d="M124.743 118.988C122.895 119.542 121.496 120.294 120.546 121.245C119.596 122.195 119.121 123.237 119.121 124.372C119.121 125.402 119.53 126.325 120.348 127.144C121.193 127.936 122.103 128.331 123.08 128.331C123.845 128.331 124.36 128.173 124.624 127.856C124.914 127.54 125.06 126.946 125.06 126.075V119.225C125.06 119.014 124.954 118.935 124.743 118.988ZM123.595 132.805C120.955 132.805 118.712 132 116.864 130.39C115.016 128.754 114.093 126.748 114.093 124.372C114.093 122.102 115.016 120.044 116.864 118.196C118.738 116.348 121.364 115.002 124.743 114.158C124.954 114.105 125.06 113.96 125.06 113.722V108.733C125.06 108.496 124.941 108.377 124.703 108.377H117.933C117.352 108.377 116.851 108.179 116.429 107.783C116.033 107.361 115.835 106.859 115.835 106.279C115.835 105.698 116.033 105.21 116.429 104.814C116.851 104.392 117.352 104.18 117.933 104.18H124.703C124.941 104.18 125.06 104.062 125.06 103.824V101.528C125.06 100.921 125.284 100.393 125.733 99.9441C126.181 99.4954 126.709 99.271 127.316 99.271H127.831C128.438 99.271 128.966 99.4954 129.415 99.9441C129.863 100.393 130.088 100.921 130.088 101.528V103.824C130.088 104.062 130.193 104.18 130.405 104.18H136.66C137.241 104.18 137.742 104.392 138.165 104.814C138.587 105.21 138.798 105.698 138.798 106.279C138.798 106.859 138.587 107.361 138.165 107.783C137.742 108.179 137.241 108.377 136.66 108.377H130.405C130.193 108.377 130.088 108.496 130.088 108.733V113.009C130.088 113.221 130.207 113.326 130.444 113.326C130.866 113.3 131.539 113.287 132.463 113.287C136.37 113.287 139.524 114.197 141.926 116.018C144.328 117.84 145.529 120.044 145.529 122.63C145.529 128.252 142.493 131.697 136.422 132.964C135.789 133.096 135.208 132.977 134.68 132.607C134.153 132.264 133.809 131.776 133.651 131.142L133.611 131.024C133.48 130.443 133.572 129.902 133.889 129.4C134.232 128.899 134.694 128.582 135.274 128.45C137.043 128.028 138.336 127.368 139.154 126.471C139.973 125.547 140.382 124.359 140.382 122.907C140.382 121.588 139.656 120.453 138.204 119.502C136.779 118.526 134.865 118.038 132.463 118.038C131.539 118.038 130.866 118.051 130.444 118.077C130.207 118.077 130.088 118.196 130.088 118.433V126.352C130.088 128.78 129.613 130.456 128.662 131.38C127.712 132.33 126.023 132.805 123.595 132.805ZM144.856 104.339C146.281 106.266 147.521 108.074 148.577 109.763C148.894 110.264 148.973 110.819 148.815 111.426C148.683 112.006 148.366 112.442 147.865 112.732C147.337 113.023 146.782 113.102 146.202 112.97C145.621 112.811 145.172 112.482 144.856 111.98C143.589 110 142.427 108.285 141.371 106.833C141.028 106.358 140.896 105.83 140.976 105.249C141.055 104.669 141.332 104.207 141.807 103.864C142.308 103.521 142.85 103.402 143.43 103.507C144.037 103.587 144.512 103.864 144.856 104.339Z" fill="white"/>
<path d="M155.545 134.904C154.938 134.904 154.41 134.679 153.962 134.231C153.513 133.808 153.289 133.294 153.289 132.687V118.473C153.289 118.42 153.262 118.394 153.209 118.394C153.183 118.394 153.157 118.407 153.13 118.433C153.025 118.618 152.695 119.12 152.14 119.938C151.877 120.308 151.507 120.453 151.032 120.373C150.557 120.268 150.266 119.991 150.161 119.542L149.686 117.919C149.29 116.573 149.527 115.24 150.398 113.92C152.88 110.198 154.688 105.896 155.823 101.013C155.954 100.406 156.271 99.9441 156.773 99.6274C157.301 99.2842 157.868 99.1654 158.475 99.271L158.95 99.3502C159.557 99.4822 160.032 99.7989 160.376 100.3C160.719 100.802 160.837 101.356 160.732 101.963C160.178 104.656 159.439 107.176 158.515 109.525C158.436 109.736 158.396 109.961 158.396 110.198V132.687C158.396 133.294 158.172 133.808 157.723 134.231C157.274 134.679 156.746 134.904 156.139 134.904H155.545ZM184.725 114.712C185.332 114.712 185.846 114.936 186.269 115.385C186.717 115.834 186.942 116.362 186.942 116.969V117.087C186.942 117.694 186.717 118.222 186.269 118.671C185.846 119.12 185.332 119.344 184.725 119.344H176.806C176.569 119.344 176.45 119.45 176.45 119.661V128.648C176.45 128.859 176.569 128.965 176.806 128.965H183.378C183.986 128.965 184.513 129.189 184.962 129.638C185.411 130.087 185.635 130.615 185.635 131.222C185.635 131.829 185.411 132.357 184.962 132.805C184.513 133.254 183.986 133.478 183.378 133.478H163.662C163.055 133.478 162.527 133.254 162.078 132.805C161.629 132.357 161.405 131.829 161.405 131.222C161.405 130.615 161.629 130.087 162.078 129.638C162.527 129.189 163.055 128.965 163.662 128.965H170.709C170.947 128.965 171.065 128.859 171.065 128.648V119.661C171.065 119.45 170.947 119.344 170.709 119.344H162.553C161.946 119.344 161.418 119.12 160.969 118.671C160.521 118.222 160.296 117.694 160.296 117.087V116.969C160.296 116.362 160.521 115.834 160.969 115.385C161.418 114.936 161.946 114.712 162.553 114.712H170.709C170.947 114.712 171.065 114.606 171.065 114.395V106.991C171.065 106.78 170.96 106.675 170.749 106.675C169.35 106.807 167.225 106.952 164.374 107.11C163.767 107.137 163.226 106.939 162.751 106.516C162.302 106.094 162.052 105.579 161.999 104.972C161.972 104.365 162.17 103.837 162.593 103.389C163.015 102.94 163.53 102.689 164.137 102.636C171.29 102.267 177.453 101.475 182.626 100.261C183.233 100.129 183.801 100.221 184.329 100.538C184.857 100.828 185.2 101.264 185.358 101.844L185.398 102.003C185.556 102.61 185.477 103.177 185.16 103.705C184.843 104.233 184.381 104.563 183.774 104.695C181.636 105.197 179.314 105.619 176.806 105.962C176.569 106.015 176.45 106.147 176.45 106.358V114.395C176.45 114.606 176.569 114.712 176.806 114.712H184.725Z" fill="white"/>
<path d="M191.257 111.624C190.65 111.624 190.122 111.399 189.674 110.951C189.225 110.502 189 109.974 189 109.367C189 108.76 189.212 108.245 189.634 107.823C190.083 107.374 190.611 107.15 191.218 107.15C191.614 107.15 192.194 107.15 192.96 107.15C193.725 107.123 194.293 107.11 194.662 107.11C194.9 107.11 195.018 106.991 195.018 106.754V102.716C195.018 102.108 195.23 101.581 195.652 101.132C196.101 100.683 196.629 100.459 197.236 100.459H197.79C198.397 100.459 198.912 100.683 199.334 101.132C199.783 101.581 200.007 102.108 200.007 102.716V106.714C200.007 106.925 200.126 107.031 200.363 107.031C205.827 106.925 209.879 106.833 212.518 106.754C212.729 106.754 212.835 106.635 212.835 106.398V101.805C212.835 101.198 213.046 100.67 213.468 100.221C213.917 99.7725 214.445 99.5482 215.052 99.5482H215.448C216.055 99.5482 216.583 99.7725 217.032 100.221C217.48 100.67 217.705 101.198 217.705 101.805V106.239C217.705 106.45 217.81 106.556 218.021 106.556C218.708 106.53 219.711 106.49 221.03 106.437C221.637 106.411 222.165 106.609 222.614 107.031C223.089 107.453 223.34 107.968 223.366 108.575C223.393 109.182 223.181 109.723 222.733 110.198C222.31 110.647 221.796 110.885 221.189 110.911C220.819 110.937 220.291 110.964 219.605 110.99C218.919 111.017 218.391 111.043 218.021 111.069C217.81 111.069 217.705 111.175 217.705 111.386V117.483C217.705 119.542 217.348 120.981 216.636 121.799C215.949 122.617 214.762 123.026 213.072 123.026C211.673 123.026 209.615 122.736 206.896 122.155C206.289 122.023 205.814 121.68 205.471 121.126C205.154 120.571 205.062 119.991 205.194 119.384L205.273 119.186C205.405 118.579 205.721 118.117 206.223 117.8C206.751 117.483 207.305 117.378 207.886 117.483C209.733 117.879 211.027 118.077 211.766 118.077C212.267 118.077 212.571 117.985 212.676 117.8C212.782 117.615 212.835 117.048 212.835 116.098V111.584C212.835 111.347 212.716 111.228 212.478 111.228C207.147 111.386 203.095 111.492 200.324 111.545C200.113 111.545 200.007 111.65 200.007 111.861V123.303C200.007 124.887 200.192 126.035 200.561 126.748C200.957 127.434 201.683 127.909 202.739 128.173C203.795 128.437 205.523 128.569 207.925 128.569C210.697 128.569 213.732 128.397 217.032 128.054C217.639 128.002 218.18 128.173 218.655 128.569C219.156 128.939 219.433 129.427 219.486 130.034V130.192C219.539 130.826 219.367 131.38 218.972 131.855C218.602 132.357 218.101 132.634 217.467 132.687C214.3 133.03 211.119 133.201 207.925 133.201C204.336 133.201 201.643 132.911 199.849 132.33C198.054 131.776 196.8 130.826 196.087 129.48C195.375 128.107 195.018 126.048 195.018 123.303V111.94C195.018 111.703 194.9 111.584 194.662 111.584C194.293 111.584 193.725 111.597 192.96 111.624C192.194 111.624 191.627 111.624 191.257 111.624Z" fill="white"/>
<path d="M236.313 123.382C233.436 121.403 231.654 120.03 230.968 119.265C230.308 118.499 229.978 117.47 229.978 116.177C229.978 114.778 230.334 113.696 231.047 112.93C231.76 112.165 233.555 110.858 236.432 109.011C241.103 105.975 245.181 103.151 248.665 100.538C249.167 100.168 249.734 100.023 250.368 100.102C251.001 100.155 251.516 100.432 251.912 100.934L252.308 101.449C252.704 101.924 252.862 102.465 252.783 103.072C252.73 103.679 252.453 104.154 251.952 104.497C247.596 107.717 243.532 110.542 239.757 112.97C238.174 113.973 237.157 114.659 236.709 115.029C236.26 115.398 236.036 115.781 236.036 116.177C236.036 116.546 236.234 116.916 236.63 117.285C237.025 117.655 237.949 118.328 239.401 119.305C243.967 122.393 248.56 125.798 253.179 129.519C253.654 129.889 253.905 130.39 253.931 131.024C253.984 131.631 253.799 132.159 253.377 132.607L252.941 133.122C252.519 133.571 251.991 133.808 251.358 133.835C250.724 133.888 250.157 133.716 249.655 133.32C245.617 130.047 241.169 126.735 236.313 123.382Z" fill="white"/>
<path d="M289.722 103.943C289.59 103.705 289.405 103.362 289.168 102.913C288.93 102.438 288.746 102.082 288.614 101.844C288.35 101.343 288.297 100.828 288.455 100.3C288.64 99.7461 288.983 99.337 289.485 99.0731C290.013 98.8091 290.54 98.7695 291.068 98.9543C291.623 99.1391 292.045 99.4954 292.335 100.023C292.467 100.261 292.652 100.617 292.89 101.092C293.127 101.541 293.312 101.884 293.444 102.122C293.708 102.65 293.747 103.177 293.563 103.705C293.378 104.233 293.021 104.616 292.494 104.853C291.992 105.091 291.464 105.131 290.91 104.972C290.382 104.787 289.986 104.444 289.722 103.943ZM294.394 99.7461C294.579 99.1918 294.935 98.7827 295.463 98.5188C295.991 98.2548 296.545 98.2152 297.126 98.4C297.707 98.5848 298.129 98.9279 298.393 99.4294C298.525 99.6933 298.71 100.076 298.947 100.578C299.211 101.079 299.396 101.435 299.501 101.647C299.765 102.174 299.805 102.702 299.62 103.23C299.435 103.758 299.079 104.154 298.551 104.418C298.023 104.682 297.482 104.722 296.928 104.537C296.4 104.352 295.991 103.996 295.701 103.468C295.463 102.993 295.08 102.28 294.552 101.33C294.288 100.802 294.236 100.274 294.394 99.7461ZM281.012 116.454C280.563 116.058 280.313 115.556 280.26 114.949C280.207 114.342 280.378 113.801 280.774 113.326C281.17 112.825 281.672 112.547 282.279 112.495C286.396 112.072 290.382 111.848 294.236 111.822C294.843 111.822 295.357 112.046 295.78 112.495C296.202 112.917 296.413 113.432 296.413 114.039C296.413 114.646 296.189 115.174 295.74 115.622C295.318 116.045 294.803 116.256 294.196 116.256C289.999 116.335 286.133 116.559 282.596 116.929C282.015 116.982 281.487 116.823 281.012 116.454ZM276.974 126.075C276.974 124.517 277.752 122.947 279.31 121.363C279.758 120.915 280.299 120.677 280.933 120.651C281.593 120.598 282.187 120.743 282.714 121.086C283.163 121.376 283.401 121.786 283.427 122.313C283.48 122.841 283.321 123.303 282.952 123.699C282.292 124.359 281.962 124.979 281.962 125.56C281.962 126.484 282.582 127.249 283.823 127.856C285.09 128.437 286.806 128.727 288.97 128.727C290.554 128.727 292.401 128.582 294.513 128.292C295.12 128.213 295.661 128.358 296.136 128.727C296.638 129.097 296.928 129.585 297.007 130.192C297.086 130.826 296.941 131.393 296.572 131.895C296.202 132.396 295.714 132.687 295.107 132.766C292.942 133.056 290.897 133.201 288.97 133.201C285.327 133.201 282.411 132.541 280.22 131.222C278.056 129.876 276.974 128.16 276.974 126.075ZM266.205 133.28C265.624 133.148 265.175 132.819 264.858 132.291C264.568 131.763 264.529 131.208 264.74 130.628C267.036 123.58 268.963 116.375 270.52 109.011C270.573 108.773 270.494 108.654 270.283 108.654H267.472C266.864 108.654 266.337 108.43 265.888 107.981C265.439 107.533 265.215 107.005 265.215 106.398C265.215 105.79 265.439 105.276 265.888 104.853C266.337 104.405 266.864 104.18 267.472 104.18H271.154C271.365 104.18 271.497 104.075 271.55 103.864C271.761 102.861 271.906 102.108 271.985 101.607C272.117 100.973 272.421 100.472 272.896 100.102C273.397 99.7065 273.965 99.535 274.598 99.5878L275.113 99.6274C275.72 99.6801 276.208 99.9573 276.578 100.459C276.947 100.934 277.079 101.475 276.974 102.082C276.947 102.293 276.894 102.584 276.815 102.953C276.736 103.323 276.683 103.613 276.657 103.824C276.63 103.903 276.644 103.982 276.696 104.062C276.776 104.141 276.855 104.18 276.934 104.18H288.455C289.062 104.18 289.577 104.405 289.999 104.853C290.448 105.276 290.672 105.79 290.672 106.398C290.672 107.005 290.448 107.533 289.999 107.981C289.577 108.43 289.062 108.654 288.455 108.654H276.103C275.865 108.654 275.72 108.76 275.667 108.971C274.004 117.153 272.025 124.755 269.728 131.776C269.544 132.383 269.161 132.832 268.58 133.122C268.026 133.439 267.445 133.531 266.838 133.399L266.205 133.28Z" fill="white"/>
<path d="M305.321 109.169C304.714 109.169 304.186 108.958 303.738 108.536C303.315 108.087 303.104 107.559 303.104 106.952C303.104 106.318 303.315 105.79 303.738 105.368C304.186 104.919 304.727 104.695 305.361 104.695C308.607 104.695 313.504 104.616 320.05 104.458C320.313 104.458 320.419 104.352 320.366 104.141C320.287 103.428 320.208 102.676 320.129 101.884C320.076 101.277 320.248 100.749 320.643 100.3C321.066 99.8517 321.594 99.601 322.227 99.5482H322.742C323.349 99.4954 323.89 99.6801 324.365 100.102C324.867 100.525 325.131 101.039 325.157 101.647C325.183 101.884 325.21 102.267 325.236 102.795C325.289 103.323 325.328 103.719 325.355 103.982C325.408 104.194 325.54 104.299 325.751 104.299C328.839 104.194 331.188 104.101 332.798 104.022C333.405 103.996 333.933 104.194 334.382 104.616C334.831 105.038 335.068 105.553 335.094 106.16C335.121 106.767 334.91 107.308 334.461 107.783C334.039 108.232 333.524 108.47 332.917 108.496L326.503 108.733C326.292 108.733 326.213 108.852 326.265 109.09C326.925 111.703 328.034 114.356 329.591 117.048C329.882 117.549 329.948 118.104 329.789 118.711C329.631 119.318 329.288 119.753 328.76 120.017L328.008 120.373C326.793 121.007 325.487 120.981 324.088 120.294C321.712 119.133 319.284 118.552 316.803 118.552C314.797 118.552 313.24 118.961 312.131 119.78C311.023 120.571 310.468 121.654 310.468 123.026C310.468 124.847 311.287 126.259 312.923 127.262C314.559 128.239 317.001 128.727 320.248 128.727C322.253 128.727 324.721 128.503 327.651 128.054C328.258 127.949 328.813 128.081 329.314 128.45C329.842 128.793 330.159 129.268 330.264 129.876V129.955C330.396 130.562 330.277 131.116 329.908 131.618C329.565 132.119 329.09 132.423 328.483 132.528C325.421 132.977 322.676 133.201 320.248 133.201C315.18 133.201 311.405 132.251 308.924 130.351C306.443 128.45 305.203 125.93 305.203 122.789C305.203 120.149 306.206 118.038 308.212 116.454C310.218 114.87 313.002 114.078 316.565 114.078C318.835 114.078 321.079 114.514 323.296 115.385H323.375C323.402 115.359 323.415 115.332 323.415 115.306C322.517 113.485 321.805 111.465 321.277 109.248C321.224 109.037 321.066 108.931 320.802 108.931C315.628 109.09 310.468 109.169 305.321 109.169Z" fill="white"/>
<path d="M367.995 126.589C367.705 119.384 366.346 112.759 363.917 106.714C363.706 106.16 363.719 105.619 363.957 105.091C364.194 104.537 364.604 104.167 365.184 103.982L365.739 103.824C366.346 103.639 366.94 103.692 367.52 103.982C368.127 104.246 368.563 104.669 368.827 105.249C371.545 111.61 373.023 118.724 373.261 126.589C373.287 127.196 373.076 127.724 372.628 128.173C372.179 128.622 371.651 128.846 371.044 128.846H370.252C369.645 128.846 369.117 128.622 368.668 128.173C368.246 127.724 368.022 127.196 367.995 126.589ZM350.06 133.082C347.817 133.082 345.731 131.552 343.805 128.49C341.904 125.428 340.954 121.72 340.954 117.365C340.954 113.379 341.416 109.473 342.34 105.645C342.498 105.012 342.841 104.524 343.369 104.18C343.923 103.811 344.531 103.666 345.19 103.745L345.863 103.824C346.444 103.877 346.893 104.154 347.21 104.656C347.553 105.157 347.658 105.698 347.526 106.279C346.682 110.027 346.259 113.722 346.259 117.365C346.259 120.294 346.721 122.762 347.645 124.768C348.595 126.774 349.532 127.777 350.456 127.777C351.037 127.777 351.789 127.223 352.713 126.114C353.637 124.979 354.574 123.343 355.524 121.205C355.788 120.624 356.197 120.215 356.751 119.978C357.332 119.714 357.913 119.687 358.493 119.898L358.929 120.057C359.509 120.268 359.932 120.664 360.196 121.245C360.46 121.799 360.473 122.353 360.235 122.907C358.889 126.101 357.279 128.595 355.405 130.39C353.531 132.185 351.749 133.082 350.06 133.082Z" fill="white"/>
<path d="M467.478 17.7054C467.724 10.83 462.655 5.60742 456.711 5.60742C450.766 5.60742 445.79 10.7474 445.912 17.7054C445.912 24.2998 450.736 36.9762 456.711 36.9762C462.686 36.9762 467.233 24.2171 467.478 17.7054Z" fill="#FDD000"/>
<path d="M448.853 42.1796C450.696 36.0811 440.835 27.4373 435.167 25.1896C429.161 22.8262 422.986 26.3796 421.143 32.4946C419.299 38.5932 422.31 45.2206 428.5 47.2535C434.322 49.2863 447.009 48.2782 448.853 42.1631" fill="#FDD000"/>
<path d="M451.062 51.7933C446.239 48.0416 435.532 55.4458 431.815 60.5693C427.868 65.9737 429.096 73.3944 433.92 77.1627C438.712 80.9309 445.532 79.8897 449.234 74.2043C452.828 68.866 455.839 55.5615 451.046 51.7933" fill="#FDD000"/>
<path d="M460.222 52.5593C455.43 56.3275 458.656 69.5493 462.035 74.9702C465.599 80.6722 472.557 81.6968 477.38 77.9452C482.172 74.1769 483.386 66.8884 479.484 61.3353C475.875 55.9969 465.046 48.7911 460.222 52.5593Z" fill="#FDD000"/>
<path d="M491.467 33.6942C489.623 27.5956 483.571 24.1249 477.443 26.3891C471.621 28.422 461.913 37.2806 463.756 43.3627C465.6 49.4612 478.287 50.2215 484.109 48.453C490.238 46.5689 493.31 39.7762 491.467 33.6942Z" fill="#FDD000"/>
<path d="M169.864 84.0505C170.386 84.3975 171.185 84.8273 171.861 85.1082C173.903 86.0007 175.885 85.1909 176.76 83.3894C178.25 80.3153 184.118 67.8703 190.539 54.1031C191.092 53.2767 191.937 52.4999 193.426 52.4008C195.07 52.3677 196.836 52.4008 198.096 52.4999C201.107 52.7478 202.059 54.7311 202.535 56.8631C202.95 58.7472 202.689 64.8788 202.719 67.4902C202.827 78.9105 209.678 84.3645 217.343 84.7942C218.356 84.8438 221.029 84.8438 221.859 84.7942C230.322 84.3645 235.775 79.5551 236.574 70.2833C236.758 67.9694 236.727 57.7225 236.697 56.3838C236.635 54.4006 235.376 52.8139 233.087 52.4999C232.426 52.4338 231.597 52.4338 230.921 52.4999C228.817 52.7313 227.496 54.3014 227.465 56.3838C227.434 58.582 227.404 65.0606 227.327 66.8952C227.25 68.7462 227.158 70.6469 226.267 72.1839C225.53 73.4565 223.625 74.6299 222.227 74.7126C220.814 74.7952 219.524 74.8283 217.88 74.7126C216.221 74.5969 214.839 74.0845 213.579 72.5144C212.765 71.5228 212.181 68.6801 212.243 66.201C212.304 63.7054 212.335 58.8299 212.335 56.516C212.335 53.442 211.874 50.1861 209.125 46.6823C206.513 43.3603 202.382 42.4183 200.477 42.3356C200.093 42.3356 199.371 42.253 198.664 42.2034C197.973 42.1538 196.437 41.0631 197.297 39.526C198.081 38.1047 209.847 12.537 210.645 10.6363C211.398 8.83487 210.891 6.78549 208.91 5.3972C208.326 5.00055 207.573 4.60389 206.913 4.35598C204.885 3.52962 202.888 4.22377 202.013 6.07482C198.48 13.4956 171.384 71.3575 168.128 78.8279C167.298 80.712 167.944 82.8605 169.864 84.067" fill="white"/>
<path d="M2.41594 64.0387C4.9504 70.0711 9.49707 75.9879 14.1666 80.9461C16.2403 83.1442 18.0067 84.2846 19.6503 83.7557C21.3706 83.2268 22.7838 81.7063 23.6593 79.9214C24.5349 78.1199 23.6593 76.6655 21.6778 74.3682C19.2048 71.4925 14.0591 66.1707 12.0776 61.8075C10.987 59.411 9.9118 55.3949 9.9118 51.9903C9.9118 40.1237 9.97324 15.9774 9.85036 9.00289C9.81964 6.92045 8.40648 5.30078 6.25603 5.11898C5.67234 5.08592 4.44351 5.05287 3.72158 5.11898C1.57113 5.30078 0.17333 6.97004 0.127249 9.00289C-0.0263549 15.8286 -0.0263538 40.1898 0.050448 50.7838C0.0811688 53.2629 0.60342 59.6755 2.41594 64.0222" fill="white"/>
<path d="M49.3316 72.486C48.7787 73.3785 47.5038 74.7172 45.2765 74.7172C43.0493 74.7172 41.8819 74.2214 40.8374 72.8331C39.7621 71.4283 39.5625 66.5197 40.269 63.9414C40.991 61.3797 43.08 60.6856 44.7235 60.4046C45.4762 60.2889 47.0122 60.2393 48.3332 60.5368C49.4392 60.7847 50.0075 61.2971 50.2072 63.0985C50.5144 65.8421 50.6066 70.4367 49.3316 72.486ZM69.1619 50.2403C67.9791 50.2403 65.4908 50.2238 62.5262 50.2073C60.7598 50.1742 59.8689 49.3974 59.8381 46.4721C59.8381 44.7698 59.8689 42.8692 59.8689 40.8694C59.9303 38.0928 60.7598 37.316 62.4033 37.2664C63.156 37.2664 63.8318 37.2334 64.4002 37.2003C66.2434 37.1342 67.718 35.779 67.9945 33.3329C68.0713 32.6223 68.0713 31.7298 67.9945 31.0026C67.7948 28.7384 66.3202 27.1683 64.4002 27.1352C63.755 27.1187 63.1406 27.1187 62.4955 27.1022C60.8673 27.0691 60.0071 26.375 59.8689 23.9124C59.8689 22.0448 59.8381 20.3425 59.8381 18.9046C59.8842 16.1776 60.7137 15.3513 62.3112 15.2686C63.1713 15.2356 63.9086 15.2356 64.4155 15.2191C66.2588 15.1364 67.7334 13.7977 68.0099 11.3351C68.0867 10.6245 68.0867 9.732 68.0099 9.0048C67.8102 6.72404 66.3356 5.15395 64.4155 5.12089C56.6586 4.98867 40.5455 4.98867 32.8653 5.12089C30.9453 5.15395 29.4246 6.69099 29.2556 9.0048C29.2249 9.64937 29.2096 10.5749 29.2556 11.3351C29.4246 13.6655 30.976 15.1695 32.8653 15.2191C36.2753 15.3017 41.9894 15.3347 47.6727 15.3347C49.2395 15.4339 50.2686 16.3429 50.3608 18.9873C50.3608 20.2268 50.3454 21.5655 50.3301 22.9538H50.3147C50.3147 26.0609 49.2241 27.003 47.4116 27.0195C45.5991 27.0526 43.7712 27.0856 41.8972 27.1187C39.9618 27.1517 38.4565 28.6722 38.2875 30.9861C38.2415 31.6141 38.2415 32.5562 38.2875 33.3164C38.4411 35.6302 40.0079 37.1342 41.8972 37.1838C42.9264 37.2168 45.722 37.2664 47.7803 37.3987C49.7925 37.4978 50.2072 39.1505 50.3147 41.0346C50.4069 42.9188 50.3454 44.7037 50.3454 46.3234C50.3147 49.3313 49.1012 50.1577 47.4116 50.2734C46.8894 50.323 45.5991 50.323 45.0154 50.3395C36.859 50.67 30.3923 56.4876 30.3923 67.4617C30.3923 78.4359 36.9358 84.7658 45.0154 84.7658C53.0949 84.7658 58.5632 79.3944 59.7153 70.2549C59.8842 69.0153 59.9149 66.5527 59.9149 63.8753C59.961 60.9335 60.7444 60.4542 62.4187 60.4046C65.46 60.4046 67.9177 60.355 69.1465 60.3054C70.9898 60.2393 72.4644 58.8676 72.7409 56.4381C72.8177 55.7274 72.8023 54.8349 72.7409 54.1077C72.5412 51.827 71.0666 50.2734 69.1465 50.2238L69.1619 50.2403Z" fill="white"/>
<path d="M94.8288 64.0387C97.3632 70.0711 101.91 75.9879 106.579 80.9461C108.668 83.1442 110.42 84.2846 112.048 83.7557C113.768 83.2268 115.197 81.7063 116.072 79.9214C116.948 78.1199 116.072 76.6655 114.075 74.3682C111.602 71.4925 106.457 66.1707 104.475 61.8075C103.369 59.411 102.294 55.3949 102.294 51.9903C102.294 40.1237 102.355 15.9774 102.248 9.00289C102.217 6.92045 100.789 5.30078 98.6535 5.11898C98.0698 5.08592 96.841 5.05287 96.1344 5.11898C93.9686 5.30078 92.5708 6.97004 92.5401 9.00289C92.3865 15.8286 92.3711 40.1898 92.4633 50.7838C92.494 53.2629 93.0163 59.6755 94.8288 64.0222" fill="white"/>
<path d="M160.858 11.7673C159.568 11.7342 156.834 11.7177 154.929 11.7011C153.639 11.5689 152.901 10.8252 152.763 8.74277C152.748 7.60239 152.732 6.6438 152.717 5.93313C152.671 3.90028 151.273 2.23102 149.107 2.06575C148.416 2.01617 147.172 2.01617 146.588 2.06575C144.438 2.24755 143.025 3.8507 142.979 5.93313C142.979 6.5777 142.979 7.371 142.963 8.29653C142.81 10.693 141.857 11.5689 140.337 11.6516C133.486 11.6516 126.789 11.6846 123.164 11.7673C121.228 11.8003 119.708 13.3373 119.554 15.6346C119.508 16.2792 119.508 17.2047 119.554 17.965C119.708 20.2953 121.259 21.7828 123.164 21.8324C126.589 21.9315 133.394 21.9811 140.26 21.9811C141.888 22.0803 142.948 23.6999 142.933 26.0303C142.902 28.3276 142.933 46.6398 142.933 52.9036C142.933 56.3082 141.857 60.3078 140.767 62.7043C138.77 67.051 133.64 72.3727 131.151 75.265C129.17 77.5623 128.294 79.0167 129.17 80.8182C130.045 82.6031 131.474 84.1236 133.179 84.6525C134.822 85.1648 136.573 84.041 138.647 81.8263C143.347 76.8847 147.879 70.9514 150.398 64.919C152.226 60.5558 152.748 54.1597 152.779 51.6806C152.825 46.0613 152.84 27.9475 152.84 25.7659C152.84 23.5843 153.577 22.0472 155.083 21.8985C157.248 21.8819 159.998 21.8654 160.858 21.8158C162.701 21.7497 164.176 20.3945 164.452 17.9485C164.545 17.2378 164.529 16.3453 164.452 15.6181C164.253 13.3539 162.794 11.7838 160.858 11.7507" fill="white"/>
<path d="M316.266 5.05333C308.509 4.90459 261.845 4.90459 254.18 5.05333C252.26 5.08639 250.739 6.62342 250.586 8.92071C250.555 9.35042 250.555 9.81318 250.586 10.309C250.739 12.6393 252.306 14.1433 254.18 14.1929C256.115 14.2425 264.471 14.2921 266.207 14.3086C267.927 14.3086 267.559 16.6389 266.791 17.6471C266.023 18.6387 261.23 24.8034 259.51 28.8526C257.682 33.2158 257.206 39.6118 257.144 42.0909C257.037 45.8096 256.853 56.6514 257.068 68.0553C257.283 79.4591 264.041 84.9131 271.691 85.3593C277.62 85.6898 299.339 85.3758 300.461 85.3593C308.924 85.1114 314.193 80.0871 315.176 70.8318C315.652 66.2207 315.498 47.8589 315.268 42.2727C314.915 33.1827 310.399 27.299 301.782 26.4396C299.631 26.2248 285.392 26.2743 284.148 26.3239C282.32 26.3735 280.83 27.7453 280.554 30.1913C280.461 30.9185 280.492 31.7944 280.554 32.5216C280.753 34.7859 282.228 36.356 284.148 36.4056C286.191 36.4386 297.204 36.3064 298.909 36.4056C300.63 36.4882 302.365 36.6039 303.84 37.5459C304.685 38.0913 305.914 39.5127 305.914 41.9091C305.914 41.9091 305.914 43.1652 305.914 45.0824C305.914 48.1895 304.823 49.1315 303.01 49.1481C294.701 49.0985 281.306 49.1481 275.73 49.2307C273.795 49.2638 272.29 50.8008 272.121 53.1146C272.075 53.7592 272.075 54.6847 272.121 55.445C272.274 57.7753 273.826 59.2628 275.73 59.3289C280.984 59.4611 295.038 59.4941 302.964 59.4445C304.777 59.4611 305.883 60.4031 305.883 63.4937H305.929C305.929 65.8406 305.929 67.5099 305.914 67.7908C305.837 69.6254 305.729 71.5095 304.854 73.0795C304.347 73.9885 303.041 75.2281 300.814 75.2942C294.455 75.4595 278.71 75.3934 272.228 75.2942C270.615 75.2777 268.818 74.7984 267.774 73.4101C266.975 72.3854 266.484 70.7657 266.361 67.9396C266.253 65.1134 266.361 52.9989 266.361 52.9989C266.361 48.4374 266.361 44.2064 266.361 40.9175C266.361 37.6286 267.513 33.5133 268.603 31.1003C270.17 27.6626 276.161 20.6881 280.216 16.2092C281.122 15.3829 282.827 14.4904 285.085 14.3417C298.817 14.3417 314.055 14.2921 316.251 14.2094C318.079 14.1433 319.569 12.7881 319.845 10.3255C319.922 9.63139 319.922 9.66444 319.845 8.93724C319.646 6.65648 318.187 5.08639 316.251 5.06986" fill="white"/>
<path d="M403.775 73.9384C402.147 73.8558 387.109 73.8558 383.238 73.8062C381.625 73.7897 380.135 73.079 379.075 71.6907C378.292 70.666 377.493 69.2943 377.386 66.4516C377.263 63.6419 377.432 44.8339 377.309 38.3717C377.278 36.2893 375.865 34.6696 373.715 34.4878C373.116 34.4548 372.332 34.4383 371.61 34.4878C369.46 34.6696 368.077 36.3224 368.016 38.3717C367.862 43.049 367.786 57.94 367.939 66.5838C368.154 77.9876 374.897 83.4581 382.562 83.8878C385.88 84.0696 401.778 84.1192 403.775 84.0201C405.618 83.9374 407.093 82.5987 407.369 80.1527C407.461 79.442 407.431 78.5495 407.369 77.8223C407.154 75.5581 405.71 74.0376 403.775 73.955" fill="white"/>
<path d="M392.872 7.733C392.872 6.44387 392.872 5.12169 392.841 3.79951C392.811 1.78318 391.413 0.196565 389.324 0.0312926C388.74 -0.00176196 387.895 -0.0182892 387.204 0.0312926C385.1 0.213093 383.733 1.81624 383.702 3.79951C383.671 5.13822 383.64 6.57609 383.625 8.04701C383.533 9.40225 382.965 10.7079 380.2 10.7575C379.693 10.7575 378.218 10.7575 377.204 10.7905C375.33 10.8236 373.856 12.3111 373.687 14.5753C373.641 15.2033 373.641 15.5504 373.687 16.2941C373.856 18.5584 375.361 20.0293 377.204 20.0789C378.356 20.1119 379.585 20.1284 380.829 20.145C383.103 20.3102 383.502 21.4672 383.61 22.6571C383.64 24.4255 383.656 26.4914 383.702 27.5988C383.748 29.5325 384.992 31.086 387.204 31.367C387.849 31.4662 388.663 31.4496 389.324 31.367C391.367 31.1687 392.811 29.6316 392.841 27.5988C392.872 26.2601 392.872 24.4255 392.872 23.1034C392.949 21.7812 393.148 20.3929 395.575 20.1615C397.065 20.1285 398.356 20.1284 399.308 20.0789C401.121 20.0128 402.564 18.6741 402.841 16.2941C402.902 15.6 402.902 15.286 402.841 14.5753C402.626 12.3606 401.213 10.8236 399.308 10.7905C398.294 10.7905 397.096 10.7575 396.313 10.7244C393.21 10.6583 392.933 9.1874 392.857 7.733" fill="white"/>
<path d="M355.197 7.733C355.181 6.44387 355.166 5.12169 355.15 3.79951C355.12 1.78318 353.737 0.196565 351.648 0.0312926C351.065 -0.00176196 350.22 -0.0182892 349.529 0.0312926C347.424 0.213093 346.072 1.81624 346.026 3.79951C345.996 5.13822 345.98 6.57609 345.95 8.04701C345.857 9.40225 345.289 10.7079 342.524 10.7575C342.017 10.7575 340.543 10.7575 339.544 10.7905C337.655 10.8236 336.196 12.3111 336.027 14.5753C335.981 15.2033 335.981 15.5504 336.027 16.2941C336.18 18.5584 337.686 20.0293 339.544 20.0789C340.696 20.1119 341.925 20.1284 343.169 20.145C345.443 20.3102 345.857 21.4672 345.95 22.6571C345.98 24.4255 346.011 26.4914 346.042 27.5988C346.103 29.5325 347.332 31.086 349.544 31.367C350.189 31.4662 351.003 31.4496 351.664 31.367C353.707 31.1687 355.135 29.6316 355.166 27.5988C355.196 26.2601 355.196 24.4255 355.212 23.1034C355.258 21.7812 355.458 20.3929 357.915 20.1615C359.405 20.1285 360.695 20.1284 361.648 20.0789C363.445 20.0128 364.889 18.6741 365.165 16.2941C365.227 15.6 365.211 15.286 365.165 14.5753C364.966 12.3606 363.537 10.8236 361.648 10.7905C360.634 10.7905 359.421 10.7575 358.653 10.7244C355.55 10.6583 355.273 9.1874 355.212 7.733" fill="white"/>
<path d="M359.212 35.9102C357.692 34.2409 355.618 34.1583 354.128 35.4309C348.107 40.6039 337.862 50.041 334.651 53.1647C333.284 54.4868 332.946 56.5693 334.206 58.6352C334.559 59.2136 335.112 59.8913 335.588 60.4201C337.109 62.0067 339.152 62.2051 340.673 60.8994C341.763 59.9574 343.453 58.3707 344.083 57.8749C344.697 57.3956 345.757 57.9245 345.788 59.3459C345.818 60.7672 345.803 77.1127 345.91 80.1867C345.956 82.17 347.216 83.7566 349.505 84.0706C350.165 84.1698 350.995 84.1368 351.671 84.0706C353.775 83.8558 355.25 82.2692 355.28 80.1867C355.403 72.485 355.326 51.1648 355.311 50.0575C355.28 48.9667 355.91 47.1322 356.478 46.6033C357.047 46.0745 359.013 44.2399 360.196 43.1491C361.655 41.7774 361.885 39.5792 360.626 37.6951C360.288 37.1663 359.735 36.439 359.243 35.8936" fill="white"/>
<path d="M405.67 36.0786C404.165 34.4094 402.076 34.3267 400.601 35.5993C394.58 40.7724 385.395 49.0856 382.154 52.2093C380.787 53.5314 380.464 55.5973 381.724 57.6798C382.092 58.2582 382.63 58.9524 383.121 59.4482C384.627 61.0513 386.685 61.2331 388.175 59.9275C394.212 54.6718 400.816 48.7385 406.638 43.3341C408.082 41.9623 408.328 39.7477 407.053 37.8636C406.73 37.3347 406.147 36.624 405.67 36.0786Z" fill="white"/>
</svg>
